<svg width="33" height="34" viewBox="0 0 33 34" fill="none" xmlns="http://www.w3.org/2000/svg">
    <g clip-path="url(#clip0)">
        <circle cx="16.5" cy="16.7727" r="16.5" fill="#009DE0"></circle>
        <g clip-path="url(#clip1)">
            <path
                d="M16.4998 9.04311C19.0174 9.04311 19.3156 9.0527 20.3098 9.09806C21.2291 9.14001 21.7283 9.29361 22.0606 9.4227C22.5006 9.59374 22.8147 9.79809 23.1447 10.128C23.4746 10.4579 23.6789 10.772 23.8499 11.2121C23.9791 11.5444 24.1327 12.0436 24.1746 12.9629C24.22 13.9571 24.2296 14.2553 24.2296 16.7728C24.2296 19.2904 24.22 19.5886 24.1746 20.5828C24.1327 21.502 23.9791 22.0013 23.8499 22.3335C23.6789 22.7736 23.4746 23.0877 23.1447 23.4177C22.8147 23.7476 22.5006 23.9519 22.0606 24.1229C21.7283 24.252 21.2291 24.4056 20.3098 24.4476C19.3157 24.493 19.0175 24.5025 16.4998 24.5025C13.9821 24.5025 13.684 24.493 12.6899 24.4476C11.7706 24.4056 11.2714 24.252 10.9392 24.1229C10.4991 23.9519 10.1849 23.7476 9.85502 23.4177C9.5251 23.0877 9.32075 22.7736 9.14975 22.3335C9.02063 22.0013 8.86703 21.502 8.82507 20.5828C8.77971 19.5886 8.77013 19.2904 8.77013 16.7728C8.77013 14.2553 8.77971 13.9571 8.82507 12.9629C8.86703 12.0436 9.02063 11.5444 9.14975 11.2121C9.32075 10.772 9.5251 10.4579 9.85502 10.128C10.1849 9.79809 10.4991 9.59374 10.9392 9.4227C11.2714 9.29361 11.7706 9.14001 12.6899 9.09806C13.6841 9.0527 13.9823 9.04311 16.4998 9.04311ZM16.4998 7.34424C13.9392 7.34424 13.6181 7.35509 12.6125 7.40098C11.6089 7.44679 10.9235 7.60615 10.3238 7.83924C9.70374 8.0802 9.17793 8.40259 8.65377 8.92675C8.12961 9.45092 7.80721 9.97673 7.56626 10.5967C7.33316 11.1965 7.1738 11.8819 7.12799 12.8855C7.08211 13.8911 7.07129 14.2122 7.07129 16.7728C7.07129 19.3335 7.08211 19.6546 7.12799 20.6602C7.1738 21.6638 7.33316 22.3492 7.56626 22.9489C7.80721 23.5689 8.12961 24.0947 8.65377 24.6189C9.17793 25.1431 9.70374 25.4655 10.3238 25.7064C10.9235 25.9395 11.6089 26.0989 12.6125 26.1447C13.6181 26.1906 13.9392 26.2014 16.4998 26.2014C19.0605 26.2014 19.3816 26.1906 20.3872 26.1447C21.3908 26.0989 22.0762 25.9395 22.6759 25.7064C23.2959 25.4655 23.8218 25.1431 24.3459 24.6189C24.8701 24.0947 25.1925 23.5689 25.4334 22.9489C25.6665 22.3492 25.8259 21.6638 25.8717 20.6602C25.9176 19.6546 25.9284 19.3335 25.9284 16.7728C25.9284 14.2122 25.9176 13.8911 25.8717 12.8855C25.8259 11.8819 25.6665 11.1965 25.4334 10.5967C25.1925 9.97673 24.8701 9.45092 24.3459 8.92675C23.8218 8.40259 23.2959 8.0802 22.6759 7.83924C22.0762 7.60615 21.3908 7.44679 20.3872 7.40098C19.3816 7.35509 19.0605 7.34424 16.4998 7.34424ZM16.4998 11.9311C13.8258 11.9311 11.6581 14.0988 11.6581 16.7728C11.6581 19.4468 13.8258 21.6145 16.4998 21.6145C19.1738 21.6145 21.3416 19.4468 21.3416 16.7728C21.3416 14.0988 19.1738 11.9311 16.4998 11.9311ZM16.4998 19.9157C14.7641 19.9157 13.357 18.5086 13.357 16.7728C13.357 15.0371 14.7641 13.63 16.4998 13.63C18.2356 13.63 19.6427 15.0371 19.6427 16.7728C19.6427 18.5086 18.2356 19.9157 16.4998 19.9157ZM22.6643 11.7398C22.6643 12.3647 22.1577 12.8713 21.5328 12.8713C20.908 12.8713 20.4014 12.3647 20.4014 11.7398C20.4014 11.1149 20.908 10.6084 21.5328 10.6084C22.1577 10.6084 22.6643 11.1149 22.6643 11.7398Z"
                fill="white"></path>
        </g>
    </g>
    <defs>
        <clipPath id="clip0">
            <rect width="33" height="33" fill="white" transform="translate(0 0.272705)"></rect>
        </clipPath>
        <clipPath id="clip1">
            <rect width="18.8571" height="18.8571" fill="white" transform="translate(7.07129 7.34424)"></rect>
        </clipPath>
    </defs>
</svg>