<svg width="34" height="34" viewBox="0 0 34 34" fill="none"
xmlns="http://www.w3.org/2000/svg">
<path fill-rule="evenodd" clip-rule="evenodd"
    d="M17.2266 0.272705C8.11341 0.272705 0.726562 7.65955 0.726562 16.7727C0.726562 25.8848 8.11341 33.2727 17.2266 33.2727C26.3397 33.2727 33.7266 25.8848 33.7266 16.7727C33.7266 7.65955 26.3397 0.272705 17.2266 0.272705V0.272705Z"
    fill="#009DE0"></path>
<path fill-rule="evenodd" clip-rule="evenodd"
    d="M25.4765 25.0073H22.0579V19.6572C22.0579 18.3815 22.0352 16.7408 20.2811 16.7408C18.5021 16.7408 18.2309 18.1309 18.2309 19.5664V25.0073H14.8154V14.0059H18.0927V15.5105H18.1402C18.596 14.6453 19.7118 13.7327 21.3752 13.7327C24.8371 13.7327 25.4765 16.0107 25.4765 18.9735V25.0073Z"
    fill="white"></path>
<path fill-rule="evenodd" clip-rule="evenodd"
    d="M10.9617 12.5033C9.86338 12.5033 8.97754 11.6144 8.97754 10.5202C8.97754 9.42605 9.86338 8.53711 10.9617 8.53711C12.0548 8.53711 12.9427 9.42605 12.9427 10.5202C12.9427 11.6144 12.0548 12.5033 10.9617 12.5033V12.5033Z"
    fill="white"></path>
<path fill-rule="evenodd" clip-rule="evenodd"
    d="M12.6717 25.0072H9.24902V14.0059H12.6717V25.0072Z" fill="white"></path>
</svg>