<svg width="34" height="34" viewBox="0 0 34 34" fill="none"
                                            xmlns="http://www.w3.org/2000/svg">
                                            <path fill-rule="evenodd" clip-rule="evenodd"
                                                d="M16.7734 0.272705C7.66028 0.272705 0.273438 7.65955 0.273438 16.7727C0.273438 25.8848 7.66028 33.2727 16.7734 33.2727C25.8866 33.2727 33.2734 25.8848 33.2734 16.7727C33.2734 7.65955 25.8866 0.272705 16.7734 0.272705"
                                                fill="#009DE0"></path>
                                            <path fill-rule="evenodd" clip-rule="evenodd"
                                                d="M23.3352 13.4078C23.3414 13.5533 23.3455 13.6987 23.3455 13.8461C23.3455 18.3187 19.9404 23.477 13.7137 23.477C11.8017 23.477 10.0228 22.917 8.52441 21.9569C8.78945 21.9878 9.0586 22.0033 9.33188 22.0033C10.9179 22.0033 12.3772 21.4629 13.5363 20.5544C12.0544 20.5276 10.8045 19.5489 10.3734 18.2042C10.5807 18.2434 10.7921 18.264 11.0108 18.264C11.3191 18.264 11.6182 18.2228 11.9028 18.1454C10.3539 17.835 9.18751 16.4665 9.18751 14.8268C9.18751 14.8124 9.18751 14.798 9.18751 14.7835C9.64332 15.0372 10.1662 15.1898 10.721 15.2074C9.81245 14.6 9.21432 13.5636 9.21432 12.39C9.21432 11.7692 9.38138 11.1876 9.67323 10.6874C11.3428 12.7355 13.8374 14.0833 16.6507 14.2246C16.5929 13.9771 16.563 13.7183 16.563 13.4532C16.563 11.5836 18.0789 10.0676 19.9476 10.0676C20.9221 10.0676 21.8018 10.4791 22.4184 11.137C23.1898 10.9854 23.9148 10.7039 24.5686 10.3162C24.3159 11.1061 23.7787 11.7692 23.0805 12.1889C23.7653 12.1064 24.417 11.9249 25.0244 11.6558C24.5707 12.3343 23.9963 12.9304 23.3352 13.4078"
                                                fill="white"></path>
                                        </svg>