<svg xmlns="http://www.w3.org/2000/svg" width="140" height="19"><style>.shp0{fill:#fff}</style><path class="shp0" d="M7.58 15.1c-.34.01-.68 0-1.03-.04-.34-.03-.68-.08-1.01-.16a8.04 8.04 0 0 1-.99-.28 8 8 0 0 1-.95-.41c-.28-.14-.54-.3-.8-.48-.25-.18-.49-.38-.72-.59-.22-.22-.43-.45-.62-.69-.2-.25-.37-.51-.52-.78-.17-.29-.31-.6-.43-.91-.12-.32-.22-.64-.3-.97-.08-.32-.14-.66-.17-.99C0 8.46-.01 8.13 0 7.79c-.01-.34.01-.67.05-1.01.03-.33.1-.66.18-.99.08-.32.19-.64.31-.95a6.998 6.998 0 0 1 .99-1.7c.2-.25.41-.48.64-.7.23-.22.48-.42.74-.61.26-.18.53-.35.82-.49.31-.16.63-.3.97-.42.33-.12.67-.22 1.01-.3.34-.08.69-.14 1.04-.17.35-.04.7-.05 1.06-.04.2-.01.4 0 .6.01A12.323 12.323 0 0 1 9.6.55l.59.12.53.15c.18.05.35.1.53.16.17.06.34.12.52.18.17.07.34.13.51.21v2.4a9.34 9.34 0 0 0-1.1-.44c-.37-.13-.75-.24-1.14-.32-.38-.09-.77-.15-1.16-.19a9.452 9.452 0 0 0-1.87-.04c-.23.02-.46.06-.69.11-.22.06-.44.12-.66.2-.21.09-.42.18-.63.29-.18.1-.36.21-.53.34-.17.12-.33.26-.48.41-.15.15-.29.31-.42.47a4.978 4.978 0 0 0-.83 1.8c-.06.22-.1.45-.12.67-.03.23-.04.46-.03.68-.01.24 0 .47.03.7.02.23.06.45.11.68.05.23.12.45.2.66.08.22.17.43.28.64.1.18.21.36.33.53.13.17.27.33.42.47.15.15.31.29.48.41.17.13.35.24.54.33.2.11.42.2.64.27.22.08.44.14.67.19.23.05.46.09.69.11a8.371 8.371 0 0 0 1.41 0c.24-.01.47-.04.71-.07.23-.03.46-.07.69-.12.23-.05.46-.11.69-.17V9.29H7.62V7.03h5.26v7.04c-.41.17-.84.32-1.28.46-.43.13-.87.24-1.31.32-.45.09-.9.15-1.35.2-.45.04-.9.06-1.36.05ZM19.2 15.1c-1.19 0-2.1-.37-2.74-1.11-.64-.73-.95-1.79-.94-3.17v-6.7H18v6.09c0 .93.17 1.61.51 2.04.34.42.89.63 1.64.63a2.134 2.134 0 0 0 1.01-.18c.16-.06.31-.15.44-.25.14-.11.27-.23.38-.36.11-.15.21-.32.3-.49.08-.18.15-.36.21-.54a3.819 3.819 0 0 0 .13-1.15V4.12h2.49v10.65h-2.4l-.05-1.65c-.07.16-.15.31-.24.45s-.2.27-.31.39c-.11.13-.23.24-.36.35-.13.1-.27.19-.42.28-.16.08-.33.16-.5.23-.17.07-.35.12-.53.16-.18.05-.36.08-.55.1-.18.02-.37.03-.55.02ZM29.01 18.81h-.24c-.08-.01-.16-.02-.23-.02-.08-.01-.16-.02-.24-.04-.08-.01-.15-.03-.23-.05-.07-.02-.15-.03-.22-.05-.08-.02-.15-.05-.23-.07-.07-.02-.14-.04-.22-.07-.07-.02-.14-.05-.22-.07v-2.23c.25.09.52.17.83.25.07.02.14.03.21.05.08.01.15.03.22.04.07.01.14.01.22.02.07 0 .14.01.22.01.12 0 .25 0 .38-.02.12-.01.25-.04.37-.08.12-.03.24-.08.36-.14.11-.05.22-.12.32-.2.37-.29.73-.84 1.07-1.67l-4.6-10.35h2.54l3.33 7.51 3.11-7.51h2.42l-4.35 10.44c-.09.24-.19.47-.3.7-.1.23-.22.45-.34.67-.12.23-.25.44-.38.65-.14.22-.28.42-.43.63-.1.13-.21.26-.33.39-.12.12-.24.23-.37.34-.14.1-.28.2-.42.29a3.209 3.209 0 0 1-.88.39c-.15.05-.3.08-.45.11-.16.03-.31.05-.46.06-.16.02-.31.02-.46.02ZM47.03 15.1c-.33.01-.67 0-1-.04-.33-.03-.67-.08-.99-.16-.33-.07-.65-.17-.97-.28-.31-.12-.62-.25-.92-.41-.27-.14-.53-.31-.78-.49s-.48-.38-.7-.6c-.23-.21-.43-.45-.62-.69-.18-.25-.35-.51-.5-.77-.16-.3-.3-.61-.42-.92-.12-.32-.22-.64-.3-.97-.08-.32-.14-.66-.17-.99-.04-.34-.05-.67-.04-1.01-.01-.25 0-.51.03-.76.02-.25.05-.5.1-.75.04-.25.1-.5.17-.74s.16-.48.25-.72c.09-.22.19-.44.3-.64.11-.21.23-.42.36-.62.13-.19.27-.38.42-.56.15-.19.31-.36.48-.52.18-.17.36-.33.54-.47.19-.15.39-.29.59-.41.2-.13.41-.25.62-.35.22-.11.43-.21.66-.29.24-.09.49-.17.74-.24.25-.07.51-.12.76-.17.26-.04.52-.08.78-.1.26-.02.52-.03.78-.02.19 0 .38 0 .57.02.19.01.38.03.57.05.19.03.38.06.57.1.18.03.37.08.55.12.18.05.35.09.51.15.17.05.34.11.5.17.17.07.33.14.49.21.16.07.32.15.47.24v2.45c-.17-.09-.35-.17-.53-.26-.17-.08-.36-.15-.54-.23-.18-.07-.37-.13-.55-.19-.19-.07-.38-.12-.57-.17-.16-.05-.33-.09-.5-.13l-.51-.09-.51-.06c-.17-.01-.35-.02-.52-.02-.22-.01-.45 0-.67.03-.22.02-.44.06-.66.11-.21.05-.43.12-.64.2-.2.08-.41.17-.6.28-.18.1-.36.21-.52.34-.16.12-.32.26-.46.4a4.334 4.334 0 0 0-.73.99c-.11.2-.2.41-.28.62a4.882 4.882 0 0 0-.31 1.32c-.02.22-.03.45-.03.68-.01.23 0 .46.02.69.03.23.06.45.11.68.05.22.11.45.19.66.08.22.17.43.27.64.1.18.21.36.33.52.13.17.26.33.41.47.14.15.3.28.46.41.17.12.34.23.53.33.2.1.41.19.62.27.21.07.43.14.65.19.22.05.45.08.67.11.23.02.45.03.68.02.18 0 .35-.01.53-.02l.53-.06.53-.09c.17-.04.34-.08.52-.13.18-.04.36-.09.54-.14.17-.06.35-.12.53-.18.17-.06.35-.13.52-.2.17-.07.34-.15.51-.22v2.37c-.16.08-.33.15-.5.22-.17.07-.34.14-.51.2-.18.06-.35.12-.53.17-.17.05-.35.1-.53.15-.19.05-.38.09-.58.13-.19.04-.39.07-.58.09-.2.03-.4.05-.59.06-.2.01-.4.02-.6.02Z"/><path fill-rule="evenodd" class="shp0" d="M56.42 15.07c-.24-.04-.47-.09-.7-.17-.23-.08-.45-.18-.66-.3-.2-.12-.4-.26-.58-.41-.17-.16-.32-.33-.45-.51a2.89 2.89 0 0 1-.32-.6c-.09-.2-.15-.42-.19-.65-.04-.22-.05-.44-.04-.67-.01-.17 0-.33.02-.5.02-.16.05-.33.1-.49.04-.16.1-.31.17-.46.07-.16.15-.3.24-.44s.19-.27.31-.39c.11-.13.23-.24.35-.35.13-.1.27-.2.41-.29.14-.08.29-.16.44-.23.18-.08.36-.15.55-.2.18-.06.37-.11.56-.15.2-.04.39-.06.58-.08.2-.02.39-.02.59-.02.24 0 .48.01.72.03.23.02.47.05.7.1.24.04.47.1.7.17.23.07.46.14.68.24v-.04c0-.9-.24-1.58-.71-2.05-.47-.47-1.2-.7-2.17-.7-.15 0-.3.01-.45.02-.15.01-.3.03-.45.05-.15.02-.3.05-.44.09-.15.03-.3.07-.44.11-.15.05-.3.1-.45.16-.14.06-.29.12-.43.19-.14.06-.28.14-.42.22-.14.07-.27.16-.4.25V4.8c.13-.07.27-.15.41-.21.14-.07.28-.14.42-.2.14-.06.29-.11.43-.17.15-.05.29-.1.44-.14.16-.05.33-.09.5-.13.16-.04.33-.07.5-.1.17-.02.34-.04.51-.05.17-.01.34-.02.52-.02 1.57 0 2.78.41 3.62 1.22.84.81 1.26 1.97 1.27 3.49v6.28h-2.15l-.03-1.55c-.08.14-.17.29-.27.42s-.21.26-.33.38a3.053 3.053 0 0 1-.8.57c-.17.09-.34.17-.51.23-.17.06-.35.12-.53.16-.18.04-.36.08-.55.1-.18.02-.37.02-.55.02-.24.01-.48 0-.72-.03Zm-.61-3.12c.02.12.06.23.1.34.05.1.1.2.17.3.07.09.14.17.23.25.1.08.21.14.33.2.11.06.23.11.35.14.12.04.25.07.37.08.13.02.26.02.39.01.18.02.37.01.55-.02.18-.03.36-.07.54-.14.17-.06.34-.14.49-.24.16-.1.31-.22.44-.34.48-.5.75-1.23.81-2.17-.19-.08-.38-.16-.57-.22-.2-.06-.4-.11-.6-.15-.2-.04-.4-.07-.61-.09-.2-.02-.41-.03-.61-.02-.16-.01-.31-.01-.47 0-.15.02-.31.04-.46.08-.15.04-.29.09-.44.15-.14.06-.28.14-.41.22-.1.07-.19.16-.27.25-.08.1-.14.2-.2.31-.05.11-.09.23-.12.35-.02.12-.03.25-.02.37-.01.12 0 .23.01.34Z"/><path class="shp0" d="M65.5 14.77V4.12h2.36l.02 2.21c.07-.17.14-.34.23-.5.09-.16.18-.31.29-.46.11-.15.23-.28.36-.41.13-.13.27-.25.41-.36.14-.11.29-.2.44-.28.16-.09.32-.15.48-.21.17-.05.34-.09.51-.12.17-.03.35-.04.52-.04.06 0 .12 0 .18.01.06 0 .11 0 .17.01.06 0 .12.01.18.01.05.01.11.02.17.02.06.01.11.02.16.03l.17.03c.05.01.1.03.16.04.05.02.1.04.16.05v2.38c-.07-.02-.13-.04-.2-.05-.06-.02-.12-.03-.19-.05-.06-.01-.13-.02-.19-.04l-.2-.03-.22-.03c-.07-.01-.15-.02-.22-.02-.07-.01-.15-.01-.22-.02h-.22c-.2-.01-.4 0-.6.03a2.43 2.43 0 0 0-1.08.46c-.16.11-.3.25-.43.4-.49.59-.73 1.46-.73 2.59v5H65.5Z"/><path fill-rule="evenodd" class="shp0" d="M74.22 18.63V4.12h2.37l.02 1.81c.09-.17.19-.33.3-.48.12-.15.24-.29.37-.43.13-.13.27-.25.42-.37.15-.11.31-.22.47-.31.17-.1.35-.18.53-.25.18-.07.36-.13.55-.18.19-.04.38-.08.57-.1.19-.02.38-.03.58-.02.22-.01.45 0 .67.03.22.03.44.08.66.14.22.06.43.14.63.23.21.09.41.2.6.32.18.13.36.26.53.41.17.14.33.3.48.47.15.17.28.35.41.53.12.19.23.39.33.59.11.22.21.45.29.69.08.24.15.48.2.72.06.25.1.49.12.74.02.25.03.5.03.75 0 .19-.01.38-.02.57-.02.19-.04.38-.08.57-.03.19-.07.37-.13.56-.05.18-.11.36-.17.54-.07.17-.14.33-.21.49-.08.16-.17.31-.26.47a5.722 5.722 0 0 1-1 1.21c-.13.11-.26.22-.4.32-.13.11-.28.2-.42.29-.15.09-.3.17-.45.24-.16.07-.32.13-.48.19-.16.05-.33.1-.5.14-.17.03-.33.06-.51.08-.17.01-.34.02-.51.02-.18 0-.35 0-.53-.02-.17-.02-.35-.06-.52-.1-.17-.04-.34-.09-.51-.16-.16-.06-.32-.13-.48-.22-.15-.08-.3-.17-.44-.28-.14-.1-.28-.21-.4-.33-.13-.12-.24-.25-.35-.39-.11-.14-.2-.29-.29-.44v5.47h-2.47Zm5.91-5.78c.14-.02.28-.05.42-.09.14-.03.27-.08.4-.13.13-.06.26-.12.38-.2.12-.07.23-.15.34-.24a2.682 2.682 0 0 0 .56-.61 3.131 3.131 0 0 0 .4-.78c.05-.14.09-.29.13-.44.03-.15.06-.3.07-.46.02-.15.02-.3.02-.46 0-.15 0-.3-.02-.46-.01-.15-.04-.3-.07-.45-.04-.15-.08-.3-.13-.44a3.25 3.25 0 0 0-.18-.43c-.07-.12-.14-.24-.22-.36a2.6 2.6 0 0 0-.26-.32 2.755 2.755 0 0 0-1.02-.72c-.13-.06-.26-.1-.4-.14-.14-.04-.28-.06-.42-.08-.14-.02-.28-.02-.42-.02-.15 0-.29 0-.43.02-.15.02-.29.04-.42.08-.14.04-.28.08-.41.14-.13.05-.26.12-.38.19s-.24.15-.34.24c-.11.09-.21.19-.3.29-.1.1-.18.21-.26.32a3.354 3.354 0 0 0-.39.79c-.05.14-.1.29-.13.44-.03.15-.06.3-.07.45-.02.16-.02.31-.02.46 0 .16 0 .31.02.46a3.395 3.395 0 0 0 .2.9c.05.15.11.29.18.42.06.13.13.25.21.36.08.12.16.23.26.33.09.1.19.2.3.28.11.09.22.17.34.24.12.08.25.14.38.2.13.05.27.1.41.13.14.04.28.07.42.08.14.02.28.03.43.03.14 0 .28-.01.42-.02ZM92.13 15.07c-.27-.02-.53-.06-.78-.12-.26-.05-.52-.12-.77-.2-.25-.09-.49-.18-.73-.3a4.824 4.824 0 0 1-1.7-1.31c-.15-.18-.3-.38-.42-.59a5.987 5.987 0 0 1-.6-1.48c-.07-.26-.12-.53-.14-.8-.03-.26-.04-.53-.03-.8-.01-.25 0-.51.03-.76a6.183 6.183 0 0 1 .35-1.48c.09-.24.19-.47.31-.7.11-.21.23-.4.37-.59a4.513 4.513 0 0 1 .96-1.01c.18-.15.37-.28.57-.4.21-.13.43-.24.66-.33a5.103 5.103 0 0 1 1.41-.38c.24-.03.48-.04.73-.03.22-.01.45 0 .67.03.23.03.45.07.67.12.21.06.43.13.64.22.21.08.41.18.6.29.19.11.36.23.53.36.16.14.32.28.47.44.14.15.28.32.4.49.12.17.23.36.33.55a6.946 6.946 0 0 1 .47 1.35c.05.23.08.47.11.7.02.24.03.48.02.72 0 .15 0 .29-.01.43-.02.14-.04.35-.06.64h-7.8c.02.2.07.4.14.6.06.19.14.38.25.55.1.18.22.35.35.5.13.16.28.3.44.43.64.5 1.49.75 2.58.75.34 0 .68-.03 1.01-.09.34-.05.67-.14.99-.25.32-.11.63-.24.93-.4.3-.16.59-.35.86-.56v2.2c-.15.1-.3.19-.45.28-.15.09-.3.17-.46.25l-.48.21c-.17.06-.33.12-.5.18-.17.05-.34.1-.52.14-.18.04-.35.07-.53.1-.18.03-.36.05-.54.06-.18.02-.36.02-.54.02-.27.01-.53 0-.79-.03Zm-.44-9.33c-.17.02-.34.07-.5.13-.17.06-.32.14-.47.24-.15.09-.29.2-.42.32-.13.14-.24.29-.35.45-.1.16-.2.32-.27.5-.08.17-.14.35-.19.53-.05.19-.09.37-.1.56h5.52v-.1c-.01-.04-.01-.07-.01-.11 0-.04-.01-.07-.01-.11-.01-.03-.01-.07-.02-.1-.02-.17-.05-.33-.1-.49-.04-.16-.1-.31-.18-.46-.07-.15-.16-.29-.26-.42-.1-.14-.21-.26-.33-.37-.12-.11-.25-.2-.39-.28-.14-.08-.29-.14-.44-.19-.15-.05-.31-.09-.47-.11-.16-.03-.32-.03-.48-.03-.18 0-.35.01-.53.04Z"/><path class="shp0" d="M99.49 14.77V4.12h2.39l.02 1.7c.07-.16.15-.31.25-.45.09-.14.19-.27.3-.4.12-.13.24-.24.37-.35.13-.11.27-.2.42-.29.15-.09.31-.17.48-.24.16-.07.33-.12.5-.17.18-.04.35-.08.53-.1.18-.02.36-.03.54-.02 1.22 0 2.17.39 2.83 1.17.67.78 1 1.9 1 3.37v6.44h-2.49V8.79c0-1.86-.71-2.79-2.13-2.79a2.24 2.24 0 0 0-1.02.18c-.16.07-.31.15-.45.25-.14.11-.27.22-.38.35-.45.53-.67 1.26-.67 2.21v5.78h-2.49ZM116.48 15.1c-1.25 0-2.18-.36-2.78-1.09-.6-.72-.9-1.78-.9-3.16V6.4h-2.19V4.32h2.19V1.46h2.48V4.3h3.46v2.08h-3.46v4.27c0 .78.13 1.34.4 1.69.07.09.16.17.25.24.1.07.2.13.31.18.11.04.23.08.34.09.12.02.24.03.36.02.1 0 .2-.01.3-.02l.3-.03.29-.06c.1-.03.2-.06.29-.09.09-.02.18-.06.27-.09.09-.03.18-.07.27-.1.09-.04.17-.08.26-.12.08-.05.17-.09.25-.14v2.27c-.1.05-.21.09-.31.13-.11.05-.22.09-.32.12-.11.04-.22.08-.33.11l-.33.09c-.11.02-.23.05-.35.07-.11.02-.23.04-.35.05-.11.01-.23.03-.35.03-.12.01-.23.01-.35.01Z"/><path fill-rule="evenodd" class="shp0" d="M125.53 15.07c-.26-.02-.52-.06-.78-.12a6.53 6.53 0 0 1-.76-.2c-.25-.09-.5-.18-.74-.3a4.824 4.824 0 0 1-1.2-.79c-.17-.16-.34-.33-.5-.52-.15-.18-.29-.38-.42-.59a5.987 5.987 0 0 1-.6-1.48c-.06-.26-.11-.53-.14-.8-.03-.26-.04-.53-.03-.8 0-.25.01-.51.04-.76.02-.25.07-.51.13-.75.05-.25.13-.49.22-.73s.19-.47.31-.7c.11-.2.23-.4.37-.59a4.513 4.513 0 0 1 .96-1.01c.18-.15.37-.28.57-.4.21-.13.43-.23.65-.33.23-.09.46-.17.69-.23a6.05 6.05 0 0 1 1.44-.17c.23-.01.46 0 .68.03.23.02.45.07.67.12.22.06.43.13.65.21.21.09.41.18.61.3.18.1.36.22.52.36.17.13.32.27.47.43.14.15.28.32.4.49.12.18.23.36.33.55.1.22.19.44.27.66.08.23.15.46.2.69.05.23.08.47.11.71.02.23.03.47.02.71 0 .15 0 .3-.01.43-.02.14-.03.36-.06.64h-7.81c.03.21.08.4.14.6.07.19.15.38.25.56.1.17.22.34.35.5.14.15.29.29.45.42.63.5 1.49.75 2.57.75.34 0 .68-.03 1.02-.08.33-.06.66-.14.98-.25.32-.11.64-.25.94-.41.3-.16.58-.35.85-.55v2.19c-.14.1-.29.19-.44.28-.16.09-.31.17-.47.24-.16.08-.32.15-.48.21-.16.06-.33.12-.49.17-.18.06-.35.11-.52.15-.18.04-.36.08-.54.1-.17.03-.35.05-.53.07-.18.01-.36.02-.54.02-.27.01-.53 0-.8-.03Zm-.43-9.33c-.17.02-.34.07-.5.13-.16.07-.32.14-.47.24-.15.09-.28.2-.41.32-.13.14-.25.29-.35.45a3.348 3.348 0 0 0-.57 1.59h5.52v-.1c0-.04 0-.07-.01-.11 0-.04 0-.07-.01-.11 0-.03-.01-.07-.02-.1-.01-.17-.05-.33-.09-.49-.05-.16-.11-.31-.18-.46-.08-.15-.16-.29-.26-.42-.1-.14-.21-.26-.33-.37a2.436 2.436 0 0 0-.84-.47c-.15-.06-.31-.09-.47-.12-.16-.02-.32-.02-.49-.02-.17 0-.35.01-.52.04Z"/><path class="shp0" d="M132.9 14.77V4.12h2.36l.02 2.21c.07-.17.14-.34.23-.5a3.521 3.521 0 0 1 .65-.87 3.521 3.521 0 0 1 .85-.64c.16-.09.32-.15.48-.21.17-.05.34-.09.51-.12.17-.03.35-.04.52-.04.06 0 .12 0 .18.01.05 0 .11 0 .17.01.06 0 .12.01.18.01.06.01.11.02.17.02.06.01.11.02.16.03l.17.03c.05.01.1.03.16.04.05.02.1.03.15.05v2.38c-.06-.02-.12-.04-.19-.05-.06-.02-.13-.03-.19-.05-.06-.01-.13-.02-.19-.04l-.2-.03-.22-.03c-.07-.01-.15-.02-.22-.02-.08-.01-.15-.01-.22-.02h-.23c-.19-.02-.39 0-.59.03-.19.03-.38.09-.57.16-.18.08-.35.18-.51.3-.16.11-.31.25-.43.4-.49.59-.73 1.46-.73 2.59v5h-2.47Z"/><path d="M.01 0H.6v18.81H.01V0Z" style="fill:none"/></svg>