<svg xmlns="http://www.w3.org/2000/svg" width="58" height="19"><style>.shp0{fill:#fff}</style><path class="shp0" d="M0 14.77V.74h2.74l4.84 7.53L12.49.74h2.68v14.03H12.6V4.62l-5.04 7.77-5.01-7.76v10.14H0Z"/><path fill-rule="evenodd" class="shp0" d="M20.31 15.07c-.23-.03-.47-.09-.7-.17a3.929 3.929 0 0 1-1.25-.71c-.17-.16-.32-.33-.45-.51a2.89 2.89 0 0 1-.32-.6c-.09-.2-.15-.42-.19-.65-.04-.22-.06-.44-.05-.67 0-.17.01-.33.03-.5.02-.16.05-.33.1-.49.04-.16.1-.31.17-.46a2.95 2.95 0 0 1 .55-.83c.11-.13.23-.24.36-.35.13-.1.26-.2.41-.29.14-.09.29-.16.44-.23.18-.08.37-.15.55-.21.19-.06.38-.1.58-.14.19-.04.39-.07.58-.08.2-.02.4-.02.59-.02.24 0 .48.01.72.03.24.02.48.05.72.1.23.04.46.1.69.17.23.07.46.14.68.24v-.04c0-.9-.23-1.58-.71-2.05-.47-.47-1.19-.7-2.19-.7-.15 0-.3.01-.45.02-.15.01-.3.03-.45.05-.15.02-.3.05-.45.09-.14.03-.29.07-.43.11-.16.05-.31.1-.45.16-.15.06-.3.12-.44.19-.14.06-.28.14-.42.22-.14.07-.27.16-.4.25V4.8c.13-.07.27-.15.41-.21.14-.07.28-.14.43-.2.14-.06.28-.11.43-.17.15-.05.3-.1.44-.14.17-.05.34-.09.5-.13.17-.04.34-.07.51-.1.17-.02.34-.04.51-.05.18-.01.35-.02.52-.02 1.59 0 2.8.41 3.64 1.22.85.81 1.27 1.97 1.27 3.49v6.28h-2.16l-.04-1.55c-.08.14-.16.28-.26.42-.1.13-.21.26-.33.37-.11.12-.24.23-.38.33-.13.09-.27.18-.42.25-.17.09-.34.17-.51.23-.18.07-.36.12-.54.16-.18.05-.37.08-.55.1-.19.02-.38.03-.56.02-.24.01-.49 0-.73-.03Zm-.6-3.12c.02.12.05.23.09.34.05.1.1.2.17.3.07.09.15.17.23.25.11.08.22.14.33.2.12.06.23.11.36.14.12.04.25.07.37.08.13.02.26.02.39.01.18.02.37.01.55-.02.19-.03.37-.07.54-.14.18-.06.35-.14.5-.24.16-.1.31-.22.44-.34.48-.5.76-1.23.82-2.17-.19-.08-.38-.16-.58-.22-.2-.06-.4-.11-.6-.15-.2-.04-.4-.07-.61-.09-.2-.02-.41-.03-.62-.02a3.53 3.53 0 0 0-.46 0c-.16.02-.31.04-.46.08-.16.04-.3.09-.45.15-.14.06-.28.14-.41.22a1.486 1.486 0 0 0-.47.56c-.06.11-.1.23-.12.35-.03.12-.04.25-.03.37-.01.12 0 .23.02.34Z"/><path class="shp0" d="M29.45 14.77V4.12h2.38l.01 2.21c.07-.17.14-.34.23-.5.09-.16.19-.31.3-.46a3.44 3.44 0 0 1 .77-.77c.14-.11.29-.2.44-.28.16-.09.32-.15.48-.21.17-.05.34-.09.51-.12.18-.03.35-.04.53-.04.06 0 .12 0 .17.01.06 0 .12 0 .18.01.06 0 .12.01.18.01.06.01.11.02.17.02l.17.03.16.03c.05.01.11.03.16.04.05.02.11.04.16.05v2.38c-.07-.02-.13-.04-.19-.05-.07-.02-.13-.03-.2-.05-.06-.01-.13-.02-.19-.04l-.2-.03-.22-.03c-.07-.01-.15-.02-.22-.02-.08-.01-.15-.01-.23-.02h-.22c-.2-.02-.4 0-.59.03-.2.03-.39.09-.57.16-.19.08-.36.18-.52.3-.16.11-.31.25-.44.4-.49.59-.73 1.46-.73 2.59v5h-2.48ZM41.47 15.1c-.11 0-.21 0-.32-.01-.1-.01-.21-.01-.31-.03-.1-.01-.21-.02-.31-.04l-.31-.06c-.11-.02-.22-.04-.33-.07l-.33-.09c-.1-.03-.21-.06-.32-.1-.1-.04-.21-.07-.31-.11-.1-.04-.19-.08-.29-.12-.09-.04-.18-.08-.27-.13-.09-.04-.18-.09-.27-.14-.09-.05-.17-.1-.26-.15v-2.17c.26.18.52.35.8.49a5.744 5.744 0 0 0 1.78.59c.31.05.62.08.94.08.13.01.27.01.41 0 .13-.01.27-.02.4-.04l.4-.09c.13-.04.25-.09.38-.14.08-.04.15-.09.21-.14.07-.06.12-.13.17-.2.04-.08.07-.16.09-.24.02-.09.03-.17.03-.26 0-.08-.01-.16-.03-.24a.849.849 0 0 0-.09-.22.75.75 0 0 0-.15-.2.7.7 0 0 0-.19-.15c-.13-.08-.27-.16-.41-.23-.14-.07-.29-.13-.43-.19-.15-.06-.3-.12-.45-.17-.15-.05-.3-.1-.45-.14-1.21-.38-2.07-.82-2.57-1.33-.12-.14-.24-.28-.34-.44a2.976 2.976 0 0 1-.38-1.05c-.03-.18-.03-.37-.03-.56 0-.22.01-.45.06-.67.04-.22.11-.44.2-.65a3.05 3.05 0 0 1 .84-1.05c.72-.58 1.72-.87 2.97-.87.14 0 .28.01.42.02.14.01.27.03.41.05.14.02.28.05.41.08.14.03.27.06.41.1l.41.12c.14.04.28.09.41.15.13.05.27.11.4.17.13.06.26.13.38.19v2.18c-.11-.08-.23-.15-.35-.22-.12-.08-.24-.14-.37-.2s-.25-.12-.38-.17c-.14-.05-.27-.1-.4-.14l-.42-.12-.42-.09-.43-.06c-.14-.01-.28-.02-.43-.02-1.16 0-1.73.35-1.73 1.05V7l.03.13c.01.05.03.09.05.14.02.04.05.08.07.12.04.04.09.08.13.12.05.05.1.08.15.12l.15.09c.06.03.11.06.17.08.1.05.2.09.3.13l.3.12c.1.04.21.08.31.11.1.04.21.07.31.1.19.06.37.12.56.19.18.06.36.14.54.21.18.08.36.17.54.25.17.09.34.19.51.28.12.07.23.15.34.23.1.08.2.17.3.26.1.09.18.19.27.3.08.1.15.22.22.33a2.954 2.954 0 0 1 .27.76c.03.13.05.27.06.4.01.14.01.27.01.4 0 .24-.02.47-.07.69-.05.22-.13.44-.24.65-.1.2-.23.39-.39.56-.15.18-.32.33-.51.46-.81.58-1.89.87-3.23.87ZM48.07 14.77V.74h2.49v4.9c.08-.14.16-.28.26-.41.09-.14.19-.26.31-.38.11-.11.23-.22.36-.32.13-.1.26-.19.4-.26.16-.09.31-.16.48-.22.16-.07.32-.12.49-.16.17-.04.34-.07.51-.09.18-.02.35-.03.52-.02 1.24 0 2.19.39 2.85 1.17.67.78 1 1.9 1 3.37v6.44h-2.5V8.79c0-1.86-.71-2.79-2.14-2.79a2.24 2.24 0 0 0-1.02.18c-.16.07-.31.15-.46.25-.14.11-.27.22-.38.35-.45.53-.68 1.26-.68 2.21v5.78h-2.49Z"/><path d="M0 0h.59v18.81H0V0Z" style="fill:none"/></svg>