<svg xmlns="http://www.w3.org/2000/svg" width="68" height="19"><style>.shp0{fill:#fff}</style><path class="shp0" d="M.01 14.77V.74h2.75l4.86 7.53L12.53.74h2.68v14.03h-2.57V4.62L7.6 12.39 2.57 4.63v10.14H.01Z"/><path fill-rule="evenodd" class="shp0" d="M23.43 15.1c-.27.01-.54 0-.8-.03-.27-.02-.53-.06-.79-.12-.26-.05-.52-.12-.77-.2-.25-.09-.5-.18-.74-.3-.22-.1-.43-.22-.63-.35-.21-.13-.4-.28-.58-.44-.18-.16-.35-.33-.5-.52-.16-.18-.3-.38-.43-.59a5.987 5.987 0 0 1-.6-1.48c-.07-.26-.11-.53-.14-.8-.03-.26-.04-.53-.03-.8-.01-.25 0-.51.03-.76a6.183 6.183 0 0 1 .35-1.48c.09-.24.19-.47.31-.7.11-.2.24-.4.38-.59.13-.19.28-.37.45-.54.16-.17.33-.33.51-.47a5.08 5.08 0 0 1 1.93-.96 6.05 6.05 0 0 1 1.45-.17c.23-.01.46 0 .69.03.22.02.45.06.67.12.22.05.44.12.65.21.21.08.42.18.62.29.18.11.36.23.53.36.16.14.32.28.47.44.14.15.28.32.4.49.12.17.23.36.33.55.11.21.2.43.27.66a5.01 5.01 0 0 1 .3 1.39c.03.24.03.48.03.72 0 .15 0 .29-.02.43l-.03.63h-7.87c.02.2.07.4.14.59.06.2.15.38.25.56.1.18.22.35.35.5.14.16.29.3.45.43.64.49 1.51.74 2.59.74.35 0 .69-.02 1.02-.08.34-.06.67-.14 1-.25a6.523 6.523 0 0 0 1.8-.96v2.2c-.15.09-.3.19-.45.28-.15.08-.31.17-.47.24-.16.08-.32.15-.48.21-.17.07-.33.13-.5.18-.17.06-.35.11-.53.15-.17.04-.35.08-.53.1-.18.03-.36.05-.54.07-.18.01-.36.02-.54.02Zm-.71-9.4c-.17 0-.35.01-.53.03-.17.03-.34.08-.51.14-.16.06-.32.14-.47.24-.15.09-.29.2-.42.32-.13.14-.25.29-.35.45a3.348 3.348 0 0 0-.47 1.03c-.05.19-.09.37-.1.56h5.56v-.1c0-.04-.01-.07-.01-.11 0-.04-.01-.07-.01-.11-.01-.03-.01-.07-.02-.1-.02-.17-.05-.33-.09-.49-.05-.16-.11-.31-.19-.46-.07-.15-.16-.29-.26-.42-.1-.14-.21-.26-.33-.37a2.436 2.436 0 0 0-.84-.47c-.15-.05-.31-.09-.47-.11-.16-.03-.32-.03-.49-.03Z"/><path class="shp0" d="M30.05 14.77V4.12h2.38l.02 2.21c.07-.17.14-.34.23-.5.09-.16.19-.31.3-.46.11-.15.23-.28.35-.41.13-.13.27-.25.42-.36.14-.11.29-.2.44-.28.16-.09.32-.15.49-.21.17-.05.34-.09.51-.12.18-.03.35-.04.53-.04.06 0 .12 0 .17.01.06 0 .12 0 .18.01.06 0 .12.01.18.01.06.01.11.02.17.02l.17.03.16.03c.06.01.11.03.16.04.06.02.11.04.16.05v2.38c-.13-.04-.27-.07-.41-.1-.14-.03-.28-.05-.42-.07-.14-.02-.28-.04-.42-.05-.14-.01-.28-.02-.42-.02-.2-.01-.4 0-.59.03-.2.03-.39.09-.58.16-.18.08-.35.18-.51.3-.17.11-.31.25-.44.4-.49.59-.74 1.46-.74 2.59v5h-2.49ZM43.71 15.1c-.26.01-.52 0-.78-.03-.26-.02-.51-.07-.77-.12a6.507 6.507 0 0 1-1.46-.53c-.2-.11-.4-.24-.59-.37a4.597 4.597 0 0 1-1-.99c-.14-.19-.27-.39-.38-.59-.12-.23-.23-.46-.32-.7-.09-.25-.16-.49-.22-.74s-.1-.51-.13-.76a9.908 9.908 0 0 1 0-1.55c.03-.26.08-.51.14-.77.06-.25.13-.5.23-.74.09-.24.2-.48.32-.71.11-.21.24-.41.38-.6.15-.19.3-.37.47-.54a4.741 4.741 0 0 1 1.13-.86c.23-.12.46-.23.69-.32a6.363 6.363 0 0 1 1.49-.37c.25-.02.51-.04.76-.03.13 0 .26 0 .39.01s.26.02.39.04c.13.01.26.04.38.06.13.03.26.06.38.09.11.03.23.07.34.11.11.03.22.07.34.11.11.04.22.08.33.13.11.04.22.08.32.13v2.31c-.1-.06-.2-.12-.31-.18l-.33-.15c-.11-.05-.22-.09-.33-.13-.12-.04-.23-.07-.35-.11-.11-.03-.22-.05-.34-.08-.11-.02-.22-.04-.34-.06l-.34-.03c-.11-.01-.23-.02-.34-.02-.22-.01-.44 0-.66.04-.22.04-.43.09-.64.17-.21.08-.4.18-.59.3-.18.12-.36.26-.51.41-.16.17-.29.35-.41.54-.12.2-.22.4-.29.61-.08.22-.14.43-.17.66-.03.22-.04.45-.03.67 0 1.1.3 1.95.9 2.56.59.61 1.42.91 2.49.91h.31l.32-.03c.1-.02.2-.03.31-.05.1-.02.2-.04.3-.07.12-.03.23-.07.35-.1.11-.04.22-.08.34-.12.11-.04.22-.08.33-.13.11-.04.22-.09.33-.14v2.2c-.1.05-.21.1-.31.14-.11.05-.22.09-.33.13-.11.04-.22.08-.33.11-.11.04-.22.07-.33.09-.13.04-.25.06-.38.09l-.38.06-.39.03c-.12.01-.25.01-.38.01Z"/><path fill-rule="evenodd" class="shp0" d="M53.26 15.07c-.27-.02-.53-.06-.79-.12-.26-.05-.52-.12-.77-.2-.25-.09-.5-.18-.74-.3-.22-.1-.43-.22-.63-.35-.21-.13-.4-.28-.58-.44-.18-.16-.35-.33-.5-.52-.16-.18-.3-.38-.42-.59-.14-.23-.26-.47-.36-.72-.1-.25-.19-.5-.25-.76-.07-.26-.11-.53-.14-.8-.03-.26-.04-.53-.03-.8-.01-.25 0-.51.03-.76a6.183 6.183 0 0 1 .35-1.48c.09-.24.19-.47.31-.7.11-.2.24-.4.38-.59.13-.19.28-.37.45-.54.16-.17.33-.33.51-.47a5.08 5.08 0 0 1 1.93-.96 6.05 6.05 0 0 1 1.45-.17c.23-.01.46 0 .69.03.22.02.45.07.67.12.22.06.44.13.65.21.21.09.42.18.62.3.18.1.36.22.53.36.16.13.32.27.47.43.14.15.28.32.4.49.12.18.23.36.33.55.11.22.2.44.27.66.08.23.15.46.2.69.05.23.08.47.1.71.03.23.03.47.03.71 0 .15 0 .3-.02.43l-.05.64H50.5c.02.21.07.4.14.6.06.19.15.38.25.56.1.17.22.34.35.5.14.15.29.29.45.42.64.5 1.51.75 2.59.75.35 0 .69-.03 1.03-.08.33-.06.67-.14.99-.25.33-.11.64-.25.94-.41.3-.16.59-.35.86-.55v2.19c-.14.1-.29.2-.44.28-.16.09-.31.17-.47.25-.16.08-.32.15-.49.21-.16.07-.33.13-.5.18-.17.05-.34.1-.52.14-.18.04-.36.08-.54.1-.18.03-.36.05-.54.06-.18.02-.36.02-.54.02-.27.01-.54 0-.8-.03Zm-.44-9.34c-.17.03-.34.08-.51.14-.16.06-.32.14-.47.24-.15.09-.29.2-.42.32-.13.14-.25.29-.35.45a3.348 3.348 0 0 0-.47 1.03c-.05.19-.09.37-.1.56h5.57v-.1c0-.04 0-.07-.01-.11 0-.04 0-.07-.01-.11 0-.03-.01-.07-.02-.1-.01-.17-.05-.33-.09-.49-.05-.16-.11-.31-.19-.46-.07-.15-.16-.29-.26-.42-.09-.14-.21-.26-.33-.37a2.436 2.436 0 0 0-.84-.47c-.16-.06-.32-.09-.48-.12-.16-.02-.32-.02-.49-.02-.17 0-.35.01-.53.03Z"/><path class="shp0" d="M60.89 14.77V4.12h2.39l.02 2.21c.06-.17.14-.34.22-.5.09-.16.19-.31.3-.46.11-.15.23-.28.36-.41.13-.13.27-.25.41-.36.14-.11.29-.2.45-.28.15-.09.32-.15.48-.21.17-.05.34-.09.51-.12.18-.03.35-.04.53-.04.06 0 .12 0 .18.01.06 0 .11 0 .17.01.06 0 .12.01.18.01.06.01.12.02.18.02l.16.03c.06.01.11.02.16.03.06.01.11.03.17.04.05.02.1.04.15.05v2.38c-.06-.02-.12-.04-.19-.05-.06-.02-.13-.03-.19-.05-.07-.01-.13-.02-.2-.04l-.19-.03-.23-.03c-.07-.01-.15-.02-.22-.02-.08-.01-.15-.01-.23-.02h-.22c-.2-.02-.4 0-.59.03-.2.03-.39.09-.58.16-.18.08-.35.18-.52.3-.16.11-.3.25-.43.4-.49.59-.74 1.46-.74 2.59v5h-2.49Z"/><path d="M.01 0h.6v18.81h-.6V0Z" style="fill:none"/></svg>