<svg xmlns="http://www.w3.org/2000/svg" width="131" height="19"><style>.shp0{fill:#fff}</style><path fill-rule="evenodd" class="shp0" d="M6.59 15.07c-.25-.02-.49-.06-.73-.1-.25-.05-.49-.11-.72-.18a8.24 8.24 0 0 1-.7-.24c-.22-.09-.43-.19-.64-.3-.21-.11-.41-.23-.6-.36-.2-.13-.39-.27-.57-.42-.18-.15-.35-.31-.52-.47-.16-.17-.32-.35-.47-.53-.14-.18-.28-.37-.41-.57-.13-.19-.25-.39-.36-.6-.11-.21-.21-.42-.3-.64-.09-.23-.18-.46-.25-.7-.07-.24-.13-.48-.17-.73C.1 8.99.07 8.75.04 8.5a9.401 9.401 0 0 1 0-1.49c.03-.25.06-.49.11-.74.04-.24.1-.48.17-.72s.16-.47.25-.71c.09-.21.19-.42.3-.63.11-.21.23-.41.36-.61.13-.19.27-.38.41-.56.15-.19.31-.36.47-.53.17-.16.34-.32.52-.47a7.588 7.588 0 0 1 1.17-.78A7.454 7.454 0 0 1 5.14.71c.23-.07.47-.12.72-.17.24-.05.48-.08.73-.1.24-.03.49-.04.74-.03.24-.01.49 0 .74.03.24.02.49.05.73.1s.48.1.72.17c.23.07.47.16.7.25.21.09.42.19.63.3.21.11.41.23.6.36.2.13.39.27.57.42.18.15.35.31.52.47.16.17.32.34.47.53.15.18.29.37.42.56a7.501 7.501 0 0 1 .66 1.25c.09.23.17.46.24.7.07.24.13.48.18.72.04.25.08.49.1.74a9.341 9.341 0 0 1 0 1.49c-.02.25-.06.49-.1.73a8.643 8.643 0 0 1-.42 1.43c-.09.22-.19.43-.3.64-.11.21-.23.41-.36.6-.13.2-.27.39-.42.57-.15.19-.31.36-.47.53-.17.16-.34.32-.52.47-.18.15-.37.29-.57.42-.19.13-.39.25-.6.36-.21.11-.42.21-.63.3-.23.09-.47.17-.7.24-.24.07-.48.13-.72.18-.24.04-.49.08-.73.1a9.341 9.341 0 0 1-1.48 0Zm.74-2.34c.21 0 .41-.01.62-.04.21-.02.41-.06.61-.12.21-.05.4-.12.59-.2.2-.09.38-.18.56-.29a4.367 4.367 0 0 0 .94-.78c.14-.15.27-.31.39-.48.12-.16.22-.34.32-.52.1-.2.19-.4.26-.61a5.048 5.048 0 0 0 .3-1.29c.03-.22.03-.44.03-.66.01-.22 0-.44-.03-.66-.02-.22-.06-.44-.11-.66a5.17 5.17 0 0 0-.19-.64c-.07-.2-.16-.41-.26-.61-.1-.18-.21-.35-.32-.52-.12-.17-.25-.33-.39-.48-.14-.15-.29-.29-.44-.42-.16-.13-.33-.25-.5-.36a5.12 5.12 0 0 0-1.15-.49c-.2-.05-.4-.09-.61-.12a6.433 6.433 0 0 0-1.25 0c-.2.03-.41.07-.61.12-.2.06-.4.12-.59.21-.19.08-.38.17-.55.28-.18.11-.34.23-.5.36-.16.13-.31.27-.45.42-.14.15-.27.31-.38.48-.12.17-.23.34-.32.52-.11.2-.19.41-.27.61-.08.21-.14.43-.19.64-.05.22-.09.44-.11.66a7.286 7.286 0 0 0 0 1.32 5.048 5.048 0 0 0 .3 1.29c.08.21.16.41.27.61.09.18.2.36.31.52a4.537 4.537 0 0 0 .84.9c.15.13.32.25.5.36.17.11.36.21.55.29.19.08.39.15.59.21.2.05.41.1.61.12.21.03.42.04.63.04v-.01Z"/><path class="shp0" d="M16.79 14.77V.74h2.5v14.03h-2.5ZM24.84 1.53c0 .1 0 .2-.02.3-.02.1-.04.2-.08.29-.04.1-.08.19-.14.27-.05.09-.12.17-.19.24-.15.14-.32.25-.51.32-.19.08-.39.11-.6.11-.2 0-.4-.03-.59-.11-.19-.07-.37-.18-.52-.32-.07-.07-.13-.15-.19-.24-.05-.08-.1-.17-.13-.27a.961.961 0 0 1-.08-.29c-.02-.1-.03-.2-.02-.3-.01-.1 0-.2.02-.3.01-.1.04-.2.08-.29.03-.09.08-.18.13-.27.06-.08.12-.16.19-.24.15-.13.33-.24.52-.32.19-.07.39-.11.59-.11.21 0 .41.04.6.11.19.08.36.19.51.32.07.08.14.16.19.24.06.08.1.18.14.27.04.09.06.19.08.29.02.1.02.2.02.3Zm-2.78 13.24V4.12h2.5v10.65h-2.5ZM30.26 14.77 26.01 4.12h2.53l3.06 7.79 3.02-7.79h2.4L32.8 14.77h-2.54Z"/><path fill-rule="evenodd" class="shp0" d="M42.73 15.07c-.27-.02-.53-.06-.79-.12-.26-.05-.52-.12-.77-.2-.25-.09-.5-.18-.74-.3-.22-.1-.43-.22-.63-.35-.2-.13-.4-.28-.58-.44-.17-.16-.34-.33-.5-.52a4.838 4.838 0 0 1-.78-1.31c-.1-.25-.18-.5-.25-.76s-.12-.53-.14-.79c-.03-.27-.04-.54-.04-.81a6.45 6.45 0 0 1 .17-1.51c.06-.25.13-.49.22-.73s.2-.47.32-.7a5.267 5.267 0 0 1 .82-1.13c.16-.17.33-.33.52-.47.18-.15.37-.28.57-.4a5.08 5.08 0 0 1 1.35-.56 6.05 6.05 0 0 1 1.45-.17c.23-.01.46 0 .68.03.23.02.45.06.68.12.22.05.43.12.65.21.21.08.41.18.61.29.19.11.36.23.53.36.17.14.32.28.47.44.15.15.28.32.4.49.13.18.24.36.33.55.11.21.2.43.28.66a5.617 5.617 0 0 1 .29 1.39c.03.24.03.48.03.72 0 .15 0 .29-.02.43s-.03.35-.06.64h-7.83c.02.2.07.4.14.6.06.19.15.38.25.55.1.18.22.35.35.5.14.16.29.3.45.43.64.5 1.5.75 2.59.75.34 0 .68-.03 1.02-.09.34-.05.67-.14.99-.25.33-.11.64-.24.94-.4.3-.16.59-.35.86-.56v2.2c-.14.1-.29.19-.45.28-.15.09-.3.17-.46.25-.16.07-.32.14-.49.21-.16.06-.33.12-.49.18-.18.05-.35.1-.53.14-.18.04-.35.07-.53.1-.18.03-.36.05-.54.06-.19.02-.37.02-.55.02-.26.01-.53 0-.79-.03Zm-.44-9.34c-.17.03-.35.08-.51.14-.17.06-.32.14-.47.24-.15.09-.29.2-.42.32-.13.14-.25.29-.35.45a3.348 3.348 0 0 0-.47 1.03c-.05.19-.09.37-.1.56h5.55v-.1c0-.04-.01-.07-.01-.11 0-.04-.01-.07-.01-.11 0-.03-.01-.07-.02-.1-.01-.17-.05-.33-.09-.49-.05-.16-.11-.31-.19-.46-.07-.15-.16-.29-.26-.42-.09-.14-.2-.26-.33-.37-.12-.11-.25-.2-.4-.28-.14-.08-.28-.14-.44-.19-.15-.05-.31-.09-.47-.11-.16-.03-.32-.03-.48-.03-.18 0-.36.01-.53.03Z"/><path class="shp0" d="M50.13 14.77V4.12h2.38l.02 2.21c.06-.17.14-.34.23-.5.09-.16.18-.31.29-.46.11-.15.23-.28.36-.41.13-.13.27-.25.42-.36.14-.11.28-.2.44-.28.16-.09.32-.15.48-.21.17-.05.34-.09.51-.12.18-.03.35-.04.53-.04.06 0 .12 0 .18.01.05 0 .11 0 .17.01.06 0 .12.01.18.01.06.01.12.02.17.02l.17.03.16.03c.05.01.11.03.16.04.05.02.11.04.16.05v2.38c-.06-.02-.13-.04-.19-.05-.07-.02-.13-.03-.2-.05-.06-.01-.13-.02-.19-.04l-.2-.03-.22-.03c-.07-.01-.15-.02-.22-.02-.08-.01-.15-.01-.23-.02h-.22c-.2-.02-.4 0-.59.03-.2.03-.39.09-.58.16-.18.08-.35.18-.51.3-.16.11-.31.25-.44.4-.49.59-.73 1.46-.73 2.59v5h-2.49ZM62.24 14.77 58 .74h2.52l3.15 10.37L66.78.92h2.38l3.15 10.17L75.48.74h2.41l-4.24 14.03h-2.54l-3.2-10.25-3.13 10.25h-2.54ZM80.05 18.81h-.24c-.08-.01-.16-.02-.24-.02-.07-.01-.15-.02-.23-.04-.08-.01-.16-.03-.23-.05-.08-.02-.16-.03-.23-.05-.08-.02-.16-.05-.23-.07-.08-.02-.15-.04-.23-.07-.07-.02-.15-.05-.22-.07v-2.23c.25.09.53.17.83.25.07.02.14.03.22.05.07.01.14.03.21.04.08.01.15.01.22.02.08 0 .15.01.22.01.13 0 .26 0 .39-.02.12-.01.25-.04.37-.08.13-.03.25-.08.36-.14.11-.05.22-.12.33-.2.37-.28.72-.84 1.07-1.67L77.81 4.12h2.56l3.35 7.51 3.12-7.51h2.43L84.9 14.56c-.09.24-.19.47-.3.7-.1.23-.22.45-.34.67-.12.23-.25.44-.39.65-.14.22-.28.42-.43.63-.1.13-.21.26-.33.38-.12.13-.24.24-.37.35-.13.1-.27.2-.42.29-.14.09-.29.17-.44.24-.15.06-.3.11-.45.15-.15.05-.3.08-.45.11-.15.03-.31.05-.46.07-.16.01-.31.01-.47.01ZM90.62 14.77V4.12h2.41l.02 1.7c.07-.16.15-.3.24-.44.1-.14.2-.28.31-.4.11-.13.23-.25.36-.35.13-.11.27-.21.41-.3.15-.09.31-.17.47-.24.16-.07.33-.13.5-.17.17-.05.34-.08.51-.1.18-.03.35-.03.53-.03 1.64 0 2.76.71 3.36 2.15a3.32 3.32 0 0 1 .57-.89 3.298 3.298 0 0 1 .82-.68c.16-.1.33-.19.5-.26.18-.08.36-.14.54-.19.18-.05.37-.09.56-.11.18-.03.37-.04.56-.03 1.25 0 2.21.39 2.88 1.17.67.78 1.01 1.91 1.01 3.38v6.44h-2.5V8.79c0-1.86-.71-2.79-2.15-2.79-.16-.01-.33 0-.49.03-.17.03-.33.08-.48.15-.15.07-.29.16-.43.26-.13.1-.25.21-.35.34-.42.53-.63 1.26-.63 2.21v5.78h-2.5v-6c0-1.85-.7-2.77-2.11-2.77a2.056 2.056 0 0 0-.98.18c-.16.06-.3.15-.44.25-.13.1-.25.22-.36.34-.43.52-.64 1.25-.64 2.18v5.82h-2.5Z"/><path fill-rule="evenodd" class="shp0" d="M112.13 15.07c-.24-.03-.47-.09-.7-.17a3.929 3.929 0 0 1-1.25-.71c-.17-.16-.32-.33-.45-.51-.13-.19-.24-.39-.33-.6a2.982 2.982 0 0 1-.23-1.32c-.01-.17 0-.33.02-.5.02-.16.06-.33.1-.49.05-.16.11-.31.17-.46.07-.16.15-.3.24-.44.1-.14.2-.27.31-.39.12-.13.24-.24.36-.35.13-.1.27-.2.41-.29a4.054 4.054 0 0 1 .99-.43c.19-.06.38-.11.57-.15.2-.04.39-.06.59-.08.19-.02.39-.02.59-.02.24 0 .48.01.72.03.24.02.48.05.71.1.24.04.47.1.7.17.23.07.46.14.68.24v-.04c0-.9-.24-1.58-.71-2.05-.48-.47-1.21-.7-2.19-.7-.16 0-.31.01-.46.02-.15.01-.3.03-.45.05-.15.02-.3.05-.44.09-.15.03-.3.07-.44.11-.15.05-.3.1-.45.16-.15.06-.29.12-.44.19-.14.06-.28.14-.42.22-.14.07-.27.16-.4.25V4.8c.13-.07.27-.15.41-.21.14-.07.28-.14.43-.2.14-.06.29-.11.43-.17.15-.05.3-.1.45-.14.16-.05.33-.09.5-.13.17-.04.33-.07.5-.1.18-.02.35-.04.52-.05.17-.01.34-.02.51-.02 1.59 0 2.81.41 3.65 1.22.84.81 1.27 1.97 1.28 3.49v6.28h-2.16l-.04-1.55c-.08.14-.16.29-.26.42s-.21.26-.33.38c-.12.11-.25.22-.39.32-.13.09-.28.18-.43.25-.16.09-.33.17-.51.23a4.856 4.856 0 0 1-1.08.26c-.18.02-.37.02-.55.02-.25.01-.49 0-.73-.03Zm-.61-3.12c.02.12.06.23.1.34.05.1.1.2.17.3.07.09.15.17.23.25.11.08.21.14.33.2.11.06.23.11.36.14.12.04.25.07.37.08.13.02.26.02.39.01.18.02.37.01.56-.02.18-.02.37-.07.54-.13.18-.07.35-.15.51-.25.16-.1.3-.21.44-.34.48-.5.75-1.23.81-2.17-.18-.08-.38-.16-.57-.22a6.409 6.409 0 0 0-1.21-.24c-.21-.02-.42-.03-.62-.02-.16-.01-.31-.01-.47 0-.15.02-.31.04-.46.08-.15.04-.3.09-.44.15-.15.06-.29.14-.42.22-.1.07-.19.15-.27.25-.08.09-.15.2-.21.31-.05.11-.1.23-.12.35-.03.12-.04.25-.04.37s0 .23.02.34Z"/><path class="shp0" d="M121.26 14.77V4.12h2.41l.02 1.7c.07-.16.15-.31.24-.45.1-.14.2-.27.31-.4.12-.13.24-.24.37-.35.13-.11.27-.2.42-.29.16-.09.32-.17.48-.24.17-.07.34-.12.52-.17.17-.04.35-.08.53-.1.17-.02.35-.03.53-.02 1.24 0 2.19.39 2.86 1.17.66.78 1 1.9 1 3.37v6.44h-2.5V8.79c0-1.86-.72-2.79-2.15-2.79a2.272 2.272 0 0 0-1.02.18c-.15.07-.31.15-.45.26-.14.1-.27.21-.38.34-.45.53-.68 1.26-.68 2.21v5.78h-2.51Z"/><path d="M.01 0H0h.01Z" style="fill:none"/></svg>