<svg xmlns="http://www.w3.org/2000/svg">
  <defs>
    <symbol id="audio-description" viewBox="0 0 24 24">
      <path fill="currentColor" fill-rule="evenodd" d="m10.228 14.25-.29-1.104H8.024l-.3 1.104H5.978l1.921-5.914h2.123l1.946 5.914h-1.74Zm-.62-2.409-.255-.966a36.063 36.063 0 0 1-.215-.834 17.759 17.759 0 0 1-.167-.734c-.024.137-.072.362-.143.675-.072.314-.23.933-.474 1.857l1.254.002ZM18 11.18a3.042 3.042 0 0 1-.812 2.273 3.115 3.115 0 0 1-2.282.797h-1.905V8.36h2.038a3.075 3.075 0 0 1 2.19.726A2.737 2.737 0 0 1 18 11.18Zm-1.65.056a1.87 1.87 0 0 0-.32-1.2 1.184 1.184 0 0 0-.975-.39h-.464v3.3h.355a1.28 1.28 0 0 0 1.063-.422c.255-.379.375-.832.341-1.287Z"/>
      <path fill="currentColor" fill-rule="evenodd" d="M3.75 5.25A.75.75 0 0 0 3 6v10.5c0 .414.336.75.75.75H14l2.8 2.1a.75.75 0 0 0 1.2-.6v-1.5h2.25a.75.75 0 0 0 .75-.75V6a.75.75 0 0 0-.75-.75H3.75Zm.75 10.5v-9h15v9h-2.25a.75.75 0 0 0-.75.75v.75l-1.8-1.35a.75.75 0 0 0-.45-.15H4.5Z"/>
    </symbol>
    <symbol id="blindness" viewBox="0 0 24 24">
      <path fill="currentColor" fill-rule="evenodd" d="M8.25 5.25a2.25 2.25 0 1 1 4.5 0 2.25 2.25 0 0 1-4.5 0Zm2.25-.75a.75.75 0 1 0 0 1.5.75.75 0 0 0 0-1.5Z"/>
      <path fill="currentColor" d="M16.971 14.304a.75.75 0 0 1 .975.418l1.5 3.75a.75.75 0 0 1-1.392.556l-1.5-3.75a.75.75 0 0 1 .418-.974ZM9 12.75v-2.536l-1.637.817-.651 1.956a.75.75 0 0 1-1.424-.474l.652-1.955c.125-.377.395-.689.75-.867h.001L9.255 8.41v-.001c.209-.105.439-.16.672-.159h1.675a1.5 1.5 0 0 1 1.242.659l1.275 1.874 2.042 1.34a.75.75 0 1 1-.822 1.254l-2.04-1.338h-.001a1.492 1.492 0 0 1-.42-.414L11.601 9.75H10.5v3a.75.75 0 0 0 .3.6l2.17 1.63v.001c.294.22.497.54.57.9l.002.003.693 3.469a.75.75 0 1 1-1.47.294l-.693-3.465-.002-.001L9.9 14.55a2.252 2.252 0 0 1-.9-1.8Z"/>
      <path fill="currentColor" d="M9.67 16.085a.75.75 0 1 0-1.34-.67l-1.5 3a.75.75 0 1 0 1.34.67l1.5-3Z"/>
    </symbol>
    <symbol id="closed-captioning" viewBox="0 0 24 24">
      <path fill="currentColor" d="M8.998 10.674c-.18.105-.323.261-.412.45a1.943 1.943 0 0 0-.18.86v.065a1.69 1.69 0 0 0 .337 1.127 1.12 1.12 0 0 0 .858.325.752.752 0 0 1 .059 0c.307.004.612-.047.9-.15a.75.75 0 1 1 .51 1.41 4.033 4.033 0 0 1-1.407.24 2.617 2.617 0 0 1-2.077-.869 3.19 3.19 0 0 1-.68-2.148 3.445 3.445 0 0 1 .32-1.495l.002-.004c.22-.467.58-.856 1.028-1.114l.012-.007c.452-.25.962-.375 1.478-.364a3.51 3.51 0 0 1 1.564.358.75.75 0 1 1-.66 1.347 2.01 2.01 0 0 0-.903-.205h-.026a1.438 1.438 0 0 0-.723.174Zm4.951.45c.09-.188.233-.345.413-.45.221-.12.47-.18.723-.174h.026a2 2 0 0 1 .902.205.75.75 0 1 0 .66-1.347A3.505 3.505 0 0 0 15.11 9a2.937 2.937 0 0 0-1.478.364l-.013.007a2.536 2.536 0 0 0-1.027 1.114l-.003.005a3.445 3.445 0 0 0-.32 1.493 3.186 3.186 0 0 0 .72 2.2 2.617 2.617 0 0 0 2.039.817c.479.005.955-.076 1.405-.239a.75.75 0 1 0-.508-1.41 2.537 2.537 0 0 1-.902.15h-.06a1.116 1.116 0 0 1-.86-.324 1.686 1.686 0 0 1-.335-1.127.747.747 0 0 0 .002-.067c-.007-.296.054-.59.179-.86Z"/>
      <path fill="currentColor" fill-rule="evenodd" d="M3 6.75A.75.75 0 0 1 3.75 6h16.5a.75.75 0 0 1 .75.75v10.5a.75.75 0 0 1-.75.75H3.75a.75.75 0 0 1-.75-.75V6.75Zm1.5.75v9h15v-9h-15Z"/>
    </symbol>
    <symbol id="screen-reader" viewBox="0 0 24 24">
      <path fill="currentColor" d="M5.25 6a.75.75 0 0 0-.75.75v10.5a.75.75 0 0 0 .75.75.75.75 0 0 1 0 1.5A2.25 2.25 0 0 1 3 17.25V6.75A2.25 2.25 0 0 1 5.25 4.5h13.5A2.25 2.25 0 0 1 21 6.75V9a.75.75 0 0 1-1.5 0V6.75a.75.75 0 0 0-.75-.75H5.25Z"/>
      <path fill="currentColor" fill-rule="evenodd" d="M15.335 9.83a.75.75 0 0 1 .415.67v9a.75.75 0 0 1-1.2.6l-2.8-2.1h-3.5a.75.75 0 0 1-.75-.75v-4.5a.75.75 0 0 1 .75-.75h3.5l2.8-2.1a.75.75 0 0 1 .785-.07ZM14.25 12l-1.8 1.35a.75.75 0 0 1-.45.15H9v3h3a.75.75 0 0 1 .45.15l1.8 1.35v-6Z"/>
      <path fill="currentColor" d="M18.652 10.625a.75.75 0 1 0-.829 1.25 3.75 3.75 0 0 1 0 6.25.75.75 0 0 0 .83 1.25 5.25 5.25 0 0 0 0-8.75Z"/>
    </symbol>
    <symbol id="wheelchair" viewBox="0 0 24 24">
      <path fill="currentColor" fill-rule="evenodd" d="M15.75 3a2.25 2.25 0 1 0 0 4.5 2.25 2.25 0 0 0 0-4.5ZM15 5.25a.75.75 0 1 1 1.5 0 .75.75 0 0 1-1.5 0Z"/>
      <path fill="currentColor" d="M12.444 15a1.951 1.951 0 0 1-1.745-2.825L12.285 9h-2.223l-2.03 2.03A.75.75 0 1 1 6.97 9.97L9 7.94a1.5 1.5 0 0 1 1.06-.44h3.13a1.5 1.5 0 0 1 1.06.44l2.4 2.4 2.514-1.26a.75.75 0 1 1 .672 1.34l-2.515 1.262a1.5 1.5 0 0 1-1.732-.282l-1.885-1.885-1.664 3.332-.001.003a.45.45 0 0 0 .404.65h3.307a1.495 1.495 0 0 1 1.103.484A1.494 1.494 0 0 1 17.25 15v1.5a.75.75 0 0 1-1.5 0V15h-3.306ZM15 19.5a1.5 1.5 0 1 1 3 0 1.5 1.5 0 0 1-3 0Z"/>
      <path fill="currentColor" d="M9 13.5a3 3 0 1 0 3 3 .75.75 0 0 1 1.5 0A4.5 4.5 0 1 1 9 12a.75.75 0 0 1 0 1.5Z"/>
    </symbol>
  </defs>
</svg>
