<svg xmlns="http://www.w3.org/2000/svg">
  <defs>
    <symbol id="brush" viewBox="0 0 24 24">
      <path fill="currentColor" fill-rule="evenodd" d="M16.345 4.345 9.22 11.47a.75.75 0 0 0 0 1.06l2.25 2.25a.75.75 0 0 0 1.06 0l6-6h.001l1.124-1.125a2.342 2.342 0 0 0-3.31-3.31Zm2.25 1.06a.842.842 0 0 0-1.19 0L16.811 6 18 7.19l.595-.595a.842.842 0 0 0 0-1.19ZM12 13.19l4.94-4.939-1.19-1.19L10.81 12 12 13.19Z"/>
      <path fill="currentColor" d="m3.751 19.46.749.04.041.749a.751.751 0 0 1-.79-.79Z"/>
      <path fill="currentColor" fill-rule="evenodd" d="m3.751 19.46.749.04.041.749h.013l.03-.003.116-.008a19.486 19.486 0 0 0 1.713-.2c.494-.08 1.037-.192 1.525-.348.462-.148.983-.368 1.335-.72a3 3 0 1 0-4.243-4.243c-.352.352-.572.873-.72 1.335a10.894 10.894 0 0 0-.35 1.525 19.508 19.508 0 0 0-.206 1.828l-.002.032v.012Zm2.34-3.672a1.5 1.5 0 1 1 2.122 2.12c-.087.088-.317.22-.733.353-.39.125-.852.223-1.31.298-.3.049-.59.087-.844.115.028-.254.066-.544.115-.845a9.46 9.46 0 0 1 .298-1.31c.133-.415.265-.644.352-.731Z"/>
    </symbol>
    <symbol id="canvas" viewBox="0 0 24 24">
      <path fill="currentColor" fill-rule="evenodd" d="M12 3a.75.75 0 0 1 .75.75v.75H18a.75.75 0 0 1 .75.75v10.5a.75.75 0 0 1-.75.75h-1.96l.416 1.246.011.033.745 2.234a.75.75 0 0 1-1.423.474l-.58-1.737H8.791l-.58 1.737a.75.75 0 0 1-1.423-.474l.745-2.234a.787.787 0 0 1 .011-.033l.415-1.246H6a.75.75 0 0 1-.75-.75V5.25A.75.75 0 0 1 6 4.5h5.25v-.75A.75.75 0 0 1 12 3ZM9.017 15H6.75V6h10.5v9h-2.232a.68.68 0 0 0-.035 0H9.017Zm.524 1.5-.25.75h5.418l-.25-.75H9.541Z"/>
    </symbol>
    <symbol id="code" viewBox="0 0 24 24">
      <path fill="currentColor" d="M9.53 8.03a.75.75 0 0 0-1.06-1.06l-4.5 4.5a.75.75 0 0 0 0 1.06l4.5 4.5a.75.75 0 0 0 1.06-1.06L5.56 12l3.97-3.97Zm6-1.06a.75.75 0 1 0-1.06 1.06L18.44 12l-3.97 3.97a.75.75 0 1 0 1.06 1.06l4.5-4.5a.75.75 0 0 0 0-1.06l-4.5-4.5Z"/>
    </symbol>
    <symbol id="creative-commons" viewBox="0 0 24 24">
      <path fill="currentColor" d="M9.529 9c.45-.007.896.092 1.3.29a.75.75 0 0 1-.659 1.347 1.354 1.354 0 0 0-.62-.137h-.014c-.595 0-.863.203-1.012.41-.18.25-.274.634-.274 1.09 0 .456.094.84.274 1.09.15.207.417.41 1.012.41h.014c.215.004.427-.043.62-.137a.75.75 0 1 1 .66 1.347c-.405.198-.85.297-1.301.29-1.01-.002-1.757-.387-2.223-1.035-.436-.607-.556-1.35-.556-1.965 0-.616.12-1.357.556-1.965C7.772 9.387 8.519 9.002 9.529 9Zm6.551.29A2.854 2.854 0 0 0 14.779 9c-1.01.002-1.757.387-2.223 1.035C12.12 10.642 12 11.385 12 12c0 .616.12 1.358.556 1.965.466.648 1.213 1.033 2.223 1.035.45.007.896-.092 1.3-.29a.75.75 0 0 0-.659-1.347 1.352 1.352 0 0 1-.62.137h-.014c-.595 0-.863-.203-1.012-.41-.18-.25-.274-.634-.274-1.09 0-.456.094-.84.274-1.09.15-.207.417-.41 1.012-.41h.014c.215-.004.427.043.62.137a.75.75 0 1 0 .66-1.347Z"/>
      <path fill="currentColor" fill-rule="evenodd" d="M3 12a9 9 0 1 1 18 0 9 9 0 0 1-18 0Zm9-7.5a7.5 7.5 0 1 0 0 15 7.5 7.5 0 0 0 0-15Z"/>
    </symbol>
    <symbol id="design" viewBox="0 0 24 24">
      <path fill="currentColor" fill-rule="evenodd" d="M6.97 3.97a.75.75 0 0 1 1.06 0l3.595 3.594 3.594-3.594a.75.75 0 0 1 1.06 0l3.75 3.75a.75.75 0 0 1 0 1.06l-3.594 3.595 2.845 2.845a.75.75 0 0 1 .205.383l.75 3.75a.75.75 0 0 1-.882.882l-3.75-.75a.75.75 0 0 1-.383-.205l-2.845-2.845L8.78 20.03a.75.75 0 0 1-1.06 0l-3.75-3.75a.75.75 0 0 1 0-1.06l3.594-3.595L3.97 8.03a.75.75 0 0 1 0-1.06l3-3Zm4.06 8.25-.97-.97 1.19-1.19.22.22a.75.75 0 1 0 1.06-1.06L12.31 9l1.19-1.19.97.97a.75.75 0 1 0 1.06-1.06l-.97-.97 1.19-1.19 2.689 2.69-10.19 10.19-2.689-2.69 1.19-1.19.22.22a.75.75 0 0 0 1.06-1.06l-.22-.22L9 12.31l.97.97a.75.75 0 1 0 1.06-1.06Zm-.466-3.595-1.94 1.939L5.562 7.5 7.5 5.56l3.064 3.065Zm2.871 6.75 2.685 2.684 2.424.485-.485-2.424-2.684-2.685-1.94 1.94Z"/>
    </symbol>
    <symbol id="palette" viewBox="0 0 24 24">
      <path fill="currentColor" fill-rule="evenodd" d="M13.5 12a2.25 2.25 0 1 1 4.5 0 2.25 2.25 0 0 1-4.5 0Zm2.25-.75a.75.75 0 1 0 0 1.5.75.75 0 0 0 0-1.5Z"/>
      <path fill="currentColor" d="M6.75 10.5a1.5 1.5 0 1 0 0 3 1.5 1.5 0 0 0 0-3Zm.375 5.25a1.5 1.5 0 1 1 3 0 1.5 1.5 0 0 1-3 0Zm5.625 0a1.5 1.5 0 1 0 0 3 1.5 1.5 0 0 0 0-3Z"/>
      <path fill="currentColor" fill-rule="evenodd" d="M10.351 4.8c-.438-.624-1.18-.772-1.756-.75a3.385 3.385 0 0 0-1.748.584A8.897 8.897 0 0 0 3 12c0 4.99 4.01 9 9 9 4.092 0 7.607-2.78 8.672-6.546a.895.895 0 0 0 .008-.032c.163-.694.35-1.963.131-3.268-.221-1.32-.879-2.754-2.468-3.571a.702.702 0 0 0-.024-.012c-2.119-.994-4.058-.453-5.482-.009l-.245.076c-.63.198-1.1.345-1.505.382-.379.034-.576-.04-.744-.23a.433.433 0 0 1 .004-.106c.018-.15.07-.319.153-.581l.023-.074c.082-.266.192-.629.208-1.003a1.789 1.789 0 0 0-.38-1.226Zm-1.696.75a1.888 1.888 0 0 0-.95.314l-.004.003A7.397 7.397 0 0 0 4.5 12c0 4.16 3.34 7.5 7.5 7.5 3.402 0 6.333-2.313 7.224-5.438.136-.585.281-1.63.108-2.66-.171-1.02-.636-1.945-1.663-2.479-1.552-.723-2.984-.365-4.387.071l-.244.077c-.596.188-1.237.39-1.815.443-.722.065-1.47-.09-2.05-.784l-.009-.011c-.325-.407-.35-.866-.306-1.22.036-.293.133-.6.206-.831l.026-.084c.086-.278.136-.469.143-.624.005-.128-.02-.182-.06-.23a.751.751 0 0 1-.047-.064c-.015-.022-.12-.13-.471-.117Zm1.69 2.25-.001-.006.002.007Z"/>
    </symbol>
    <symbol id="ruler" viewBox="0 0 24 24">
      <path fill="currentColor" fill-rule="evenodd" d="M9 3a.75.75 0 0 0-.75.75v16.5c0 .414.336.75.75.75h6a.75.75 0 0 0 .75-.75V3.75A.75.75 0 0 0 15 3H9Zm.75 14.25h.75a.75.75 0 0 0 0-1.5h-.75v-1.5h1.5a.75.75 0 0 0 0-1.5h-1.5v-1.5h.75a.75.75 0 0 0 0-1.5h-.75v-1.5h1.5a.75.75 0 0 0 0-1.5h-1.5V4.5h4.5v15h-4.5v-2.25Z"/>
    </symbol>
    <symbol id="scissors" viewBox="0 0 24 24">
      <path fill="currentColor" fill-rule="evenodd" d="M6.577 4.021a.75.75 0 0 0-1.154.958l5.624 6.784-2.525 3.066a3 3 0 1 0 .964 1.189l2.536-3.079 2.513 3.033a3 3 0 1 0 .98-1.169l-2.523-3.043 5.587-6.783a.75.75 0 1 0-1.158-.954l-5.403 6.561-5.44-6.563Zm1.264 12.2a.746.746 0 0 0 .242.341 1.5 1.5 0 1 1-.242-.341Zm7.909 1.029a1.494 1.494 0 0 1 .31-.913 1.5 1.5 0 1 1-.31.913Z"/>
    </symbol>
    <symbol id="todo" viewBox="0 0 24 24">
      <path fill="currentColor" d="M14.78 12.22a.75.75 0 0 1 0 1.06l-3 3a.75.75 0 0 1-1.06 0l-1.5-1.5a.75.75 0 1 1 1.06-1.06l.97.97 2.47-2.47a.75.75 0 0 1 1.06 0Z"/>
      <path fill="currentColor" fill-rule="evenodd" d="M8.25 3a.75.75 0 0 0-.75.75h-3a.75.75 0 0 0-.75.75v15.75c0 .414.336.75.75.75h15a.75.75 0 0 0 .75-.75V4.5a.75.75 0 0 0-.75-.75h-3a.75.75 0 0 0-.75-.75h-7.5ZM15 4.5H9v3h.878a2.25 2.25 0 0 1 4.244 0H15v-3Zm-7.5.75v3c0 .414.336.75.75.75h2.25a.75.75 0 0 0 .75-.75.75.75 0 1 1 1.5 0c0 .414.336.75.75.75h2.25a.75.75 0 0 0 .75-.75v-3h2.25V19.5H5.25V5.25H7.5Z"/>
    </symbol>
  </defs>
</svg>
