<svg xmlns="http://www.w3.org/2000/svg">
  <defs>
    <symbol id="play-movie" viewBox="0 0 24 24">
      <path fill="currentColor" d="M19.5 3.75h-15a.75.75 0 0 0-.75.75v15a.75.75 0 0 0 .75.75h15a.75.75 0 0 0 .75-.75v-15a.75.75 0 0 0-.75-.75ZM9 5.25h2.25v1.5H9v-1.5ZM14.25 12l-3.75 2.25v-4.5L14.25 12ZM7.5 18.75H5.25v-1.5H7.5v1.5Zm0-12H5.25v-1.5H7.5v1.5Zm3.75 12H9v-1.5h2.25v1.5Zm3.75 0h-2.25v-1.5H15v1.5Zm0-12h-2.25v-1.5H15v1.5Zm3.75 12H16.5v-1.5h2.25v1.5Zm0-12H16.5v-1.5h2.25v1.5Z"/>
    </symbol>
    <symbol id="theater" viewBox="0 0 24 24">
      <path fill="currentColor" d="M3.5 3.958a16.325 16.325 0 0 1 11 0 .75.75 0 0 1 .5.708V12a6 6 0 1 1-12 0V4.666a.75.75 0 0 1 .5-.708ZM5.47 8.47A.75.75 0 0 0 6 9.75h.75a.75.75 0 0 0 0-1.5H6a.75.75 0 0 0-.53.22Zm1.939 6.621A2.25 2.25 0 0 0 11.25 13.5h-4.5c0 .597.237 1.169.659 1.591ZM11.25 9.75H12a.75.75 0 1 0 0-1.5h-.75a.75.75 0 1 0 0 1.5Z"/>
      <path fill="currentColor" d="M16.5 6.075a16.55 16.55 0 0 1 4 .88.75.75 0 0 1 .5.706V15a5.994 5.994 0 0 1-10.2 4.275 7.402 7.402 0 0 0 1.407-.525h5.043A2.25 2.25 0 0 0 15 16.5h-.012A7.453 7.453 0 0 0 16.5 12a.75.75 0 0 0 .75.75H18a.75.75 0 1 0 0-1.5h-.75a.75.75 0 0 0-.75.75V6.075Z"/>
    </symbol>
  </defs>
</svg>
