<svg xmlns="http://www.w3.org/2000/svg">
  <defs>
    <symbol id="carriage" viewBox="0 0 24 24">
      <path fill="currentColor" d="M14.25 3a.75.75 0 0 0-.75.75V9h7.456a6.758 6.758 0 0 0-6.706-6ZM4.5 12v-1.5H21V12a3.754 3.754 0 0 1-3.75 3.75h-9A3.755 3.755 0 0 1 4.5 12ZM9 16.5A2.25 2.25 0 1 0 9 21a2.25 2.25 0 0 0 0-4.5Zm0 3A.75.75 0 1 1 9 18a.75.75 0 0 1 0 1.5Zm7.5-3a2.25 2.25 0 1 0 0 4.5 2.25 2.25 0 0 0 0-4.5Zm0 3a.75.75 0 1 1 0-1.5.75.75 0 0 1 0 1.5ZM4.28 6.22A.75.75 0 0 0 3.75 6a.75.75 0 0 1 0-1.5A2.25 2.25 0 0 1 6 6.75V9H4.5V6.75a.75.75 0 0 0-.22-.53Z"/>
    </symbol>
  </defs>
</svg>
