<svg xmlns="http://www.w3.org/2000/svg">
  <defs>
    <symbol id="ambulance" viewBox="0 0 24 24">
      <path fill="currentColor" d="M9.75 5.25V4.5a1.5 1.5 0 0 1 3 0v.75h-3Zm6 4.5a.75.75 0 0 0-1.5 0V12c0 .414.336.75.75.75h3a.75.75 0 0 0 0-1.5h-2.25v-1.5Zm-6-.75a.75.75 0 0 1 .75.75v.75h.75a.75.75 0 0 1 0 1.5h-.75v.75a.75.75 0 0 1-1.5 0V12h-.75a.75.75 0 0 1 0-1.5H9v-.75A.75.75 0 0 1 9.75 9Z"/>
      <path fill="currentColor" fill-rule="evenodd" d="M3.75 6a.75.75 0 0 0-.75.75V18c0 .414.336.75.75.75h1.595a3.001 3.001 0 0 0 5.81 0h1.69a3.001 3.001 0 0 0 5.81 0h1.595A.75.75 0 0 0 21 18v-6.75a.75.75 0 0 0-.174-.48l-3.75-4.5A.75.75 0 0 0 16.5 6H3.75Zm14.905 11.25h.845v-5.729L16.149 7.5H4.5v9.75h.845a3.001 3.001 0 0 1 5.81 0h1.69a3.001 3.001 0 0 1 5.81 0ZM6.75 18a1.5 1.5 0 1 0 3 0 1.5 1.5 0 0 0-3 0Zm9 1.5a1.5 1.5 0 1 1 0-3 1.5 1.5 0 0 1 0 3Z"/>
    </symbol>
    <symbol id="atom" viewBox="0 0 24 24">
      <path fill="currentColor" d="M12.75 12c0 .412-.338.75-.75.75a.752.752 0 0 1-.75-.75c0-.412.338-.75.75-.75s.75.338.75.75Z"/>
      <path fill="currentColor" fill-rule="evenodd" d="M7.698 6.208c.403.059.831.152 1.279.277.256-.842.578-1.579.962-2.153C10.418 3.618 11.104 3 12 3c.715 0 1.3.401 1.737.91.44.511.8 1.207 1.09 2.002.066.183.13.374.19.571.2-.056.396-.105.587-.148.825-.185 1.605-.254 2.272-.16.663.095 1.315.371 1.7.973.336.522.364 1.128.24 1.696-.123.563-.406 1.15-.787 1.726-.31.47-.698.954-1.153 1.443.7.751 1.255 1.504 1.602 2.21.409.835.624 1.819.106 2.629-.385.602-1.037.878-1.7.973-.668.094-1.448.025-2.273-.16a11.35 11.35 0 0 1-.594-.15c-.06.198-.124.39-.19.573-.29.795-.65 1.49-1.09 2.002-.437.509-1.022.91-1.737.91-.626 0-1.155-.31-1.568-.725-.41-.414-.752-.977-1.033-1.617a10.354 10.354 0 0 1-.419-1.144c-.849.238-1.645.364-2.338.35-.855-.018-1.74-.262-2.224-1.01l-.002-.002c-.385-.602-.363-1.31-.17-1.952.193-.646.584-1.325 1.097-1.996.229-.299.486-.602.77-.908a12.371 12.371 0 0 1-.762-.9c-.513-.671-.904-1.35-1.098-1.996-.192-.642-.215-1.35.17-1.952.33-.514.859-.792 1.416-.918.553-.126 1.19-.118 1.86-.022Zm4.298 1.478a19.132 19.132 0 0 0-1.598-.72c.23-.763.501-1.37.788-1.8.375-.56.668-.666.814-.666.113 0 .318.06.6.388.278.324.563.837.817 1.536.062.172.122.352.179.541-.52.205-1.056.446-1.6.72Zm-4.512.007c.817.118 1.813.418 2.9.892a21.931 21.931 0 0 0-3.198 2.362c-.239-.26-.454-.514-.644-.762-.451-.59-.73-1.107-.852-1.516-.123-.411-.064-.616-.003-.712.052-.082.177-.195.484-.264.312-.071.75-.081 1.313 0Zm-.95 6.122c.192-.25.41-.508.652-.77.359.322.744.643 1.151.957.062.72.158 1.409.284 2.054-.77.22-1.43.319-1.947.308-.668-.014-.916-.2-.996-.322-.06-.096-.118-.302.005-.712.122-.409.4-.925.852-1.515Zm4.238 4.24c-.33-.754-.605-1.743-.785-2.893a21.263 21.263 0 0 0 3.61 1.87c-.058.19-.118.371-.18.544-.254.699-.54 1.212-.818 1.536-.28.327-.486.388-.599.388-.101 0-.27-.046-.503-.281-.235-.238-.486-.622-.725-1.164Zm.02-4.159a20.007 20.007 0 0 0 3.154 1.66c.193-1.059.304-2.267.304-3.556 0-1.29-.111-2.5-.305-3.559-.995.409-2.073.966-3.16 1.663a20.527 20.527 0 0 0-2.522 1.893c.726.643 1.578 1.29 2.53 1.899Zm5.147 2.305a9.98 9.98 0 0 1-.562-.143c.127-.645.224-1.334.287-2.055.402-.31.782-.625 1.138-.943.62.67 1.069 1.293 1.329 1.824.34.695.271 1.031.19 1.16-.061.095-.223.235-.649.296-.423.06-1.008.024-1.733-.139Zm-.562-8.26c.19-.055.376-.102.555-.142.725-.163 1.31-.199 1.732-.138.426.06.588.2.65.296.054.086.106.25.037.567-.07.32-.253.733-.574 1.22-.455.69-1.145 1.463-2.027 2.245 0-1.452-.134-2.83-.373-4.049Z"/>
    </symbol>
    <symbol id="bandage" viewBox="0 0 24 24">
      <path fill="currentColor" d="M12 10.5A.75.75 0 1 1 12 9a.75.75 0 0 1 0 1.5Zm2.25 2.25a.75.75 0 1 0 0-1.5.75.75 0 0 0 0 1.5ZM10.5 12A.75.75 0 1 1 9 12a.75.75 0 0 1 1.5 0Zm.75 2.25a.75.75 0 1 0 1.5 0 .75.75 0 0 0-1.5 0Z"/>
      <path fill="currentColor" fill-rule="evenodd" d="M16.462 3.66a2.25 2.25 0 0 0-3.182 0l-9.62 9.62a2.25 2.25 0 0 0 0 3.182l3.878 3.879a2.25 2.25 0 0 0 3.182 0l1.808-1.809.002-.002.003-.002 5.995-5.995.002-.003.002-.002 1.809-1.808a2.25 2.25 0 0 0 0-3.182L16.46 3.66ZM18 10.94l1.28-1.28a.75.75 0 0 0 0-1.061l-3.879-3.88a.75.75 0 0 0-1.06 0L13.06 6 18 10.94Zm-6-3.88L7.06 12 12 16.94 16.94 12 12 7.06ZM10.94 18 6 13.06l-1.28 1.28a.75.75 0 0 0 0 1.061l3.879 3.88a.75.75 0 0 0 1.06 0L10.94 18Z"/>
    </symbol>
    <symbol id="cure" viewBox="0 0 24 24">
      <path fill="currentColor" d="M6.75 3a.75.75 0 0 0 0 1.5h10.5a.75.75 0 0 0 0-1.5H6.75Zm3 3.75a.75.75 0 0 0-1.5 0v1.563A4.5 4.5 0 0 0 4.5 12.75v7.5c0 .414.336.75.75.75h13.5a.75.75 0 0 0 .75-.75v-7.5a4.5 4.5 0 0 0-3.75-4.437V6.75a.75.75 0 0 0-1.5 0V9c0 .414.336.75.75.75a3 3 0 0 1 3 3v6.75H6v-6.75a3 3 0 0 1 3-3A.75.75 0 0 0 9.75 9V6.75Z"/>
      <path fill="currentColor" d="M12 12a.75.75 0 0 1 .75.75v1.5h1.5a.75.75 0 0 1 0 1.5h-1.5v1.5a.75.75 0 0 1-1.5 0v-1.5h-1.5a.75.75 0 0 1 0-1.5h1.5v-1.5A.75.75 0 0 1 12 12Z"/>
    </symbol>
    <symbol id="dna" viewBox="0 0 24 24">
      <path fill="currentColor" fill-rule="evenodd" d="M7.5 3a.75.75 0 0 1 .75.75v.75h7.5v-.75a.75.75 0 0 1 1.5 0V6a5.2 5.2 0 0 1-.645 2.505.752.752 0 0 1-.122.217c-.237.4-.517.773-.826 1.124-.691.788-1.55 1.493-2.412 2.154.862.66 1.721 1.366 2.412 2.154.309.35.59.724.826 1.124a.751.751 0 0 1 .122.217A5.2 5.2 0 0 1 17.25 18v2.25a.75.75 0 0 1-1.5 0v-.75h-7.5v.75a.75.75 0 0 1-1.5 0V18a5.2 5.2 0 0 1 .645-2.505.749.749 0 0 1 .122-.217c.237-.4.517-.773.826-1.124.691-.788 1.55-1.493 2.412-2.154-.862-.66-1.721-1.366-2.412-2.154a7.514 7.514 0 0 1-.826-1.124.749.749 0 0 1-.122-.217A5.2 5.2 0 0 1 6.75 6V3.75A.75.75 0 0 1 7.5 3Zm4.5 8.062c.906-.685 1.741-1.345 2.401-2.062H9.6c.66.717 1.495 1.377 2.401 2.062ZM15.43 7.5c.207-.47.32-.965.32-1.5h-7.5c0 .535.113 1.03.32 1.5h6.86ZM12 12.938c-.906.685-1.741 1.345-2.401 2.062H14.4c-.66-.717-1.495-1.377-2.401-2.062ZM8.57 16.5a3.65 3.65 0 0 0-.32 1.5h7.5a3.67 3.67 0 0 0-.32-1.5H8.57Z"/>
    </symbol>
    <symbol id="heartbeat" viewBox="0 0 24 24">
      <path fill="currentColor" d="M18.823 5.16a4.843 4.843 0 0 0-3.414-1.41h-.006A4.89 4.89 0 0 0 12 5.162 4.89 4.89 0 0 0 8.596 3.75h-.005A4.844 4.844 0 0 0 3.75 8.568a.75.75 0 0 0 1.5.008A3.344 3.344 0 0 1 8.589 5.25a3.391 3.391 0 0 1 2.788 1.5.75.75 0 0 0 1.246 0 3.391 3.391 0 0 1 2.788-1.5 3.343 3.343 0 0 1 3.339 3.326.75.75 0 0 0 1.5-.008 4.843 4.843 0 0 0-1.427-3.408Z"/>
      <path fill="currentColor" d="M10.5 8.25a.75.75 0 0 1 .624.334l2.376 3.564.876-1.314A.75.75 0 0 1 15 10.5h5.25a.75.75 0 0 1 0 1.5h-4.849l-1.277 1.916a.75.75 0 0 1-1.248 0L10.5 10.352l-.876 1.314A.75.75 0 0 1 9 12H3.75a.75.75 0 0 1 0-1.5h4.849l1.277-1.916a.75.75 0 0 1 .624-.334Z"/>
      <path fill="currentColor" d="M6.3 13.05a.75.75 0 0 1 1.05.15A43.442 43.442 0 0 0 12 18.468a43.452 43.452 0 0 0 4.65-5.266.75.75 0 1 1 1.2.898 44.95 44.95 0 0 1-5.339 5.95.75.75 0 0 1-1.022 0 44.949 44.949 0 0 1-5.34-5.95.75.75 0 0 1 .152-1.05Z"/>
    </symbol>
    <symbol id="hospital" viewBox="0 0 24 24">
      <path fill="currentColor" fill-rule="evenodd" d="M10.5 6.75a.75.75 0 0 0-.75.75v2.25H7.5a.75.75 0 0 0-.75.75v3c0 .414.336.75.75.75h2.25v2.25c0 .414.336.75.75.75h3a.75.75 0 0 0 .75-.75v-2.25h2.25a.75.75 0 0 0 .75-.75v-3a.75.75 0 0 0-.75-.75h-2.25V7.5a.75.75 0 0 0-.75-.75h-3Zm.75 3.75V8.25h1.5v2.25c0 .414.336.75.75.75h2.25v1.5H13.5a.75.75 0 0 0-.75.75v2.25h-1.5V13.5a.75.75 0 0 0-.75-.75H8.25v-1.5h2.25a.75.75 0 0 0 .75-.75Z"/>
      <path fill="currentColor" fill-rule="evenodd" d="M3.75 3a.75.75 0 0 0-.75.75v16.5c0 .414.336.75.75.75h16.5a.75.75 0 0 0 .75-.75V3.75a.75.75 0 0 0-.75-.75H3.75Zm.75 16.5v-15h15v15h-15Z"/>
    </symbol>
    <symbol id="medicine" viewBox="0 0 24 24">
      <path fill="currentColor" d="M12.104 3.044a4.495 4.495 0 0 1 5.04 5.396.75.75 0 1 1-1.466-.316 2.996 2.996 0 0 0-5.049-2.746L8.534 7.473l2.443 2.443a.75.75 0 1 1-1.06 1.061L7.472 8.534l-2.095 2.095a2.996 2.996 0 0 0 2.749 5.049.75.75 0 1 1 .317 1.466 4.496 4.496 0 0 1-4.126-7.577L6.94 6.945l.003-.002.002-.003 2.622-2.622a4.497 4.497 0 0 1 2.537-1.274Z"/>
      <path fill="currentColor" fill-rule="evenodd" d="m19.48 12.056-.017-.019A5.233 5.233 0 0 0 15.75 10.5a5.25 5.25 0 1 0 3.73 1.556Zm-1.662.565a3.75 3.75 0 0 0-5.197 5.197l5.197-5.197Zm-4.136 6.258 5.197-5.197a3.75 3.75 0 0 1-5.197 5.197Z"/>
    </symbol>
    <symbol id="microscope" viewBox="0 0 24 24">
      <path fill="currentColor" fill-rule="evenodd" d="M10.895 3.683a.75.75 0 0 1 .456.349l3 5.196a.75.75 0 0 1-.275 1.024l-.65.375.376.65a.75.75 0 0 1-1.3.75l-.375-.65-.649.375a.75.75 0 0 1-1.024-.274L8.956 8.884l-1.194.69a3.74 3.74 0 0 0-1.064 5.352l.206.324A3.748 3.748 0 0 1 12 18.75v.75h6.75a.75.75 0 0 1 0 1.5H5.25a.75.75 0 0 1-.75-.75v-1.5a3.75 3.75 0 0 1 1.14-2.692l-.2-.315A5.24 5.24 0 0 1 7 8.282l1.206-.697-.753-1.303a.75.75 0 0 1 .275-1.025l2.598-1.5a.75.75 0 0 1 .57-.074ZM9.892 7.506a.756.756 0 0 0-.026-.045l-.738-1.28 1.299-.75 2.25 3.897-.647.374-.003.001-.003.002-.646.373-1.486-2.572ZM6.98 16.893A2.256 2.256 0 0 0 6 18.75v.75h4.5v-.75a2.25 2.25 0 0 0-3.405-1.93.757.757 0 0 1-.115.073Z"/>
      <path fill="currentColor" d="M17.625 13.4a.75.75 0 0 0-.75-1.3l-4.848 2.8a.75.75 0 0 0 .75 1.298l4.848-2.799Z"/>
    </symbol>
    <symbol id="molecule" viewBox="0 0 24 24">
      <path fill="currentColor" fill-rule="evenodd" d="M6 9c.405 0 .791-.08 1.143-.226l1.014 1.352A2.987 2.987 0 0 0 7.5 12c0 .709.246 1.36.657 1.874l-1.014 1.352a3 3 0 1 0 1.2.9l1.014-1.352a3.001 3.001 0 0 0 4.049-2.024h1.688A3.001 3.001 0 0 0 21 12a3 3 0 0 0-5.905-.75h-1.69a3.001 3.001 0 0 0-4.048-2.024L8.343 7.874A3 3 0 1 0 6 9Zm0-4.5a1.5 1.5 0 1 0 .892 2.706L6.9 7.2l.008-.006A1.5 1.5 0 0 0 6 4.5Zm3.593 6.305L9.6 10.8a1.493 1.493 0 0 1 .9-.3 1.5 1.5 0 1 1-.907.305Zm-2.7 5.989a1.5 1.5 0 1 0 .015.011L6.9 16.8l-.008-.006ZM18 13.5a1.5 1.5 0 1 1 0-3 1.5 1.5 0 0 1 0 3Z"/>
    </symbol>
    <symbol id="pill" viewBox="0 0 24 24">
      <path fill="currentColor" fill-rule="evenodd" d="M18.369 5.609c-2.084-1.997-5.4-2.013-7.424.01L5.62 10.946l-.011.011c-1.997 2.084-2.013 5.4.01 7.424l.012.012c2.084 1.996 5.4 2.012 7.424-.012l5.325-5.325.012-.011c1.996-2.084 2.012-5.4-.012-7.424l-.011-.011ZM12.005 6.68c1.425-1.424 3.804-1.442 5.32.006 1.419 1.425 1.435 3.8-.011 5.315l-2.127 2.126-5.314-5.314 2.132-2.133ZM8.813 9.873 6.686 12c-1.446 1.514-1.43 3.89-.011 5.314 1.516 1.448 3.895 1.43 5.32.006l2.132-2.133-5.314-5.314Z"/>
    </symbol>
    <symbol id="pill-bottle" viewBox="0 0 24 24">
      <path fill="currentColor" fill-rule="evenodd" d="M8.25 10.5a.75.75 0 0 0-.75.75v4.5c0 .414.336.75.75.75h7.5a.75.75 0 0 0 .75-.75v-4.5a.75.75 0 0 0-.75-.75h-7.5ZM9 15v-3h6v3H9Z"/>
      <path fill="currentColor" fill-rule="evenodd" d="M3 3.75A.75.75 0 0 1 3.75 3h16.5a.75.75 0 0 1 .75.75V7.5a.75.75 0 0 1-.75.75h-.75v12a.75.75 0 0 1-.75.75H5.25a.75.75 0 0 1-.75-.75v-12h-.75A.75.75 0 0 1 3 7.5V3.75ZM18 19.5V8.25H6V19.5h12Zm-.75-12.75V6a.75.75 0 0 0-1.5 0v.75h-1.5V6a.75.75 0 0 0-1.5 0v.75h-1.5V6a.75.75 0 0 0-1.5 0v.75h-1.5V6a.75.75 0 0 0-1.5 0v.75H4.5V4.5h15v2.25h-2.25Z"/>
    </symbol>
    <symbol id="steps" viewBox="0 0 24 24">
      <path fill="currentColor" fill-rule="evenodd" d="M19.478 12.929v.003a.75.75 0 0 1-.728.568h-4.5a.75.75 0 0 1-.75-.75c0-1.345-.175-2.143-.351-2.832a35.1 35.1 0 0 0-.063-.24c-.165-.627-.336-1.28-.336-2.178 0-2.526 1.56-4.5 3.75-4.5s3.75 1.974 3.75 4.5c0 1.193-.197 2.558-.387 3.603a34.557 34.557 0 0 1-.376 1.79l-.007.028-.002.008ZM14.25 7.5c0-1.974 1.14-3 2.25-3s2.25 1.026 2.25 3c0 1.057-.178 2.317-.363 3.335-.084.46-.167.863-.233 1.165h-3.172a11.509 11.509 0 0 0-.38-2.455 55.318 55.318 0 0 0-.065-.248v-.002c-.164-.626-.287-1.099-.287-1.795Zm4.5 5.25.728.182-.728-.182Zm-4.5 1.5a.75.75 0 0 0-.738.616l-.149.819A3.188 3.188 0 0 0 16.5 19.5a3.188 3.188 0 0 0 3.137-3.815l-.15-.82a.75.75 0 0 0-.737-.615h-4.5Zm.588 1.71.038-.21h3.248l.038.21.003.012A1.688 1.688 0 0 1 16.5 18a1.688 1.688 0 0 1-1.665-2.028l.003-.013ZM3.75 9c0-2.526 1.56-4.5 3.75-4.5s3.75 1.974 3.75 4.5c0 .898-.171 1.55-.336 2.177l-.063.24c-.176.69-.351 1.488-.351 2.833a.75.75 0 0 1-.75.75h-4.5a.75.75 0 0 1-.728-.568l.728-.182-.728.182v-.003l-.002-.008-.007-.027a17.353 17.353 0 0 1-.112-.485 34.727 34.727 0 0 1-.264-1.306c-.19-1.045-.387-2.41-.387-3.603Zm2.097 4.5h3.17c.054-1.08.219-1.82.382-2.455l.064-.25c.164-.627.287-1.099.287-1.795 0-1.974-1.14-3-2.25-3S5.25 7.026 5.25 9c0 1.057.178 2.317.363 3.335.084.46.167.863.234 1.165Zm-.597 2.25a.75.75 0 0 0-.738.616l-.149.819A3.188 3.188 0 0 0 7.5 21a3.187 3.187 0 0 0 3.137-3.815l-.15-.82a.75.75 0 0 0-.737-.615h-4.5Zm.588 1.71.038-.21h3.248l.038.21.003.012A1.688 1.688 0 0 1 7.5 19.5a1.688 1.688 0 0 1-1.665-2.028l.003-.013Z"/>
    </symbol>
    <symbol id="stethoscope" viewBox="0 0 24 24">
      <path fill="currentColor" fill-rule="evenodd" d="M6.75 3a.75.75 0 0 1 .75.75v1.5a.75.75 0 0 1-1.5 0H4.647l1.118 8.273c.09.415.401.652.76.652H11.4c.426 0 .723-.29.754-.6a.716.716 0 0 1 .004-.032l1.195-8.293H12a.75.75 0 0 1-1.5 0v-1.5a.75.75 0 0 1 1.5 0h1.35c.831 0 1.648.711 1.491 1.689l-1.197 8.303c-.127 1.181-1.175 1.933-2.244 1.933H9.75V19.5h7.5v-3.095A3.001 3.001 0 0 1 18 10.5a3 3 0 0 1 .75 5.905v3.845A.75.75 0 0 1 18 21H9a.75.75 0 0 1-.75-.75v-4.575H6.525c-1.135 0-2.021-.806-2.235-1.878a.748.748 0 0 1-.008-.047L3.158 5.435a1.44 1.44 0 0 1 .328-1.185c.294-.337.719-.5 1.164-.5H6A.75.75 0 0 1 6.75 3ZM18 12a1.5 1.5 0 1 0 0 3 1.5 1.5 0 0 0 0-3Z"/>
    </symbol>
    <symbol id="tooth" viewBox="0 0 24 24">
      <path fill="currentColor" d="M9.897 7.59a.75.75 0 1 0-.294 1.47c.797.16 1.597.24 2.397.24.8 0 1.6-.08 2.397-.24a.75.75 0 1 0-.294-1.47C13.4 7.73 12.7 7.8 12 7.8c-.7 0-1.4-.07-2.103-.21Z"/>
      <path fill="currentColor" fill-rule="evenodd" d="M6.75 3.75c-1.705 0-3 1.402-3 3 0 .7.21 1.72.395 2.499a33.304 33.304 0 0 0 .345 1.32l-.736 7.432a.75.75 0 0 0-.004.074c0 1.164 1.01 2.175 2.175 2.175.843 0 1.418-.58 1.692-.856l.038-.039a.734.734 0 0 0 .042-.045l2.925-3.45a.787.787 0 0 0 .02-.024C11.088 15.26 11.568 15 12 15c.412 0 .82.234 1.384.867l2.913 3.435c.378.47 1.018.948 1.778.948 1.265 0 2.175-1.037 2.175-2.175a.76.76 0 0 0-.004-.074l-.735-7.432a29.961 29.961 0 0 0 .344-1.32c.185-.78.395-1.799.395-2.499 0-1.598-1.295-3-3-3-.404 0-.975.118-1.525.258-.572.145-1.204.336-1.776.527-.715.214-1.307.34-1.949.34-.642 0-1.234-.126-1.949-.34a26.53 26.53 0 0 0-1.776-.527c-.55-.14-1.12-.258-1.525-.258Zm-.754 6.824a.75.75 0 0 0-.026-.286l-.002-.005-.006-.02-.023-.08-.083-.298c-.068-.252-.16-.6-.251-.984-.19-.795-.355-1.651-.355-2.151 0-.802.655-1.5 1.5-1.5.196 0 .6.07 1.156.211a25.091 25.091 0 0 1 1.703.507c.78.234 1.536.407 2.391.407s1.61-.173 2.39-.407a25.083 25.083 0 0 1 1.704-.507c.556-.141.96-.211 1.156-.211.845 0 1.5.698 1.5 1.5 0 .5-.165 1.356-.355 2.151a31.823 31.823 0 0 1-.357 1.361l-.006.02-.002.006a.749.749 0 0 0-.026.286l.745 7.531a.674.674 0 0 1-.674.645c-.136 0-.392-.116-.614-.393a.746.746 0 0 0-.014-.017l-2.925-3.45-.011-.013C13.878 14.164 13.087 13.5 12 13.5c-1.062 0-1.929.631-2.532 1.402l-2.895 3.414c-.147.147-.26.255-.38.335a.476.476 0 0 1-.268.099c-.326 0-.656-.32-.674-.646l.745-7.53Z"/>
    </symbol>
    <symbol id="virus" viewBox="0 0 24 24">
      <path fill="currentColor" d="M12 13.875a1.125 1.125 0 1 1-2.25 0 1.125 1.125 0 0 1 2.25 0Zm2.25-.75a1.125 1.125 0 1 0 0-2.25 1.125 1.125 0 0 0 0 2.25Zm-2.25-3a1.125 1.125 0 1 1-2.25 0 1.125 1.125 0 0 1 2.25 0Z"/>
      <path fill="currentColor" fill-rule="evenodd" d="M9.823 4.784a.75.75 0 0 0-.574-1.386l-.668.277a.765.765 0 0 0-.05.02l-.668.277a.75.75 0 0 0 .574 1.386l.591 1.428a6.03 6.03 0 0 0-2.242 2.242l-1.428-.591a.75.75 0 0 0-1.386-.574l-.276.667a.757.757 0 0 0-.021.051l-.277.668a.75.75 0 0 0 1.386.574l1.428.591A6.007 6.007 0 0 0 6 12c0 .549.074 1.08.212 1.586l-1.428.591a.75.75 0 0 0-1.386.575l.277.667a.702.702 0 0 0 .02.05l.277.668a.75.75 0 0 0 1.386-.574l1.428-.591a6.029 6.029 0 0 0 2.242 2.242l-.591 1.428a.75.75 0 0 0-.574 1.386l.667.276a.95.95 0 0 0 .051.021l.668.277a.75.75 0 0 0 .574-1.386l.591-1.428A6.007 6.007 0 0 0 12 18c.549 0 1.08-.074 1.586-.212l.591 1.428a.75.75 0 0 0 .575 1.386l.667-.277a.71.71 0 0 0 .025-.01l.01-.004.016-.007.667-.276a.75.75 0 0 0-.574-1.386l-.591-1.428a6.028 6.028 0 0 0 2.242-2.242l1.428.591a.75.75 0 0 0 1.386.574l.276-.667.007-.015.004-.01a.71.71 0 0 0 .01-.026l.277-.668a.75.75 0 0 0-1.386-.574l-1.428-.591A6.007 6.007 0 0 0 18 12c0-.549-.074-1.08-.212-1.586l1.428-.591a.75.75 0 0 0 1.386-.574l-.277-.668a.843.843 0 0 0-.02-.05l-.277-.668a.75.75 0 0 0-1.386.574l-1.428.591a6.029 6.029 0 0 0-2.242-2.242l.591-1.428a.75.75 0 0 0 .574-1.386l-.667-.276a.674.674 0 0 0-.051-.021l-.668-.277a.75.75 0 0 0-.574 1.386l-.591 1.428A6.007 6.007 0 0 0 12 6c-.549 0-1.08.074-1.586.212l-.591-1.428Zm-1.966 5.457a4.516 4.516 0 0 1 2.457-2.415A4.5 4.5 0 0 1 12 7.5a4.488 4.488 0 0 1 1.76.357 4.516 4.516 0 0 1 2.414 2.458c.21.52.326 1.089.326 1.685a4.486 4.486 0 0 1-.357 1.76 4.516 4.516 0 0 1-2.458 2.414A4.49 4.49 0 0 1 12 16.5a4.488 4.488 0 0 1-1.76-.357 4.516 4.516 0 0 1-2.414-2.457A4.488 4.488 0 0 1 7.5 12a4.488 4.488 0 0 1 .357-1.76Z"/>
    </symbol>
  </defs>
</svg>
