<svg xmlns="http://www.w3.org/2000/svg">
  <defs>
    <symbol id="fireworks" viewBox="0 0 24 24">
      <path fill="currentColor" d="m14.76 5.015-1.907-.277L12 3.01l-.853 1.728-1.907.277 1.38 1.345-.325 1.9L12 7.363l1.706.897-.326-1.9 1.38-1.345ZM11.25 20.25c0-6.171-3.246-7.54-3.279-7.553l-.696-.28.557-1.392.697.278c.124.051 2.292.962 3.471 4.2 1.179-3.238 3.347-4.148 3.471-4.2l.697-.278.557 1.393-.692.277c-.163.07-3.283 1.49-3.283 7.555h-1.5Zm-4.089-3.609 1.8.262-1.302 1.27.308 1.793-1.61-.846-1.612.846.308-1.794-1.303-1.27 1.8-.261.806-1.631.805 1.631Zm13.089.262-1.8-.262-.806-1.631-.805 1.631-1.8.262 1.302 1.27-.308 1.793 1.61-.846 1.612.846-.308-1.794 1.303-1.27Z"/>
      <path fill="currentColor" d="M12.75 9.01v2.465a8.94 8.94 0 0 0-.738.874 8.707 8.707 0 0 0-.762-.888V9.01h1.5Zm-7.875 2.24a1.125 1.125 0 1 0 0-2.25 1.125 1.125 0 0 0 0 2.25Zm15.375-1.125a1.125 1.125 0 1 1-2.25 0 1.125 1.125 0 0 1 2.25 0Z"/>
    </symbol>
    <symbol id="gift-exchange" viewBox="0 0 24 24">
      <path fill="currentColor" d="M17.862 6h2.388a.75.75 0 0 1 .75.75v1.5a.75.75 0 0 1-.75.75h-15a.75.75 0 0 1-.75-.75v-1.5A.75.75 0 0 1 5.25 6h2.388a2.224 2.224 0 0 1-.138-.75C7.5 4.01 8.51 3 9.75 3c1.488 0 2.432.963 3 1.89.568-.927 1.512-1.89 3-1.89C16.99 3 18 4.01 18 5.25c0 .264-.054.514-.138.75ZM16.5 5.25a.75.75 0 0 0-.75-.75c-.948 0-1.56.814-1.907 1.5h1.907a.75.75 0 0 0 .75-.75ZM9.75 4.5a.75.75 0 0 0 0 1.5h1.907c-.347-.686-.959-1.5-1.907-1.5Zm9.725 11.375c.403.395.648.84.743 1.16l.205.68-8.62 3.09a4.55 4.55 0 0 1-1.114.146c-.455 0-.885-.077-1.277-.224L3 18.055V12h3v-.75a.75.75 0 0 1 .75-.75h12a.75.75 0 0 1 .75.75v4.5a.293.293 0 0 1-.014.08.467.467 0 0 0-.011.045Zm-9.511 3.458c.395.148.902.165 1.405.04l6.985-2.508c-.235-.197-.588-.365-1.104-.365h-2.325c.05.242.075.493.075.75V18H9v-1.5h4.372A2.255 2.255 0 0 0 11.25 15H9.357l-.224-.323C8.615 13.929 7.747 13.5 6.75 13.5H4.5v3.555l5.464 2.278Z"/>
    </symbol>
  </defs>
</svg>
