<svg xmlns="http://www.w3.org/2000/svg">
  <defs>
    <symbol id="bedroom" viewBox="0 0 24 24">
      <path fill="currentColor" d="M21 18.75v-6H4.5V6A.75.75 0 0 0 3 6v12.75a.75.75 0 1 0 1.5 0v-1.5h15v1.5a.75.75 0 1 0 1.5 0Z"/>
      <path fill="currentColor" d="M8.25 11.25a2.25 2.25 0 1 1 0-4.5 2.25 2.25 0 0 1 0 4.5Zm4.5 0H21v-1.5a2.25 2.25 0 0 0-2.25-2.25h-6a.75.75 0 0 0-.75.75v2.25a.75.75 0 0 0 .75.75Z"/>
    </symbol>
    <symbol id="books" viewBox="0 0 24 24">
      <path fill="currentColor" d="m15.367 13.825 4.373-1.062-1.946-8.017a.75.75 0 0 0-.905-.552l-2.916.708a.75.75 0 0 0-.473.36V5.25a.75.75 0 0 0-.75-.75h-3a.75.75 0 0 0-.75.75v8.25h4.5V6.117l1.867 7.708ZM7.5 5.25v8.25H3V5.25a.75.75 0 0 1 .75-.75h3a.75.75 0 0 1 .75.75ZM3 18.75V15h4.5v3.75a.75.75 0 0 1-.75.75h-3a.75.75 0 0 1-.75-.75ZM9 15v3.75a.75.75 0 0 0 .75.75h3a.75.75 0 0 0 .75-.75V15H9Zm11.094-.78.884 3.645a.75.75 0 0 1-.551.906l-2.915.707a.749.749 0 0 1-.906-.552l-.885-3.644 4.373-1.061Z"/>
    </symbol>
    <symbol id="cabinet" viewBox="0 0 24 24">
      <path fill="currentColor" d="M4.5 3h15a.709.709 0 0 1 .75.75v6.75H3.75V3.75A.709.709 0 0 1 4.5 3Zm5.625 4.5h3.75a.375.375 0 0 0 .375-.375v-.75A.375.375 0 0 0 13.875 6h-3.75a.375.375 0 0 0-.375.375v.75a.375.375 0 0 0 .375.375Zm-6.33 11.544a.709.709 0 0 1-.045-.294V12h16.5v6.75a.71.71 0 0 1-.75.75h-.75v.75a.75.75 0 1 1-1.5 0v-.75H6.75v.75A.709.709 0 0 1 6 21a.71.71 0 0 1-.75-.75v-.75H4.5a.71.71 0 0 1-.705-.456ZM13.875 15h-3.75a.375.375 0 0 0-.375.375v.75a.375.375 0 0 0 .375.375h3.75a.375.375 0 0 0 .375-.375v-.75a.375.375 0 0 0-.375-.375Z"/>
    </symbol>
    <symbol id="door" viewBox="0 0 24 24">
      <path fill="currentColor" d="M18.75 3H5.25a.75.75 0 0 0-.75.75v13.5a.75.75 0 0 0 .513.711l9 3A.75.75 0 0 0 15 20.25V6.75a.75.75 0 0 0-.513-.711L9.871 4.5H18v12h-1.5V18h2.25a.75.75 0 0 0 .75-.75V3.75a.75.75 0 0 0-.75-.75Zm-8.25 9.75a.75.75 0 1 1 1.5 0v1.5a.75.75 0 1 1-1.5 0v-1.5Z"/>
    </symbol>
    <symbol id="photo-frame" viewBox="0 0 24 24">
      <path fill="currentColor" d="M7.875 12a1.125 1.125 0 1 0 0-2.25 1.125 1.125 0 0 0 0 2.25Zm7.815-1.046a.751.751 0 0 0-1.093-.337l-8.25 5.25a.75.75 0 0 0 .403 1.383h10.5a.749.749 0 0 0 .69-1.046l-2.25-5.25Z"/>
      <path fill="currentColor" d="M16.06 6.75h2.69A2.25 2.25 0 0 1 21 9v9a2.25 2.25 0 0 1-2.25 2.25H5.25A2.25 2.25 0 0 1 3 18V9a2.25 2.25 0 0 1 2.25-2.25h2.69l3.53-3.53a.75.75 0 0 1 1.06 0l3.53 3.53Zm-2.12 0L12 4.81l-1.94 1.94h3.88Zm5.34 11.78a.75.75 0 0 0 .22-.53V9a.75.75 0 0 0-.75-.75H5.25A.75.75 0 0 0 4.5 9v9a.75.75 0 0 0 .75.75h13.5a.75.75 0 0 0 .53-.22Z"/>
    </symbol>
    <symbol id="single-bed" viewBox="0 0 24 24">
      <path fill="currentColor" d="M6 4.5h12a.75.75 0 0 1 .75.75v5.25H15V8.25a.75.75 0 0 0-.75-.75h-4.5a.75.75 0 0 0-.75.75v2.25H5.25V5.25A.75.75 0 0 1 6 4.5ZM4.5 12h15a.75.75 0 0 1 .75.75v6a.75.75 0 1 1-1.5 0v-1.5H5.25v1.5a.75.75 0 1 1-1.5 0v-6A.75.75 0 0 1 4.5 12Z"/>
    </symbol>
    <symbol id="time-alarm" viewBox="0 0 24 24">
      <path fill="currentColor" d="M3.75 8.25a.75.75 0 0 1-.53-1.28l3.75-3.75a.75.75 0 0 1 1.06 1.06L4.28 8.03a.75.75 0 0 1-.53.22Zm16.5 0a.75.75 0 0 1-.53-.22l-3.75-3.75a.75.75 0 0 1 1.06-1.06l3.75 3.75a.751.751 0 0 1-.53 1.28Z"/>
      <path fill="currentColor" d="M19.378 13.352a7.5 7.5 0 0 1-1.978 3.843l1.95 2.605a.751.751 0 0 1-.982 1.095.751.751 0 0 1-.218-.195l-1.897-2.53a7.467 7.467 0 0 1-8.506 0L5.85 20.7a.75.75 0 1 1-1.2-.9l1.958-2.605a7.5 7.5 0 1 1 12.77-3.843ZM12 12.75h3.75a.75.75 0 1 0 0-1.5h-3v-3a.75.75 0 1 0-1.5 0V12a.75.75 0 0 0 .75.75Z"/>
    </symbol>
  </defs>
</svg>
