<svg xmlns="http://www.w3.org/2000/svg">
  <defs>
    <symbol id="logo-youtube-color" fill="none" viewBox="0 0 24 24">
      <path fill="#DC2217" d="M20.82 8.401s-.176-1.24-.715-1.787c-.685-.716-1.452-.72-1.804-.762-2.519-.182-6.297-.182-6.297-.182h-.008s-3.778 0-6.297.182c-.352.042-1.119.046-1.804.762-.54.547-.715 1.787-.715 1.787S3 9.858 3 11.314v1.366c0 1.457.18 2.913.18 2.913s.176 1.24.715 1.787c.685.717 1.584.694 1.985.77 1.44.137 6.12.18 6.12.18s3.782-.006 6.301-.188c.352-.042 1.12-.045 1.804-.762.54-.546.715-1.787.715-1.787s.18-1.456.18-2.913v-1.366c0-1.456-.18-2.913-.18-2.913Z"/>
      <path fill="#fff" d="m10.142 14.335-.001-5.058 4.864 2.538-4.863 2.52Z"/>
    </symbol>
    <symbol id="logo-tiktok-color" fill="none" viewBox="0 0 24 24">
      <path fill="#000" d="M19.125 4.125H4.875a.75.75 0 0 0-.75.75v14.25c0 .414.336.75.75.75h14.25a.75.75 0 0 0 .75-.75V4.875a.75.75 0 0 0-.75-.75Z"/>
      <path fill="#6AC9D0" d="M10.786 10.2v2.095a1.78 1.78 0 0 0-2.29 1.586c0 .841.462 1.852 1.764 1.852a1.738 1.738 0 0 0 1.763-1.784V5.656h2.072c.353 2.193 1.45 2.702 2.918 2.937v2.1s-1.743-.123-2.859-.966v4.152c0 1.724-1.313 3.976-3.877 3.976S6.4 15.68 6.4 13.86a3.82 3.82 0 0 1 4.386-3.66Z"/>
      <path fill="#EE1D52" d="M11.373 10.688v2.094a1.782 1.782 0 0 0-2.29 1.586c0 .842.462 1.853 1.764 1.853a1.738 1.738 0 0 0 1.763-1.784V6.146h2.073c.352 2.192 1.449 2.702 2.917 2.936v2.1s-1.742-.123-2.858-.965v4.152c0 1.723-1.313 3.975-3.877 3.975S6.988 16.17 6.988 14.35a3.82 3.82 0 0 1 4.385-3.662Z"/>
      <path fill="#fff" d="M17.012 8.965a2.837 2.837 0 0 1-1.535-.862c-.59-.353-1.037-.938-1.284-1.958H12.61v8.293a1.74 1.74 0 0 1-1.762 1.784 1.634 1.634 0 0 1-1.405-.658 1.8 1.8 0 0 1-.947-1.684 1.78 1.78 0 0 1 2.29-1.586v-1.65a3.83 3.83 0 0 0-3.798 3.706 4.224 4.224 0 0 0 1.165 2.887c.63.415 1.37.63 2.125.619 2.565 0 3.876-2.25 3.876-3.975V9.729c1.116.842 2.859.965 2.859.965V8.965Z"/>
    </symbol>
    <symbol id="logo-tiktok" viewBox="0 0 24 24">
      <path fill="currentColor" d="M10.642 9.703v3.091a2.691 2.691 0 0 0-3.375 2.493 2.432 2.432 0 0 0 2.6 2.582 2.423 2.423 0 0 0 2.6-2.617V3h3.058c.52 3.236 2.138 3.987 4.305 4.333v3.102a9.22 9.22 0 0 1-4.219-1.425v6.125c0 2.775-1.642 5.865-5.72 5.865a5.748 5.748 0 0 1-5.721-5.894 5.637 5.637 0 0 1 6.472-5.403Z"/>
    </symbol>
    <symbol id="logo-soundcloud-color" fill="none" viewBox="0 0 24 24">
      <path fill="#F26E20" d="M3.338 12.228c-.006-.044-.038-.075-.077-.075-.04 0-.072.032-.078.075L3 13.902l.183 1.637c.005.044.038.076.078.076.039 0 .07-.031.077-.075l.209-1.638-.209-1.674Zm2.888-1.544a.144.144 0 0 0-.141.14l-.146 3.08.146 1.99a.144.144 0 0 0 .14.139.145.145 0 0 0 .142-.14v.001l.165-1.99-.165-3.08a.145.145 0 0 0-.141-.14Zm-1.495 1.071a.113.113 0 0 0-.11.107l-.164 2.04.165 1.975a.112.112 0 0 0 .11.107.113.113 0 0 0 .109-.107l.186-1.974-.186-2.041a.113.113 0 0 0-.11-.107Zm3.013 4.278a.175.175 0 0 0 .173-.172l.143-1.956-.143-4.1a.175.175 0 0 0-.172-.172.174.174 0 0 0-.173.171l-.127 4.1.127 1.958c.003.095.079.17.172.17Zm3.109.009a.24.24 0 0 0 .237-.236l.1-1.9-.1-4.736a.24.24 0 0 0-.237-.235.239.239 0 0 0-.236.235l-.09 4.734.09 1.904a.239.239 0 0 0 .236.234Zm-1.566-.007c.112 0 .202-.09.205-.204v.001l.121-1.927-.121-4.13a.206.206 0 0 0-.205-.204.205.205 0 0 0-.205.204l-.108 4.13.108 1.927a.205.205 0 0 0 .205.203Zm9.421-4.573a2.28 2.28 0 0 0-.887.178 4.046 4.046 0 0 0-5.496-3.413c-.172.066-.219.135-.22.27v7.276c.002.14.11.257.247.27l6.355.005a2.293 2.293 0 0 0 0-4.586Z"/>
    </symbol>
    <symbol id="logo-soundcloud" viewBox="0 0 24 24">
      <path fill="currentColor" d="M17.82 11.64a2.293 2.293 0 1 1 .887 4.408l-6.355-.004a.277.277 0 0 1-.247-.271V8.496c.001-.134.047-.203.22-.27a4.046 4.046 0 0 1 5.495 3.413Zm-6.73 4.166a.24.24 0 0 1-.237.236.239.239 0 0 1-.236-.234l-.09-1.904.09-4.734a.239.239 0 0 1 .236-.235.24.24 0 0 1 .237.235l.1 4.736-.1 1.9Zm-3.346.227a.175.175 0 0 0 .173-.172l.143-1.956-.143-4.1a.175.175 0 0 0-.172-.172.174.174 0 0 0-.173.172l-.127 4.1.127 1.957c.003.095.079.17.172.17Zm-1.518-5.349a.144.144 0 0 0-.141.14l-.146 3.08.146 1.99a.144.144 0 0 0 .14.139.145.145 0 0 0 .142-.14l.165-1.99-.165-3.08a.145.145 0 0 0-.141-.139Zm-2.888 1.544c-.006-.044-.038-.075-.077-.075-.04 0-.072.032-.078.075L3 13.902l.183 1.637c.005.044.038.076.078.076.039 0 .07-.031.077-.075l.209-1.638-.209-1.674Zm1.284-.366a.112.112 0 0 1 .11-.107c.056 0 .104.046.109.107l.186 2.04-.186 1.975a.113.113 0 0 1-.11.107.112.112 0 0 1-.11-.107l-.164-1.974.165-2.04Zm4.665 4.173c.112 0 .202-.09.205-.204v.001l.121-1.927-.121-4.13a.206.206 0 0 0-.205-.204.205.205 0 0 0-.205.204l-.108 4.13.108 1.927a.205.205 0 0 0 .205.203Z"/>
    </symbol>
    <symbol id="logo-snapchat" viewBox="0 0 24 24">
      <path fill="currentColor" d="M12.174 3.54h-.356a4.79 4.79 0 0 0-4.446 2.873c-.4.895-.3 2.416-.225 3.639l.027.438a.71.71 0 0 1-.35.075 2.01 2.01 0 0 1-.825-.222.668.668 0 0 0-.286-.058.893.893 0 0 0-.875.6c-.05.26.067.638.9.967.075.03.166.058.262.089.344.11.865.274 1.006.606a.8.8 0 0 1-.086.66l-.009.018c-.045.107-1.147 2.619-3.594 3.022a.375.375 0 0 0-.317.392.495.495 0 0 0 .04.167c.184.429.958.744 2.368.963.06.136.102.28.126.426.03.135.06.274.103.422a.418.418 0 0 0 .437.317 2.24 2.24 0 0 0 .407-.056c.315-.07.636-.106.959-.11.23.001.46.02.688.06.474.121.915.349 1.289.665a4.06 4.06 0 0 0 2.47.966h.223a4.065 4.065 0 0 0 2.475-.966 3.254 3.254 0 0 1 1.29-.666 4.16 4.16 0 0 1 .688-.058 4.7 4.7 0 0 1 .96.102c.133.029.269.046.406.05h.02a.406.406 0 0 0 .416-.312c.043-.144.075-.28.104-.418.023-.146.065-.289.125-.424 1.41-.22 2.185-.533 2.368-.96a.5.5 0 0 0 .038-.169.375.375 0 0 0-.312-.389c-2.447-.403-3.548-2.915-3.594-3.021l-.008-.018a.798.798 0 0 1-.086-.66c.14-.332.661-.497 1.005-.606.097-.031.187-.06.262-.089.61-.241.916-.537.91-.88a.732.732 0 0 0-.549-.628 1.003 1.003 0 0 0-.375-.075.825.825 0 0 0-.344.07 2.101 2.101 0 0 1-.776.22.684.684 0 0 1-.3-.075l.023-.385v-.053c.075-1.222.173-2.745-.225-3.641a4.8 4.8 0 0 0-4.457-2.867Z"/>
    </symbol>
    <symbol id="logo-slack-color" fill="none" viewBox="0 0 24 24">
      <path fill="#36C5F0" d="M9.8 3.75a1.65 1.65 0 1 0 0 3.3h1.65V5.4A1.65 1.65 0 0 0 9.8 3.75Zm0 4.4H5.4a1.65 1.65 0 0 0 0 3.3h4.4a1.65 1.65 0 0 0 0-3.3"/>
      <path fill="#2EB67D" d="M20.25 9.8a1.65 1.65 0 1 0-3.3 0v1.65h1.65a1.65 1.65 0 0 0 1.65-1.65Zm-4.4 0V5.4a1.65 1.65 0 1 0-3.3 0v4.4a1.65 1.65 0 1 0 3.3 0"/>
      <path fill="#ECB22E" d="M14.2 20.25a1.65 1.65 0 1 0 0-3.3h-1.65v1.65a1.65 1.65 0 0 0 1.65 1.65Zm0-4.4h4.4a1.65 1.65 0 1 0 0-3.3h-4.4a1.65 1.65 0 1 0 0 3.3Z"/>
      <path fill="#E01E5A" d="M3.75 14.2a1.65 1.65 0 1 0 3.3 0v-1.65H5.4a1.65 1.65 0 0 0-1.65 1.65Zm4.4 0v4.4a1.65 1.65 0 1 0 3.3 0v-4.4a1.65 1.65 0 1 0-3.3 0Z"/>
    </symbol>
    <symbol id="logo-snapchat-color" fill="none" viewBox="0 0 24 24">
      <path fill="#FFFC00" d="M6.379 3.75H17.62a2.64 2.64 0 0 1 1.86.769c.491.491.769 1.162.769 1.86V17.62c0 .698-.277 1.365-.769 1.86a2.619 2.619 0 0 1-1.86.769H6.38a2.614 2.614 0 0 1-1.856-.769 2.625 2.625 0 0 1-.77-1.86V6.38c0-.698.278-1.365.77-1.86a2.634 2.634 0 0 1 1.86-.769H6.38Z"/>
      <path fill="#fff" d="M12.06 17.674h-.154a2.637 2.637 0 0 1-1.62-.638 2.4 2.4 0 0 0-.937-.48 3.06 3.06 0 0 0-1.174.034 1.433 1.433 0 0 1-.255.038.147.147 0 0 1-.112-.03.156.156 0 0 1-.064-.098 5.028 5.028 0 0 1-.068-.281c-.052-.233-.086-.375-.184-.39-1.136-.177-1.458-.417-1.533-.585-.011-.023-.015-.049-.019-.072 0-.03.007-.063.026-.086a.114.114 0 0 1 .079-.045c1.748-.289 2.527-2.07 2.561-2.149v-.007a.65.65 0 0 0 .068-.559c-.12-.281-.51-.405-.769-.487a1.769 1.769 0 0 1-.169-.056c-.517-.207-.558-.413-.54-.522a.483.483 0 0 1 .473-.308.37.37 0 0 1 .142.027c.191.098.405.154.623.165.135.011.27-.03.371-.12l-.022-.367c-.053-.825-.117-1.853.146-2.438a3.15 3.15 0 0 1 2.932-1.89h.244a3.197 3.197 0 0 1 1.755.503c.521.337.934.82 1.185 1.387.262.585.195 1.613.143 2.438v.037c-.008.116-.016.225-.02.334a.5.5 0 0 0 .338.116 1.58 1.58 0 0 0 .585-.161.383.383 0 0 1 .184-.034.51.51 0 0 1 .21.041.38.38 0 0 1 .293.315c0 .12-.09.304-.544.48a1.563 1.563 0 0 1-.173.056c-.258.083-.649.207-.768.488a.676.676 0 0 0 .063.559v.007c.034.075.818 1.86 2.565 2.149a.13.13 0 0 1 .079.045.12.12 0 0 1 .026.086.155.155 0 0 1-.018.072c-.072.168-.398.408-1.534.585-.094.014-.128.134-.184.39a3.671 3.671 0 0 1-.067.277.153.153 0 0 1-.057.094.151.151 0 0 1-.105.03h-.015a1.15 1.15 0 0 1-.255-.034 3.224 3.224 0 0 0-1.174-.03 2.393 2.393 0 0 0-.937.476 2.663 2.663 0 0 1-1.62.641v-.003Z"/>
      <path fill="#030303" d="M11.863 5.918h.242c.015 0 .03 0 .045.003a3.59 3.59 0 0 1 1.926.57c.59.379 1.054.924 1.335 1.567.16.36.213.82.225 1.27.011.454-.02.934-.047 1.35v.024a.228.228 0 0 1 0 .02c.11-.02.216-.056.316-.106l.008-.003.003-.002a.85.85 0 0 1 .351-.074c.117 0 .235.02.35.064a.786.786 0 0 1 .565.689.712.712 0 0 1-.236.54 1.704 1.704 0 0 1-.564.334l-.009.003a5.044 5.044 0 0 1-.125.042l-.06.02-.004.002a2.37 2.37 0 0 0-.355.133.417.417 0 0 0-.154.112.288.288 0 0 0-.007.095.208.208 0 0 0 .036.097c.022.03.037.063.045.098.05.108.23.472.555.853.377.445.93.893 1.682 1.017l.006.001a.539.539 0 0 1 .443.543.59.59 0 0 1-.046.22l-.003.008c-.109.252-.361.417-.65.534a5.074 5.074 0 0 1-1.023.265.785.785 0 0 0-.022.107l-.015.064c-.016.069-.034.15-.058.23a.567.567 0 0 1-.556.42h-.027a1.973 1.973 0 0 1-.324-.039l-.005-.001a2.676 2.676 0 0 0-1.007-.029c-.282.076-.54.21-.762.397a3.078 3.078 0 0 1-1.877.73h-.166a3.077 3.077 0 0 1-1.865-.73 1.9 1.9 0 0 0-.757-.397 2.574 2.574 0 0 0-.412-.035 2.94 2.94 0 0 0-.594.067 1.65 1.65 0 0 1-.322.045.553.553 0 0 1-.385-.112.576.576 0 0 1-.207-.314 3.515 3.515 0 0 1-.095-.403 5.05 5.05 0 0 1-1.024-.267c-.288-.117-.54-.281-.648-.531a.591.591 0 0 1-.05-.22.53.53 0 0 1 .115-.358.52.52 0 0 1 .331-.198h.004c.75-.123 1.304-.57 1.682-1.015.322-.377.503-.736.562-.861a.282.282 0 0 1 .032-.075.299.299 0 0 0 .04-.114.252.252 0 0 0-.004-.093.4.4 0 0 0-.156-.115 2.42 2.42 0 0 0-.35-.132 2.51 2.51 0 0 1-.174-.057l-.02-.007a.125.125 0 0 1-.008-.003c-.313-.123-.53-.27-.66-.443a.666.666 0 0 1-.12-.58.904.904 0 0 1 .868-.597.773.773 0 0 1 .318.072c.122.063.25.101.383.115l-.003-.045v-.004l-.002-.021c-.026-.411-.056-.885-.045-1.333.011-.45.063-.91.223-1.27a3.55 3.55 0 0 1 1.336-1.568 3.588 3.588 0 0 1 1.976-.57Zm.192.562h-.197a3.025 3.025 0 0 0-1.667.48 2.987 2.987 0 0 0-1.125 1.32v.002c-.114.255-.165.623-.175 1.056-.01.424.018.877.044 1.295v.009c.008.097.016.206.02.309a.281.281 0 0 1-.155.262.769.769 0 0 1-.378.082 1.634 1.634 0 0 1-.673-.176.21.21 0 0 0-.076-.015h-.009a.331.331 0 0 0-.317.202c0 .016.007.04.032.073.043.059.153.155.411.256l.02.008c.047.017.09.032.137.045l.01.003.008.002c.114.037.28.09.43.165.147.074.336.198.425.407a.822.822 0 0 1-.051.662.276.276 0 0 1-.016.039l-.003.006-.01.021a4.05 4.05 0 0 1-.161.305 4.717 4.717 0 0 1-.483.685c-.424.498-1.08 1.043-1.996 1.2l.002.004c.02.044.1.133.344.232.24.098.589.186 1.063.26a.281.281 0 0 1 .215.164c.049.111.086.23.106.357a2.943 2.943 0 0 0 .07.275l.013-.001a.999.999 0 0 0 .22-.03h.007c.239-.054.475-.079.713-.083h.005a3.162 3.162 0 0 1 .541.05c.37.093.708.271.995.516m1.66-10.447a.282.282 0 0 0 .05.004 3.019 3.019 0 0 1 1.667.48 2.99 2.99 0 0 1 1.124 1.32v.002c.114.255.166.623.177 1.057a14.522 14.522 0 0 1-.047 1.326v.027l-.007.121v.005a6.38 6.38 0 0 0-.008.13.281.281 0 0 0 .15.262.724.724 0 0 0 .36.084 1.73 1.73 0 0 0 .63-.176.288.288 0 0 1 .116-.022c.059 0 .108.01.153.028l.033.011a.226.226 0 0 1 .115.07l.004.004a.21.21 0 0 1 .048.104c-.002.022-.012.057-.065.108a1.159 1.159 0 0 1-.375.214 4.248 4.248 0 0 1-.168.056l-.007.002c-.114.037-.28.089-.43.165-.147.074-.336.198-.425.406a.884.884 0 0 0-.038.383.78.78 0 0 0 .102.294c0 .003.002.005.003.008a4.4 4.4 0 0 0 .658 1.03c.423.499 1.078 1.044 1.993 1.204-.02.045-.098.134-.343.234-.24.097-.59.184-1.064.257a.281.281 0 0 0-.215.165 1.45 1.45 0 0 0-.105.352l-.017.074a2.413 2.413 0 0 1-.05.197h-.022a1.427 1.427 0 0 1-.223-.027 3.242 3.242 0 0 0-1.235-.033 2.551 2.551 0 0 0-1.02.52l-.001.001a2.518 2.518 0 0 1-1.52.597h-.14a2.516 2.516 0 0 1-1.52-.597"/>
    </symbol>
    <symbol id="logo-slack" viewBox="0 0 24 24">
      <path fill="currentColor" d="M8.327 3.527A1.8 1.8 0 0 1 11.4 4.8v1.8H9.6a1.8 1.8 0 0 1-1.273-3.073ZM4.8 7.8h4.8a1.8 1.8 0 0 1 0 3.6H4.8a1.8 1.8 0 1 1 0-3.6ZM21 9.6a1.8 1.8 0 1 0-3.6 0v1.8h1.8A1.8 1.8 0 0 0 21 9.6Zm-4.8-4.8v4.8a1.8 1.8 0 1 1-3.6 0V4.8a1.8 1.8 0 1 1 3.6 0ZM14.4 21a1.8 1.8 0 1 0 0-3.6h-1.8v1.8a1.8 1.8 0 0 0 1.8 1.8Zm4.8-4.8h-4.8a1.8 1.8 0 1 1 0-3.6h4.8a1.8 1.8 0 1 1 0 3.6ZM3 14.4a1.8 1.8 0 0 0 3.6 0v-1.8H4.8A1.8 1.8 0 0 0 3 14.4Zm4.8 4.8v-4.8a1.8 1.8 0 0 1 3.6 0v4.8a1.8 1.8 0 1 1-3.6 0Z"/>
    </symbol>
    <symbol id="logo-x" viewBox="0 0 24 24">
      <path fill="currentColor" d="M15.335 19.875h5.377l-6.864-9.077 5.835-6.673H17.01L12.609 9.16 8.801 4.125H3.288l6.59 8.615-6.246 7.135h2.673l4.82-5.504 4.21 5.504Zm2.218-1.6h-1.48L6.408 5.64h1.589l9.556 12.636Z"/>
    </symbol>
    <symbol id="logo-paypal-color" fill="none" viewBox="0 0 24 24">
      <path fill="#009DE2" d="M10.898 7.236h5.077c2.726 0 3.752 1.38 3.594 3.41-.261 3.348-2.285 5.2-4.97 5.2h-1.355c-.368 0-.615.242-.716.903l-.581 3.838c-.038.249-.169.395-.366.413H8.397c-.3 0-.406-.23-.327-.726l1.944-12.31c.078-.493.348-.728.884-.728Z"/>
      <path fill="#113984" d="M7.724 3h5.082c1.432 0 3.13.046 4.265 1.048.759.67 1.157 1.735 1.065 2.88-.312 3.88-2.633 6.054-5.746 6.054H9.883c-.426 0-.71.283-.83 1.049l-.7 4.45c-.044.288-.17.458-.398.479h-3.13c-.348 0-.472-.266-.38-.842L6.698 3.844C6.789 3.272 7.102 3 7.724 3Z"/>
      <path fill="#172C70" d="m9.126 13.582.888-5.618c.078-.493.348-.728.884-.728h5.077c.84 0 1.52.131 2.052.373-.51 3.454-2.744 5.373-5.67 5.373H9.851c-.33 0-.577.169-.725.6Z"/>
    </symbol>
    <symbol id="logo-paypal" viewBox="0 0 24 24">
      <path fill="currentColor" d="M17.361 4.357C16.528 3.407 15.021 3 13.094 3H7.5a.801.801 0 0 0-.791.676l-2.33 14.772a.48.48 0 0 0 .475.555h3.454l.867-5.501-.027.172a.798.798 0 0 1 .788-.676h1.641c3.224 0 5.749-1.31 6.486-5.097.022-.112.057-.328.057-.328.21-1.402-.001-2.353-.759-3.216Z"/>
      <path fill="currentColor" d="M11.577 13.994c4.058 0 6.615-1.974 7.417-5.703.64.805.765 1.92.506 3.25-.645 3.313-2.854 4.46-5.674 4.46h-.435a.7.7 0 0 0-.692.59l-.035.192-.549 3.478-.028.148a.7.7 0 0 1-.692.591H9.008l1.098-7.006h1.471Z"/>
    </symbol>
    <symbol id="logo-microsoft-onenote" viewBox="0 0 24 24">
      <path fill="currentColor" d="M3.75 18.525V5.475l9.64-1.632v16.313l-9.64-1.631Zm5.995-3.45 1.235.075-.003-6.46-1.159.07v4.102c.001.039.006.056.01.072a.213.213 0 0 1 .009.052c.003.055.008.101.014.14h-.016a2.538 2.538 0 0 0-.075-.156 27.465 27.465 0 0 1-.023-.047l-.047-.092-.064-.12a7.246 7.246 0 0 0-.058-.104L7.524 8.895l-1.178.046v5.951l.927.048v-3.964c.001-.05.002-.098 0-.143a.277.277 0 0 1 .018-.1c.009-.03.018-.059.015-.085.007.014.026.03.047.045a.183.183 0 0 1 .053.053l.015.031.04.085.065.126.004.006.081.15 2.134 3.931ZM19.88 6.623h-.927v-.566c0-.194-.235-.36-.242-.36h-4.95V7.55h3.708v.742h-3.708v.927h3.708v.742h-3.708v.927h3.708v.742h-3.708v.926h3.708v.742h-3.708v.927h3.708v.741h-3.708v.927h3.708v.742h-3.708V18.3h4.82a.375.375 0 0 0 .375-.36V9.96h.927a.387.387 0 0 0 .367-.37v-2.6a.383.383 0 0 0-.37-.367Z"/>
      <path fill="currentColor" d="M19.323 10.331h.556a.387.387 0 0 1 .371.372v2.595a.387.387 0 0 1-.37.37h-.557v-3.337Zm0 3.709h.556a.387.387 0 0 1 .371.37v2.592a.387.387 0 0 1-.37.375h-.557v-3.338Z"/>
    </symbol>
    <symbol id="logo-google" viewBox="0 0 24 24">
      <path fill="currentColor" d="M20.63 10.364h-8.59v3.681h4.869c-.778 2.455-2.7 3.273-4.908 3.273A5.317 5.317 0 0 1 8.4 8.08a5.318 5.318 0 0 1 7.015-.15l2.675-2.55A9 9 0 1 0 12 21c4.963 0 9.45-3.273 8.63-10.636Z"/>
    </symbol>
    <symbol id="logo-linkedin-color" fill="none" viewBox="0 0 24 24">
      <path fill="#007BB5" d="M19.668 3H4.328C3.595 3 3 3.581 3 4.298V19.7c0 .718.595 1.3 1.328 1.3h15.34c.734 0 1.332-.582 1.332-1.299V4.298C21 3.58 20.402 3 19.668 3Z"/>
      <path fill="#fff" d="M5.667 9.748H8.34v8.59H5.667v-8.59Zm1.337-4.27a1.548 1.548 0 1 1-.002 3.097 1.548 1.548 0 0 1 .002-3.097Zm3.01 4.27h2.56v1.174h.036c.356-.675 1.227-1.387 2.526-1.387 2.703 0 3.203 1.778 3.203 4.092v4.71h-2.67v-4.176c0-.996-.017-2.278-1.387-2.278-1.39 0-1.601 1.086-1.601 2.206v4.249h-2.667v-8.59Z"/>
    </symbol>
    <symbol id="logo-linkedin" viewBox="0 0 24 24">
      <path fill="currentColor" d="M20.25 3H3.75C3.3 3 3 3.3 3 3.75v16.5c0 .45.3.75.75.75h16.5c.45 0 .75-.3.75-.75V3.75c0-.45-.3-.75-.75-.75ZM5.7 18.375V9.75h2.7v8.625H5.7ZM6.975 8.55A1.584 1.584 0 0 1 5.4 6.975c0-.825.675-1.575 1.575-1.575.825 0 1.575.675 1.575 1.575 0 .9-.675 1.575-1.575 1.575Zm11.4 9.825h-2.7v-4.2c0-.975 0-2.25-1.35-2.25-1.425 0-1.575 1.05-1.575 2.175v4.275h-2.7V9.75h2.55v1.2c.375-.675 1.2-1.35 2.55-1.35 2.7 0 3.225 1.8 3.225 4.125v4.65Z"/>
    </symbol>
    <symbol id="logo-instagram-color" fill="none" viewBox="0 0 24 24">
      <path fill="url(#a)" d="M12.003 4.125c-3.288 0-4.25.003-4.437.019a3.904 3.904 0 0 0-1.551.39c-.34.165-.646.39-.905.663a3.38 3.38 0 0 0-.913 1.915c-.053.369-.068.444-.072 2.325v2.56c0 3.286.004 4.247.02 4.433.022.527.15 1.045.375 1.522a3.318 3.318 0 0 0 2.15 1.757c.375.09.758.14 1.143.15.195.008 2.183.014 4.172.014 1.99 0 3.978-.002 4.169-.012.399-.007.796-.06 1.184-.155a3.298 3.298 0 0 0 2.15-1.76c.222-.468.348-.975.372-1.493.01-.135.015-2.299.015-4.46 0-2.16-.005-4.32-.016-4.456a3.855 3.855 0 0 0-.379-1.507 3.126 3.126 0 0 0-.675-.924 3.397 3.397 0 0 0-1.917-.91c-.368-.053-.44-.07-2.325-.072l-2.56.001Z"/>
      <path fill="url(#b)" d="M12.003 4.125c-3.288 0-4.25.003-4.437.019a3.904 3.904 0 0 0-1.551.39c-.34.165-.646.39-.905.663a3.38 3.38 0 0 0-.913 1.915c-.053.369-.068.444-.072 2.325v2.56c0 3.286.004 4.247.02 4.433.022.527.15 1.045.375 1.522a3.318 3.318 0 0 0 2.15 1.757c.375.09.758.14 1.143.15.195.008 2.183.014 4.172.014 1.99 0 3.978-.002 4.169-.012.399-.007.796-.06 1.184-.155a3.298 3.298 0 0 0 2.15-1.76c.222-.468.348-.975.372-1.493.01-.135.015-2.299.015-4.46 0-2.16-.005-4.32-.016-4.456a3.855 3.855 0 0 0-.379-1.507 3.126 3.126 0 0 0-.675-.924 3.397 3.397 0 0 0-1.917-.91c-.368-.053-.44-.07-2.325-.072l-2.56.001Z"/>
      <path fill="#fff" d="M12 6.185c-1.58 0-1.777.007-2.397.035-.483.01-.96.1-1.412.27a2.973 2.973 0 0 0-1.7 1.7c-.17.453-.262.93-.27 1.413-.029.62-.036.818-.036 2.4 0 1.581.007 1.777.035 2.397.01.482.101.96.27 1.412a2.974 2.974 0 0 0 1.7 1.7c.452.17.929.26 1.411.27.62.029.818.036 2.397.036 1.579 0 1.777-.007 2.397-.036a4.28 4.28 0 0 0 1.412-.27 2.979 2.979 0 0 0 1.7-1.7c.169-.453.26-.93.27-1.413.028-.62.035-.818.035-2.397 0-1.58-.007-1.778-.034-2.398a4.315 4.315 0 0 0-.27-1.412 2.973 2.973 0 0 0-1.701-1.7 4.27 4.27 0 0 0-1.413-.271c-.62-.028-.818-.035-2.397-.035L12 6.185Zm-.522 1.05H12c1.553 0 1.737.005 2.35.033.368.005.733.072 1.079.2a1.927 1.927 0 0 1 1.103 1.104c.128.346.196.711.2 1.08.028.613.035.797.035 2.35 0 1.551-.007 1.735-.034 2.348a3.218 3.218 0 0 1-.2 1.08 1.926 1.926 0 0 1-1.104 1.103c-.346.129-.71.196-1.08.2-.612.028-.796.034-2.349.034-1.553 0-1.737-.006-2.35-.033a3.218 3.218 0 0 1-1.079-.201 1.927 1.927 0 0 1-1.104-1.103 3.2 3.2 0 0 1-.2-1.08c-.028-.613-.034-.797-.034-2.35 0-1.554.006-1.737.034-2.35.004-.368.072-.734.2-1.08a1.925 1.925 0 0 1 1.104-1.103c.346-.129.71-.197 1.08-.201a32.16 32.16 0 0 1 1.827-.033v.002Zm3.626.965a.698.698 0 1 0 0 1.397.698.698 0 0 0 0-1.396ZM12 9.014a2.987 2.987 0 1 0-.004 5.973A2.987 2.987 0 0 0 12 9.014Zm0 1.05a1.94 1.94 0 1 1-.001 3.882A1.94 1.94 0 0 1 12 10.062v.002Z"/>
      <defs>
        <radialGradient id="a" cx="0" cy="0" r="1" gradientTransform="matrix(0 -15.6132 14.5187 0 8.344 21.116)" gradientUnits="userSpaceOnUse">
          <stop stop-color="#FD5"/>
          <stop offset=".1" stop-color="#FD5"/>
          <stop offset=".5" stop-color="#FF543E"/>
          <stop offset="1" stop-color="#C837AB"/>
        </radialGradient>
        <radialGradient id="b" cx="0" cy="0" r="1" gradientTransform="matrix(1.36999 6.84207 -28.2025 5.64699 1.462 5.191)" gradientUnits="userSpaceOnUse">
          <stop stop-color="#3771C8"/>
          <stop offset=".128" stop-color="#3771C8"/>
          <stop offset="1" stop-color="#60F" stop-opacity="0"/>
        </radialGradient>
      </defs>
    </symbol>
    <symbol id="logo-youtube" viewBox="0 0 24 24">
      <path fill="currentColor" d="M20.85 8.4s-.15-1.275-.75-1.8c-.675-.75-1.425-.75-1.8-.75C15.75 5.7 12 5.7 12 5.7s-3.75 0-6.3.15c-.375.075-1.125.075-1.8.75-.525.525-.75 1.8-.75 1.8S3 9.825 3 11.325v1.35c0 1.425.15 2.925.15 2.925s.15 1.275.75 1.8c.675.75 1.575.675 1.95.75 1.425.15 6.15.15 6.15.15s3.75 0 6.3-.225c.375-.075 1.125-.075 1.8-.75.525-.525.75-1.8.75-1.8S21 14.1 21 12.6v-1.35c0-1.425-.15-2.85-.15-2.85Zm-10.725 5.925V9.3L15 11.85l-4.875 2.475Z"/>
    </symbol>
    <symbol id="logo-instagram" viewBox="0 0 24 24">
      <path fill="currentColor" d="M12 7.763a4.237 4.237 0 1 0 0 8.474 4.237 4.237 0 0 0 0-8.474Zm0 6.987a2.75 2.75 0 1 1 0-5.5 2.75 2.75 0 0 1 0 5.5Zm5.394-7.154a.99.99 0 1 1-1.98 0 .99.99 0 0 1 1.98 0Z"/>
      <path fill="currentColor" d="M12 3.75c-2.24 0-2.521.01-3.401.05a6.08 6.08 0 0 0-2.003.383A4.219 4.219 0 0 0 4.183 6.6 6.08 6.08 0 0 0 3.8 8.602C3.76 9.48 3.75 9.76 3.75 12s.01 2.521.05 3.401a6.08 6.08 0 0 0 .383 2.003A4.22 4.22 0 0 0 6.6 19.817c.641.24 1.318.37 2.002.384.877.04 1.158.049 3.398.049s2.521-.01 3.401-.05a6.078 6.078 0 0 0 2.003-.383 4.218 4.218 0 0 0 2.413-2.417c.24-.641.37-1.318.384-2.002.04-.877.049-1.158.049-3.398s-.01-2.521-.05-3.401a6.078 6.078 0 0 0-.383-2.003A4.217 4.217 0 0 0 17.4 4.183a6.081 6.081 0 0 0-2.002-.383c-.877-.04-1.158-.05-3.398-.05Zm0 1.487c2.203 0 2.464.008 3.334.048a4.553 4.553 0 0 1 1.531.284c.359.132.683.343.949.617.274.266.485.59.617.949.182.49.278 1.008.284 1.531.04.87.049 1.131.049 3.334 0 2.203-.009 2.464-.049 3.334a4.553 4.553 0 0 1-.284 1.531 2.733 2.733 0 0 1-1.566 1.566 4.553 4.553 0 0 1-1.531.284c-.87.04-1.131.049-3.334.049-2.203 0-2.464-.009-3.334-.049a4.554 4.554 0 0 1-1.531-.284 2.55 2.55 0 0 1-.949-.617 2.55 2.55 0 0 1-.617-.949 4.553 4.553 0 0 1-.284-1.531c-.04-.87-.048-1.131-.048-3.334 0-2.203.008-2.464.048-3.334a4.554 4.554 0 0 1 .284-1.531 2.55 2.55 0 0 1 .617-.949 2.55 2.55 0 0 1 .949-.617 4.554 4.554 0 0 1 1.531-.284c.87-.04 1.131-.048 3.334-.048Z"/>
    </symbol>
    <symbol id="logo-google-color" fill="none" viewBox="0 0 24 24">
      <path fill="#D94F3D" d="M12 7.125a4.85 4.85 0 0 1 3.13 1.143l2.452-2.336A8.24 8.24 0 0 0 4.61 8.338l2.765 2.132A4.881 4.881 0 0 1 12 7.125Z"/>
      <path fill="#F2C042" d="M7.125 12c0-.52.085-1.037.25-1.53L4.61 8.338a8.226 8.226 0 0 0 0 7.324l2.765-2.132a4.854 4.854 0 0 1-.25-1.53Z"/>
      <path fill="#5085ED" d="M19.913 10.5h-7.876v3.375H16.5a4.023 4.023 0 0 1-1.708 2.31l2.743 2.116c1.753-1.574 2.784-4.132 2.378-7.801Z"/>
      <path fill="#57A75C" d="M14.79 16.186a5.243 5.243 0 0 1-2.79.689 4.88 4.88 0 0 1-4.625-3.345L4.61 15.662A8.258 8.258 0 0 0 12 20.25a8.2 8.2 0 0 0 5.534-1.95l-2.743-2.114Z"/>
    </symbol>
    <symbol id="logo-rss" viewBox="0 0 24 24">
      <path fill="currentColor" d="M19.5 19.5h-3c0-7.03-5.72-12.75-12.75-12.75v-3c8.684 0 15.75 7.065 15.75 15.75ZM6 19.5A2.25 2.25 0 1 0 6 15a2.25 2.25 0 0 0 0 4.5Z"/>
      <path fill="currentColor" d="M11.25 19.5h3C14.25 13.71 9.54 9 3.75 9v3c4.135 0 7.5 3.364 7.5 7.5Z"/>
    </symbol>
    <symbol id="logo-rss-color" fill="none" viewBox="0 0 24 24">
      <path fill="#F60" d="M6 19.5A2.25 2.25 0 1 0 6 15a2.25 2.25 0 0 0 0 4.5Zm13.5 0h-3c0-7.03-5.72-12.75-12.75-12.75v-3c8.684 0 15.75 7.065 15.75 15.75Z"/>
      <path fill="#F60" d="M14.25 19.5h-3c0-4.136-3.365-7.5-7.5-7.5V9c5.79 0 10.5 4.71 10.5 10.5Z"/>
    </symbol>
    <symbol id="logo-facebook" viewBox="0 0 24 24">
      <path fill="currentColor" d="M21 12.054a9 9 0 1 0-10.406 8.89v-6.288H8.309v-2.602h2.285v-1.983c0-2.255 1.344-3.502 3.399-3.502.675.01 1.348.069 2.015.176V8.96h-1.135a1.3 1.3 0 0 0-1.467 1.406v1.688H15.9l-.399 2.602h-2.1v6.289A9 9 0 0 0 21 12.054Z"/>
    </symbol>
    <symbol id="logo-github-color" fill="none" viewBox="0 0 24 24">
      <path fill="#191717" d="M12 3.222a9 9 0 0 0-2.845 17.54c.45.083.614-.195.614-.434 0-.213-.007-.78-.012-1.53-2.503.544-3.031-1.207-3.031-1.207-.41-1.04-1-1.316-1-1.316-.817-.559.062-.547.062-.547.903.063 1.379.927 1.379.927.803 1.375 2.106.978 2.619.748.082-.582.314-.978.571-1.203-1.998-.227-4.1-1-4.1-4.448 0-.983.352-1.786.927-2.415-.092-.228-.401-1.143.088-2.382 0 0 .756-.242 2.475.922a8.62 8.62 0 0 1 2.254-.302 8.633 8.633 0 0 1 2.253.302c1.718-1.164 2.472-.922 2.472-.922.491 1.239.182 2.154.09 2.382.577.629.925 1.432.925 2.415 0 3.457-2.104 4.218-4.11 4.44.324.279.612.828.612 1.668 0 1.203-.011 2.173-.011 2.468 0 .241.162.521.618.433A9 9 0 0 0 12 3.222Z"/>
    </symbol>
    <symbol id="logo-dropbox" viewBox="0 0 24 24">
      <path fill="currentColor" d="M8.295 3.629 3 7.086l3.661 2.932L3 12.95l5.295 3.457L12 13.315l3.705 3.092L21 12.95l-3.661-2.932L21 7.086 15.705 3.63 12 6.721 8.295 3.63ZM12 6.721l5.339 3.297-5.34 3.297-5.338-3.297L12 6.721Z"/>
      <path fill="currentColor" d="m8.295 17.063 3.716-3.083 3.716 3.083 1.59-1.038v1.164l-5.306 3.182-5.306-3.182v-1.164l1.59 1.038Z"/>
    </symbol>
    <symbol id="logo-vimeo" viewBox="0 0 24 24">
      <path fill="currentColor" d="M21 7.8c-.075 1.725-1.275 4.125-3.675 7.2-2.475 3.15-4.5 4.8-6.225 4.8-1.05 0-1.95-.975-2.7-2.925-.45-1.8-.975-3.525-1.425-5.325C6.45 9.6 5.85 8.625 5.25 8.625c-.15 0-.6.3-1.425.825L3 8.4c.9-.75 1.8-1.575 2.625-2.325 1.2-1.05 2.1-1.575 2.7-1.65 1.425-.15 2.25.825 2.55 2.85.375 2.175.6 3.6.75 4.125.375 1.8.825 2.775 1.35 2.775.375 0 .975-.6 1.725-1.8.75-1.2 1.125-2.1 1.2-2.7.075-1.05-.3-1.575-1.2-1.575-.45 0-.9.075-1.35.3.9-2.925 2.55-4.275 5.1-4.2 1.8.075 2.625 1.275 2.55 3.6Z"/>
    </symbol>
    <symbol id="logo-microsoft-onenote-color" fill="none" viewBox="0 0 24 24">
      <path fill="#CA64EA" d="M19.875 4.5h-12a.75.75 0 0 0-.75.75v13.5c0 .414.336.75.75.75h12a.75.75 0 0 0 .75-.75V5.25a.75.75 0 0 0-.75-.75Z"/>
      <path fill="#AE4BD5" d="M20.625 8.25H16.5V12h4.125V8.25Z"/>
      <path fill="#9332BF" d="M20.625 12H16.5v3.75h4.125V12Z"/>
      <path fill="#7719AA" d="M16.5 15.75h4.125v3a.75.75 0 0 1-.75.75H16.5v-3.75Z"/>
      <path fill="#000" d="M11.625 8.625h-4.5v8.25h4.5a.75.75 0 0 0 .75-.75v-6.75a.75.75 0 0 0-.75-.75Z" opacity=".6"/>
      <path fill="#7F20B0" d="M10.875 7.875h-6.75a.75.75 0 0 0-.75.75v6.75c0 .414.336.75.75.75h6.75a.75.75 0 0 0 .75-.75v-6.75a.75.75 0 0 0-.75-.75Z"/>
      <path fill="#fff" d="M5.315 9.375H6.42L8.772 13.2V9.375h.913v5.25h-.992l-2.45-3.906v3.906h-.928v-5.25Z"/>
    </symbol>
    <symbol id="logo-facebook-color" fill="none" viewBox="0 0 24 24">
      <path fill="#1877F2" d="M12 20.625a8.625 8.625 0 1 0 0-17.25 8.625 8.625 0 0 0 0 17.25Z"/>
      <path fill="#fff" d="M15.357 14.493 15.74 12h-2.392v-1.618c0-.682.334-1.347 1.405-1.347h1.088V6.913a13.24 13.24 0 0 0-1.93-.169c-1.971 0-3.259 1.194-3.259 3.356V12h-2.19v2.493h2.19v6.027c.893.14 1.803.14 2.696 0v-6.027h2.01Z"/>
    </symbol>
    <symbol id="logo-github" viewBox="0 0 24 24">
      <path fill="currentColor" d="M12 3.225c-4.95 0-9 4.05-9 9a8.99 8.99 0 0 0 6.15 8.55c.45.075.6-.225.6-.45v-1.5c-2.475.525-3-1.2-3-1.2-.375-1.05-.975-1.35-.975-1.35-.9-.525 0-.525 0-.525.9.075 1.35.9 1.35.9.825 1.35 2.1.975 2.625.75.075-.6.3-.975.6-1.2-2.025-.225-4.125-.975-4.125-4.425 0-.975.375-1.8.9-2.4 0-.3-.375-1.2.15-2.4 0 0 .75-.225 2.475.9.75-.225 1.5-.3 2.25-.3s1.5.075 2.25.3c1.725-1.2 2.475-.9 2.475-.9.525 1.275.15 2.175.075 2.4.6.6.9 1.425.9 2.4 0 3.45-2.1 4.2-4.125 4.425.3.3.6.825.6 1.65v2.475c0 .225.15.525.6.45a8.99 8.99 0 0 0 6.15-8.55c.075-4.95-3.975-9-8.925-9Z"/>
    </symbol>
    <symbol id="logo-codepen" viewBox="0 0 24 24">
      <path fill="currentColor" d="M21 9.15v-.375l-.075-.075h-.075L12.6 3.225a.812.812 0 0 0-.825 0L3.525 8.7H3.45l-.075.075v6.3l.075.075h.075l8.25 5.475c.15.075.3.15.45.15.15 0 .3-.075.45-.15l8.25-5.475H21l.075-.075v-5.85c-.075 0-.075 0-.075-.075Zm-8.25-3.9 6.075 4.05-2.7 1.8-3.375-2.25v-3.6Zm-1.5 0v3.6L7.875 11.1l-2.7-1.875L11.25 5.25Zm-6.675 5.475L6.45 12 4.5 13.275v-2.55h.075Zm6.675 8.025L5.175 14.7l2.7-1.8 3.375 2.25v3.6ZM12 13.8 9.3 12l2.7-1.8 2.7 1.8-2.7 1.8Zm.75 4.95v-3.6l3.375-2.25 2.7 1.8-6.075 4.05Zm6.675-5.475L17.55 12l1.95-1.275v2.55h-.075Z"/>
    </symbol>
    <symbol id="logo-spotify" viewBox="0 0 24 24">
      <path fill="currentColor" d="M12 3c-4.95 0-9 4.05-9 9s4.05 9 9 9 9-4.05 9-9-3.975-9-9-9Zm4.125 12.975c-.15.3-.525.375-.75.15-2.1-1.275-4.8-1.575-7.95-.825-.3.075-.6-.15-.675-.375-.075-.3.15-.6.375-.675 3.45-.75 6.375-.45 8.7.975.375.15.45.525.3.75ZM17.25 13.5c-.225.3-.6.45-.975.225-2.4-1.5-6.15-1.95-8.925-1.05-.375.075-.75-.075-.825-.45-.075-.375.075-.75.45-.825 3.3-.975 7.35-.525 10.125 1.2.225.15.375.6.15.9Zm.075-2.475C14.4 9.3 9.6 9.15 6.9 9.975c-.45.15-.9-.15-1.05-.525-.15-.45.15-.9.525-1.05C9.6 7.425 14.85 7.65 18.15 9.6c.375.225.525.75.3 1.2-.225.3-.75.45-1.125.225Z"/>
    </symbol>
    <symbol id="logo-facebook-simple" viewBox="0 0 24 24">
      <path fill="currentColor" d="m9.774 20.25-.024-7.5h-3v-3h3V7.875c0-2.784 1.724-4.125 4.207-4.125 1.19 0 2.212.089 2.51.128v2.91h-1.723c-1.35 0-1.612.642-1.612 1.583V9.75h3.93l-1.5 3h-2.43v7.5H9.774Z"/>
    </symbol>
    <symbol id="logo-spotify-color" fill="none" viewBox="0 0 24 24">
      <path fill="#1ED75F" d="M12 3c-4.95 0-9 4.05-9 9s4.05 9 9 9 9-4.05 9-9-4.005-9-9-9Z"/>
      <path fill="#191515" d="M16.14 16.005c-.18.27-.495.36-.765.18-2.115-1.305-4.77-1.575-7.92-.855-.315.09-.585-.135-.675-.405-.09-.315.135-.585.405-.675 3.42-.765 6.39-.45 8.73.99.315.135.36.495.225.765Zm1.08-2.475c-.225.315-.63.45-.945.225-2.43-1.485-6.12-1.935-8.955-1.035-.36.09-.765-.09-.855-.45-.09-.36.09-.765.45-.855 3.285-.99 7.335-.495 10.125 1.215.27.135.405.585.18.9Zm.09-2.52C14.43 9.3 9.615 9.12 6.87 9.975a.844.844 0 0 1-1.035-.54.844.844 0 0 1 .54-1.035c3.195-.945 8.46-.765 11.79 1.215.405.225.54.765.315 1.17-.225.315-.765.45-1.17.225Z"/>
    </symbol>
    <symbol id="logo-codepen-color" fill="none" viewBox="0 0 24 24">
      <path fill="#030502" d="M12 21a9 9 0 1 0 0-18 9 9 0 0 0 0 18Z"/>
      <path fill="#fff" d="m17.77 9.743-5.484-3.656a.515.515 0 0 0-.572 0L6.23 9.743a.522.522 0 0 0-.23.429v3.656c0 .177.095.34.23.429l5.484 3.656a.516.516 0 0 0 .572 0l5.484-3.656a.52.52 0 0 0 .23-.429v-3.656a.522.522 0 0 0-.23-.43Zm-5.254-2.264 4.04 2.693-1.805 1.208-2.235-1.496V7.48Zm-1.032 0v2.405L9.25 11.38l-1.805-1.208 4.04-2.693Zm-4.453 3.658 1.29.863-1.29.863v-1.726Zm4.453 5.384-4.04-2.694L9.25 12.62l2.235 1.496v2.405ZM12 13.22 10.176 12 12 10.78 13.824 12 12 13.22Zm.516 3.3v-2.404l2.235-1.496 1.805 1.207-4.04 2.694Zm4.453-3.657L15.679 12l1.29-.863v1.726Z"/>
    </symbol>
    <symbol id="logo-facebook-simple-color" fill="none" viewBox="0 0 24 24">
      <path fill="#39579A" d="m9.774 20.25-.024-7.5h-3v-3h3V7.875c0-2.784 1.724-4.125 4.207-4.125 1.19 0 2.212.089 2.51.128v2.91h-1.723c-1.35 0-1.612.642-1.612 1.583V9.75h3.93l-1.5 3h-2.43v7.5H9.774Z"/>
    </symbol>
    <symbol id="logo-vimeo-color" fill="none" viewBox="0 0 24 24">
      <path fill="#00B6EC" d="M20.991 7.818c-.08 1.751-1.303 4.15-3.67 7.195-2.448 3.18-4.519 4.77-6.212 4.77-1.05 0-1.937-.967-2.663-2.904L6.994 11.55c-.54-1.936-1.117-2.905-1.735-2.905-.135 0-.606.284-1.413.848L3 8.404c.888-.781 1.764-1.561 2.627-2.343C6.81 5.038 7.7 4.499 8.294 4.445c1.4-.135 2.263.823 2.586 2.872.35 2.211.592 3.586.728 4.125.404 1.834.849 2.75 1.334 2.75.376 0 .942-.594 1.697-1.785.754-1.19 1.157-2.095 1.212-2.717.108-1.027-.296-1.542-1.212-1.542-.43 0-.875.1-1.332.295.885-2.897 2.575-4.304 5.07-4.224 1.849.055 2.721 1.254 2.614 3.599Z"/>
    </symbol>
    <symbol id="logo-dropbox-color" fill="none" viewBox="0 0 24 24">
      <path fill="#007BE9" d="M8.295 3.629 3 7.086l3.661 2.932L12 6.721 8.295 3.63ZM3 12.95l5.295 3.457L12 13.315l-5.34-3.297L3 12.95Z"/>
      <path fill="#007BE9" d="m12 13.315 3.705 3.092L21 12.95l-3.661-2.932-5.34 3.297Z"/>
      <path fill="#007BE9" d="M21 7.086 15.705 3.63 12 6.721l5.339 3.297L21 7.086Zm-8.99 6.894-3.715 3.084-1.59-1.039v1.164l5.306 3.182 5.306-3.182v-1.164l-1.59 1.039-3.716-3.084Z"/>
    </symbol>
  </defs>
</svg>
