<svg xmlns="http://www.w3.org/2000/svg">
  <defs>
    <symbol id="military-medal" viewBox="0 0 24 24">
      <path fill="currentColor" fill-rule="evenodd" d="M7.5 3.75A.75.75 0 0 1 8.25 3h7.5a.75.75 0 0 1 .75.75V9a.75.75 0 0 1-.364.643l-3.443 2.066 1.023 2.075 2.335.339a.75.75 0 0 1 .415 1.279l-1.688 1.646.398 2.325a.75.75 0 0 1-1.088.79L12 19.067l-2.088 1.098a.75.75 0 0 1-1.088-.79l.398-2.326-1.688-1.646a.75.75 0 0 1 .415-1.28l2.335-.338 1.023-2.075-3.443-2.066A.75.75 0 0 1 7.5 9V3.75Zm7.5.75V6H9V4.5h6Zm0 3H9v1.075l3 1.8 3-1.8V7.5Zm-3.545 7.3L12 13.696l.545 1.106a.75.75 0 0 0 .565.41l1.221.178-.883.86a.75.75 0 0 0-.216.664l.209 1.216-1.092-.575a.75.75 0 0 0-.698 0l-1.092.575.209-1.216a.75.75 0 0 0-.216-.663l-.883-.861 1.22-.178a.75.75 0 0 0 .566-.41Z"/>
    </symbol>
    <symbol id="military-tag" viewBox="0 0 24 24">
      <path fill="currentColor" fill-rule="evenodd" d="M9 6.75a2.25 2.25 0 1 0 0 4.5 2.25 2.25 0 0 0 0-4.5ZM8.25 9a.75.75 0 1 1 1.5 0 .75.75 0 0 1-1.5 0Z"/>
      <path fill="currentColor" d="m10.875 15.17 2.12-.027 1.226 1.732.629-2.024 2.025-.63-1.73-1.225.027-2.121-1.7 1.269-2.01-.682.682 2.008-1.27 1.7Z"/>
      <path fill="currentColor" fill-rule="evenodd" d="M10.5 3A7.5 7.5 0 0 0 3 10.481a.75.75 0 0 0 .035.245l2.835 8.986a.75.75 0 0 0 .368.44 7.445 7.445 0 0 0 4.353.79.75.75 0 1 0-.182-1.489 5.945 5.945 0 0 1-3.205-.498l-1.816-5.756 7.582 7.581c.14.141.331.22.53.22a7.5 7.5 0 0 0 7.5-7.5.75.75 0 0 0-.22-.53l-9.75-9.75A.75.75 0 0 0 10.5 3ZM6.257 6.257a6 6 0 0 1 3.94-1.75l9.295 9.296a6 6 0 0 1-5.69 5.69l-9.294-9.296a6 6 0 0 1 1.75-3.94Z"/>
    </symbol>
  </defs>
</svg>
