<svg xmlns="http://www.w3.org/2000/svg">
  <defs>
    <symbol id="military-medal" viewBox="0 0 24 24">
      <path fill="currentColor" d="M16.5 3h-9v2.25h9V3Zm-1.332 18L12 19.334 8.832 21l.605-3.525-2.562-2.501 3.541-.514L12 11.25l1.584 3.21 3.541.514-2.562 2.501.605 3.525ZM7.5 9V6.75h9V9L12 11.25 7.5 9Z"/>
    </symbol>
    <symbol id="military-tag" viewBox="0 0 24 24">
      <path fill="currentColor" d="m11.03 3.22 9.75 9.75c.14.14.22.331.22.53a7.509 7.509 0 0 1-7.5 7.5.75.75 0 0 1-.53-.22l-9.75-9.75A.75.75 0 0 1 3 10.5 7.508 7.508 0 0 1 10.5 3c.199 0 .39.08.53.22ZM7.417 9.497a1.5 1.5 0 1 0 1.666-2.494 1.5 1.5 0 0 0-1.666 2.494Zm6.804 7.378.629-2.025 2.025-.63-1.73-1.224.027-2.121-1.7 1.268-2.009-.68.681 2.007-1.269 1.7 2.121-.027 1.225 1.732Zm-8.353 2.837L4.068 14l6.872 6.876a7.57 7.57 0 0 1-1.253.117 7.468 7.468 0 0 1-3.45-.84.745.745 0 0 1-.369-.44Z"/>
    </symbol>
  </defs>
</svg>
