<svg xmlns="http://www.w3.org/2000/svg">
  <defs>
    <symbol id="bag-shopping" viewBox="0 0 24 24">
      <path fill="currentColor" fill-rule="evenodd" d="M8.25 6.75A3.759 3.759 0 0 1 12 3a3.759 3.759 0 0 1 3.75 3.75h3a.75.75 0 0 1 .75.75v12.75a.75.75 0 0 1-.75.75H5.25a.75.75 0 0 1-.75-.75V7.5a.75.75 0 0 1 .75-.75h3Zm1.5 0A2.259 2.259 0 0 1 12 4.5a2.259 2.259 0 0 1 2.25 2.25h-4.5Zm-1.5 1.5v1.5a.75.75 0 0 0 1.5 0v-1.5h4.5v1.5a.75.75 0 0 0 1.5 0v-1.5H18V19.5H6V8.25h2.25Z"/>
    </symbol>
    <symbol id="bag-shopping-add" viewBox="0 0 24 24">
      <path fill="currentColor" fill-rule="evenodd" d="M7.5 8.25v1.5a.75.75 0 0 0 1.5 0v-1.5h4.5v1.5a.75.75 0 0 0 1.5 0v-1.5h2.25v4.5a.75.75 0 0 0 1.5 0V7.5a.75.75 0 0 0-.75-.75h-3a3.75 3.75 0 0 0-7.5 0h-3a.75.75 0 0 0-.75.75v12.75c0 .414.336.75.75.75h8.25a.75.75 0 0 0 0-1.5h-7.5V8.25H7.5ZM9 6.75a2.25 2.25 0 0 1 4.5 0H9Z"/>
      <path fill="currentColor" d="M17.25 15a.75.75 0 0 1 .75.75v1.5h1.5a.75.75 0 0 1 0 1.5H18v1.5a.75.75 0 0 1-1.5 0v-1.5H15a.75.75 0 0 1 0-1.5h1.5v-1.5a.75.75 0 0 1 .75-.75Z"/>
    </symbol>
    <symbol id="bag-shopping-edit" viewBox="0 0 24 24">
      <path fill="currentColor" fill-rule="evenodd" d="M6.75 9.75v-1.5H4.5V19.5H15a.75.75 0 0 1 0 1.5H3.75a.75.75 0 0 1-.75-.75V7.5a.75.75 0 0 1 .75-.75h3a3.75 3.75 0 0 1 7.5 0h3a.75.75 0 0 1 0 1.5h-3v1.5a.75.75 0 0 1-1.5 0v-1.5h-4.5v1.5a.75.75 0 0 1-1.5 0ZM10.5 4.5a2.25 2.25 0 0 0-2.25 2.25h4.5A2.25 2.25 0 0 0 10.5 4.5Z"/>
      <path fill="currentColor" fill-rule="evenodd" d="m20.03 12.22-2.25-2.25a.75.75 0 0 0-1.06 0l-4.5 4.5A.75.75 0 0 0 12 15v2.25c0 .414.336.75.75.75H15a.75.75 0 0 0 .53-.22l4.5-4.5a.75.75 0 0 0 0-1.06ZM13.5 16.5v-1.19l3.75-3.75 1.19 1.19-3.75 3.75H13.5Z"/>
    </symbol>
    <symbol id="bag-shopping-remove" viewBox="0 0 24 24">
      <path fill="currentColor" fill-rule="evenodd" d="M7.5 9.75v-1.5H5.25V19.5h7.5a.75.75 0 0 1 0 1.5H4.5a.75.75 0 0 1-.75-.75V7.5a.75.75 0 0 1 .75-.75h3a3.75 3.75 0 0 1 7.5 0h3a.75.75 0 0 1 .75.75v5.25a.75.75 0 0 1-1.5 0v-4.5H15v1.5a.75.75 0 0 1-1.5 0v-1.5H9v1.5a.75.75 0 0 1-1.5 0Zm3.75-5.25A2.25 2.25 0 0 0 9 6.75h4.5a2.25 2.25 0 0 0-2.25-2.25Z"/>
      <path fill="currentColor" d="M15 17.25a.75.75 0 0 0 0 1.5h4.5a.75.75 0 0 0 0-1.5H15Z"/>
    </symbol>
    <symbol id="barcode" viewBox="0 0 24 24">
      <path fill="currentColor" d="M3.75 3a.75.75 0 0 1 .75.75v16.5a.75.75 0 0 1-1.5 0V3.75A.75.75 0 0 1 3.75 3Zm16.5 0a.75.75 0 0 1 .75.75v16.5a.75.75 0 0 1-1.5 0V3.75a.75.75 0 0 1 .75-.75Zm-7.5.75a.75.75 0 0 0-1.5 0V16.5a.75.75 0 0 0 1.5 0V3.75Z"/>
      <path fill="currentColor" fill-rule="evenodd" d="M14.25 3.75A.75.75 0 0 1 15 3h2.25a.75.75 0 0 1 .75.75V16.5a.75.75 0 0 1-.75.75H15a.75.75 0 0 1-.75-.75V3.75Zm1.5.75v11.25h.75V4.5h-.75Zm-9-1.5a.75.75 0 0 0-.75.75V16.5c0 .414.336.75.75.75H9a.75.75 0 0 0 .75-.75V3.75A.75.75 0 0 0 9 3H6.75Zm.75 12.75V4.5h.75v11.25H7.5Z"/>
    </symbol>
    <symbol id="barcode-qr" viewBox="0 0 24 24">
      <path fill="currentColor" d="M6.75 6a.75.75 0 0 0-.75.75v.75c0 .414.336.75.75.75h.75a.75.75 0 0 0 .75-.75v-.75A.75.75 0 0 0 7.5 6h-.75Z"/>
      <path fill="currentColor" fill-rule="evenodd" d="M3.75 3a.75.75 0 0 0-.75.75v6.75c0 .414.336.75.75.75h6.75a.75.75 0 0 0 .75-.75V3.75A.75.75 0 0 0 10.5 3H3.75Zm.75 6.75V4.5h5.25v5.25H4.5Z"/>
      <path fill="currentColor" d="M15.75 6.75A.75.75 0 0 1 16.5 6h.75a.75.75 0 0 1 .75.75v.75a.75.75 0 0 1-.75.75h-.75a.75.75 0 0 1-.75-.75v-.75Z"/>
      <path fill="currentColor" fill-rule="evenodd" d="M13.5 3a.75.75 0 0 0-.75.75v6.75c0 .414.336.75.75.75h6.75a.75.75 0 0 0 .75-.75V3.75a.75.75 0 0 0-.75-.75H13.5Zm.75 6.75V4.5h5.25v5.25h-5.25Z"/>
      <path fill="currentColor" d="M6.75 15.75a.75.75 0 0 0-.75.75v.75c0 .414.336.75.75.75h.75a.75.75 0 0 0 .75-.75v-.75a.75.75 0 0 0-.75-.75h-.75Z"/>
      <path fill="currentColor" fill-rule="evenodd" d="M3 13.5a.75.75 0 0 1 .75-.75h6.75a.75.75 0 0 1 .75.75v6.75a.75.75 0 0 1-.75.75H3.75a.75.75 0 0 1-.75-.75V13.5Zm1.5.75v5.25h5.25v-5.25H4.5Z"/>
      <path fill="currentColor" d="M15 13.5a.75.75 0 0 0-1.5 0v2.25c0 .414.336.75.75.75h3a.75.75 0 0 0 .75-.75v-1.5h1.5v3a.75.75 0 0 0 1.5 0V13.5a.75.75 0 0 0-.75-.75h-3a.75.75 0 0 0-.75.75V15H15v-1.5Zm-.75 4.5a.75.75 0 0 1 .75.75v.75h5.25a.75.75 0 0 1 0 1.5h-6a.75.75 0 0 1-.75-.75v-1.5a.75.75 0 0 1 .75-.75Z"/>
    </symbol>
    <symbol id="basket" viewBox="0 0 24 24">
      <path fill="currentColor" d="M10.122 3.099a.75.75 0 0 1 .28 1.023L8.041 8.25h7.916l-2.36-4.128a.75.75 0 1 1 1.303-.744l2.784 4.872h2.565a.75.75 0 0 1 0 1.5H3.75a.75.75 0 0 1 0-1.5h2.565l2.784-4.872a.75.75 0 0 1 1.023-.28ZM9 12a.75.75 0 0 1 .75.75v3a.75.75 0 1 1-1.5 0v-3A.75.75 0 0 1 9 12Zm3 0a.75.75 0 0 1 .75.75v3a.75.75 0 1 1-1.5 0v-3A.75.75 0 0 1 12 12Zm3.75.75a.75.75 0 0 0-1.5 0v3a.75.75 0 1 0 1.5 0v-3Z"/>
      <path fill="currentColor" d="M5.25 11.25A.75.75 0 0 1 6 12v6a.75.75 0 0 0 .75.75h10.5A.75.75 0 0 0 18 18v-6a.75.75 0 0 1 1.5 0v6a2.25 2.25 0 0 1-2.25 2.25H6.75A2.25 2.25 0 0 1 4.5 18v-6a.75.75 0 0 1 .75-.75Z"/>
    </symbol>
    <symbol id="cart" viewBox="0 0 24 24">
      <path fill="currentColor" fill-rule="evenodd" d="M4.28 3.22a.75.75 0 0 0-1.06 1.06l2.03 2.03v7.013l-1.42 2.842a.75.75 0 0 0 .67 1.085h15.75a.75.75 0 0 0 0-1.5H5.714l.75-1.5H17.25a.75.75 0 0 0 .718-.534l2.25-7.5a.75.75 0 0 0-.718-.966H6.31L4.28 3.22Zm2.47 3.53v6h9.942l1.8-6H6.75Z"/>
      <path fill="currentColor" d="M7.5 19.5a1.5 1.5 0 1 1-3 0 1.5 1.5 0 0 1 3 0ZM18 21a1.5 1.5 0 1 0 0-3 1.5 1.5 0 0 0 0 3Z"/>
    </symbol>
    <symbol id="customer-support" viewBox="0 0 24 24">
      <path fill="currentColor" fill-rule="evenodd" d="M12.75 3a.75.75 0 0 0-.75.75v7.5a.75.75 0 0 0 1.2.6l2.8-2.1h4.25A.75.75 0 0 0 21 9V3.75a.75.75 0 0 0-.75-.75h-7.5Zm.75 6.75V4.5h6v3.75h-3.75a.75.75 0 0 0-.45.15l-1.8 1.35Zm-8.25.75c0-1.69 1.31-3 3-3s3 1.31 3 3v.75c0 1.69-1.31 3-3 3s-3-1.31-3-3v-.75Zm3-1.5c-.86 0-1.5.64-1.5 1.5v.75c0 .86.64 1.5 1.5 1.5s1.5-.64 1.5-1.5v-.75c0-.86-.64-1.5-1.5-1.5ZM3 18c0-1.69 1.31-3 3-3h4.5c1.69 0 3 1.31 3 3v2.25a.75.75 0 0 1-.75.75h-9a.75.75 0 0 1-.75-.75V18Zm3-1.5c-.86 0-1.5.64-1.5 1.5v1.5H12V18c0-.86-.64-1.5-1.5-1.5H6Z"/>
    </symbol>
    <symbol id="delivery-fast" viewBox="0 0 24 24">
      <path fill="currentColor" d="M14.25 9.75a.75.75 0 0 0-1.5 0v1.5c0 .414.336.75.75.75H15a.75.75 0 0 0 0-1.5h-.75v-.75Z"/>
      <path fill="currentColor" fill-rule="evenodd" d="M3.75 3.75a.75.75 0 0 0 0 1.5h6V16.5c0 .414.336.75.75.75h.75a3 3 0 1 0 6 0h3a.75.75 0 0 0 .75-.75V12a.75.75 0 0 0-.415-.67l-2.691-1.347-.666-2.665a.75.75 0 0 0-.728-.568h-5.25V4.5a.75.75 0 0 0-.75-.75H3.75Zm9.09 12.986a1.5 1.5 0 1 0 2.82 1.024 1.5 1.5 0 0 0-2.82-1.024Zm1.41-2.486a3 3 0 0 1 2.599 1.5H19.5v-3.287l-2.585-1.292a.75.75 0 0 1-.393-.49l-.608-2.431H11.25v7.5h.401a2.999 2.999 0 0 1 2.599-1.5Z"/>
      <path fill="currentColor" d="M4.5 12a.75.75 0 0 1 .75-.75H7.5a.75.75 0 0 1 0 1.5H5.25A.75.75 0 0 1 4.5 12ZM6 15.75a.75.75 0 0 1 .75-.75h.75a.75.75 0 0 1 0 1.5h-.75a.75.75 0 0 1-.75-.75Zm-3-7.5a.75.75 0 0 1 .75-.75H7.5a.75.75 0 0 1 0 1.5H3.75A.75.75 0 0 1 3 8.25Z"/>
    </symbol>
    <symbol id="present" viewBox="0 0 24 24">
      <path fill="currentColor" fill-rule="evenodd" d="M5.25 5.625c0 .407.096.787.264 1.125H3.75A.75.75 0 0 0 3 7.5v3c0 .414.336.75.75.75h7.5v8.25h-4.5a.75.75 0 0 1-.75-.75v-6a.75.75 0 0 0-1.5 0v6A2.25 2.25 0 0 0 6.75 21h10.5a2.25 2.25 0 0 0 2.25-2.25v-6a.75.75 0 0 0-1.5 0v6a.75.75 0 0 1-.75.75h-4.5v-8.25h7.5a.75.75 0 0 0 .75-.75v-3a.75.75 0 0 0-.75-.75h-1.764c.168-.338.264-.718.264-1.125C18.75 4.135 17.468 3 16 3c-1.86 0-3.059 1.174-3.749 2.209-.09.136-.174.272-.251.405a7.171 7.171 0 0 0-.251-.405C11.059 4.174 9.859 3 8 3 6.532 3 5.25 4.135 5.25 5.625ZM8 4.5c-.732 0-1.25.553-1.25 1.125S7.268 6.75 8 6.75h2.905a6.075 6.075 0 0 0-.404-.709C9.941 5.201 9.141 4.5 8 4.5Zm4.75 5.25h6.75v-1.5h-6.75v1.5Zm-1.5-1.5H4.5v1.5h6.75v-1.5Zm6-2.625c0 .572-.518 1.125-1.25 1.125h-2.905c.11-.224.243-.468.404-.709.56-.84 1.36-1.541 2.501-1.541.732 0 1.25.553 1.25 1.125Z"/>
    </symbol>
  </defs>
</svg>
