<svg xmlns="http://www.w3.org/2000/svg">
  <defs>
    <symbol id="attach" viewBox="0 0 24 24">
      <path fill="currentColor" d="M9.375 20.325a5.563 5.563 0 0 1-3.975-1.65A5.62 5.62 0 0 1 3.75 14.7c0-1.5.6-2.925 1.65-3.975l5.85-5.85c1.575-1.575 4.2-1.575 5.85 0 1.65 1.575 1.575 4.2 0 5.85l-5.325 5.325a2.626 2.626 0 0 1-3.75 0 2.626 2.626 0 0 1 0-3.75l4.5-4.5c.3-.3.75-.3 1.05 0 .3.3.3.75 0 1.05l-4.5 4.5c-.45.45-.45 1.125 0 1.575.45.45 1.125.45 1.575 0L15.975 9.6c.525-.525.75-1.125.75-1.875 0-.675-.3-1.35-.75-1.875-1.05-1.05-2.7-1.05-3.675 0L6.45 11.7c-.75.75-1.2 1.8-1.2 2.925 0 1.125.45 2.1 1.2 2.925 1.575 1.575 4.2 1.575 5.85 0l6.6-6.6c.3-.3.75-.3 1.05 0 .3.3.3.75 0 1.05l-6.6 6.6c-1.05 1.2-2.475 1.725-3.975 1.725Z"/>
    </symbol>
    <symbol id="bold" viewBox="0 0 24 24">
      <path fill="currentColor" d="M16.225 11.106a4.482 4.482 0 0 0 1.023-2.97c-.06-2.473-2.218-4.386-4.692-4.386H6.75A.75.75 0 0 0 6 4.5v15c0 .414.336.75.75.75h6.952c2.54 0 4.785-1.87 5.025-4.4a4.877 4.877 0 0 0-2.502-4.744ZM8.25 6h4.5C13.99 6 15 7.01 15 8.25s-1.01 2.25-2.25 2.25h-4.5V6Zm5.625 12H8.25v-5.25h5.625a2.628 2.628 0 0 1 2.625 2.625A2.628 2.628 0 0 1 13.875 18Z"/>
    </symbol>
    <symbol id="hash-mark" viewBox="0 0 24 24">
      <path fill="currentColor" d="M18 8.25h-2.053l.546-3.639a.75.75 0 0 0-.631-.853.746.746 0 0 0-.854.63L14.43 8.25h-3.732l.546-3.639a.75.75 0 0 0-1.485-.222l-.579 3.86H6.751a.75.75 0 1 0 0 1.5h2.203l-.675 4.5H6.001a.75.75 0 1 0 0 1.5h2.053l-.546 3.64a.75.75 0 1 0 1.484.221l.579-3.86h3.732l-.546 3.638a.75.75 0 1 0 1.484.223l.579-3.861h2.428a.75.75 0 1 0 0-1.5h-2.203l.675-4.5h2.278a.75.75 0 1 0 0-1.5H18Zm-4.472 6H9.796l.675-4.5h3.732l-.675 4.5Z"/>
    </symbol>
    <symbol id="heading-1" viewBox="0 0 24 24">
      <path fill="currentColor" d="M18.348 6.116a.75.75 0 0 1 1.151.634v10.5a.75.75 0 1 1-1.5 0V8.115l-2.121 1.344a.75.75 0 0 1-.803-1.267l3.273-2.075Zm-7.098.634a.75.75 0 0 1 1.5 0v10.5a.75.75 0 1 1-1.5 0v-4.5H6v4.5a.75.75 0 1 1-1.5 0V6.75a.75.75 0 1 1 1.5 0v4.5h5.25v-4.5Z"/>
    </symbol>
    <symbol id="heading-2" viewBox="0 0 24 24">
      <path fill="currentColor" d="M15.919 16.5h4.331a.75.75 0 1 1 0 1.5h-6a.75.75 0 0 1-.562-1.247s2.118-2.391 2.884-3.228c1.76-1.922 2.544-2.969 2.54-4.094a1.823 1.823 0 0 0-.201-.86c-.325-.607-1.051-1.005-1.942-1.066-1.108-.073-2.163.7-2.426 1.805a.75.75 0 1 1-1.459-.346c.429-1.809 2.136-3.09 3.986-2.955 1.412.096 2.593.79 3.163 1.855.246.458.376.999.378 1.563.008 1.768-1.156 3.171-2.933 5.111a239.92 239.92 0 0 0-1.76 1.962ZM9.75 6.75a.75.75 0 1 1 1.5 0v10.5a.75.75 0 1 1-1.5 0v-4.5H4.5v4.5a.75.75 0 1 1-1.5 0V6.75a.75.75 0 1 1 1.5 0v4.5h5.25v-4.5Z"/>
    </symbol>
    <symbol id="heading-3" viewBox="0 0 24 24">
      <path fill="currentColor" d="M10.5 6.75a.75.75 0 0 1 1.5 0v10.5a.75.75 0 1 1-1.5 0v-4.5H5.25v4.5a.75.75 0 0 1-1.5 0V6.75a.75.75 0 1 1 1.5 0v4.5h5.25v-4.5ZM17.324 6C19.31 6 20.958 7.396 21 9.114c.018.733-.312 1.485-.927 2.116a4.608 4.608 0 0 1-1.005.768c.377.216.716.475 1.005.77.615.63.945 1.382.927 2.116-.041 1.717-1.69 3.114-3.675 3.114-1.592 0-2.939-.798-3.604-2.136a.75.75 0 0 1 1.344-.667c.412.829 1.236 1.304 2.26 1.304 1.277 0 2.156-.853 2.176-1.65.008-.327-.17-.693-.502-1.033-.652-.668-1.714-1.067-2.841-1.067a.75.75 0 0 1 0-1.5c1.127 0 2.189-.399 2.841-1.067.332-.339.51-.706.502-1.032-.02-.797-.898-1.65-2.176-1.65-1.025 0-1.849.475-2.26 1.303a.749.749 0 1 1-1.343-.667C14.386 6.8 15.732 6 17.323 6Z"/>
    </symbol>
    <symbol id="heading-4" viewBox="0 0 24 24">
      <path fill="currentColor" d="M9.75 6.75a.75.75 0 0 1 1.5 0v10.5a.75.75 0 1 1-1.5 0v-4.5H4.5v4.5a.75.75 0 0 1-1.5 0V6.75a.75.75 0 1 1 1.5 0v4.5h5.25v-4.5Zm9 7.5h1.5a.75.75 0 0 1 0 1.5h-1.5v1.5a.75.75 0 0 1-1.5 0v-1.5h-4.5a.75.75 0 0 1-.638-1.145l5.097-8.25A.752.752 0 0 1 17.848 6H18a.75.75 0 0 1 .75.75v7.5Zm-4.655 0h3.155V9.144l-3.155 5.106Z"/>
    </symbol>
    <symbol id="heading-5" viewBox="0 0 24 24">
      <path fill="currentColor" d="M9.75 6.75a.75.75 0 0 1 1.5 0v10.5a.75.75 0 1 1-1.5 0v-4.5H4.5v4.5a.75.75 0 0 1-1.5 0V6.75a.75.75 0 1 1 1.5 0v4.5h5.25v-4.5Zm5.027 3.639a4.297 4.297 0 0 1 2.654-.44v.001c1.938.315 3.435 1.876 3.56 3.714.071 1.057-.325 2.138-1.091 2.966-.794.86-1.889 1.359-3.002 1.37h-.042c-1.721 0-3.304-1.148-3.95-2.868a.75.75 0 0 1 1.405-.527c.43 1.145 1.447 1.891 2.57 1.895.703-.008 1.401-.332 1.917-.89.486-.525.74-1.199.696-1.846-.087-1.288-1.252-2.164-2.303-2.334-.976-.157-1.997.245-2.668 1.05-.277.333-.874.346-1.166.025-.143-.155-.248-.364-.229-.574l.485-5.25A.75.75 0 0 1 14.36 6h5.406a.75.75 0 0 1 0 1.5h-4.722l-.267 2.889Z"/>
    </symbol>
    <symbol id="heading-6" viewBox="0 0 24 24">
      <path fill="currentColor" d="M14.267 11.326c.747-.777 1.813-1.194 3.139-1.194l-.002-.002c.948 0 1.834.381 2.494 1.075.751.788 1.15 1.892 1.096 3.028-.109 2.271-2.094 3.765-3.907 3.765h-.07c-1.923-.04-3.289-1.265-3.903-3.39a.74.74 0 0 1-.04-.141c-.214-.795-.325-1.71-.325-2.732 0-2.694 1.624-5.652 4.248-5.733 2.556-.086 3.596 1.944 3.64 2.03a.75.75 0 0 1-1.34.676 2.438 2.438 0 0 0-2.254-1.207c-1.683.053-2.64 2.137-2.776 3.825Zm.309 2.93c.348 1.165 1.056 2.213 2.473 2.243.957.026 2.373-.8 2.447-2.335.035-.719-.221-1.437-.684-1.922a1.906 1.906 0 0 0-1.407-.61c-1.7 0-2.627.859-2.83 2.623ZM9.75 6.75a.75.75 0 0 1 1.5 0v10.5a.75.75 0 1 1-1.5 0v-4.5H4.5v4.5a.75.75 0 0 1-1.5 0V6.75a.75.75 0 1 1 1.5 0v4.5h5.25v-4.5Z"/>
    </symbol>
    <symbol id="link" viewBox="0 0 24 24">
      <path fill="currentColor" d="M16.5 13.5a.75.75 0 0 1-.53-1.28l1.931-1.931a2.988 2.988 0 0 0-.007-4.196 2.985 2.985 0 0 0-4.188.013L11.78 8.03a.75.75 0 1 1-1.06-1.06l1.931-1.931a4.482 4.482 0 0 1 6.304-.007c1.736 1.778 1.736 4.545.013 6.31L17.03 13.28a.748.748 0 0 1-.53.22Zm-8.309 6.76a4.49 4.49 0 0 1-3.146-1.292c-1.736-1.779-1.736-4.546-.013-6.311L6.97 10.72a.75.75 0 1 1 1.06 1.06L6.1 13.711a2.989 2.989 0 0 0 .007 4.197 2.987 2.987 0 0 0 4.19-.014l1.924-1.924a.75.75 0 1 1 1.06 1.06l-1.931 1.931a4.509 4.509 0 0 1-3.158 1.299Z"/>
      <path fill="currentColor" d="M8.47 15.53a.748.748 0 0 0 1.06 0l6-6a.75.75 0 1 0-1.06-1.06l-6 6a.75.75 0 0 0 0 1.06Z"/>
    </symbol>
    <symbol id="ordered-list" viewBox="0 0 24 24">
      <path fill="currentColor" d="m5.25 6.614-.485.307a.75.75 0 0 1-.803-1.267L5.6 4.616a.75.75 0 0 1 1.151.634v5.25a.75.75 0 0 1-1.5 0V6.615Zm15-.614h-9a.75.75 0 0 0 0 1.5h9a.75.75 0 0 0 0-1.5Zm0 5.25h-9a.75.75 0 0 0 0 1.5h9a.75.75 0 0 0 0-1.5Zm-9 5.25h9a.75.75 0 0 1 0 1.5h-9a.75.75 0 0 1 0-1.5ZM7.655 18H6.111c.194-.208.365-.388.51-.538l.141-.148c.845-.882 1.456-1.52 1.453-2.504a2.02 2.02 0 0 0-.23-.944c-.343-.64-1.038-1.055-1.862-1.11a2.252 2.252 0 0 0-2.352 1.74.75.75 0 0 0 1.46.347.772.772 0 0 1 .79-.591c.296.02.547.146.64.32.02.037.054.118.054.244.001.362-.335.73-1.036 1.46l-.143.15c-.372.39-.923.974-1.594 1.72a.75.75 0 0 0-.192.5v.104c0 .414.336.75.75.75h3.155a.75.75 0 0 0 0-1.5Z"/>
    </symbol>
    <symbol id="pilcrow" viewBox="0 0 24 24">
      <path fill="currentColor" d="M18 3H9.939C7.474 3 5.326 4.899 5.252 7.361A4.5 4.5 0 0 0 9.75 12v8.25a.75.75 0 0 0 1.5 0V4.5h3v15.75a.75.75 0 0 0 1.5 0V4.5H18A.75.75 0 0 0 18 3Z"/>
    </symbol>
    <symbol id="text-align-center" viewBox="0 0 24 24">
      <path fill="currentColor" d="M3.75 6h16.5a.75.75 0 0 0 0-1.5H3.75a.75.75 0 0 0 0 1.5Zm3.75 4.5h9a.75.75 0 0 0 0-1.5h-9a.75.75 0 0 0 0 1.5ZM20.25 15H3.75a.75.75 0 0 1 0-1.5h16.5a.75.75 0 0 1 0 1.5ZM7.5 19.5h9a.75.75 0 0 0 0-1.5h-9a.75.75 0 0 0 0 1.5Z"/>
    </symbol>
    <symbol id="text-align-justify" viewBox="0 0 24 24">
      <path fill="currentColor" d="M3.75 6h16.5a.75.75 0 1 0 0-1.5H3.75a.75.75 0 1 0 0 1.5Zm0 4.5h16.5a.75.75 0 1 0 0-1.5H3.75a.75.75 0 1 0 0 1.5Zm16.5 4.5H3.75a.75.75 0 1 1 0-1.5h16.5a.75.75 0 1 1 0 1.5Zm-16.5 4.5h16.5a.75.75 0 1 0 0-1.5H3.75a.75.75 0 1 0 0 1.5Z"/>
    </symbol>
    <symbol id="text-align-left" viewBox="0 0 24 24">
      <path fill="currentColor" d="M3.75 6h16.5a.75.75 0 0 0 0-1.5H3.75a.75.75 0 0 0 0 1.5Zm0 4.5h9a.75.75 0 0 0 0-1.5h-9a.75.75 0 0 0 0 1.5Zm16.5 4.5H3.75a.75.75 0 0 1 0-1.5h16.5a.75.75 0 0 1 0 1.5Zm-16.5 4.5h9a.75.75 0 0 0 0-1.5h-9a.75.75 0 0 0 0 1.5Z"/>
    </symbol>
    <symbol id="text-align-right" viewBox="0 0 24 24">
      <path fill="currentColor" d="M3.75 6h16.5a.75.75 0 1 0 0-1.5H3.75a.75.75 0 1 0 0 1.5Zm7.5 4.5h9a.75.75 0 1 0 0-1.5h-9a.75.75 0 1 0 0 1.5Zm9 4.5H3.75a.75.75 0 1 1 0-1.5h16.5a.75.75 0 1 1 0 1.5Zm-9 4.5h9a.75.75 0 1 0 0-1.5h-9a.75.75 0 1 0 0 1.5Z"/>
    </symbol>
    <symbol id="text-italic" viewBox="0 0 24 24">
      <path fill="currentColor" d="M15.75 5.25a1.5 1.5 0 1 1-3 0 1.5 1.5 0 0 1 3 0Zm-3.585 3.491a.751.751 0 0 1 1.408.518l-3.869 10.5a.75.75 0 1 1-1.408-.518l3.869-10.5Z"/>
    </symbol>
    <symbol id="underline" viewBox="0 0 24 24">
      <path fill="currentColor" d="M17.25 12A5.256 5.256 0 0 1 12 17.25 5.256 5.256 0 0 1 6.75 12V3.75a.75.75 0 1 1 1.5 0V12A3.754 3.754 0 0 0 12 15.75 3.754 3.754 0 0 0 15.75 12V3.75a.75.75 0 1 1 1.5 0V12ZM3 19.5a.75.75 0 0 1 .75-.75h16.5a.75.75 0 1 1 0 1.5H3.75A.75.75 0 0 1 3 19.5Z"/>
    </symbol>
    <symbol id="unlink" viewBox="0 0 24 24">
      <path fill="currentColor" d="m15.685 12.504 2.2-2.199a2.963 2.963 0 0 0-4.19-4.19l-2.199 2.2-1.06-1.062 2.2-2.2a4.462 4.462 0 1 1 6.309 6.311l-2.2 2.2-1.06-1.06Z"/>
      <path fill="currentColor" d="m14.47 8.47-1.41 1.409 1.061 1.06 1.41-1.409.012-.012.006-.007a.75.75 0 0 0-1.08-1.041Zm-1.966 7.215-2.199 2.2a2.963 2.963 0 0 1-4.19-4.19l2.2-2.199-1.062-1.06-2.2 2.2a4.462 4.462 0 0 0 6.311 6.309l2.2-2.2-1.06-1.06Z"/>
      <path fill="currentColor" d="m9.879 13.06-1.41 1.41a.75.75 0 0 0 1.043 1.079l.006-.006a.187.187 0 0 0 .012-.013l1.41-1.409-1.061-1.06Zm9.091 6.97a.748.748 0 0 0 1.06 0 .75.75 0 0 0 0-1.06l-15-15a.75.75 0 1 0-1.06 1.06l15 15Z"/>
    </symbol>
    <symbol id="unordered-list" viewBox="0 0 24 24">
      <path fill="currentColor" d="M5.25 9.75a2.25 2.25 0 1 0 0-4.5 2.25 2.25 0 0 0 0 4.5Zm0 7.5a2.25 2.25 0 1 0 0-4.5 2.25 2.25 0 0 0 0 4.5Zm15-9.75H10.5a.75.75 0 0 1 0-1.5h9.75a.75.75 0 0 1 0 1.5Zm0 3.75H10.5a.75.75 0 0 0 0 1.5h9.75a.75.75 0 0 0 0-1.5ZM10.5 16.5h9.75a.75.75 0 0 1 0 1.5H10.5a.75.75 0 0 1 0-1.5Z"/>
    </symbol>
  </defs>
</svg>
