<svg xmlns="http://www.w3.org/2000/svg">
  <defs>
    <symbol id="bag-luggage" viewBox="0 0 24 24">
      <path fill="currentColor" d="M15.75 3.75A.71.71 0 0 0 15 3H9a.709.709 0 0 0-.75.75V19.5h7.5V3.75Zm-6 .75h4.5v2.25h-4.5V4.5Zm9.75 2.25h-2.25V19.5h2.25A1.5 1.5 0 0 0 21 18V8.25a1.5 1.5 0 0 0-1.5-1.5ZM3 18V8.25a1.5 1.5 0 0 1 1.5-1.5h2.25V19.5H4.5A1.5 1.5 0 0 1 3 18Z"/>
    </symbol>
    <symbol id="check-in" viewBox="0 0 24 24">
      <path fill="currentColor" d="M3.75 18V7.5A2.25 2.25 0 0 1 6 5.25h1.5v-1.5a.75.75 0 0 1 1.5 0v1.5h6v-1.5a.75.75 0 1 1 1.5 0v1.5H18a2.25 2.25 0 0 1 2.25 2.25v5.25a.75.75 0 1 1-1.5 0v-3H5.25V18a.75.75 0 0 0 .75.75h7.5a.75.75 0 1 1 0 1.5H6A2.25 2.25 0 0 1 3.75 18Z"/>
      <path fill="currentColor" d="M12.22 17.03c.14.141.331.22.53.22h3v2.625a.375.375 0 0 0 .6.3l4.5-3.375a.374.374 0 0 0 0-.6l-4.5-3.375a.375.375 0 0 0-.6.3v2.625h-3a.75.75 0 0 0-.53 1.28Z"/>
    </symbol>
    <symbol id="check-out" viewBox="0 0 24 24">
      <path fill="currentColor" d="M16.5 5.25H18a2.25 2.25 0 0 1 2.25 2.25V18A2.25 2.25 0 0 1 18 20.25h-7.5a.75.75 0 1 1 0-1.5H18a.75.75 0 0 0 .75-.75V9.75H5.25v3a.75.75 0 1 1-1.5 0V7.5A2.25 2.25 0 0 1 6 5.25h1.5v-1.5a.75.75 0 0 1 1.5 0v1.5h6v-1.5a.75.75 0 1 1 1.5 0v1.5Z"/>
      <path fill="currentColor" d="M11.78 17.03a.75.75 0 0 1-.53.22h-3v2.625a.375.375 0 0 1-.6.3L3.15 16.8a.375.375 0 0 1 0-.6l4.5-3.375a.375.375 0 0 1 .6.3v2.625h3a.75.75 0 0 1 .53 1.28Z"/>
    </symbol>
    <symbol id="currency-exchange" viewBox="0 0 24 24">
      <path fill="currentColor" d="M18.791 17.886A8.986 8.986 0 0 0 12 3a.75.75 0 1 0 0 1.5 7.49 7.49 0 0 1 5.73 12.325l-1.34-1.34a.374.374 0 0 0-.635.204l-.75 4.5a.374.374 0 0 0 .431.43l4.5-.75a.375.375 0 0 0 .204-.634l-1.349-1.349ZM12 19.5A7.49 7.49 0 0 1 6.27 7.175l1.34 1.34a.375.375 0 0 0 .635-.203l.75-4.5a.375.375 0 0 0-.431-.432l-4.5.75a.375.375 0 0 0-.204.636l1.34 1.34A9 9 0 0 0 12 21a.75.75 0 1 0 0-1.5Z"/>
      <path fill="currentColor" d="M14.823 14.485c.115-.26.171-.54.164-.824a1.789 1.789 0 0 0-.459-1.242 4.345 4.345 0 0 0-1.65-.966l-.477-.183V8.986a6.754 6.754 0 0 1 1.959.464l.459-1.15a6.93 6.93 0 0 0-2.417-.514V6.75h-.834v1.058c-.663.038-1.3.273-1.83.675a1.768 1.768 0 0 0-.675 1.425c-.015.495.154.98.476 1.358a3.71 3.71 0 0 0 1.503.944l.525.195v2.348a5.704 5.704 0 0 1-1.293-.186 6.433 6.433 0 0 1-1.261-.442v1.325c.81.33 1.68.491 2.554.476v1.324h.834v-1.361a3.381 3.381 0 0 0 1.921-.728 1.92 1.92 0 0 0 .501-.676Zm-4.06-3.995a.84.84 0 0 1-.226-.595.742.742 0 0 1 .266-.576c.22-.174.487-.28.766-.308v1.95a2.293 2.293 0 0 1-.807-.47Zm2.681 2.937a.783.783 0 0 1 .062.327c0 .52-.368.835-1.105.946v-2.001c.31.098.598.252.85.455a.78.78 0 0 1 .193.273Z"/>
    </symbol>
    <symbol id="data-table" viewBox="0 0 24 24">
      <path fill="currentColor" d="M3.75 4.5v6a.75.75 0 0 0 .75.75h15a.75.75 0 0 0 .75-.75v-6a.75.75 0 0 0-.75-.75h-15a.75.75 0 0 0-.75.75ZM10.875 9h-4.5A.375.375 0 0 1 6 8.625v-2.25A.375.375 0 0 1 6.375 6h4.5a.375.375 0 0 1 .375.375v2.25a.375.375 0 0 1-.375.375Zm6.75 0h-4.5a.375.375 0 0 1-.375-.375v-2.25A.375.375 0 0 1 13.125 6h4.5a.375.375 0 0 1 .375.375v2.25a.375.375 0 0 1-.375.375ZM10.5 12.75h-6a.75.75 0 0 0 0 1.5h6a.75.75 0 0 0 0-1.5Zm-6 3h6a.75.75 0 0 1 0 1.5h-6a.75.75 0 0 1 0-1.5Zm6 3h-6a.75.75 0 0 0 0 1.5h6a.75.75 0 0 0 0-1.5Zm3-6h6a.75.75 0 0 1 0 1.5h-6a.75.75 0 0 1 0-1.5Zm6 3h-6a.75.75 0 0 0 0 1.5h6a.75.75 0 0 0 0-1.5Zm-6 3h6a.75.75 0 0 1 0 1.5h-6a.75.75 0 0 1 0-1.5Z"/>
    </symbol>
    <symbol id="explore" viewBox="0 0 24 24">
      <path fill="currentColor" d="M12 6.75c.45 0 .75-.3.75-.75V3.75c0-.45-.3-.75-.75-.75s-.75.3-.75.75V6c0 .45.3.75.75.75Zm0 1.5C9.9 8.25 8.25 9.9 8.25 12S9.9 15.75 12 15.75s3.75-1.65 3.75-3.75S14.1 8.25 12 8.25Zm4.8 0a.68.68 0 0 1-.525.225c-.225 0-.45-.075-.525-.225-.3-.3-.3-.75 0-1.05l.75-.75c.3-.3.75-.3 1.05 0 .3.3.3.75 0 1.05l-.75.75Zm-1.05 7.5c-.3.3-.3.75 0 1.05l.825.825a.81.81 0 0 0 .525.225.68.68 0 0 0 .525-.225c.3-.3.3-.75 0-1.05l-.825-.825c-.3-.3-.75-.3-1.05 0Zm-9.3.75.75-.75c.3-.3.825-.3 1.05 0 .3.3.3.75 0 1.05l-.75.75a.68.68 0 0 1-.525.225.81.81 0 0 1-.525-.225c-.3-.3-.3-.75 0-1.05Zm.75-8.25a.81.81 0 0 0 .525.225c.225 0 .45-.075.525-.225.3-.3.3-.75 0-1.05l-.75-.75c-.3-.3-.75-.3-1.05 0-.3.3-.3.75 0 1.05l.75.75Zm10.8 3h2.25c.45 0 .75.3.75.75s-.3.75-.75.75H18c-.45 0-.75-.3-.75-.75s.3-.75.75-.75Zm-6 6c-.45 0-.75.3-.75.75v2.25c0 .45.3.75.75.75s.75-.3.75-.75V18c0-.45-.3-.75-.75-.75Zm-6-6c.45 0 .75.3.75.75s-.3.75-.75.75H3.75c-.45 0-.75-.3-.75-.75s.3-.75.75-.75H6Z"/>
    </symbol>
    <symbol id="flight-connection" viewBox="0 0 24 24">
      <path fill="currentColor" d="m18.532 8.801 1.764 1.764v-.003a1.125 1.125 0 0 1-1.587 1.596l-1.767-1.768-4.076 1.324a.375.375 0 0 1-.381-.091l-.75-.75a.374.374 0 0 1 .065-.583l3.09-1.95-1.326-1.324-1.469.389a.375.375 0 0 1-.408-.155l-.484-.725a.377.377 0 0 1 .15-.546l1.866-.9.9-1.867a.37.37 0 0 1 .397-.207.375.375 0 0 1 .149.058l.725.485a.375.375 0 0 1 .154.408l-.389 1.468L16.48 6.75l1.953-3.09a.375.375 0 0 1 .582-.065l.75.75a.375.375 0 0 1 .092.38l-1.325 4.076Zm-6.22 7.949.485.725a.376.376 0 0 1-.15.546l-1.866.9-.9 1.866a.37.37 0 0 1-.397.207.374.374 0 0 1-.149-.058l-.725-.484a.375.375 0 0 1-.155-.408l.39-1.469-1.326-1.325-1.952 3.09a.375.375 0 0 1-.583.066l-.75-.75a.375.375 0 0 1-.091-.381l1.324-4.076-1.763-1.763A1.125 1.125 0 0 1 5.29 11.84l1.768 1.768 4.076-1.322a.38.38 0 0 1 .381.091l.75.75a.377.377 0 0 1-.065.583l-3.09 1.95 1.325 1.325 1.469-.39a.375.375 0 0 1 .408.155Zm-7.062-7A.75.75 0 0 0 6 9a3 3 0 0 1 3-3 .75.75 0 0 0 0-1.5A4.504 4.504 0 0 0 4.5 9a.75.75 0 0 0 .75.75Zm12.97 4.72a.75.75 0 0 1 1.28.53 4.505 4.505 0 0 1-4.5 4.5.75.75 0 1 1 0-1.5 3 3 0 0 0 3-3 .75.75 0 0 1 .22-.53Z"/>
    </symbol>
    <symbol id="globe" viewBox="0 0 24 24">
      <path fill="currentColor" d="M12 3c-4.963 0-9 4.037-9 9s4.037 9 9 9 9-4.037 9-9-4.037-9-9-9Zm7.462 8.25h-2.607c-.104-2.408-.698-4.515-1.606-6 2.297 1.112 3.949 3.351 4.213 6ZM11.25 4.725v6.525H8.644C8.8 7.898 9.986 5.445 11.25 4.725Zm0 8.025v6.525c-1.264-.72-2.45-3.173-2.606-6.525h2.606Zm1.5 6.525V12.75h2.606c-.156 3.352-1.342 5.805-2.606 6.525Zm0-8.025V4.725c1.264.72 2.45 3.173 2.606 6.525H12.75Zm-4-6c-.907 1.485-1.502 3.592-1.606 6H4.538c.264-2.649 1.916-4.888 4.212-6Zm-4.212 7.5h2.607c.104 2.408.699 4.515 1.606 6-2.297-1.111-3.949-3.351-4.213-6Zm10.712 6c.907-1.485 1.502-3.592 1.605-6h2.607c-.264 2.649-1.916 4.889-4.212 6Z"/>
    </symbol>
    <symbol id="globe-map" viewBox="0 0 24 24">
      <path fill="currentColor" d="M15.152 3.307a.75.75 0 0 1 1.05-.15A8.178 8.178 0 0 1 19.5 9.75c0 4.296-3.302 7.831-7.5 8.212V19.5h3a.75.75 0 0 1 0 1.5H7.5a.75.75 0 0 1 0-1.5h3v-1.544a8.165 8.165 0 0 1-5.842-3.255.75.75 0 0 1 1.2-.901 6.688 6.688 0 0 0 5.392 2.7A6.758 6.758 0 0 0 18 9.75a6.692 6.692 0 0 0-2.7-5.393.75.75 0 0 1-.149-1.05Z"/>
      <path fill="currentColor" d="M16.5 9.75a5.25 5.25 0 1 1-10.5 0 5.25 5.25 0 0 1 10.5 0Z"/>
    </symbol>
    <symbol id="hotel-bell" viewBox="0 0 24 24">
      <path fill="currentColor" d="M12.75 5.25v1.538A8.258 8.258 0 0 1 20.25 15v1.5a.75.75 0 0 1-.75.75h-15a.75.75 0 0 1-.75-.75V15a8.258 8.258 0 0 1 7.5-8.212V5.25h-1.5a.75.75 0 0 1 0-1.5h4.5a.75.75 0 1 1 0 1.5h-1.5Zm-5.603 7.74a5.22 5.22 0 0 1 1.14-1.702.752.752 0 0 0-.532-1.271.75.75 0 0 0-.528.21A6.705 6.705 0 0 0 5.25 15a.75.75 0 1 0 1.5 0 5.22 5.22 0 0 1 .397-2.01ZM3.75 20.25h16.5a.75.75 0 1 0 0-1.5H3.75a.75.75 0 1 0 0 1.5Z"/>
    </symbol>
    <symbol id="landing" viewBox="0 0 24 24">
      <path fill="currentColor" d="m14.65 11.85 5.141.924.025.005a1.46 1.46 0 0 1 1.184 1.1 1.509 1.509 0 0 1-1.743 1.847l-11.39-2.044-.209-.07L4.63 12.06a1.499 1.499 0 0 1-.777-.994l-.564-2.419a.375.375 0 0 1 .432-.454L4.87 8.4a.375.375 0 0 1 .244.16l1.22 1.797 3.848.692L7.81 4.585a.375.375 0 0 1 .416-.499l1.336.232a.375.375 0 0 1 .25.163l4.838 7.369ZM3.75 21h16.5a.75.75 0 1 0 0-1.5H3.75a.75.75 0 1 0 0 1.5Z"/>
    </symbol>
    <symbol id="palm-tree" viewBox="0 0 24 24">
      <path fill="currentColor" d="M14.905 6.694a5.663 5.663 0 0 1 2.23.881 5.834 5.834 0 0 1 2.359 4.332.75.75 0 0 1-1.16.717L11.67 8.182 6.593 14.71a.75.75 0 0 1-1.29-.183 5.07 5.07 0 0 1 .514-4.852 6.773 6.773 0 0 1 2.45-2.148l-3.2-.8a.75.75 0 0 1-.286-1.313A5.24 5.24 0 0 1 8.775 4.36a4.15 4.15 0 0 1 2.368 1.574 5.315 5.315 0 0 1 2.974-2.727 5.417 5.417 0 0 1 4.3.667.75.75 0 0 1-.113 1.31l-3.4 1.51Z"/>
      <path fill="currentColor" d="M12.612 19.5h7.638a.75.75 0 1 1 0 1.5H3.75a.75.75 0 1 1 0-1.5h7.275c.64-1.693.969-3.487.972-5.297a14.9 14.9 0 0 0-.411-3.47L12 10.2l1.174.787c.212 1.06.32 2.138.322 3.219a16.538 16.538 0 0 1-.884 5.294Z"/>
    </symbol>
    <symbol id="spaceship" viewBox="0 0 24 24">
      <path fill="currentColor" d="M20.423 3.147a.75.75 0 0 1 .479.742c-.596 10.472-9.918 14.402-10.011 14.44a.75.75 0 0 1-.814-.163l-4.243-4.243a.75.75 0 0 1-.165-.81c.038-.095 3.924-9.467 14.445-10.016a.75.75 0 0 1 .31.05Zm-6.63 8.824a1.5 1.5 0 1 0-.586-2.942 1.5 1.5 0 0 0 .585 2.942Zm-9.266 4.697c-.26.108-.494.266-.692.465C3 17.965 3 21 3 21s3.018-.017 3.851-.85a2.132 2.132 0 0 0-2.324-3.482Zm6.241-11.912a6.683 6.683 0 0 0-6.915 3.213.75.75 0 0 0 .117.911l1.491 1.492a19.967 19.967 0 0 1 5.307-5.616Zm8.262 11.642a6.684 6.684 0 0 0 .214-3.166 19.968 19.968 0 0 1-5.617 5.306l1.493 1.492a.75.75 0 0 0 .911.116 6.682 6.682 0 0 0 3-3.748Z"/>
    </symbol>
    <symbol id="take-off" viewBox="0 0 24 24">
      <path fill="currentColor" d="M19.895 7a1.5 1.5 0 0 1 .349 2.75l-10.042 5.755-.204.08-3.315.758a1.499 1.499 0 0 1-1.236-.262l-1.986-1.49a.375.375 0 0 1 .038-.626l1.013-.58a.376.376 0 0 1 .288-.035l2.093.594L10.29 12h-.004L4.312 8.573a.375.375 0 0 1 0-.65l1.173-.681a.375.375 0 0 1 .296-.035l8.444 2.535 4.531-2.597a1.5 1.5 0 0 1 1.139-.144ZM3.75 21h16.5a.75.75 0 1 0 0-1.5H3.75a.75.75 0 1 0 0 1.5Z"/>
    </symbol>
    <symbol id="taxi" viewBox="0 0 24 24">
      <path fill="currentColor" d="M13.875 3h-3.75a.375.375 0 0 0-.375.375V4.5h4.5V3.375A.375.375 0 0 0 13.875 3Zm5.685 7.56.78.78a2.249 2.249 0 0 1 .66 1.592V19.5a.75.75 0 0 1-.75.75H18a.75.75 0 0 1-.75-.75V18H6.75v1.5a.75.75 0 0 1-.75.75H3.75A.75.75 0 0 1 3 19.5v-6.569c0-.596.237-1.168.659-1.59l.781-.782 1.26-3.77A2.25 2.25 0 0 1 7.83 5.25h8.34a2.25 2.25 0 0 1 2.13 1.538l1.26 3.772ZM7.393 6.892a.75.75 0 0 0-.273.371L6.04 10.5h11.92l-1.08-3.237a.75.75 0 0 0-.712-.513H7.831a.75.75 0 0 0-.439.142Zm.748 7.248c.07-.07.11-.165.11-.265v-.75a.375.375 0 0 0-.375-.375h-2.25a.375.375 0 0 0-.375.375v.75a.375.375 0 0 0 .375.375h2.25c.1 0 .195-.04.265-.11Zm7.72 0c.07.07.166.11.265.11h2.25a.375.375 0 0 0 .375-.375v-.75a.375.375 0 0 0-.375-.375h-2.25a.375.375 0 0 0-.375.375v.75c0 .1.04.195.11.265Z"/>
    </symbol>
    <symbol id="telescope" viewBox="0 0 24 24">
      <path fill="currentColor" d="M16.625 3.185c.96.35 1.83.914 2.54 1.65 1.798 1.799 2.36 3.954 1.299 5.01l-3.867 3.867a1.918 1.918 0 0 1-1.403.538 3.432 3.432 0 0 1-1.069-.185 6.718 6.718 0 0 1-2.54-1.65c-1.798-1.799-2.357-3.954-1.3-5.012l3.868-3.867a2.325 2.325 0 0 1 2.472-.35Zm1.836 5.588c.497.163.831.123.942.013.28-.281 0-1.59-1.297-2.89a5.302 5.302 0 0 0-1.95-1.287 1.966 1.966 0 0 0-.593-.109.503.503 0 0 0-.349.097c-.28.278 0 1.59 1.297 2.89a5.276 5.276 0 0 0 1.95 1.286Zm-7.936 4.702a8.259 8.259 0 0 1-1.913-2.896l-2.166 2.164a1.884 1.884 0 0 0-.3 1.984 5 5 0 0 0 1.23 1.899 4.144 4.144 0 0 0 2.732 1.368 1.573 1.573 0 0 0 1.15-.44l2.163-2.162a8.368 8.368 0 0 1-2.896-1.917Zm-4.212 4.211a6.819 6.819 0 0 1-1.37-1.936l-1.587 1.583c-.636.638-.402 1.796.557 2.754.352.363.782.64 1.258.812.19.064.389.098.59.101a1.25 1.25 0 0 0 .906-.355l1.583-1.587a6.722 6.722 0 0 1-1.937-1.372Z"/>
    </symbol>
    <symbol id="ticket" viewBox="0 0 24 24">
      <path fill="currentColor" d="M20.694 9.8A.717.717 0 0 0 21 9.195V6.75a2.25 2.25 0 0 0-2.25-2.25H5.25A2.25 2.25 0 0 0 3 6.75v2.445a.717.717 0 0 0 .306.605 2.624 2.624 0 0 1 0 4.4.717.717 0 0 0-.306.605v2.445a2.25 2.25 0 0 0 2.25 2.25h13.5A2.25 2.25 0 0 0 21 17.25v-2.445a.717.717 0 0 0-.306-.605 2.624 2.624 0 0 1 0-4.4ZM16.5 14.625a.375.375 0 0 1-.375.375h-8.25a.375.375 0 0 1-.375-.375v-5.25A.375.375 0 0 1 7.875 9h8.25a.375.375 0 0 1 .375.375v5.25Z"/>
    </symbol>
  </defs>
</svg>
