<svg width="353" height="26" viewBox="0 0 353 26" fill="none" xmlns="http://www.w3.org/2000/svg">
<path d="M317.743 22.7179V0H321.58V22.7179H317.743Z" fill="#002C77"/>
<path d="M37.5453 6.28422L29.3846 1.36007C28.8099 1.01328 27.8694 1.01328 27.2947 1.36007L4.78122 14.9446L17.2396 4.94691L11.2952 1.36007C10.7205 1.01328 9.78001 1.01328 9.20528 1.36007L1.04456 6.28423C0.469829 6.63102 -0.000408132 7.48318 2.65818e-07 8.17719V18.0213C-0.000408101 18.7168 0.469829 19.5689 1.04456 19.9157L9.20528 24.8399C9.78001 25.1867 10.7205 25.1867 11.2952 24.8399L33.8087 11.2553L21.3503 21.253L27.2947 24.8399C27.8694 25.1867 28.8099 25.1867 29.3846 24.8399L37.5453 19.9157C38.1201 19.5689 38.5903 18.7168 38.5903 18.022V8.17792C38.5903 7.48318 38.1201 6.63102 37.5453 6.28422Z" fill="#002C77"/>
<path d="M48.5903 22.4778V1.09998H52.5647L59.6008 12.5765L66.7175 1.09998H70.5844V22.4778H66.8784V7.00689L59.5739 18.8493L52.2963 7.03515V22.4778H48.5903Z" fill="#002C77"/>
<path fill-rule="evenodd" clip-rule="evenodd" d="M75.2563 21.5918C76.2318 22.52 77.5255 22.984 79.1367 22.984C80.2823 22.984 81.3209 22.7262 82.252 22.2107C83.1826 21.695 83.8633 20.9967 84.2929 20.1151L84.3467 22.4778H87.4886V12.914C87.4886 10.6075 86.871 8.83528 85.6357 7.59772C84.4004 6.36 82.6367 5.74122 80.3452 5.74122C79.3067 5.74122 78.3219 5.89143 77.3911 6.19121C76.4601 6.49147 75.6275 6.85715 74.8937 7.28825V10.6356C75.6633 10.0919 76.4916 9.67921 77.3778 9.39785C78.264 9.11664 79.1275 8.97596 79.9693 8.97596C81.4014 8.97596 82.4622 9.33243 83.1515 10.0449C83.8405 10.7578 84.1855 11.7985 84.1855 13.1672V13.2234C82.9502 12.6797 81.5894 12.4078 80.1036 12.4078C78.8322 12.4078 77.7222 12.6375 76.7736 13.0969C75.8244 13.5567 75.0904 14.1938 74.5714 15.0096C74.052 15.8254 73.7926 16.7867 73.7926 17.8928C73.7926 19.4308 74.2802 20.6635 75.2563 21.5918ZM77.9282 19.5384C77.4269 19.0979 77.1763 18.4742 77.1763 17.6679C77.1763 16.8238 77.4718 16.1725 78.0626 15.7127C78.6533 15.2535 79.5215 15.0236 80.6675 15.0236C81.9741 15.0236 83.1382 15.2674 84.1587 15.7549C84.0688 17.1992 83.6753 18.3005 82.9771 19.0602C82.2788 19.8198 81.2939 20.1993 80.023 20.1993C79.1275 20.1993 78.4293 19.9792 77.9282 19.5384Z" fill="#002C77"/>
<path d="M91.3297 22.4778V6.24743H94.7941L94.8209 9.62301C95.2325 8.51677 95.859 7.63552 96.7008 6.97879C97.542 6.32269 98.4908 5.99433 99.5474 5.99433C99.8336 5.99433 100.174 6.02243 100.568 6.07864C100.961 6.13501 101.275 6.21011 101.508 6.3038V9.93232C101.221 9.8388 100.845 9.75433 100.38 9.67922C99.9141 9.60444 99.4845 9.56664 99.0908 9.56664C97.7482 9.56664 96.723 10.0216 96.0159 10.9309C95.3084 11.8407 94.9552 13.158 94.9552 14.8829V22.4778H91.3297Z" fill="#002C77"/>
<path d="M106.989 22.7731C107.642 22.9138 108.246 22.984 108.801 22.984C110.753 22.984 112.315 22.5385 113.488 21.648C114.66 20.7576 115.247 19.5622 115.247 18.0617C115.247 17.143 115.081 16.3646 114.75 15.727C114.419 15.0896 113.873 14.5221 113.112 14.0251C112.351 13.5284 111.308 13.0546 109.983 12.6046C109.213 12.3422 108.622 12.108 108.211 11.9014C107.799 11.6953 107.517 11.4843 107.365 11.2685C107.212 11.0532 107.136 10.7859 107.136 10.4668C107.136 9.39785 107.978 8.86338 109.661 8.86338C110.413 8.86338 111.232 9.00899 112.118 9.2994C113.004 9.59045 113.734 9.96042 114.307 10.4106V7.09135C113.644 6.69757 112.865 6.37413 111.97 6.12087C111.075 5.86777 110.279 5.74122 109.58 5.74122C107.754 5.74122 106.313 6.182 105.257 7.06325C104.2 7.94482 103.672 9.14475 103.672 10.6637C103.672 11.9765 104.035 13.0173 104.76 13.786C105.485 14.5551 106.724 15.2303 108.479 15.8111C109.732 16.224 110.578 16.5898 111.017 16.9083C111.456 17.2275 111.675 17.6397 111.675 18.1459C111.675 18.7273 111.433 19.1542 110.95 19.426C110.467 19.6978 109.696 19.8337 108.64 19.8337C106.832 19.8337 105.131 19.2431 103.538 18.0617V21.3809C103.985 21.681 104.509 21.9532 105.109 22.1964C105.708 22.4403 106.335 22.6325 106.989 22.7731Z" fill="#002C77"/>
<path d="M118.389 22.4778V1.09998H122.015V8.58218C122.462 7.68204 123.107 6.98371 123.948 6.48656C124.79 5.98988 125.757 5.74122 126.849 5.74122C128.639 5.74122 130.018 6.33666 130.984 7.52738C131.951 8.71842 132.435 10.4295 132.435 12.6609V22.4778H128.809V13.3641C128.809 10.5327 127.771 9.11665 125.694 9.11665C124.548 9.11665 123.648 9.5152 122.995 10.3121C122.341 11.1094 122.015 12.2298 122.015 13.6736V22.4778H118.389Z" fill="#002C77"/>
<path d="M136.758 1.09998V22.4778H140.464V7.03515L147.741 18.8493L155.046 7.00689V22.4778H158.752V1.09998H154.885L147.768 12.5765L140.732 1.09998H136.758Z" fill="#002C77"/>
<path d="M170.177 22.984C168.512 22.984 167.062 22.6369 165.826 21.9433C164.591 21.2498 163.638 20.2606 162.966 18.9757C162.295 17.6914 161.959 16.1865 161.959 14.4611C161.959 12.7171 162.304 11.1937 162.993 9.89024C163.682 8.58694 164.64 7.56945 165.867 6.83825C167.093 6.1069 168.512 5.74122 170.123 5.74122C170.929 5.74122 171.672 5.84443 172.352 6.05053C173.032 6.25711 173.677 6.50068 174.286 6.78189V10.298C173.695 9.92311 173.055 9.63698 172.366 9.44008C171.676 9.24319 171.018 9.14475 170.392 9.14475C168.942 9.14475 167.782 9.60887 166.914 10.5371C166.046 11.4654 165.612 12.7267 165.612 14.3205C165.612 15.9896 166.046 17.2881 166.914 18.2164C167.782 19.1446 168.986 19.6086 170.526 19.6086C171.153 19.6086 171.752 19.5292 172.325 19.3695C172.898 19.2104 173.552 18.9617 174.286 18.6241V21.9716C173.713 22.2717 173.082 22.5153 172.392 22.703C171.703 22.89 170.964 22.984 170.177 22.984Z" fill="#002C77"/>
<path d="M178.153 1.09998V22.4778H191.311V18.9617H181.912V1.09998H178.153Z" fill="#002C77"/>
<path fill-rule="evenodd" clip-rule="evenodd" d="M201.704 22.984C200.021 22.984 198.526 22.656 197.219 21.9996C195.912 21.3435 194.883 20.3777 194.131 19.1024C193.379 17.8274 193.003 16.2614 193.003 14.4049C193.003 12.6986 193.339 11.1981 194.01 9.90421C194.681 8.61028 195.608 7.59327 196.79 6.85223C197.971 6.11166 199.323 5.74122 200.845 5.74122C202.295 5.74122 203.561 6.07435 204.645 6.73965C205.728 7.40559 206.565 8.3386 207.156 9.53853C207.747 10.7389 208.042 12.1453 208.042 13.7577C208.042 13.9829 208.033 14.2036 208.015 14.4189L207.993 14.6802C207.977 14.8703 207.958 15.1066 207.935 15.3894H196.548C196.763 16.7397 197.335 17.7943 198.267 18.554C199.197 19.3133 200.451 19.6931 202.026 19.6931C204.031 19.6931 205.875 19.037 207.559 17.7241V21.0713C206.753 21.6528 205.835 22.1171 204.806 22.4638C203.776 22.8106 202.742 22.984 201.704 22.984ZM200.684 8.66649C199.538 8.66649 198.606 9.03709 197.891 9.77766C197.174 10.5187 196.727 11.5546 196.548 12.8858H204.604C204.604 12.6424 204.586 12.4266 204.551 12.239C204.372 11.0764 203.951 10.1903 203.289 9.58077C202.626 8.97151 201.758 8.66649 200.684 8.66649Z" fill="#002C77"/>
<path d="M211.291 6.24742V22.4778H214.916V13.6736C214.916 12.2298 215.243 11.1094 215.896 10.3121C216.55 9.51519 217.45 9.11664 218.595 9.11664C220.672 9.11664 221.711 10.5327 221.711 13.3641V22.4778H225.336V12.6609C225.336 10.4295 224.852 8.71841 223.886 7.52737C222.919 6.33666 221.54 5.74122 219.75 5.74122C218.622 5.74122 217.624 6.01321 216.756 6.55689C215.887 7.10104 215.238 7.8605 214.809 8.83528L214.782 6.24742H211.291Z" fill="#002C77"/>
<path d="M229.176 22.4778V6.24742H232.667L232.694 8.83528C233.124 7.8605 233.773 7.10104 234.641 6.55689C235.509 6.01321 236.508 5.74122 237.636 5.74122C239.426 5.74122 240.804 6.33666 241.771 7.52737C242.738 8.71841 243.221 10.4295 243.221 12.6609V22.4778H239.596V13.3641C239.596 10.5327 238.558 9.11664 236.481 9.11664C235.335 9.11664 234.435 9.51519 233.782 10.3121C233.128 11.1094 232.802 12.2298 232.802 13.6736V22.4778H229.176Z" fill="#002C77"/>
<path fill-rule="evenodd" clip-rule="evenodd" d="M247.585 21.5918C248.56 22.52 249.854 22.984 251.465 22.984C252.611 22.984 253.649 22.7262 254.581 22.2107C255.511 21.695 256.192 20.9967 256.622 20.1151L256.675 22.4778H259.817V12.914C259.817 10.6075 259.2 8.83528 257.964 7.59772C256.729 6.36 254.965 5.74122 252.674 5.74122C251.635 5.74122 250.65 5.89143 249.72 6.19121C248.789 6.49147 247.956 6.85715 247.222 7.28825V10.6356C247.992 10.0919 248.82 9.67921 249.706 9.39785C250.592 9.11664 251.456 8.97596 252.298 8.97596C253.73 8.97596 254.791 9.33243 255.48 10.0449C256.169 10.7578 256.514 11.7985 256.514 13.1672V13.2234C255.279 12.6797 253.918 12.4078 252.432 12.4078C251.161 12.4078 250.051 12.6375 249.102 13.0969C248.153 13.5567 247.419 14.1938 246.9 15.0096C246.381 15.8254 246.121 16.7867 246.121 17.8928C246.121 19.4308 246.609 20.6635 247.585 21.5918ZM250.257 19.5384C249.755 19.0979 249.505 18.4742 249.505 17.6679C249.505 16.8238 249.8 16.1725 250.391 15.7127C250.982 15.2535 251.85 15.0236 252.996 15.0236C254.303 15.0236 255.467 15.2674 256.487 15.7549C256.397 17.1992 256.004 18.3005 255.305 19.0602C254.607 19.8198 253.622 20.1993 252.351 20.1993C251.456 20.1993 250.758 19.9792 250.257 19.5384Z" fill="#002C77"/>
<path d="M263.658 22.4778V6.24742H267.148L267.175 8.83528C267.605 7.8605 268.254 7.10104 269.122 6.55689C269.991 6.01321 270.989 5.74122 272.117 5.74122C273.907 5.74122 275.286 6.33666 276.253 7.52737C277.219 8.71841 277.703 10.4295 277.703 12.6609V22.4778H274.077V13.3641C274.077 10.5327 273.039 9.11664 270.962 9.11664C269.816 9.11664 268.916 9.51519 268.263 10.3121C267.609 11.1094 267.283 12.2298 267.283 13.6736V22.4778H263.658Z" fill="#002C77"/>
<path d="M345.801 23.0428C345.246 23.0428 344.642 22.9726 343.989 22.8319C343.335 22.6912 342.708 22.4991 342.109 22.2552C341.509 22.012 340.985 21.7398 340.538 21.4397V18.1205C342.131 19.3018 343.832 19.8925 345.64 19.8925C346.696 19.8925 347.467 19.7566 347.95 19.4848C348.433 19.2129 348.675 18.7861 348.675 18.2046C348.675 17.6984 348.456 17.2862 348.017 16.9671C347.578 16.6486 346.732 16.2827 345.479 15.8699C343.724 15.2891 342.485 14.6139 341.76 13.8448C341.035 13.0761 340.672 12.0353 340.672 10.7224C340.672 9.20351 341.2 8.00359 342.257 7.12202C343.313 6.24077 344.754 5.79999 346.58 5.79999C347.279 5.79999 348.075 5.92654 348.97 6.17964C349.865 6.4329 350.644 6.75634 351.307 7.15012V10.4693C350.733 10.0192 350.004 9.64922 349.118 9.35817C348.232 9.06775 347.413 8.92215 346.661 8.92215C344.978 8.92215 344.136 9.45662 344.136 10.5255C344.136 10.8447 344.212 11.1119 344.365 11.3272C344.517 11.543 344.799 11.7541 345.211 11.9602C345.622 12.1667 346.213 12.4009 346.983 12.6634C348.308 13.1134 349.35 13.5872 350.112 14.0839C350.872 14.5809 351.419 15.1484 351.75 15.7857C352.081 16.4234 352.247 17.2018 352.247 18.1205C352.247 19.621 351.66 20.8163 350.488 21.7068C349.315 22.5972 347.753 23.0428 345.801 23.0428Z" fill="#002C77"/>
<path d="M313.099 19.5909C313.506 19.4839 313.944 19.3314 314.414 19.1318L314.971 18.8955V22.3078L314.721 22.4091C313.788 22.788 312.762 22.9743 311.649 22.9743C309.956 22.9743 308.614 22.5441 307.698 21.614C306.783 20.6849 306.361 19.3251 306.361 17.6102V9.52049H303.832V8.26686L308.712 2.59998H309.998V6.43587H314.971V9.52049H309.998V17.3282C309.998 18.214 310.182 18.804 310.483 19.1679C310.771 19.517 311.218 19.7205 311.902 19.7205C312.321 19.7205 312.72 19.6769 313.099 19.5909Z" fill="#002C77"/>
<path fill-rule="evenodd" clip-rule="evenodd" d="M284.422 22.4L292.814 0.164062H296.345L304.738 22.4H300.76L298.822 17.0128H290.199L288.289 22.4H284.422ZM295.04 6.40811L294.554 4.56977L294.005 6.38692L291.384 13.7025H297.637L295.04 6.40811Z" fill="#002C77"/>
<path fill-rule="evenodd" clip-rule="evenodd" d="M325.585 21.3506C326.56 22.2788 327.854 22.7428 329.465 22.7428C330.611 22.7428 331.649 22.4849 332.58 21.9695C333.511 21.4538 334.192 20.7555 334.622 19.8739L334.675 22.2366H337.817V12.6727C337.817 10.3662 337.199 8.59406 335.964 7.3565C334.729 6.11878 332.965 5.5 330.674 5.5C329.635 5.5 328.65 5.65021 327.72 5.94999C326.789 6.25025 325.956 6.61593 325.222 7.04703V10.3943C325.992 9.85067 326.82 9.438 327.706 9.15663C328.592 8.87543 329.456 8.73474 330.298 8.73474C331.73 8.73474 332.791 9.09121 333.48 9.80367C334.169 10.5166 334.514 11.5573 334.514 12.926V12.9822C333.279 12.4385 331.918 12.1665 330.432 12.1665C329.161 12.1665 328.051 12.3963 327.102 12.8557C326.153 13.3155 325.419 13.9525 324.9 14.7684C324.38 15.5842 324.121 16.5455 324.121 17.6516C324.121 19.1895 324.609 20.4223 325.585 21.3506ZM328.257 19.2972C327.755 18.8567 327.505 18.233 327.505 17.4267C327.505 16.5826 327.8 15.9313 328.391 15.4715C328.982 15.0123 329.85 14.7823 330.996 14.7823C332.303 14.7823 333.467 15.0262 334.487 15.5137C334.397 16.958 334.004 18.0593 333.305 18.8189C332.607 19.5786 331.622 19.958 330.351 19.958C329.456 19.958 328.758 19.738 328.257 19.2972Z" fill="#002C77"/>
</svg>
