<svg xmlns="http://www.w3.org/2000/svg">
  <defs>
    <symbol id="cat" viewBox="0 0 24 24">
      <path fill="currentColor" d="M9.75 12.375a1.125 1.125 0 1 1-2.25 0 1.125 1.125 0 0 1 2.25 0ZM10.125 18c.738 0 1.4-.303 1.875-.791a2.617 2.617 0 0 0 3.446.269.75.75 0 1 0-.898-1.201 1.121 1.121 0 0 1-1.655-.36l.753-.753c.614-.614.178-1.664-.69-1.664h-1.914c-.868 0-1.304 1.05-.69 1.664l.754.754a1.121 1.121 0 0 1-1.654.359.75.75 0 0 0-.898 1.2c.438.328.983.523 1.571.523Zm5.25-4.5a1.125 1.125 0 1 0 0-2.25 1.125 1.125 0 0 0 0 2.25Z"/>
      <path fill="currentColor" fill-rule="evenodd" d="M5.719 3.914A.75.75 0 0 0 4.5 4.5v9a7.5 7.5 0 0 0 15 0v-9a.75.75 0 0 0-1.218-.586l-3.35 2.68A7.479 7.479 0 0 0 12 6c-1.039 0-2.03.212-2.931.595l-3.35-2.68ZM6 13.5V6.06l2.494 1.996a.75.75 0 0 0 .807.084c.81-.41 1.727-.64 2.699-.64.972 0 1.889.23 2.7.64a.75.75 0 0 0 .806-.084L18 6.06v7.44a6 6 0 0 1-12 0Z"/>
    </symbol>
    <symbol id="dog" viewBox="0 0 24 24">
      <path fill="currentColor" d="M9 9.75a1.5 1.5 0 1 0 0 3 1.5 1.5 0 0 0 0-3Zm6 0a1.5 1.5 0 1 0 0 3 1.5 1.5 0 0 0 0-3Z"/>
      <path fill="currentColor" fill-rule="evenodd" d="M3 3.75A.75.75 0 0 1 3.75 3a6.744 6.744 0 0 1 5.613 3h5.274a6.744 6.744 0 0 1 5.613-3 .75.75 0 0 1 .75.75v4.5a4.49 4.49 0 0 1-1.5 3.354V16.5a3.75 3.75 0 0 1-2.25 3.438v.312a.75.75 0 0 1-.75.75H15a3.744 3.744 0 0 1-3-1.5A3.744 3.744 0 0 1 9 21H7.5a.75.75 0 0 1-.75-.75v-.312A3.75 3.75 0 0 1 4.5 16.5v-4.896A4.49 4.49 0 0 1 3 8.25v-4.5ZM18 16.5c0 .666-.29 1.265-.75 1.677V16.5a3 3 0 0 0-3-3h-.026a1.485 1.485 0 0 0-1.299-.75h-1.85c-.579 0-1.047.313-1.3.75H9.75a3 3 0 0 0-3 3v1.677A2.245 2.245 0 0 1 6 16.5v-6a3 3 0 0 1 3-3h6a3 3 0 0 1 3 3v6ZM9.776 15H9.75a1.5 1.5 0 0 0-1.5 1.5v3H9a2.25 2.25 0 0 0 2.25-2.25v-.156a1.489 1.489 0 0 1-.536-.53l-.926-1.542A1.235 1.235 0 0 1 9.776 15Zm2.224.792-.925-1.542h1.85L12 15.792Zm.75 1.302v.156A2.25 2.25 0 0 0 15 19.5h.75v-3a1.5 1.5 0 0 0-1.5-1.5h-.026l-.012.022-.926 1.542a1.485 1.485 0 0 1-.536.53ZM4.5 4.554a5.239 5.239 0 0 1 3.13 1.659 4.51 4.51 0 0 0-2.957 3.045A2.996 2.996 0 0 1 4.5 8.25V4.553Zm14.826 4.704a4.51 4.51 0 0 0-2.955-3.045 5.238 5.238 0 0 1 3.129-1.66V8.25c0 .354-.061.693-.174 1.008Z"/>
    </symbol>
    <symbol id="drop" viewBox="0 0 24 24">
      <path fill="currentColor" d="M10.5 13.5a.75.75 0 0 0-1.5 0c0 1.173.556 1.955 1.223 2.417.627.434 1.342.583 1.777.583a.75.75 0 0 0 0-1.5c-.165 0-.575-.076-.923-.317-.309-.213-.577-.556-.577-1.183Z"/>
      <path fill="currentColor" fill-rule="evenodd" d="m12 3.75.534-.527a.75.75 0 0 0-1.068 0l-.005.006-.014.014a20.965 20.965 0 0 0-.25.26 40.659 40.659 0 0 0-2.795 3.291C7.638 7.8 6.861 8.943 6.272 10.08 5.69 11.204 5.25 12.401 5.25 13.5c0 4.311 3.486 6.75 6.75 6.75s6.75-2.439 6.75-6.75c0-1.099-.44-2.296-1.021-3.419-.59-1.138-1.367-2.28-2.131-3.287a40.648 40.648 0 0 0-3.045-3.55l-.014-.015-.005-.005L12 3.75Zm0 0-.534-.527.534.527Zm-.38 1.508c.14-.156.267-.295.38-.417a39.207 39.207 0 0 1 2.402 2.86c.736.97 1.459 2.036 1.994 3.07.544 1.05.854 1.99.854 2.729 0 3.339-2.664 5.25-5.25 5.25s-5.25-1.911-5.25-5.25c0-.739.31-1.678.854-2.729.535-1.034 1.258-2.1 1.994-3.071a39.204 39.204 0 0 1 2.023-2.442Z"/>
    </symbol>
    <symbol id="flower" viewBox="0 0 24 24">
      <path fill="currentColor" fill-rule="evenodd" d="M12 9.75a2.25 2.25 0 1 0 0 4.5 2.25 2.25 0 0 0 0-4.5ZM11.25 12a.75.75 0 1 1 1.5 0 .75.75 0 0 1-1.5 0Z"/>
      <path fill="currentColor" fill-rule="evenodd" d="M12 3c-.901 0-1.542.712-1.933 1.346a6.72 6.72 0 0 0-.645 1.43 6.79 6.79 0 0 0-1.467-.555c-.725-.172-1.682-.222-2.319.415s-.587 1.594-.415 2.319c.114.48.31.982.554 1.467a6.792 6.792 0 0 0-1.429.645C3.712 10.457 3 11.099 3 12s.712 1.542 1.346 1.933c.42.26.914.476 1.43.645a6.79 6.79 0 0 0-.555 1.467c-.172.725-.222 1.682.415 2.319s1.594.587 2.319.415c.48-.114.982-.31 1.467-.554.169.515.386 1.008.645 1.429C10.457 20.288 11.099 21 12 21s1.542-.712 1.933-1.346a6.79 6.79 0 0 0 .645-1.43c.485.246.987.44 1.467.555.725.172 1.682.222 2.319-.415s.587-1.594.415-2.319a6.796 6.796 0 0 0-.554-1.467 6.793 6.793 0 0 0 1.429-.645C20.288 13.543 21 12.901 21 12s-.712-1.542-1.346-1.933a6.79 6.79 0 0 0-1.43-.645 6.81 6.81 0 0 0 .555-1.467c.172-.725.222-1.682-.415-2.319s-1.594-.587-2.319-.415a6.79 6.79 0 0 0-1.467.554 6.792 6.792 0 0 0-.645-1.429C13.543 3.712 12.901 3 12 3Zm-1.37 4.066c.147-.73.406-1.433.714-1.933.34-.553.592-.633.656-.633.064 0 .315.08.656.633.308.5.567 1.204.714 1.933a.75.75 0 0 0 1.15.476c.62-.411 1.3-.726 1.872-.862.632-.15.866-.028.911.017.045.045.167.279.017.91-.136.573-.45 1.253-.862 1.873a.75.75 0 0 0 .476 1.15c.73.147 1.433.406 1.933.714.553.34.633.592.633.656 0 .064-.08.315-.633.656-.5.308-1.204.567-1.933.714a.75.75 0 0 0-.476 1.15c.411.62.726 1.3.862 1.872.15.632.028.866-.017.911-.045.045-.279.167-.91.017-.573-.136-1.253-.45-1.873-.862a.75.75 0 0 0-1.15.476c-.147.73-.406 1.433-.714 1.933-.34.553-.592.633-.656.633-.064 0-.315-.08-.656-.633-.308-.5-.567-1.204-.714-1.933a.75.75 0 0 0-1.15-.476c-.62.411-1.3.726-1.872.862-.632.15-.866.028-.911-.017-.045-.045-.167-.279-.017-.91.136-.573.45-1.253.862-1.873a.75.75 0 0 0-.476-1.15c-.73-.147-1.433-.406-1.933-.714-.553-.34-.633-.592-.633-.656 0-.064.08-.315.633-.656.5-.308 1.204-.567 1.933-.714a.75.75 0 0 0 .476-1.15c-.411-.62-.726-1.3-.862-1.872-.15-.632-.028-.866.017-.911.045-.045.279-.167.91-.017.573.136 1.253.45 1.873.862a.75.75 0 0 0 1.15-.476Z"/>
    </symbol>
    <symbol id="flower-rose" viewBox="0 0 24 24">
      <path fill="currentColor" fill-rule="evenodd" d="M6.75 6c0-1.058.838-1.815 1.733-2.262C9.42 3.268 10.666 3 12 3s2.579.269 3.518.738c.894.447 1.732 1.204 1.732 2.262v3.75a5.25 5.25 0 0 1-4.5 5.196v2.304A3.75 3.75 0 0 1 15 16.5h.005a3.716 3.716 0 0 1 1.829.494.75.75 0 0 1 .37.747A3.74 3.74 0 0 1 13.501 21H10.5a3.74 3.74 0 0 1-3.703-3.259.75.75 0 0 1 .37-.747 3.716 3.716 0 0 1 1.83-.494H9a3.75 3.75 0 0 1 2.25.75v-2.304a5.25 5.25 0 0 1-4.5-5.196V6Zm1.5 0c0-.184.169-.553.903-.92.69-.345 1.695-.58 2.847-.58s2.157.235 2.847.58c.734.367.903.736.903.92v3.75A3.75 3.75 0 0 1 12 13.5a.75.75 0 0 1-.75-.75c0-.301.104-.484.332-.686.13-.114.294-.228.504-.36l.242-.15c.147-.09.311-.19.456-.284.503-.327 1.074-.76 1.51-1.436.442-.684.706-1.557.706-2.709 0-.748-.587-1.223-1.073-1.466-.532-.266-1.214-.409-1.927-.409a.75.75 0 0 0 0 1.5c.53 0 .973.11 1.256.25a1 1 0 0 1 .199.125.999.999 0 0 1-.2.125c-.282.14-.725.25-1.255.25-1.152 0-2.157-.235-2.847-.58-.734-.367-.903-.736-.903-.92Zm0 2.138c.077.043.154.085.233.124C9.42 8.732 10.666 9 12 9c.39 0 .77-.043 1.12-.125-.027.051-.056.1-.086.146-.267.414-.633.708-1.068.99-.137.09-.259.164-.386.242-.092.056-.187.114-.293.181-.23.145-.475.31-.698.506-.474.419-.839.986-.839 1.81a3.755 3.755 0 0 1-1.5-3V8.138Zm.171 9.944c.189-.053.384-.08.581-.082a2.25 2.25 0 0 1 2.12 1.5H10.5a2.24 2.24 0 0 1-2.08-1.418ZM14.998 18a2.25 2.25 0 0 0-2.12 1.5h.621a2.24 2.24 0 0 0 2.08-1.418 2.216 2.216 0 0 0-.581-.082Z"/>
    </symbol>
    <symbol id="ladybug" viewBox="0 0 24 24">
      <path fill="currentColor" fill-rule="evenodd" d="M7.72 3.22a.75.75 0 0 1 1.06 0l1.155 1.154a3.724 3.724 0 0 1 4.13 0L15.22 3.22a.75.75 0 1 1 1.06 1.06l-1.152 1.152c.211.314.377.66.49 1.032.308.222.597.47.865.742l.987-.986a.75.75 0 1 1 1.06 1.06l-1.106 1.107c.666 1.04 1.103 2.276 1.26 3.613h1.566a.75.75 0 0 1 0 1.5h-1.508a8.74 8.74 0 0 1-1.346 4.335l1.134 1.135a.75.75 0 1 1-1.06 1.06l-1.008-1.008C15.287 20.242 13.737 21 12 21h-.002c-1.736 0-3.285-.759-4.46-1.978L6.53 20.03a.75.75 0 0 1-1.06-1.06l1.134-1.135A8.74 8.74 0 0 1 5.258 13.5H3.75a.75.75 0 0 1 0-1.5h1.569a8.621 8.621 0 0 1 1.277-3.593L5.47 7.28a.75.75 0 0 1 1.06-1.06l1.001 1a7.02 7.02 0 0 1 .848-.747c.113-.375.28-.725.493-1.04L7.72 4.28a.75.75 0 0 1 0-1.06Zm1.194 4.75c-.25.222-.484.472-.7.747a.75.75 0 0 1-.093.121c-.835 1.116-1.371 2.61-1.371 4.286 0 3.283 2.048 5.863 4.5 6.307V8.93a6.258 6.258 0 0 1-1.648-.572 8.115 8.115 0 0 1-.688-.387Zm3.836.959v10.502c2.452-.444 4.5-3.024 4.5-6.307 0-1.642-.48-3.099-1.274-4.2a.752.752 0 0 1-.245-.316 5.475 5.475 0 0 0-.633-.646 8.106 8.106 0 0 1-.7.395 6.258 6.258 0 0 1-1.648.572Zm-2.477-1.913a6.612 6.612 0 0 1-.419-.23C10.18 5.879 11.034 5.25 12 5.25c.965 0 1.82.628 2.146 1.538-.12.07-.261.15-.419.229-.52.26-1.147.483-1.727.483-.58 0-1.207-.223-1.727-.483Z"/>
    </symbol>
    <symbol id="leaf" viewBox="0 0 24 24">
      <path fill="currentColor" fill-rule="evenodd" d="m20.235 4.65-.001.006-.003.013-.01.049-.04.185a57.381 57.381 0 0 1-.746 2.978c-.51 1.822-1.257 4.13-2.192 5.96a.75.75 0 0 1-.898.373l-1.04-.336.423 1.69a.75.75 0 0 1-.198.712c-2.026 2.026-4.268 2.389-5.989 2.232a8.466 8.466 0 0 1-2.405-.588L5.03 20.03a.75.75 0 0 1-1.06-1.06l2.099-2.1a8.158 8.158 0 0 1-.609-2.379c-.168-1.719.199-3.96 2.26-6.021 1.72-1.72 4.696-2.887 7.12-3.62a42.03 42.03 0 0 1 4.437-1.073l.073-.012.019-.004h.008a.75.75 0 0 1 .858.89ZM19.5 4.5l-.123-.74.123.74ZM8.31 16.75l2.72-2.72a.75.75 0 1 0-1.06-1.06l-2.736 2.735a6.619 6.619 0 0 1-.281-1.36C6.82 12.992 7.09 11.22 8.78 9.53c1.43-1.43 4.079-2.513 6.493-3.243a40.515 40.515 0 0 1 3.241-.83 56.046 56.046 0 0 1-.524 2.019c-.447 1.6-1.064 3.513-1.804 5.11l-1.706-.55a.75.75 0 0 0-.958.896l.644 2.575c-1.56 1.394-3.2 1.629-4.489 1.512a6.909 6.909 0 0 1-1.367-.268Z"/>
    </symbol>
    <symbol id="paw" viewBox="0 0 24 24">
      <path fill="currentColor" fill-rule="evenodd" d="M8.627 3.82a1.985 1.985 0 0 1 .926-.012 2.367 2.367 0 0 1 1.686 2.536 1.985 1.985 0 0 1-2.417 1.848 2.367 2.367 0 0 1-1.686-2.536 1.985 1.985 0 0 1 1.49-1.837Zm.544 1.44a.485.485 0 0 0-.537.471.749.749 0 0 1-.006.079.867.867 0 0 0 .576.93.485.485 0 0 0 .537-.471.75.75 0 0 1 .006-.079.867.867 0 0 0-.576-.93ZM4.532 7.542a2.22 2.22 0 0 1 2.496 1.682 2.12 2.12 0 0 1-1.297 2.7.748.748 0 0 1-.135.033 2.22 2.22 0 0 1-2.499-1.682 2.12 2.12 0 0 1 1.3-2.7.75.75 0 0 1 .135-.033Zm.298 1.476a.62.62 0 0 0-.311.78.75.75 0 0 1 .033.113.72.72 0 0 0 .744.572.62.62 0 0 0 .31-.78.75.75 0 0 1-.033-.114.72.72 0 0 0-.743-.571ZM15.373 3.82a1.986 1.986 0 0 0-.85-.03.75.75 0 0 0-.076.018 2.367 2.367 0 0 0-1.686 2.536 1.987 1.987 0 0 0 2.341 1.866.754.754 0 0 0 .076-.018 2.367 2.367 0 0 0 1.686-2.536 1.985 1.985 0 0 0-1.49-1.837Zm-.986 1.785a.867.867 0 0 1 .442-.345.485.485 0 0 1 .537.471.7.7 0 0 0 .006.079.867.867 0 0 1-.576.93.485.485 0 0 1-.537-.471.732.732 0 0 0-.006-.079.867.867 0 0 1 .134-.585Zm3.48 2.308a2.22 2.22 0 0 1 1.601-.37.75.75 0 0 1 .135.033 2.119 2.119 0 0 1 1.298 2.7 2.22 2.22 0 0 1-2.496 1.682.751.751 0 0 1-.136-.034 2.12 2.12 0 0 1-1.297-2.7c.126-.532.445-1 .895-1.311Zm1.302 1.105a.72.72 0 0 0-.742.571.753.753 0 0 1-.033.114.62.62 0 0 0 .31.78.719.719 0 0 0 .741-.572.753.753 0 0 1 .034-.114.617.617 0 0 0-.31-.78ZM12 9.75c-.763 0-1.517.313-2.186.759-.676.45-1.318 1.072-1.872 1.778C6.845 13.682 6 15.528 6 17.25a3 3 0 0 0 3 3c.92 0 1.418-.245 1.835-.454l.012-.006c.327-.163.58-.29 1.153-.29.573 0 .826.127 1.153.29l.012.006c.417.209.915.454 1.835.454a3 3 0 0 0 3-3c0-1.722-.846-3.568-1.942-4.963-.554-.706-1.196-1.328-1.872-1.778-.669-.446-1.423-.759-2.186-.759Zm-4.5 7.5c0-1.278.655-2.807 1.621-4.037.477-.606 1.006-1.11 1.525-1.456.528-.352.992-.507 1.354-.507.362 0 .826.155 1.354.507.519.346 1.048.85 1.525 1.456.966 1.23 1.621 2.759 1.621 4.037a1.5 1.5 0 0 1-1.5 1.5c-.573 0-.826-.127-1.153-.29l-.012-.006C13.418 18.245 12.92 18 12 18c-.92 0-1.418.245-1.835.454l-.012.006c-.327.163-.58.29-1.153.29a1.5 1.5 0 0 1-1.5-1.5Z"/>
    </symbol>
    <symbol id="tree-1" viewBox="0 0 24 24">
      <path fill="currentColor" fill-rule="evenodd" d="M10.875 3A3.375 3.375 0 0 0 7.5 6.375c0 .129.009.253.024.373a3.721 3.721 0 0 0-1.509 3.31A3.748 3.748 0 0 0 7.5 17.25h3.75v2.25h-3a.75.75 0 0 0 0 1.5h7.5a.75.75 0 0 0 0-1.5h-3v-2.25h3.75a3.75 3.75 0 0 0 .658-7.442A3.6 3.6 0 0 0 17.25 9a3.75 3.75 0 0 0-3.19-3.708A3.362 3.362 0 0 0 10.876 3ZM16.5 15.75a2.25 2.25 0 1 0 0-4.5h-.416a.75.75 0 0 1-.648-1.127c.199-.342.314-.722.314-1.123a2.25 2.25 0 0 0-2.213-2.25.75.75 0 0 1-.817-.64 1.867 1.867 0 0 0-1.845-1.61C9.839 4.5 9 5.34 9 6.375c0 .16.03.328.085.52a.75.75 0 0 1-.371.873A2.238 2.238 0 0 0 7.5 9.75c0 .193.035.39.098.612a.75.75 0 0 1-.566.938 2.25 2.25 0 0 0 .468 4.45h9Z"/>
    </symbol>
    <symbol id="tree-2" viewBox="0 0 24 24">
      <path fill="currentColor" fill-rule="evenodd" d="M12.614 4.07a.75.75 0 0 0-1.228 0l-5.25 7.5a.75.75 0 0 0 .614 1.18h.938L4.65 16.8a.75.75 0 0 0 .6 1.2h6v1.5h-3a.75.75 0 0 0 0 1.5h7.5a.75.75 0 0 0 0-1.5h-3V18h6a.75.75 0 0 0 .6-1.2l-3.038-4.05h.938a.75.75 0 0 0 .614-1.18l-5.25-7.5ZM17.25 16.5l-3.037-4.05a.75.75 0 0 1 .6-1.2h.996L12 5.808 8.19 11.25h.998a.75.75 0 0 1 .6 1.2L6.75 16.5h10.5Z"/>
    </symbol>
  </defs>
</svg>
