<svg xmlns="http://www.w3.org/2000/svg">
  <defs>
    <symbol id="backpack" viewBox="0 0 24 24">
      <path fill="currentColor" d="M10.5 12H9a2.25 2.25 0 0 1-2.25-2.25V6A2.25 2.25 0 0 1 9 3.75h6A2.25 2.25 0 0 1 17.25 6v3.75A2.25 2.25 0 0 1 15 12h-1.5v-.75a.75.75 0 0 0-.75-.75h-1.5a.75.75 0 0 0-.75.75V12Zm3 1.5H15a3.856 3.856 0 0 0 2.25-.75v7.5H6.75v-7.5c.653.48 1.44.743 2.25.75h1.5v.75a.75.75 0 0 0 .75.75h1.5a.75.75 0 0 0 .75-.75v-.75Zm5.25 6.75h.75a.71.71 0 0 0 .75-.75V12a2.184 2.184 0 0 0-1.5-2.1v10.35ZM4.157 10.705A2.18 2.18 0 0 1 5.25 9.9v10.35H4.5a.71.71 0 0 1-.75-.75V12a2.184 2.184 0 0 1 .407-1.295Z"/>
    </symbol>
  </defs>
</svg>
