<svg xmlns="http://www.w3.org/2000/svg">
  <defs>
    <symbol id="backpack" viewBox="0 0 24 24">
      <path fill="currentColor" fill-rule="evenodd" d="M9 3.75h6.002a2.255 2.255 0 0 1 2.248 2.248V9h.752a2.255 2.255 0 0 1 2.248 2.248V18A2.25 2.25 0 0 1 18 20.25H6A2.25 2.25 0 0 1 3.75 18v-6.752A2.255 2.255 0 0 1 5.998 9h.752V5.998A2.255 2.255 0 0 1 8.998 3.75H9Zm8.25 15v-3a.75.75 0 0 0-1.5 0v3h-7.5v-3a.75.75 0 0 0-1.5 0v3H6a.75.75 0 0 1-.75-.75v-6.749a.754.754 0 0 1 .751-.751h.749v.75A2.25 2.25 0 0 0 9 13.5h2.25v.75a.75.75 0 0 0 1.5 0v-.75H15a2.25 2.25 0 0 0 2.25-2.25v-.75h.749a.754.754 0 0 1 .751.751V18a.75.75 0 0 1-.75.75h-.75ZM12.75 12v-.75a.75.75 0 0 0-1.5 0V12H9a.75.75 0 0 1-.75-.75V6.001a.755.755 0 0 1 .751-.751H15a.754.754 0 0 1 .751.751v5.249A.75.75 0 0 1 15 12h-2.25Z"/>
    </symbol>
  </defs>
</svg>
