<svg xmlns="http://www.w3.org/2000/svg">
  <defs>
    <symbol id="cake" viewBox="0 0 24 24">
      <path fill="currentColor" d="M13.06 7.06A1.5 1.5 0 0 1 10.5 6c0-.825 1.5-3 1.5-3s1.5 2.175 1.5 3a1.5 1.5 0 0 1-.44 1.06Zm-8.34 6.22c.14.141.331.22.53.22h13.5a.75.75 0 0 0 .75-.75V10.5A1.5 1.5 0 0 0 18 9H6a1.5 1.5 0 0 0-1.5 1.5v2.25c0 .199.079.39.22.53Zm15.84 2.16A1.5 1.5 0 0 0 19.5 15h-15A1.5 1.5 0 0 0 3 16.5v3a.75.75 0 0 0 .75.75h16.5a.75.75 0 0 0 .75-.75v-3a1.5 1.5 0 0 0-.44-1.06Z"/>
    </symbol>
    <symbol id="happy" viewBox="0 0 24 24">
      <path fill="currentColor" d="M12 3a9 9 0 1 0 0 18 9 9 0 0 0 0-18Zm-4.5 7.875a1.125 1.125 0 1 1 2.25 0 1.125 1.125 0 0 1-2.25 0ZM12 17.25a3 3 0 0 1-3-3h6a3 3 0 0 1-3 3ZM15.375 12a1.125 1.125 0 1 1 0-2.25 1.125 1.125 0 0 1 0 2.25Z"/>
    </symbol>
    <symbol id="laugh" viewBox="0 0 24 24">
      <path fill="currentColor" d="M12 3a9 9 0 1 0 0 18 9 9 0 0 0 0-18Zm-5.25 7.5a2.25 2.25 0 0 1 4.5 0v.75h-1.5v-.75a.75.75 0 1 0-1.5 0v.75h-1.5v-.75ZM12 18a4.5 4.5 0 0 1-4.5-4.5h9A4.5 4.5 0 0 1 12 18Zm5.25-6.75h-1.5v-.75a.75.75 0 1 0-1.5 0v.75h-1.5v-.75a2.25 2.25 0 0 1 4.5 0v.75Z"/>
    </symbol>
    <symbol id="party" viewBox="0 0 24 24">
      <path fill="currentColor" d="M10.263 6.71a.75.75 0 0 0 .949-.473l.75-2.25a.75.75 0 1 0-1.425-.474l-.75 2.25a.75.75 0 0 0 .476.948Zm9.75 5.329-2.25.75a.752.752 0 0 0 .474 1.425l2.25-.75a.753.753 0 0 0 .33-1.204.748.748 0 0 0-.804-.221ZM16.875 6a1.875 1.875 0 1 1-3.75 0 1.875 1.875 0 0 1 3.75 0Zm-2.625 4.5a.75.75 0 0 0 .75.75A5.256 5.256 0 0 0 20.25 6a.75.75 0 0 0-1.5 0A3.755 3.755 0 0 1 15 9.75a.75.75 0 0 0-.75.75ZM8.458 6.78a.75.75 0 0 1 .322.19l8.25 8.25a.75.75 0 0 1-.28 1.237L4 20.957A.75.75 0 0 1 3.043 20l4.5-12.75a.75.75 0 0 1 .915-.47Zm-2.575 9.68-.904 2.56 1.573-.555-.669-2.006Zm1.414-4.01 1.716 5.145 1.434-.507-2.325-6.975-.825 2.337Zm3.74-1.111 1.65 4.96 1.563-.55-.587-1.785-2.625-2.625Z"/>
    </symbol>
    <symbol id="sad" viewBox="0 0 24 24">
      <path fill="currentColor" d="M12 3a9 9 0 1 0 0 18 9 9 0 0 0 0-18Zm-4.5 7.875a1.125 1.125 0 1 1 2.25 0 1.125 1.125 0 0 1-2.25 0Zm6 5.625a1.5 1.5 0 1 0-3 0H9a3 3 0 0 1 6 0h-1.5Zm1.875-4.5a1.125 1.125 0 1 1 0-2.25 1.125 1.125 0 0 1 0 2.25Z"/>
    </symbol>
    <symbol id="smile" viewBox="0 0 24 24">
      <path fill="currentColor" d="M12 3a9 9 0 1 0 0 18 9 9 0 0 0 0-18Zm-4.5 7.875a1.125 1.125 0 1 1 2.25 0 1.125 1.125 0 0 1-2.25 0ZM12 17.25a3 3 0 0 1-3-3h1.5a1.5 1.5 0 1 0 3 0H15a3 3 0 0 1-3 3ZM15.375 12a1.125 1.125 0 1 1 0-2.25 1.125 1.125 0 0 1 0 2.25Z"/>
    </symbol>
    <symbol id="smirk" viewBox="0 0 24 24">
      <path fill="currentColor" d="M12 3a9 9 0 1 0 0 18 9 9 0 0 0 0-18ZM9 9.75a.75.75 0 0 0-.75.75v.75h-1.5v-.75a2.25 2.25 0 0 1 4.5 0v.75h-1.5v-.75A.75.75 0 0 0 9 9.75Zm7.05 5.261a5.053 5.053 0 0 1-3.596 1.489H9.75V15h2.704a3.562 3.562 0 0 0 2.535-1.05l.761-.76 1.06 1.06-.76.761Zm1.2-3.761h-1.5v-.75a.75.75 0 1 0-1.5 0v.75h-1.5v-.75a2.25 2.25 0 0 1 4.5 0v.75Z"/>
    </symbol>
    <symbol id="thumb-down" viewBox="0 0 24 24">
      <path fill="currentColor" d="M18.88 13.976a3 3 0 0 0 1.712-3.182l-.807-5.25A2.985 2.985 0 0 0 16.82 3H7.5v9.75l2.276 7.697A.75.75 0 0 0 10.5 21c1.655 0 2.25-1.346 2.25-3v-3.75h4.875a3 3 0 0 0 1.254-.274ZM3.75 12.75H6V3H3.75a.75.75 0 0 0-.75.75V12a.75.75 0 0 0 .75.75Z"/>
    </symbol>
    <symbol id="thumb-up" viewBox="0 0 24 24">
      <path fill="currentColor" d="M18.88 10.025a3 3 0 0 1 1.712 3.181l-.807 5.25A2.985 2.985 0 0 1 16.82 21H7.5v-9.75l2.276-7.697A.75.75 0 0 1 10.5 3c1.655 0 2.25 1.346 2.25 3v3.75h4.875a3 3 0 0 1 1.255.275ZM3.75 11.25H6V21H3.75a.75.75 0 0 1-.75-.75V12a.75.75 0 0 1 .75-.75Z"/>
    </symbol>
  </defs>
</svg>
