<svg xmlns="http://www.w3.org/2000/svg">
  <defs>
    <symbol id="battery-charging" viewBox="0 0 24 24">
      <path fill="currentColor" d="M10.886 9.857a.75.75 0 0 0-1.136.643v1.675l-2.614-1.568a.75.75 0 1 0-.772 1.286l3.75 2.25a.75.75 0 0 0 1.136-.643v-1.675l2.614 1.568a.75.75 0 1 0 .772-1.286l-3.75-2.25Z"/>
      <path fill="currentColor" fill-rule="evenodd" d="M3 8.25A2.25 2.25 0 0 1 5.25 6H16.5a2.25 2.25 0 0 1 2.25 2.25v7.5A2.25 2.25 0 0 1 16.5 18H5.25A2.25 2.25 0 0 1 3 15.75v-7.5Zm2.25-.75a.75.75 0 0 0-.75.75v7.5c0 .414.336.75.75.75H16.5a.75.75 0 0 0 .75-.75v-7.5a.75.75 0 0 0-.75-.75H5.25Z"/>
      <path fill="currentColor" d="M20.25 9a.75.75 0 0 1 .75.75v4.5a.75.75 0 0 1-1.5 0v-4.5a.75.75 0 0 1 .75-.75Z"/>
    </symbol>
    <symbol id="battery-power" viewBox="0 0 24 24">
      <path fill="currentColor" fill-rule="evenodd" d="M5.25 6A2.25 2.25 0 0 0 3 8.25v7.5A2.25 2.25 0 0 0 5.25 18H16.5a2.25 2.25 0 0 0 2.25-2.25v-7.5A2.25 2.25 0 0 0 16.5 6H5.25ZM4.5 8.25a.75.75 0 0 1 .75-.75H16.5a.75.75 0 0 1 .75.75v7.5a.75.75 0 0 1-.75.75H5.25a.75.75 0 0 1-.75-.75v-7.5Z"/>
      <path fill="currentColor" d="M21 9.75a.75.75 0 0 0-1.5 0v4.5a.75.75 0 0 0 1.5 0v-4.5Z"/>
    </symbol>
    <symbol id="battery-status" viewBox="0 0 24 24">
      <path fill="currentColor" fill-rule="evenodd" d="M6.75 9a.75.75 0 0 0-.75.75v4.5c0 .414.336.75.75.75h6a.75.75 0 0 0 .624-1.166l-3-4.5A.75.75 0 0 0 9.75 9h-3Zm.75 4.5v-3h1.849l2 3H7.5Z"/>
      <path fill="currentColor" fill-rule="evenodd" d="M3 8.25A2.25 2.25 0 0 1 5.25 6H16.5a2.25 2.25 0 0 1 2.25 2.25v7.5A2.25 2.25 0 0 1 16.5 18H5.25A2.25 2.25 0 0 1 3 15.75v-7.5Zm2.25-.75a.75.75 0 0 0-.75.75v7.5c0 .414.336.75.75.75H16.5a.75.75 0 0 0 .75-.75v-7.5a.75.75 0 0 0-.75-.75H5.25Z"/>
      <path fill="currentColor" d="M20.25 9a.75.75 0 0 1 .75.75v4.5a.75.75 0 0 1-1.5 0v-4.5a.75.75 0 0 1 .75-.75Z"/>
    </symbol>
    <symbol id="plug" viewBox="0 0 24 24">
      <path fill="currentColor" fill-rule="evenodd" d="M20.03 3.97a.75.75 0 0 1 0 1.06l-1.362 1.362a4.501 4.501 0 0 1-.486 5.79l-1.125 1.125a.75.75 0 0 1-1.06 0l-5.304-5.304a.75.75 0 0 1 0-1.06l1.125-1.125a4.5 4.5 0 0 1 5.79-.486L18.97 3.97a.75.75 0 0 1 1.06 0Zm-7.152 2.908a3 3 0 0 1 4.244 4.244l-.595.594-4.243-4.243.594-.595Zm-4.875 3.815a.75.75 0 0 0-1.06 0l-1.125 1.125a4.5 4.5 0 0 0-.486 5.79L3.97 18.97a.75.75 0 1 0 1.06 1.06l1.362-1.362a4.501 4.501 0 0 0 5.79-.486l1.125-1.125a.75.75 0 0 0 0-1.06L12.311 15l.97-.97a.75.75 0 1 0-1.061-1.06l-.97.97-1.19-1.19.97-.97a.75.75 0 1 0-1.06-1.06l-.97.97-.997-.997Zm-.53 1.59-.595.595a3 3 0 0 0-.002 4.241l.002.003.003.002a3 3 0 0 0 4.24-.002l.595-.595-4.243-4.243Z"/>
    </symbol>
    <symbol id="recycling" viewBox="0 0 24 24">
      <path fill="currentColor" d="M12 4.5c.26 0 .5.134.637.354l3.065 4.923.276-1.23a.75.75 0 1 1 1.464.328l-.677 3.017a.748.748 0 0 1-.896.568l-3.017-.677a.75.75 0 1 1 .328-1.464l1.27.285-2.451-3.937-1.233 1.972a.75.75 0 1 1-1.272-.795l1.87-2.992a.75.75 0 0 1 .637-.352ZM9.129 9.858a.75.75 0 0 1 .34.46l.75 3a.75.75 0 1 1-1.456.364l-.323-1.293L5.857 16.5H8.25a.75.75 0 0 1 0 1.5H4.5a.75.75 0 0 1-.635-1.149l3.249-5.171-1.191.298a.75.75 0 1 1-.364-1.456l3-.75a.747.747 0 0 1 .57.086Zm9.026 3.826a.75.75 0 0 0-1.271.795l1.263 2.021H13.06l.97-.97a.75.75 0 1 0-1.061-1.06l-2.25 2.25a.747.747 0 0 0-.22.528v.004a.747.747 0 0 0 .22.53l2.25 2.248a.75.75 0 1 0 1.06-1.06l-.97-.97h6.44a.75.75 0 0 0 .636-1.148l-1.98-3.168Z"/>
    </symbol>
    <symbol id="temperature" viewBox="0 0 24 24">
      <path fill="currentColor" d="M13.591 17.341A2.25 2.25 0 0 1 9.75 15.75h4.5a2.25 2.25 0 0 1-.659 1.591Z"/>
      <path fill="currentColor" fill-rule="evenodd" d="M12 3a3 3 0 0 0-3 3v5.439a5.25 5.25 0 1 0 6 0V6a3 3 0 0 0-3-3Zm-1.06 1.94A1.5 1.5 0 0 1 13.5 6v5.85a.75.75 0 0 0 .375.65 3.75 3.75 0 1 1-3.75 0 .75.75 0 0 0 .375-.65V6c0-.398.158-.78.44-1.06Z"/>
    </symbol>
    <symbol id="world" viewBox="0 0 24 24">
      <path fill="currentColor" fill-rule="evenodd" d="M14.387 9.913a.75.75 0 0 1 .423-.022l1.768.423a.75.75 0 0 1 .491.383l.851 1.634a.75.75 0 0 1 .021.65l-1.412 3.187a.75.75 0 0 1-.174.245l-1.322 1.23a.75.75 0 0 1-.463.2l-1.755.113a.75.75 0 0 1-.626-.271l-1.046-1.268a.75.75 0 0 1-.154-.635l.319-1.48-.275-1.458a.75.75 0 0 1 .151-.607l1.195-1.497a.75.75 0 0 1 .338-.24l1.67-.587Zm.289 1.489-1.259.442-.846 1.06.239 1.27a.756.756 0 0 1-.004.296l-.274 1.273.57.691 1.104-.07 1.014-.944 1.203-2.716-.526-1.01-1.221-.292Z"/>
      <path fill="currentColor" fill-rule="evenodd" d="M12.135 3.001A9 9 0 1 1 11.865 21a9 9 0 0 1 .27-17.998Zm-.46 1.506a7.459 7.459 0 0 0-3.608 1.106l.45.37a.75.75 0 0 1 .072.067l1.234 1.317a.75.75 0 0 1 .194.622l-.303 2.055a.75.75 0 0 1-.403.56l-1.866.943-.48.41.14.24.924.99a.75.75 0 0 1 .173.305l.53 1.855a.75.75 0 0 1-.24.78l-1.281 1.075-.112.476A7.5 7.5 0 0 0 18.054 7.572l-.552.313a.75.75 0 0 1-.281.092l-2.25.268a.75.75 0 0 1-.559-.16L12.7 6.704a.75.75 0 0 1-.24-.34l-.438-1.285-.346-.573Zm5.349 1.924a7.477 7.477 0 0 0-3.568-1.79l.353 1.032 1.298 1.045 1.787-.213.13-.074ZM5.91 16.378a.75.75 0 0 1 .146-.164l1.1-.923-.347-1.213-.857-.918a.75.75 0 0 1-.099-.133l-.5-.853a.75.75 0 0 1 .16-.95l1.027-.876a.745.745 0 0 1 .148-.099l1.599-.808.193-1.313-.952-1.017-.682-.56a7.479 7.479 0 0 0-2.346 5.45c0 1.633.523 3.145 1.41 4.377Z"/>
    </symbol>
  </defs>
</svg>
