<svg xmlns="http://www.w3.org/2000/svg">
  <defs>
    <symbol id="battery-charging" viewBox="0 0 24 24">
      <path fill="currentColor" d="M5.25 6H16.5c1.24 0 2.25 1.01 2.25 2.25v7.5c0 1.24-1.01 2.25-2.25 2.25H5.25C4.01 18 3 16.99 3 15.75v-7.5C3 7.01 4.01 6 5.25 6Zm9.236 7.473a.374.374 0 0 0 .38-.636l-4.5-3.75a.375.375 0 0 0-.615.288v2.447l-3.236-1.295a.375.375 0 0 0-.38.636l4.5 3.75a.371.371 0 0 0 .4.052.376.376 0 0 0 .216-.34v-2.447l3.235 1.295ZM19.5 15h.75a.75.75 0 0 0 .75-.75v-4.5a.75.75 0 0 0-.75-.75h-.75v6Z"/>
    </symbol>
    <symbol id="battery-power" viewBox="0 0 24 24">
      <path fill="currentColor" d="M5.25 6H16.5a2.25 2.25 0 0 1 2.25 2.25v7.5A2.25 2.25 0 0 1 16.5 18H5.25A2.25 2.25 0 0 1 3 15.75v-7.5A2.25 2.25 0 0 1 5.25 6Zm14.25 9h.75a.75.75 0 0 0 .75-.75v-4.5a.75.75 0 0 0-.75-.75h-.75v6Z"/>
    </symbol>
    <symbol id="battery-status" viewBox="0 0 24 24">
      <path fill="currentColor" d="M5.25 6H16.5c1.24 0 2.25 1.01 2.25 2.25v7.5c0 1.24-1.01 2.25-2.25 2.25H5.25C4.01 18 3 16.99 3 15.75v-7.5C3 7.01 4.01 6 5.25 6Zm6.375 9.75a.376.376 0 0 0 .343-.527l-3-6.75a.375.375 0 0 0-.343-.223h-3a.375.375 0 0 0-.375.375v6.75c0 .207.168.375.375.375h6ZM19.5 15h.75a.75.75 0 0 0 .75-.75v-4.5a.75.75 0 0 0-.75-.75h-.75v6Z"/>
    </symbol>
    <symbol id="plug" viewBox="0 0 24 24">
      <path fill="currentColor" d="M16.527 13.526a.75.75 0 0 1-.53-.22l-5.304-5.302a.75.75 0 0 1 0-1.06l1.125-1.125a4.492 4.492 0 0 1 5.787-.484L19.72 3.22a.75.75 0 1 1 1.06 1.06l-2.115 2.115a4.492 4.492 0 0 1-.483 5.787l-1.125 1.124a.75.75 0 0 1-.53.22ZM13.81 13.5l-1.5 1.5.997.996a.75.75 0 0 1 0 1.06l-1.125 1.125a4.492 4.492 0 0 1-5.787.484L4.28 20.78a.749.749 0 1 1-1.06-1.06l2.115-2.115a4.492 4.492 0 0 1 .483-5.787l1.125-1.124a.75.75 0 0 1 1.06 0l.997.995 1.5-1.5 1.06 1.061-1.5 1.5 1.19 1.19 1.5-1.5 1.06 1.06Z"/>
    </symbol>
    <symbol id="recycling" viewBox="0 0 24 24">
      <path fill="currentColor" d="m11.999 6.667 1.848 2.97-1.232.781a.75.75 0 0 0 .237 1.365l3.017.677a.751.751 0 0 0 .896-.568l.677-3.017a.749.749 0 0 0-1.133-.798l-1.194.757-2.478-3.98a.75.75 0 0 0-1.273-.002l-1.87 2.992 1.272.796L12 6.667Zm8.137 10.185-1.98-3.169-1.273.796 1.264 2.021H14.25V15a.75.75 0 0 0-1.28-.53l-2.25 2.25a.75.75 0 0 0 0 1.06l2.25 2.25a.75.75 0 0 0 1.28-.53V18h5.25a.75.75 0 0 0 .636-1.148ZM8.559 9.773a.75.75 0 0 1 .91.545l.75 3a.75.75 0 0 1-1.114.825l-1.284-.77L5.857 16.5H8.25V18H4.5a.749.749 0 0 1-.635-1.15l2.67-4.249-1.18-.708a.75.75 0 0 1 .204-1.37l3-.75Z"/>
    </symbol>
    <symbol id="temperature" viewBox="0 0 24 24">
      <path fill="currentColor" d="M15 11.432V6a3 3 0 0 0-6 0v5.432a5.25 5.25 0 1 0 6 0Zm-3 7.318a3 3 0 0 1-3-3h6a3 3 0 0 1-3 3Z"/>
    </symbol>
    <symbol id="world" viewBox="0 0 24 24">
      <path fill="currentColor" d="m17.07 10.697.85 1.634a.75.75 0 0 1 .02.652l-1.41 3.187a.75.75 0 0 1-.175.244l-1.322 1.23a.75.75 0 0 1-.463.2l-1.755.113h-.048a.75.75 0 0 1-.579-.273l-.493-1.301a.74.74 0 0 1-.14-.633l.375-1.29-.61-1.546a.938.938 0 0 1 .055-.695l1.004-1.48a.75.75 0 0 1 .338-.239l1.67-.586a.746.746 0 0 1 .423-.023l1.768.423a.75.75 0 0 1 .491.383Z"/>
      <path fill="currentColor" d="M7 4.517A9 9 0 0 1 12 3a9.01 9.01 0 0 1 9 9A9 9 0 1 1 7 4.517Zm2.098 14.398A7.474 7.474 0 0 0 12 19.5a7.486 7.486 0 0 0 6.04-11.927l-.538.306a.758.758 0 0 1-.281.093l-2.25.267a.75.75 0 0 1-.559-.16L12.699 6.7a.759.759 0 0 1-.24-.34l-.439-1.286-.336-.558A7.447 7.447 0 0 0 7.53 5.992l.239.196c.025.02.048.043.07.067l1.237 1.32a.75.75 0 0 1 .189.62l-.3 2.054a.75.75 0 0 1-.404.56l-1.865.944-.48.41.14.239.927.99a.76.76 0 0 1 .174.308l.525 1.854a.75.75 0 0 1-.239.78l-1.091.916a7.474 7.474 0 0 0 2.447 1.665Z"/>
    </symbol>
  </defs>
</svg>
