<svg xmlns="http://www.w3.org/2000/svg">
  <defs>
    <symbol id="play-movie" viewBox="0 0 24 24">
      <path fill="currentColor" d="M14.25 12 10.5 9.75v4.5L14.25 12Z"/>
      <path fill="currentColor" fill-rule="evenodd" d="M4.5 3.75a.75.75 0 0 0-.75.75v15c0 .414.336.75.75.75h15a.75.75 0 0 0 .75-.75v-15a.75.75 0 0 0-.75-.75h-15Zm12 15h2.25v-1.5H16.5v1.5Zm-1.5-1.5v1.5h-2.25v-1.5H15Zm3.75-1.5v-7.5H5.25v7.5h13.5Zm-7.5 3H9v-1.5h2.25v1.5Zm-3.75 0v-1.5H5.25v1.5H7.5ZM15 5.25h-2.25v1.5H15v-1.5Zm1.5 1.5v-1.5h2.25v1.5H16.5ZM5.25 5.25H7.5v1.5H5.25v-1.5Zm3.75 0v1.5h2.25v-1.5H9Z"/>
    </symbol>
    <symbol id="theater" viewBox="0 0 24 24">
      <path fill="currentColor" d="M6 9a.75.75 0 0 1 .75-.75h.75a.75.75 0 0 1 0 1.5h-.75A.75.75 0 0 1 6 9Zm4.5-.75a.75.75 0 0 0 0 1.5h.75a.75.75 0 0 0 0-1.5h-.75Zm.75 4.5a2.25 2.25 0 0 1-4.5 0h4.5Z"/>
      <path fill="currentColor" fill-rule="evenodd" d="M14.504 3.96a16.257 16.257 0 0 0-11.008 0A.75.75 0 0 0 3 4.666V12a6 6 0 1 0 12 0V4.666a.75.75 0 0 0-.496-.706ZM4.5 12V5.203a14.757 14.757 0 0 1 9 0V12a4.5 4.5 0 1 1-9 0Z"/>
      <path fill="currentColor" d="M15.754 6.755a.75.75 0 0 1 .82-.673c1.34.133 2.658.427 3.927.877a.75.75 0 0 1 .499.707V15a6.003 6.003 0 0 1-6.785 5.944 5.999 5.999 0 0 1-3.072-1.352.75.75 0 1 1 .964-1.15A4.5 4.5 0 0 0 19.5 15V8.205c-1-.316-2.03-.527-3.074-.63a.75.75 0 0 1-.672-.82Z"/>
      <path fill="currentColor" d="M15.75 12a.75.75 0 0 1 .75-.75h.75a.75.75 0 0 1 0 1.5h-.75a.75.75 0 0 1-.75-.75Zm.398 3.978A2.993 2.993 0 0 0 15 15.75a.75.75 0 0 0 .002 1.5 1.493 1.493 0 0 1 1.059.439.75.75 0 1 0 1.062-1.06c-.279-.279-.61-.5-.974-.65Z"/>
    </symbol>
  </defs>
</svg>
