<svg xmlns="http://www.w3.org/2000/svg">
  <defs>
    <symbol id="carriage" viewBox="0 0 24 24">
      <path fill="currentColor" fill-rule="evenodd" d="M14.25 3a.75.75 0 0 0-.75.75V9H6V6.75A2.25 2.25 0 0 0 3.75 4.5a.75.75 0 0 0 0 1.5.75.75 0 0 1 .75.75V12a3.75 3.75 0 0 0 3.75 3.75h9A3.75 3.75 0 0 0 21 12V9.75A6.75 6.75 0 0 0 14.25 3Zm5.196 6H15V4.554A5.25 5.25 0 0 1 19.446 9Zm.054 1.5V12a2.25 2.25 0 0 1-2.25 2.25h-9A2.25 2.25 0 0 1 6 12v-1.5h13.5ZM6.75 18.75a2.25 2.25 0 1 1 4.5 0 2.25 2.25 0 0 1-4.5 0ZM9 18a.75.75 0 1 0 0 1.5.75.75 0 0 0 0-1.5Zm5.25.75a2.25 2.25 0 1 1 4.5 0 2.25 2.25 0 0 1-4.5 0ZM16.5 18a.75.75 0 1 0 0 1.5.75.75 0 0 0 0-1.5Z"/>
    </symbol>
  </defs>
</svg>
