<svg xmlns="http://www.w3.org/2000/svg">
  <defs>
    <symbol id="archive" viewBox="0 0 24 24">
      <path fill="currentColor" fill-rule="evenodd" d="M3.75 6A2.25 2.25 0 0 1 6 3.75h12A2.25 2.25 0 0 1 20.25 6v12A2.25 2.25 0 0 1 18 20.25H6A2.25 2.25 0 0 1 3.75 18V6Zm1.5 0A.75.75 0 0 1 6 5.25h12a.75.75 0 0 1 .75.75v6.75H15a.75.75 0 0 0-.75.75V15h-4.5v-1.5a.75.75 0 0 0-.75-.75H5.25V6Zm13.5 8.25V18a.75.75 0 0 1-.75.75H6a.75.75 0 0 1-.75-.75v-3.75h3v1.5c0 .414.336.75.75.75h6a.75.75 0 0 0 .75-.75v-1.5h3Z"/>
    </symbol>
    <symbol id="backup" viewBox="0 0 24 24">
      <path fill="currentColor" d="M12.75 9.75a.75.75 0 0 0-1.5 0v4.94l-1.72-1.72a.75.75 0 0 0-1.06 1.06l3 3a.75.75 0 0 0 1.06 0l3-3a.75.75 0 1 0-1.06-1.06l-1.72 1.72V9.75Z"/>
      <path fill="currentColor" fill-rule="evenodd" d="M7.5 3.75a.75.75 0 0 0-.53.22l-3 3a.75.75 0 0 0-.22.53V18A2.25 2.25 0 0 0 6 20.25h12A2.25 2.25 0 0 0 20.25 18V7.5a.75.75 0 0 0-.22-.53l-3-3a.75.75 0 0 0-.53-.22h-9Zm-1.19 3 1.5-1.5h8.38l1.5 1.5H6.31Zm-1.06 1.5V18a.75.75 0 0 0 .75.75h12a.75.75 0 0 0 .75-.75V8.25H5.25Z"/>
    </symbol>
    <symbol id="box" viewBox="0 0 24 24">
      <path fill="currentColor" fill-rule="evenodd" d="M3 4.5a.75.75 0 0 1 .75-.75h16.5a.75.75 0 0 1 .75.75v3.75a.75.75 0 0 1-.75.75H3.75A.75.75 0 0 1 3 8.25V4.5Zm1.5.75V7.5h15V5.25h-15Z"/>
      <path fill="currentColor" d="M5.25 10.5a.75.75 0 0 1 .75.75v7.5h12v-7.5a.75.75 0 0 1 1.5 0v8.25a.75.75 0 0 1-.75.75H5.25a.75.75 0 0 1-.75-.75v-8.25a.75.75 0 0 1 .75-.75Z"/>
      <path fill="currentColor" fill-rule="evenodd" d="M9.75 10.5a.75.75 0 0 0-.75.75v3c0 .414.336.75.75.75h4.5a.75.75 0 0 0 .75-.75v-3a.75.75 0 0 0-.75-.75h-4.5Zm.75 3V12h3v1.5h-3Z"/>
    </symbol>
    <symbol id="compressed-file" viewBox="0 0 24 24">
      <path fill="currentColor" d="M5.25 3a.75.75 0 0 0-.75.75v16.5c0 .414.336.75.75.75h13.5a.75.75 0 0 0 .75-.75V3.75a.75.75 0 0 0-.75-.75H15a.75.75 0 0 0 0 1.5h3v15H6v-15h5.25V6a.75.75 0 0 0 1.5 0V3.75A.75.75 0 0 0 12 3H5.25Z"/>
      <path fill="currentColor" fill-rule="evenodd" d="M9.75 7.5a.75.75 0 0 0-.75.75V12c0 .414.336.75.75.75h4.5A.75.75 0 0 0 15 12V8.25a.75.75 0 0 0-.75-.75h-4.5Zm.75 3.75V9h3v2.25h-3Z"/>
      <path fill="currentColor" d="M10.5 16.5a.75.75 0 0 1 .75-.75h1.5a.75.75 0 0 1 0 1.5h-1.5a.75.75 0 0 1-.75-.75Zm.75-3a.75.75 0 0 0 0 1.5h1.5a.75.75 0 0 0 0-1.5h-1.5Z"/>
    </symbol>
    <symbol id="document-copy" viewBox="0 0 24 24">
      <path fill="currentColor" d="M6 3.75A.75.75 0 0 1 6.75 3H19.5a.75.75 0 0 1 .75.75v15a.75.75 0 0 1-1.5 0V4.5h-12A.75.75 0 0 1 6 3.75Z"/>
      <path fill="currentColor" d="M7.5 9.75a.75.75 0 0 0 0 1.5h6a.75.75 0 0 0 0-1.5h-6Zm-.75 3.75a.75.75 0 0 1 .75-.75h6a.75.75 0 0 1 0 1.5h-6a.75.75 0 0 1-.75-.75Zm.75 2.25a.75.75 0 0 0 0 1.5h3a.75.75 0 0 0 0-1.5h-3Z"/>
      <path fill="currentColor" fill-rule="evenodd" d="M3.75 6.75A.75.75 0 0 1 4.5 6h12a.75.75 0 0 1 .75.75v13.5a.75.75 0 0 1-.75.75h-12a.75.75 0 0 1-.75-.75V6.75Zm1.5.75v12h10.5v-12H5.25Z"/>
    </symbol>
    <symbol id="file" viewBox="0 0 24 24">
      <path fill="currentColor" fill-rule="evenodd" d="M5.25 3a.75.75 0 0 0-.75.75v16.5c0 .414.336.75.75.75h13.5a.75.75 0 0 0 .75-.75v-12a.75.75 0 0 0-.22-.53l-4.5-4.5a.75.75 0 0 0-.53-.22h-9ZM6 19.5v-15h7.5v3.75c0 .414.336.75.75.75H18v10.5H6Z"/>
    </symbol>
    <symbol id="file-article" viewBox="0 0 24 24">
      <path fill="currentColor" d="M14.25 6.75a.75.75 0 0 0 0 1.5h1.5a.75.75 0 0 0 0-1.5h-1.5Zm-.75 3.75a.75.75 0 0 1 .75-.75h1.5a.75.75 0 0 1 0 1.5h-1.5a.75.75 0 0 1-.75-.75Zm-5.25 2.25a.75.75 0 0 0 0 1.5h7.5a.75.75 0 0 0 0-1.5h-7.5ZM7.5 16.5a.75.75 0 0 1 .75-.75h7.5a.75.75 0 0 1 0 1.5h-7.5a.75.75 0 0 1-.75-.75Z"/>
      <path fill="currentColor" fill-rule="evenodd" d="M8.25 6.75a.75.75 0 0 0-.75.75v3c0 .414.336.75.75.75h3a.75.75 0 0 0 .75-.75v-3a.75.75 0 0 0-.75-.75h-3Zm.75 3v-1.5h1.5v1.5H9Z"/>
      <path fill="currentColor" fill-rule="evenodd" d="M5.25 3a.75.75 0 0 0-.75.75v16.5c0 .414.336.75.75.75h13.5a.75.75 0 0 0 .75-.75V3.75a.75.75 0 0 0-.75-.75H5.25ZM6 19.5v-15h12v15H6Z"/>
    </symbol>
    <symbol id="file-copies" viewBox="0 0 24 24">
      <path fill="currentColor" d="M10.5 3a.75.75 0 0 0 0 1.5h8.25v9.75a.75.75 0 0 0 1.5 0V3.75A.75.75 0 0 0 19.5 3h-9Z"/>
      <path fill="currentColor" d="M6.75 6.75A.75.75 0 0 1 7.5 6h9a.75.75 0 0 1 .75.75v10.5a.75.75 0 0 1-1.5 0V7.5H7.5a.75.75 0 0 1-.75-.75Z"/>
      <path fill="currentColor" fill-rule="evenodd" d="M3.75 9.75A.75.75 0 0 1 4.5 9h9a.75.75 0 0 1 .75.75v10.5a.75.75 0 0 1-.75.75h-9a.75.75 0 0 1-.75-.75V9.75Zm1.5.75v9h7.5v-9h-7.5Z"/>
    </symbol>
    <symbol id="file-export" viewBox="0 0 24 24">
      <path fill="currentColor" d="M11.25 10.06v5.69a.75.75 0 0 0 1.5 0v-5.69l1.72 1.72a.75.75 0 1 0 1.06-1.06l-3-3a.75.75 0 0 0-.818-.163m-.462 2.503-1.72 1.72a.75.75 0 0 1-1.06-1.06l3-3"/>
      <path fill="currentColor" fill-rule="evenodd" d="M4.5 3.75A.75.75 0 0 1 5.25 3h13.5a.75.75 0 0 1 .75.75v16.5a.75.75 0 0 1-.75.75H5.25a.75.75 0 0 1-.75-.75V3.75ZM6 4.5v15h12v-15H6Z"/>
    </symbol>
    <symbol id="file-import" viewBox="0 0 24 24">
      <path fill="currentColor" d="M12 7.5a.75.75 0 0 1 .75.75v5.69l1.72-1.72a.75.75 0 1 1 1.06 1.06l-3 3a.748.748 0 0 1-.523.22m-.757-2.56V8.25A.75.75 0 0 1 12 7.5m-.75 6.44-1.72-1.72a.75.75 0 0 0-1.06 1.06l3 3a.748.748 0 0 0 .523.22"/>
      <path fill="currentColor" fill-rule="evenodd" d="M4.5 3.75A.75.75 0 0 1 5.25 3h13.5a.75.75 0 0 1 .75.75v16.5a.75.75 0 0 1-.75.75H5.25a.75.75 0 0 1-.75-.75V3.75ZM6 4.5v15h12v-15H6Z"/>
    </symbol>
    <symbol id="file-new" viewBox="0 0 24 24">
      <path fill="currentColor" d="M12 9a.75.75 0 0 1 .75.75v1.5h1.5a.75.75 0 0 1 0 1.5h-1.5v1.5a.75.75 0 0 1-1.5 0v-1.5h-1.5a.75.75 0 0 1 0-1.5h1.5v-1.5A.75.75 0 0 1 12 9Z"/>
      <path fill="currentColor" fill-rule="evenodd" d="M4.5 3.75A.75.75 0 0 1 5.25 3h13.5a.75.75 0 0 1 .75.75v16.5a.75.75 0 0 1-.75.75H5.25a.75.75 0 0 1-.75-.75V3.75ZM6 4.5v15h12v-15H6Z"/>
    </symbol>
    <symbol id="file-remove" viewBox="0 0 24 24">
      <path fill="currentColor" d="M9.75 11.25a.75.75 0 0 0 0 1.5h4.5a.75.75 0 0 0 0-1.5h-4.5Z"/>
      <path fill="currentColor" fill-rule="evenodd" d="M5.25 3a.75.75 0 0 0-.75.75v16.5c0 .414.336.75.75.75h13.5a.75.75 0 0 0 .75-.75V3.75a.75.75 0 0 0-.75-.75H5.25ZM6 19.5v-15h12v15H6Z"/>
    </symbol>
    <symbol id="file-replace" viewBox="0 0 24 24">
      <path fill="currentColor" d="M3.75 3a.75.75 0 0 0-.75.75v9c0 .414.336.75.75.75h4.5a.75.75 0 0 0 0-1.5H4.5V4.5H12v3.75a.75.75 0 0 0 1.5 0v-4.5a.75.75 0 0 0-.75-.75h-9Z"/>
      <path fill="currentColor" fill-rule="evenodd" d="M11.25 10.5a.75.75 0 0 0-.75.75v9c0 .414.336.75.75.75h9a.75.75 0 0 0 .75-.75v-9a.75.75 0 0 0-.75-.75h-9Zm.75 9V12h7.5v7.5H12Z"/>
      <path fill="currentColor" d="M15 4.5a.75.75 0 0 1 .75-.75 4.5 4.5 0 0 1 4.5 4.5.75.75 0 0 1-1.5 0 3 3 0 0 0-3-3A.75.75 0 0 1 15 4.5ZM5.25 15.75a.75.75 0 0 0-1.5 0 4.5 4.5 0 0 0 4.5 4.5.75.75 0 0 0 0-1.5 3 3 0 0 1-3-3Z"/>
    </symbol>
    <symbol id="file-text" viewBox="0 0 24 24">
      <path fill="currentColor" d="M8.25 7.5a.75.75 0 0 0 0 1.5h3a.75.75 0 0 0 0-1.5h-3ZM7.5 12a.75.75 0 0 1 .75-.75h7.5a.75.75 0 0 1 0 1.5h-7.5A.75.75 0 0 1 7.5 12Zm.75 3a.75.75 0 0 0 0 1.5h7.5a.75.75 0 0 0 0-1.5h-7.5Z"/>
      <path fill="currentColor" fill-rule="evenodd" d="M4.5 3.75A.75.75 0 0 1 5.25 3h9a.75.75 0 0 1 .53.22l4.5 4.5c.141.14.22.331.22.53v12a.75.75 0 0 1-.75.75H5.25a.75.75 0 0 1-.75-.75V3.75ZM6 4.5v15h12V9h-3.75a.75.75 0 0 1-.75-.75V4.5H6Z"/>
    </symbol>
    <symbol id="folder" viewBox="0 0 24 24">
      <path fill="currentColor" fill-rule="evenodd" d="M3 4.5a.75.75 0 0 1 .75-.75h6a.75.75 0 0 1 .6.3l2.025 2.7h7.875a.75.75 0 0 1 .75.75V18a2.25 2.25 0 0 1-2.25 2.25H5.25A2.25 2.25 0 0 1 3 18V4.5Zm1.5.75V18a.75.75 0 0 0 .75.75h13.5a.75.75 0 0 0 .75-.75V8.25H12a.75.75 0 0 1-.6-.3l-2.025-2.7H4.5Z"/>
    </symbol>
    <symbol id="folder-add" viewBox="0 0 24 24">
      <path fill="currentColor" d="M12 10.5a.75.75 0 0 1 .75.75v1.5h1.5a.75.75 0 0 1 0 1.5h-1.5v1.5a.75.75 0 0 1-1.5 0v-1.5h-1.5a.75.75 0 0 1 0-1.5h1.5v-1.5a.75.75 0 0 1 .75-.75Z"/>
      <path fill="currentColor" fill-rule="evenodd" d="M3.75 3.75A.75.75 0 0 0 3 4.5V18a2.25 2.25 0 0 0 2.25 2.25h13.5A2.25 2.25 0 0 0 21 18V7.5a.75.75 0 0 0-.75-.75h-7.875l-2.025-2.7a.75.75 0 0 0-.6-.3h-6ZM4.5 18V5.25h4.875l2.025 2.7a.75.75 0 0 0 .6.3h7.5V18a.75.75 0 0 1-.75.75H5.25A.75.75 0 0 1 4.5 18Z"/>
    </symbol>
    <symbol id="folder-remove" viewBox="0 0 24 24">
      <path fill="currentColor" d="M9.75 12.75a.75.75 0 0 0 0 1.5h4.5a.75.75 0 0 0 0-1.5h-4.5Z"/>
      <path fill="currentColor" fill-rule="evenodd" d="M3.75 3.75A.75.75 0 0 0 3 4.5V18a2.25 2.25 0 0 0 2.25 2.25h13.5A2.25 2.25 0 0 0 21 18V7.5a.75.75 0 0 0-.75-.75h-7.875l-2.025-2.7a.75.75 0 0 0-.6-.3h-6ZM4.5 18V5.25h4.875l2.025 2.7a.75.75 0 0 0 .6.3h7.5V18a.75.75 0 0 1-.75.75H5.25A.75.75 0 0 1 4.5 18Z"/>
    </symbol>
    <symbol id="folder-replace" viewBox="0 0 24 24">
      <path fill="currentColor" d="M3.75 3a.75.75 0 0 0-.75.75v9c0 .414.336.75.75.75h4.5a.75.75 0 0 0 0-1.5H4.5V4.5h1.94l1.28 1.28c.14.141.331.22.53.22H12v2.25a.75.75 0 0 0 1.5 0v-3a.75.75 0 0 0-.75-.75H8.56L7.28 3.22A.75.75 0 0 0 6.75 3h-3Z"/>
      <path fill="currentColor" fill-rule="evenodd" d="M11.25 10.5a.75.75 0 0 0-.75.75v9c0 .414.336.75.75.75h9a.75.75 0 0 0 .75-.75v-7.5a.75.75 0 0 0-.75-.75h-4.19l-1.28-1.28a.75.75 0 0 0-.53-.22h-3Zm8.25 3v6H12V12h1.94l1.28 1.28c.14.141.331.22.53.22h3.75Z"/>
      <path fill="currentColor" d="M15 4.5a.75.75 0 0 1 .75-.75 4.5 4.5 0 0 1 4.5 4.5.75.75 0 0 1-1.5 0 3 3 0 0 0-3-3A.75.75 0 0 1 15 4.5ZM5.25 15.75a.75.75 0 0 0-1.5 0 4.5 4.5 0 0 0 4.5 4.5.75.75 0 0 0 0-1.5 3 3 0 0 1-3-3Z"/>
    </symbol>
    <symbol id="layers" viewBox="0 0 24 24">
      <path fill="currentColor" fill-rule="evenodd" d="M7.5 3.75a.75.75 0 0 0-1.5 0v13.5c0 .414.336.75.75.75H12v2.25c0 .414.336.75.75.75h4.5a.75.75 0 0 0 .75-.75v-4.5a.75.75 0 0 0-.22-.53l-1.5-1.5a.75.75 0 0 0-.53-.22h-3a.75.75 0 0 0-.75.75v2.25H7.5V9H12v2.25c0 .414.336.75.75.75h4.5a.75.75 0 0 0 .75-.75v-4.5a.75.75 0 0 0-.22-.53l-1.5-1.5a.75.75 0 0 0-.53-.22h-3a.75.75 0 0 0-.75.75V7.5H7.5V3.75Zm6 15.75h3v-3.44L15.44 15H13.5v4.5Zm0-9V6h1.94l1.06 1.06v3.44h-3Z"/>
    </symbol>
    <symbol id="note" viewBox="0 0 24 24">
      <path fill="currentColor" d="M7.5 8.25a.75.75 0 0 0 0 1.5h9a.75.75 0 0 0 0-1.5h-9ZM6.75 12a.75.75 0 0 1 .75-.75h9a.75.75 0 0 1 0 1.5h-9a.75.75 0 0 1-.75-.75Zm.75 2.25a.75.75 0 0 0 0 1.5h3.75a.75.75 0 0 0 0-1.5H7.5Z"/>
      <path fill="currentColor" fill-rule="evenodd" d="M3.75 4.5a.75.75 0 0 0-.75.75v13.5c0 .414.336.75.75.75h16.5a.75.75 0 0 0 .75-.75V5.25a.75.75 0 0 0-.75-.75H3.75ZM4.5 18V6h15v12h-15Z"/>
    </symbol>
    <symbol id="read" viewBox="0 0 24 24">
      <path fill="currentColor" fill-rule="evenodd" d="M3.947 3.776A.75.75 0 0 0 3 4.5v12.75a.75.75 0 0 0 .553.724l8.233 2.245a.75.75 0 0 0 .428 0l8.233-2.245A.75.75 0 0 0 21 17.25V4.5a.75.75 0 0 0-.947-.724L12 5.973 3.947 3.776Zm8.803 14.742 6.75-1.84V5.481l-6.75 1.84v11.196Zm-1.5-11.195L4.5 5.482v11.195l6.75 1.841V7.323Z"/>
    </symbol>
    <symbol id="research" viewBox="0 0 24 24">
      <path fill="currentColor" d="M4.5 3a.75.75 0 0 0-.75.75v16.5c0 .414.336.75.75.75H12a.75.75 0 0 0 0-1.5H5.25v-15h7.5v3.75c0 .414.336.75.75.75h3.75v1.5a.75.75 0 0 0 1.5 0V8.25A.75.75 0 0 0 18 7.5h-.75l-3-3v-.75A.748.748 0 0 0 13.5 3"/>
      <path fill="currentColor" d="M7.5 7.5a.75.75 0 0 0 0 1.5h3a.75.75 0 0 0 0-1.5h-3ZM6.75 12a.75.75 0 0 1 .75-.75h3.75a.75.75 0 0 1 0 1.5H7.5a.75.75 0 0 1-.75-.75Zm.75 3a.75.75 0 0 0 0 1.5h3a.75.75 0 0 0 0-1.5h-3Z"/>
      <path fill="currentColor" fill-rule="evenodd" d="M18.335 17.274a3 3 0 1 0-1.06 1.06l1.695 1.696a.75.75 0 1 0 1.06-1.06l-1.695-1.696Zm-1.511-.477-.014.013-.012.014a1.5 1.5 0 1 1 .026-.026Z"/>
    </symbol>
  </defs>
</svg>
