<svg xmlns="http://www.w3.org/2000/svg">
  <defs>
    <symbol id="bedroom" viewBox="0 0 24 24">
      <path fill="currentColor" fill-rule="evenodd" d="M3.75 5.25A.75.75 0 0 1 4.5 6v6.75h15.75a.75.75 0 0 1 .75.75v5.25a.75.75 0 0 1-1.5 0v-1.5h-15v1.5a.75.75 0 0 1-1.5 0V6a.75.75 0 0 1 .75-.75Zm.75 9v1.5h15v-1.5h-15Z"/>
      <path fill="currentColor" fill-rule="evenodd" d="M5.25 9.75a2.25 2.25 0 1 1 4.5 0 2.25 2.25 0 0 1-4.5 0ZM7.5 9a.75.75 0 1 0 0 1.5.75.75 0 0 0 0-1.5Zm3.75-1.5a.75.75 0 0 0-.75.75v3c0 .414.336.75.75.75h9a.75.75 0 0 0 .75-.75v-1.5a2.25 2.25 0 0 0-2.25-2.25h-7.5Zm8.25 3H12V9h6.75a.75.75 0 0 1 .75.75v.75Z"/>
    </symbol>
    <symbol id="books" viewBox="0 0 24 24">
      <path fill="currentColor" fill-rule="evenodd" d="M13.5 12.347v6.403a.75.75 0 0 1-.75.75h-9a.75.75 0 0 1-.75-.75V5.25a.75.75 0 0 1 .75-.75h9c.195 0 .372.074.505.196l3.72-.835a.75.75 0 0 1 .897.567l1.96 8.736a.716.716 0 0 1 .02.09l.976 4.346a.75.75 0 0 1-.567.896l-4.391.986a.75.75 0 0 1-.896-.568L13.5 12.347Zm4.715.46-1.643-7.319-2.927.657 1.643 7.319 2.927-.658Zm-2.599 2.12 2.927-.657.657 2.927-2.927.657-.657-2.927ZM7.5 18v-3h-3v3h3Zm0-4.5V6h-3v7.5h3ZM9 18h3v-3H9v3Zm0-4.5h3V6H9v7.5Z"/>
    </symbol>
    <symbol id="cabinet" viewBox="0 0 24 24">
      <path fill="currentColor" d="M10.5 14.25a.75.75 0 0 0 0 1.5h3a.75.75 0 0 0 0-1.5h-3ZM9.75 7.5a.75.75 0 0 1 .75-.75h3a.75.75 0 0 1 0 1.5h-3a.75.75 0 0 1-.75-.75Z"/>
      <path fill="currentColor" fill-rule="evenodd" d="M3.75 3.75A.75.75 0 0 1 4.5 3h15a.75.75 0 0 1 .75.75v15a.75.75 0 0 1-.75.75h-.75v.75a.75.75 0 0 1-1.5 0v-.75H6.75v.75a.75.75 0 0 1-1.5 0v-.75H4.5a.75.75 0 0 1-.75-.75v-15ZM5.25 12v6h13.5v-6H5.25Zm13.5-1.5H5.25v-6h13.5v6Z"/>
    </symbol>
    <symbol id="door" viewBox="0 0 24 24">
      <path fill="currentColor" d="M12 12.75a.75.75 0 0 0-1.5 0v1.5a.75.75 0 0 0 1.5 0v-1.5Z"/>
      <path fill="currentColor" fill-rule="evenodd" d="M5.25 3a.75.75 0 0 0-.75.75v13.5c0 .323.207.61.513.712l9 3A.75.75 0 0 0 15 20.25V6.75a.75.75 0 0 0-.513-.712L9.872 4.5H18v12h-1.5a.75.75 0 0 0 0 1.5h2.25a.75.75 0 0 0 .75-.75V3.75a.75.75 0 0 0-.75-.75H5.25ZM6 16.71V4.79l7.5 2.5v11.92L6 16.71Z"/>
    </symbol>
    <symbol id="photo-frame" viewBox="0 0 24 24">
      <path fill="currentColor" fill-rule="evenodd" d="M8.25 9.75a2.25 2.25 0 1 0 0 4.5 2.25 2.25 0 0 0 0-4.5ZM7.5 12A.75.75 0 1 1 9 12a.75.75 0 0 1-1.5 0Z"/>
      <path fill="currentColor" fill-rule="evenodd" d="M11.47 3.97a.75.75 0 0 1 1.06 0l2.78 2.78h3.44A2.25 2.25 0 0 1 21 9v9a2.25 2.25 0 0 1-2.25 2.25H5.25A2.25 2.25 0 0 1 3 18V9a2.25 2.25 0 0 1 2.25-2.25h3.44l2.78-2.78Zm-.66 2.78h2.38L12 5.56l-1.19 1.19Zm-1.5 12h9.44a.75.75 0 0 0 .75-.75v-1.156l-4.46-3.823-5.73 5.729Zm10.19-3.881-4.012-3.438a.75.75 0 0 0-1.018.039l-7.28 7.28H5.25A.75.75 0 0 1 4.5 18V9a.75.75 0 0 1 .75-.75h13.5a.75.75 0 0 1 .75.75v5.869Z"/>
    </symbol>
    <symbol id="single-bed" viewBox="0 0 24 24">
      <path fill="currentColor" d="M6 4.5a.75.75 0 0 0-.75.75v4.5a.75.75 0 0 0 1.5 0V6h10.5v3.75a.75.75 0 0 0 1.5 0v-4.5A.75.75 0 0 0 18 4.5H6Z"/>
      <path fill="currentColor" d="M9.75 7.5a.75.75 0 0 0-.75.75v1.5a.75.75 0 0 0 1.5 0V9h3v.75a.75.75 0 0 0 1.5 0v-1.5a.75.75 0 0 0-.75-.75h-4.5Z"/>
      <path fill="currentColor" fill-rule="evenodd" d="M4.409 11.909A2.25 2.25 0 0 1 6 11.25h12a2.25 2.25 0 0 1 2.25 2.25v5.25a.75.75 0 0 1-1.5 0v-1.5H5.25v1.5a.75.75 0 0 1-1.5 0V13.5c0-.597.237-1.169.659-1.591Zm.841 3.841h13.5V13.5a.75.75 0 0 0-.75-.75H6a.75.75 0 0 0-.75.75v2.25Z"/>
    </symbol>
    <symbol id="time-alarm" viewBox="0 0 24 24">
      <path fill="currentColor" d="M8.03 4.28a.75.75 0 0 0-1.06-1.06L3.22 6.97a.75.75 0 0 0 1.06 1.06l3.75-3.75Zm4.72 3.97a.75.75 0 0 0-1.5 0V12c0 .414.336.75.75.75h3.75a.75.75 0 0 0 0-1.5h-3v-3Z"/>
      <path fill="currentColor" fill-rule="evenodd" d="M12 19.5c1.58 0 3.047-.49 4.257-1.324L18.15 20.7a.75.75 0 1 0 1.2-.9l-1.948-2.597a7.5 7.5 0 1 0-10.804 0L4.65 19.8a.75.75 0 1 0 1.2.9l1.893-2.524A7.465 7.465 0 0 0 12 19.5ZM12 6a6 6 0 1 0 3.902 10.558l.011-.01.008-.006A6 6 0 0 0 12 6Z"/>
      <path fill="currentColor" d="M17.03 3.22a.75.75 0 1 0-1.06 1.06l3.75 3.75a.75.75 0 1 0 1.06-1.06l-3.75-3.75Z"/>
    </symbol>
  </defs>
</svg>
