<svg xmlns="http://www.w3.org/2000/svg">
  <defs>
    <symbol id="antenna" viewBox="0 0 24 24">
      <path fill="currentColor" d="m6.166 15.584.53.53 1.061-1.06-.53-.531a6.75 6.75 0 0 1 0-9.546l.53-.53-1.06-1.06-.53.53a8.25 8.25 0 0 0 0 11.667Zm11.668 0-.53.53-1.061-1.06.53-.531a6.75 6.75 0 0 0 0-9.546l-.53-.53 1.06-1.06.53.53a8.25 8.25 0 0 1 0 11.667Z"/>
      <path fill="currentColor" d="m15.181 13.992-1.06-1.061.531-.53a3.75 3.75 0 0 0 0-5.302l-.53-.53 1.06-1.061.53.53a5.252 5.252 0 0 1 0 7.425l-.53.529Zm-6.363 0-.53-.53a5.25 5.25 0 0 1 0-7.425l.53-.53 1.06 1.062-.53.53a3.75 3.75 0 0 0 0 5.302l.53.53-1.06 1.061Z"/>
      <path fill="currentColor" d="M12.75 11.467V19.5h3V21h-7.5v-1.5h3v-8.033a1.875 1.875 0 1 1 1.5 0Z"/>
    </symbol>
    <symbol id="auto-focus" viewBox="0 0 24 24">
      <path fill="currentColor" d="M3.75 9.75V4.5a.75.75 0 0 1 .75-.75h5.25v1.5h-4.5v4.5h-1.5Zm15 0v-4.5h-4.5v-1.5h5.25a.75.75 0 0 1 .75.75v5.25h-1.5Zm-4.5 10.5h5.25a.75.75 0 0 0 .75-.75v-5.25h-1.5v4.5h-4.5v1.5Zm-4.5 0H4.5a.75.75 0 0 1-.75-.75v-5.25h1.5v4.5h4.5v1.5Zm.583-5.756a3 3 0 1 0 3.333-4.987 3 3 0 0 0-3.333 4.987Z"/>
    </symbol>
    <symbol id="button-pause" viewBox="0 0 24 24">
      <path fill="currentColor" d="M4.5 3.75h3.75A.75.75 0 0 1 9 4.5v15a.75.75 0 0 1-.75.75H4.5a.75.75 0 0 1-.75-.75v-15a.75.75 0 0 1 .75-.75Zm11.25 0h3.75a.75.75 0 0 1 .75.75v15a.75.75 0 0 1-.75.75h-3.75a.75.75 0 0 1-.75-.75v-15a.75.75 0 0 1 .75-.75Z"/>
    </symbol>
    <symbol id="button-play" viewBox="0 0 24 24">
      <path fill="currentColor" d="m18.416 11.376-11.25-7.5A.75.75 0 0 0 6 4.5v15a.75.75 0 0 0 1.166.624l11.25-7.5a.75.75 0 0 0 0-1.248Z"/>
    </symbol>
    <symbol id="button-record" viewBox="0 0 24 24">
      <path fill="currentColor" d="M12 3a9 9 0 1 0 9 9 9.011 9.011 0 0 0-9-9Z"/>
    </symbol>
    <symbol id="button-stop" viewBox="0 0 24 24">
      <path fill="currentColor" d="M19.5 3.75h-15a.75.75 0 0 0-.75.75v15c0 .415.335.75.75.75h15a.75.75 0 0 0 .75-.75v-15a.75.75 0 0 0-.75-.75Z"/>
    </symbol>
    <symbol id="camera" viewBox="0 0 24 24">
      <path fill="currentColor" d="M18.75 6h-3l-1.5-2.25h-4.5L8.25 6h-3A2.25 2.25 0 0 0 3 8.25v9a2.25 2.25 0 0 0 2.25 2.25h13.5A2.25 2.25 0 0 0 21 17.25v-9A2.25 2.25 0 0 0 18.75 6ZM12 16.5A3.75 3.75 0 1 1 12 9a3.75 3.75 0 0 1 0 7.5Z"/>
    </symbol>
    <symbol id="clapperboard" viewBox="0 0 24 24">
      <path fill="currentColor" d="m3.015 6.225 15.947-3.253.3 1.47L3.315 7.695l-.3-1.47ZM4.5 9h15a.75.75 0 0 1 .75.75v10.5a.75.75 0 0 1-.75.75h-15a.75.75 0 0 1-.75-.75V9.75A.75.75 0 0 1 4.5 9ZM15 15l-5.25-3v6L15 15Z"/>
    </symbol>
    <symbol id="event-ticket" viewBox="0 0 24 24">
      <path fill="currentColor" d="M20.25 10.5a.75.75 0 0 0 .75-.75V6a.75.75 0 0 0-.75-.75H3.75A.75.75 0 0 0 3 6v3.75c0 .415.335.75.75.75.827 0 1.5.673 1.5 1.5s-.673 1.5-1.5 1.5a.75.75 0 0 0-.75.75V18c0 .415.335.75.75.75h16.5A.75.75 0 0 0 21 18v-3.75a.75.75 0 0 0-.75-.75c-.827 0-1.5-.673-1.5-1.5s.673-1.5 1.5-1.5Zm-4.5 3.75h-7.5v-1.5h7.5v1.5Zm0-3h-7.5v-1.5h7.5v1.5Z"/>
    </symbol>
    <symbol id="headphones" viewBox="0 0 24 24">
      <path fill="currentColor" d="M12 3c-4.963 0-9 4.037-9 9v6.75C3 19.99 4.01 21 5.25 21h3a.75.75 0 0 0 .75-.75v-6a.75.75 0 0 0-.75-.75H4.5V12c0-4.136 3.364-7.5 7.5-7.5s7.5 3.364 7.5 7.5v1.5h-3.75a.75.75 0 0 0-.75.75v6c0 .414.335.75.75.75h3c1.24 0 2.25-1.01 2.25-2.25V12c0-4.963-4.037-9-9-9Z"/>
    </symbol>
    <symbol id="image" viewBox="0 0 24 24">
      <path fill="currentColor" d="M11.25 9a1.5 1.5 0 1 1-3 0 1.5 1.5 0 0 1 3 0Z"/>
      <path fill="currentColor" d="M3.75 4.5h16.5a.75.75 0 0 1 .75.75v13.5a.75.75 0 0 1-.75.75H3.75a.75.75 0 0 1-.75-.75V5.25a.75.75 0 0 1 .75-.75Zm15.75 9.225V6h-15v9.928l2.424-2.91a.75.75 0 0 1 1.106-.048l2.431 2.433 4.725-5.396a.66.66 0 0 1 .568-.257.75.75 0 0 1 .565.262l3.181 3.713Z"/>
    </symbol>
    <symbol id="lightning" viewBox="0 0 24 24">
      <path fill="currentColor" d="M19.423 10.168a.75.75 0 0 0-.673-.418h-5.912l.657-5.917a.75.75 0 0 0-1.34-.541l-7.5 9.75a.75.75 0 0 0 .595 1.208h5.912l-.657 5.918a.75.75 0 0 0 1.34.54l7.5-9.75a.752.752 0 0 0 .078-.79Z"/>
    </symbol>
    <symbol id="mic" viewBox="0 0 24 24">
      <path fill="currentColor" d="M19.462 4.537A5.215 5.215 0 0 0 15.75 3c-1.402 0-2.72.546-3.712 1.537A5.216 5.216 0 0 0 10.5 8.25c0 1.402.547 2.72 1.538 3.713A5.211 5.211 0 0 0 15.75 13.5c1.402 0 2.72-.546 3.712-1.537A5.217 5.217 0 0 0 21 8.25c0-1.403-.547-2.72-1.538-3.713Zm-8.484 8.486a6.717 6.717 0 0 1-1.682-2.788L5.08 15.748a.749.749 0 0 0 .065.986l2.121 2.122a.747.747 0 0 0 .986.065l5.515-4.218a6.707 6.707 0 0 1-2.788-1.681ZM4.19 17.69l-1.061 1.06 2.121 2.121 1.06-1.06-2.12-2.122Z"/>
    </symbol>
    <symbol id="offline" viewBox="0 0 24 24">
      <path fill="currentColor" d="M19.5 3.75a.75.75 0 0 1 .53 1.28l-15 15a.749.749 0 1 1-1.06-1.06l1.288-1.289A3.693 3.693 0 0 1 3 14.25a3.74 3.74 0 0 1 2.325-3.45 6.364 6.364 0 0 1 10.65-3.84l2.995-2.99a.75.75 0 0 1 .53-.22Zm-1.847 5.779c.12.34.21.69.272 1.046A3.743 3.743 0 0 1 17.25 18H9.181l8.472-8.471Z"/>
    </symbol>
    <symbol id="sound" viewBox="0 0 24 24">
      <path fill="currentColor" d="M13.835 3.829a.754.754 0 0 0-.785.071l-5.8 4.35h-3.5A.75.75 0 0 0 3 9v6c0 .415.335.75.75.75h3.5l5.8 4.35a.747.747 0 0 0 .785.071.75.75 0 0 0 .415-.671v-15a.75.75 0 0 0-.415-.671Zm2.847 4.99-.53-.53-1.06 1.06.53.53a3.002 3.002 0 0 1 0 4.242l-.53.53 1.06 1.06.53-.53a4.505 4.505 0 0 0 0-6.362Z"/>
      <path fill="currentColor" d="m17.212 7.227 1.061-1.06.53.529c2.924 2.925 2.924 7.683 0 10.607l-.53.53-1.06-1.06.53-.53a6.007 6.007 0 0 0 0-8.486l-.53-.53Z"/>
    </symbol>
    <symbol id="video" viewBox="0 0 24 24">
      <path fill="currentColor" d="M20.627 7.601a.748.748 0 0 0-.749-.002L16.5 9.529V7.5a2.25 2.25 0 0 0-2.25-2.25h-9A2.25 2.25 0 0 0 3 7.5v9a2.25 2.25 0 0 0 2.25 2.25h9a2.25 2.25 0 0 0 2.25-2.25v-2.03l3.378 1.931a.747.747 0 0 0 .748-.002.749.749 0 0 0 .374-.649v-7.5a.75.75 0 0 0-.373-.649Z"/>
    </symbol>
    <symbol id="video-playlist" viewBox="0 0 24 24">
      <path fill="currentColor" d="M5.25 5.25h13.5V4.5a.75.75 0 0 0-.75-.75H6a.75.75 0 0 0-.75.75v.75Zm-1.5 1.5h16.5a.75.75 0 0 1 .75.75v12a.75.75 0 0 1-.75.75H3.75A.75.75 0 0 1 3 19.5v-12a.75.75 0 0 1 .75-.75ZM15 13.5l-4.5-3v6l4.5-3Z"/>
    </symbol>
    <symbol id="volume" viewBox="0 0 24 24">
      <path fill="currentColor" d="M17.585 3.829a.75.75 0 0 0-.785.071L11 8.25H5.25A.75.75 0 0 0 4.5 9v6c0 .415.336.75.75.75H11l5.8 4.35a.748.748 0 0 0 .785.071A.75.75 0 0 0 18 19.5v-15a.75.75 0 0 0-.415-.671Z"/>
    </symbol>
    <symbol id="volume-mute" viewBox="0 0 24 24">
      <path fill="currentColor" d="M3.22 20.78a.748.748 0 0 0 1.06 0l16.5-16.5a.75.75 0 1 0-1.06-1.06l-2.47 2.47V4.5a.75.75 0 0 0-1.2-.6l-5.8 4.35H4.5a.75.75 0 0 0-.75.75v6c0 .415.335.75.75.75h2.69l-3.97 3.97a.75.75 0 0 0 0 1.06Zm7.705-4.524L16.05 20.1a.746.746 0 0 0 .785.071.75.75 0 0 0 .415-.671V9.93l-6.325 6.325Z"/>
    </symbol>
  </defs>
</svg>
