<svg xmlns="http://www.w3.org/2000/svg">
  <defs>
    <symbol id="apartment" viewBox="0 0 24 24">
      <path fill="currentColor" d="M9.75 9.75a.75.75 0 0 0-1.5 0v.75a.75.75 0 0 0 1.5 0v-.75ZM12 9a.75.75 0 0 1 .75.75v.75a.75.75 0 0 1-1.5 0v-.75A.75.75 0 0 1 12 9Zm3.75.75a.75.75 0 0 0-1.5 0v.75a.75.75 0 0 0 1.5 0v-.75Zm-6.75 3a.75.75 0 0 1 .75.75v.75a.75.75 0 0 1-1.5 0v-.75a.75.75 0 0 1 .75-.75Zm3.75.75a.75.75 0 0 0-1.5 0v.75a.75.75 0 0 0 1.5 0v-.75Zm2.25-.75a.75.75 0 0 1 .75.75v.75a.75.75 0 0 1-1.5 0v-.75a.75.75 0 0 1 .75-.75Z"/>
      <path fill="currentColor" fill-rule="evenodd" d="M12.263 3.798a.75.75 0 0 0-.526 0l-6 2.25a.75.75 0 0 0-.487.702v13.5c0 .414.336.75.75.75h12a.75.75 0 0 0 .75-.75V6.75a.75.75 0 0 0-.487-.702l-6-2.25ZM6.75 19.5V7.27L12 5.3l5.25 1.969V19.5H13.5v-3h-3v3H6.75Z"/>
    </symbol>
    <symbol id="business-agent" viewBox="0 0 24 24">
      <path fill="currentColor" fill-rule="evenodd" d="M6.75 8.25a5.337 5.337 0 0 1 .004-.206 5.25 5.25 0 0 1 10.496.206c0 2.093-.604 3.848-1.62 5.044l3.527 2.125.001.001a2.25 2.25 0 0 1 1.092 1.929v2.901a.75.75 0 0 1-.75.75h-15a.75.75 0 0 1-.75-.75v-2.901c0-.79.415-1.522 1.091-1.929l3.53-2.126C7.353 12.098 6.75 10.344 6.75 8.25ZM12 4.5a3.75 3.75 0 0 0-3.68 3.02c.223.038.445.06.669.06a4.484 4.484 0 0 0 3.214-1.355.75.75 0 0 1 1.072 0 4.508 4.508 0 0 0 2.4 1.28A3.75 3.75 0 0 0 12 4.5Zm-2.435 9.825-3.95 2.38a.753.753 0 0 0-.365.644V19.5h3.992l1.312-3.279a.75.75 0 0 1 .696-.471h1.5a.75.75 0 0 1 .696.471l1.312 3.279h3.992v-2.151a.75.75 0 0 0-.364-.643h-.001l-3.95-2.381A4.614 4.614 0 0 1 12 15c-.897 0-1.72-.238-2.435-.675Zm3.577 5.175-.9-2.25h-.484l-.9 2.25h2.284ZM8.99 9.08c-.242 0-.478-.018-.707-.048.252 2.987 1.95 4.468 3.718 4.468s3.467-1.482 3.718-4.471A6.003 6.003 0 0 1 12.74 7.76a5.97 5.97 0 0 1-3.75 1.32Z"/>
    </symbol>
    <symbol id="construction-sign" viewBox="0 0 24 24">
      <path fill="currentColor" fill-rule="evenodd" d="M7.5 4.5a.75.75 0 0 0-1.5 0v.75H3.75A.75.75 0 0 0 3 6v6.75c0 .414.336.75.75.75h16.5a.75.75 0 0 0 .75-.75V6a.75.75 0 0 0-.75-.75H18V4.5a.75.75 0 0 0-1.5 0v.75h-9V4.5ZM5.69 6.75H4.5v1.19L8.56 12h2.38L5.69 6.75ZM13.06 12 7.81 6.75h3.13L16.19 12h-3.13Zm5.25 0h1.19v-1.19l-4.06-4.06h-2.38L18.31 12Zm-.75-5.25 1.94 1.94V6.75h-1.94ZM6.44 12 4.5 10.06V12h1.94Z"/>
      <path fill="currentColor" d="M6.75 14.25a.75.75 0 0 1 .75.75v3.75H9a.75.75 0 0 1 0 1.5H4.5a.75.75 0 0 1 0-1.5H6V15a.75.75 0 0 1 .75-.75Zm10.5 0A.75.75 0 0 1 18 15v3.75h1.5a.75.75 0 0 1 0 1.5H15a.75.75 0 0 1 0-1.5h1.5V15a.75.75 0 0 1 .75-.75Z"/>
    </symbol>
    <symbol id="crane" viewBox="0 0 24 24">
      <path fill="currentColor" fill-rule="evenodd" d="M6.75 3a.75.75 0 0 0-.75.75v1.664l-2.432.608A.75.75 0 0 0 3 6.75V9c0 .414.336.75.75.75H6v9.75H4.5a.75.75 0 0 0 0 1.5H12a.75.75 0 0 0 0-1.5h-1.5V9.75h9.75A.75.75 0 0 0 21 9V6.75a.75.75 0 0 0-.697-.748l-9.803-.7V3.75A.75.75 0 0 0 9.75 3h-3ZM6 8.25H4.5v-.914L6 6.96v1.29Zm1.5-2.233V19.5H9v-15H7.5v1.517Zm12 2.233h-9V6.805l9 .643v.802Z"/>
      <path fill="currentColor" fill-rule="evenodd" d="M18 10.5a.75.75 0 0 1 .75.75v3h1.5A.75.75 0 0 1 21 15v3a.75.75 0 0 1-.75.75h-4.5A.75.75 0 0 1 15 18v-3a.75.75 0 0 1 .75-.75h1.5v-3a.75.75 0 0 1 .75-.75Zm-1.5 5.25v1.5h3v-1.5h-3Z"/>
    </symbol>
    <symbol id="delivery" viewBox="0 0 24 24">
      <path fill="currentColor" fill-rule="evenodd" d="M3.75 3.75A.75.75 0 0 0 3 4.5v12c0 .414.336.75.75.75h6a.75.75 0 0 0 .75-.75V8.25h5.414l.608 2.432a.75.75 0 0 0 .393.489l2.585 1.293v3.286h-2.651a2.999 2.999 0 0 0-5.599 1.5 3 3 0 1 0 6 0h3a.75.75 0 0 0 .75-.75V12a.75.75 0 0 0-.415-.67l-2.691-1.347-.666-2.665a.75.75 0 0 0-.728-.568h-6V4.5a.75.75 0 0 0-.75-.75h-6Zm10.5 12a1.5 1.5 0 1 1 0 3.001 1.5 1.5 0 0 1 0-3.001ZM9 5.25H4.5v10.5H9V5.25Z"/>
      <path fill="currentColor" d="M14.25 9.75a.75.75 0 0 0-1.5 0v1.5c0 .414.336.75.75.75H15a.75.75 0 0 0 0-1.5h-.75v-.75Z"/>
    </symbol>
    <symbol id="key" viewBox="0 0 24 24">
      <path fill="currentColor" fill-rule="evenodd" d="M9 12.75a2.25 2.25 0 1 0 0 4.5 2.25 2.25 0 0 0 0-4.5ZM8.25 15a.75.75 0 1 1 1.5 0 .75.75 0 0 1-1.5 0Z"/>
      <path fill="currentColor" fill-rule="evenodd" d="M16.5 3a.75.75 0 0 0-.53.22l-5.884 5.883A5.837 5.837 0 0 0 9 9a6 6 0 1 0 6 6c0-.59-.088-1.157-.247-1.693l1.527-1.527a.75.75 0 0 0 .22-.53v-1.5H18a.75.75 0 0 0 .53-.22l2.25-2.25a.75.75 0 0 0 .22-.53v-3a.75.75 0 0 0-.75-.75H16.5Zm-5.645 7.456L16.81 4.5h2.69v1.94l-1.81 1.81h-1.94A.75.75 0 0 0 15 9v1.94l-1.637 1.637a.75.75 0 0 0-.17.8c.197.508.307 1.053.307 1.623A4.5 4.5 0 1 1 9 10.5c.387 0 .766.055 1.134.151a.75.75 0 0 0 .72-.195Z"/>
    </symbol>
    <symbol id="mortgage" viewBox="0 0 24 24">
      <path fill="currentColor" fill-rule="evenodd" d="M14.614 3.857a.75.75 0 0 1 .772 0l3.75 2.25a.75.75 0 0 1 .364.643v4.5a.75.75 0 0 1-.75.75h-7.5a.75.75 0 0 1-.75-.75v-4.5a.75.75 0 0 1 .364-.643l3.75-2.25ZM15.75 10.5V9a.75.75 0 0 0-1.5 0v1.5H12V7.175l3-1.8 3 1.8V10.5h-2.25Z"/>
      <path fill="currentColor" d="M3 12a.75.75 0 0 1 .75-.75h.75a7.59 7.59 0 0 1 2.102.345c.673.21 1.447.563 2.002 1.155H10.5a3.75 3.75 0 0 1 3.75 3.75.75.75 0 0 1-.75.75H9a.75.75 0 0 1 0-1.5h3.621a2.25 2.25 0 0 0-2.121-1.5H8.25a.75.75 0 0 1-.614-.32c-.268-.382-.806-.692-1.482-.903A6.118 6.118 0 0 0 4.5 12.75v4.036l4.51 2.255a2.25 2.25 0 0 0 1.668.139l7.868-2.421a1.5 1.5 0 0 0-1.418-1.009H15.75a.75.75 0 0 1 0-1.5h1.378a3 3 0 0 1 2.846 2.051l.238.712a.75.75 0 0 1-.491.954l-8.601 2.647a3.75 3.75 0 0 1-2.78-.231l-4.925-2.462A.75.75 0 0 1 3 17.25V12Z"/>
    </symbol>
    <symbol id="new-construction" viewBox="0 0 24 24">
      <path fill="currentColor" d="M9 15a.75.75 0 0 1 .75-.75h1.5a.75.75 0 0 1 0 1.5h-1.5A.75.75 0 0 1 9 15Zm.75 1.5a.75.75 0 0 0 0 1.5h1.5a.75.75 0 0 0 0-1.5h-1.5ZM9 12.75a.75.75 0 0 1 .75-.75h1.5a.75.75 0 0 1 0 1.5h-1.5a.75.75 0 0 1-.75-.75Z"/>
      <path fill="currentColor" fill-rule="evenodd" d="M12.966 3.782A.75.75 0 0 0 12 4.5v3a.75.75 0 0 0 1.5 0V5.508l6 1.8V19.5H15V9.75a.75.75 0 0 0-.75-.75h-7.5a.75.75 0 0 0-.75.75V12H3.75a.75.75 0 0 0-.75.75v7.5c0 .414.336.75.75.75h16.5a.75.75 0 0 0 .75-.75V6.75a.75.75 0 0 0-.535-.718l-7.5-2.25ZM7.5 10.5h6v9h-6v-9Zm-1.5 3v6H4.5v-6H6Z"/>
      <path fill="currentColor" d="M18 9.75a.75.75 0 0 0-1.5 0v7.5a.75.75 0 0 0 1.5 0v-7.5Z"/>
    </symbol>
    <symbol id="park" viewBox="0 0 24 24">
      <path fill="currentColor" fill-rule="evenodd" d="M17.25 3c-.91 0-1.677.494-2.191 1.179-.513.684-.809 1.595-.809 2.57-.002.503.08 1.003.244 1.477a4.882 4.882 0 0 0-.994 3.03c.002 2.046 1.196 3.982 3 4.408v4.586a.75.75 0 0 0 1.5 0v-4.586c1.804-.426 2.997-2.362 3-4.408a4.882 4.882 0 0 0-.994-3.03 4.48 4.48 0 0 0 .244-1.478c0-.974-.296-1.885-.809-2.57C18.927 3.495 18.161 3 17.25 3ZM18 14.07c.815-.396 1.5-1.417 1.5-2.82v-.013a3.382 3.382 0 0 0-.907-2.363.75.75 0 0 1-.129-.832 2.99 2.99 0 0 0 .286-1.288V6.75c0-.682-.208-1.27-.509-1.671-.3-.401-.659-.579-.991-.579-.332 0-.69.178-.991.579-.3.4-.509.99-.509 1.671v.004c-.002.445.095.885.286 1.288a.75.75 0 0 1-.13.832A3.382 3.382 0 0 0 15 11.237v.013c0 1.403.685 2.424 1.5 2.82v-2.82a.75.75 0 0 1 1.5 0v2.82Z"/>
      <path fill="currentColor" d="M3.75 17.25a.75.75 0 0 0 0 1.5h.75v1.5a.75.75 0 0 0 1.5 0v-1.5h5.25v1.5a.75.75 0 0 0 1.5 0v-1.5h.75a.75.75 0 0 0 0-1.5H3.75Z"/>
      <path fill="currentColor" fill-rule="evenodd" d="M4.5 12a.75.75 0 0 1 .75-.75H12a.75.75 0 0 1 .75.75v3a.75.75 0 0 1-.75.75H5.25A.75.75 0 0 1 4.5 15v-3Zm1.5.75v1.5h5.25v-1.5H6Z"/>
    </symbol>
  </defs>
</svg>
