<svg xmlns="http://www.w3.org/2000/svg">
  <defs>
    <symbol id="hands-heart" viewBox="0 0 24 24">
      <path fill="currentColor" d="M15.78 3.73a2.432 2.432 0 0 0-3.78.386 2.43 2.43 0 0 0-3.78-.386 2.521 2.521 0 0 0 0 3.525L12 11.1l3.782-3.842a2.524 2.524 0 0 0-.001-3.528Zm-5.72 11.58L7.5 12.75a1.103 1.103 0 0 0-1.5 0 1.063 1.063 0 0 0 0 1.5l2.25 2.25a.376.376 0 1 1-.525.54l-2.259-2.26a1.813 1.813 0 0 1-.216-2.291V9.375a1.125 1.125 0 0 0-2.25 0v5.1c0 .34.116.671.329.937L6 18.75V21h4.5v-4.63a1.5 1.5 0 0 0-.44-1.06Zm6.44-2.56-2.56 2.56a1.5 1.5 0 0 0-.44 1.06V21H18v-2.25l2.672-3.338a1.5 1.5 0 0 0 .328-.937v-5.1a1.125 1.125 0 1 0-2.25 0v3.114a1.813 1.813 0 0 1-.216 2.291l-2.259 2.26a.376.376 0 1 1-.525-.54L18 14.25a1.063 1.063 0 0 0 0-1.5 1.103 1.103 0 0 0-1.5 0Z"/>
    </symbol>
  </defs>
</svg>
