<svg xmlns="http://www.w3.org/2000/svg">
  <defs>
    <symbol id="hands-heart" viewBox="0 0 24 24">
      <path fill="currentColor" fill-rule="evenodd" d="M9.332 3.172c.414-.163.844-.2 1.242-.16A2.778 2.778 0 0 1 12 3.576a2.814 2.814 0 0 1 1.425-.565 2.777 2.777 0 0 1 2.262.823 2.853 2.853 0 0 1-.002 3.988l-3.15 3.203a.75.75 0 0 1-1.07 0l-3.15-3.203A2.859 2.859 0 0 1 7.5 5.827c0-.742.294-1.462.813-1.993.3-.31.661-.52 1.02-.662Zm1.093 1.332a1.162 1.162 0 0 0-.542.064 1.379 1.379 0 0 0-.493.31l-.005.005c-.244.25-.385.593-.385.944 0 .352.14.695.385.945L12 9.43l2.614-2.658A1.36 1.36 0 0 0 15 5.827c0-.35-.14-.695-.386-.944l-.004-.005a1.276 1.276 0 0 0-1.035-.374c-.189.019-.375.08-.544.182a1.24 1.24 0 0 0-.401.394.75.75 0 0 1-1.26 0 1.24 1.24 0 0 0-.4-.394 1.278 1.278 0 0 0-.543-.182h-.002Z"/>
      <path fill="currentColor" d="M4.875 9.75a.374.374 0 0 0-.375.375v4.35c0 .17.06.336.166.469l2.67 3.338a.75.75 0 0 1 .164.468v1.5a.75.75 0 0 1-1.5 0v-1.237l-2.506-3.132A2.252 2.252 0 0 1 3 14.475v-4.35a1.874 1.874 0 0 1 3.75 0V11.7c.478 0 .933.18 1.28.527l2.555 2.554c.43.422.665.998.665 1.591v3.878a.75.75 0 0 1-1.5 0v-3.878c0-.2-.08-.387-.216-.52l-.007-.007-2.557-2.557a.293.293 0 0 0-.22-.088.323.323 0 0 0-.224.093.293.293 0 0 0-.083.215.32.32 0 0 0 .094.225l2.243 2.244a.75.75 0 1 1-1.06 1.06l-2.25-2.25-.01-.01a1.824 1.824 0 0 1-.208-2.286.762.762 0 0 1-.002-.048v-2.318a.374.374 0 0 0-.375-.375ZM17.8 8.8a1.874 1.874 0 0 1 3.2 1.325v4.35c0 .52-.18 1.014-.494 1.406L18 19.013v1.237a.75.75 0 0 1-1.5 0v-1.5a.75.75 0 0 1 .164-.468l2.67-3.338a.752.752 0 0 0 .166-.469v-4.35a.374.374 0 0 0-.75 0v2.318c0 .017 0 .035-.002.052a1.811 1.811 0 0 1-.208 2.283l-.01.01-2.25 2.25a.75.75 0 1 1-1.06-1.06l2.243-2.245a.323.323 0 0 0 .095-.226.322.322 0 0 0-.089-.219.322.322 0 0 0-.219-.088.294.294 0 0 0-.22.088l-2.564 2.564a.724.724 0 0 0-.216.52v3.878a.75.75 0 0 1-1.5 0v-3.878c0-.593.234-1.169.665-1.59l2.555-2.555a1.792 1.792 0 0 1 1.28-.527v-1.575c0-.501.2-.976.55-1.325Z"/>
    </symbol>
  </defs>
</svg>
