<svg xmlns="http://www.w3.org/2000/svg">
  <defs>
    <symbol id="certificate" viewBox="0 0 24 24">
      <path fill="currentColor" d="M18 7.5v.75h1.5v-1.5a.75.75 0 0 0-.75-.75h-2.051l-5.077-2.901a.748.748 0 0 0-.744 0L5.801 6H3.75a.75.75 0 0 0-.75.75v10.5c0 .415.336.75.75.75h9.75v-1.5h-9v-9H18Zm-6.75-2.887L13.676 6H8.824l2.426-1.387Z"/>
      <path fill="currentColor" d="M12.75 9.75H6v1.5h6.75v-1.5Zm-6.75 3h4.5v1.5H6v-1.5Zm9 4.736V21l2.25-1.5L19.5 21v-3.514a5.215 5.215 0 0 1-2.25.514 5.215 5.215 0 0 1-2.25-.514Zm6-4.736a3.75 3.75 0 1 1-7.5 0 3.75 3.75 0 0 1 7.5 0Z"/>
    </symbol>
    <symbol id="compass-drafting" viewBox="0 0 24 24">
      <path fill="currentColor" d="M15.337 15.75 16.5 18l3.75 2.25-2.35-4.5h2.35v-1.5h-3.134l-2.44-4.672c.201-.402.324-.849.324-1.328 0-1.394-.96-2.558-2.25-2.894V3.75h-1.5v1.606A2.997 2.997 0 0 0 9 8.25c0 .48.123.926.324 1.328l-2.44 4.672H3.75v1.5H6.1l-2.35 4.5L7.5 18l1.163-2.25h2.587v.75a.75.75 0 0 0 1.5 0v-.75h2.587Zm-5.9-1.5h1.813v-.75a.75.75 0 0 1 1.5 0v.75h1.812l-1.633-3.162c-.659.216-1.202.215-1.857 0L9.438 14.25ZM12 6.75c-.827 0-1.5.673-1.5 1.5s.673 1.5 1.5 1.5 1.5-.673 1.5-1.5-.673-1.5-1.5-1.5Z"/>
    </symbol>
    <symbol id="geometry" viewBox="0 0 24 24">
      <path fill="currentColor" d="M11.25 10.127a.375.375 0 0 1-.375.373h-6.75a.374.374 0 0 1-.33-.561l3.375-6a.39.39 0 0 1 .654 0l3.375 6c.033.057.05.122.05.188Zm5.625 3.373a4.125 4.125 0 1 0 0-8.25 4.125 4.125 0 0 0 0 8.25Zm-4.125 0H7.5a.75.75 0 0 0-.75.75v5.25c0 .414.336.75.75.75h5.25a.75.75 0 0 0 .75-.75v-5.25a.75.75 0 0 0-.75-.75Z"/>
    </symbol>
    <symbol id="mortarboard" viewBox="0 0 24 24">
      <path fill="currentColor" d="m12.31 4.568 8.25 3.75a.748.748 0 0 1 0 1.365l-8.25 3.75a.75.75 0 0 1-.62 0l-8.25-3.75a.749.749 0 0 1 0-1.365l8.25-3.75a.752.752 0 0 1 .62 0ZM21 11.25h-1.5v4.5H21v-4.5Z"/>
      <path fill="currentColor" d="M12.93 14.797A2.222 2.222 0 0 1 12 15c-.322 0-.635-.068-.93-.202L6 12.493V16.5c0 1.97 3.018 3 6 3s6-1.03 6-3v-4.006l-5.07 2.303Z"/>
    </symbol>
    <symbol id="pen" viewBox="0 0 24 24">
      <path fill="currentColor" d="M17.472 3.968a1.807 1.807 0 0 1 2.556 0c.727.726.695 1.87.005 2.56L18.75 7.811 16.19 5.25l1.282-1.282ZM4.56 15.38l9.69-9.69 5.953 5.952-5.561 5.56-1.061-1.06 4.5-4.5-.831-.832-8.63 8.63-5.076 1.016 1.015-5.076Z"/>
    </symbol>
    <symbol id="school" viewBox="0 0 24 24">
      <path fill="currentColor" d="M20.25 10.5h-4.237L12.75 7.89V6h3V3H12a.75.75 0 0 0-.75.75v4.14L7.987 10.5H3.75a.75.75 0 0 0-.75.75v9c0 .414.335.75.75.75h6.75v-4.5h3V21h6.75a.75.75 0 0 0 .75-.75v-9a.75.75 0 0 0-.75-.75Zm-12 5.25h-3v-1.5h3v1.5Zm5.25-2.25h-3V12h3v1.5Zm5.25 2.25h-3v-1.5h3v1.5Z"/>
    </symbol>
    <symbol id="translation" viewBox="0 0 24 24">
      <path fill="currentColor" d="M12 3H4.5A1.5 1.5 0 0 0 3 4.5v6.75a1.5 1.5 0 0 0 1.5 1.5V15l3-2.25h2.25V10.5a2.12 2.12 0 0 1 .03-.295 6.925 6.925 0 0 1-1.488-.808A7.7 7.7 0 0 1 5.906 10.5a3.474 3.474 0 0 0-.576-1.061 6.525 6.525 0 0 0 2.128-.786A5.308 5.308 0 0 1 6.271 6.53a9.35 9.35 0 0 0-.857.035V5.481c.288.031.578.045.869.042h1.326v-.36c0-.126-.012-.252-.036-.375h1.202c-.024.12-.036.243-.036.365v.366h1.425c.29.003.58-.01.87-.042v1.09a8.676 8.676 0 0 0-.852-.037 4.71 4.71 0 0 1-.403 1.157 4.443 4.443 0 0 1-.666.975 5.22 5.22 0 0 0 1.1.488A2.24 2.24 0 0 1 12 8.25h1.5V4.5A1.5 1.5 0 0 0 12 3Zm3.059 11.273c.38-1.232.611-2.005.691-2.318.021.088.054.209.098.36.044.15.246.804.605 1.958H15.06Z"/>
      <path fill="currentColor" d="M12 9h7.5a1.5 1.5 0 0 1 1.5 1.5v6.75a1.5 1.5 0 0 1-1.5 1.5V21l-3-2.25H12a1.5 1.5 0 0 1-1.5-1.5V10.5A1.5 1.5 0 0 1 12 9Zm4.725 6.225.39 1.275h1.223l-1.898-5.376h-1.388l-1.89 5.376h1.224l.389-1.275h1.95ZM9.012 6.53a3.383 3.383 0 0 1-.75 1.451 3.422 3.422 0 0 1-.837-1.45h1.587Z"/>
    </symbol>
  </defs>
</svg>
