<svg xmlns="http://www.w3.org/2000/svg">
  <defs>
    <symbol id="ampersand" viewBox="0 0 24 24">
      <path fill="currentColor" fill-rule="evenodd" d="M7.848 4.473a3.75 3.75 0 0 1 6.402 2.652c0 1.3-.605 2.26-1.413 3.006-.54.499-1.196.926-1.852 1.317.214.212.435.428.661.65.287.28.582.57.884.872l3.734 3.733c.26-.274.499-.559.718-.845a12.632 12.632 0 0 0 1.708-3.068 7.027 7.027 0 0 0 .091-.255l.004-.01v-.001a.75.75 0 0 1 1.43.452l-.715-.226.715.226-.001.003-.002.007-.006.02-.024.069a12.95 12.95 0 0 1-.453 1.105 14.134 14.134 0 0 1-1.555 2.587c-.254.334-.537.67-.85.997l1.206 1.206a.75.75 0 1 1-1.06 1.06l-1.257-1.256c-1.357 1.06-3.116 1.851-5.338 1.851-2.91 0-5.625-2.064-5.625-4.875 0-1.369.583-2.395 1.394-3.199.567-.562 1.26-1.03 1.95-1.446a14.01 14.01 0 0 1-.268-.318C7.444 9.71 6.75 8.51 6.75 7.125a3.75 3.75 0 0 1 1.098-2.652Zm2.067 5.863c.742-.431 1.396-.837 1.904-1.306.599-.555.931-1.142.931-1.905a2.25 2.25 0 0 0-4.5 0c0 .866.431 1.728 1.237 2.713.136.166.279.331.428.498Zm-.272 1.89c-.756.445-1.428.88-1.943 1.39-.595.591-.95 1.253-.95 2.134 0 1.746 1.785 3.375 4.125 3.375 1.74 0 3.146-.586 4.268-1.421L11.47 14.03c-.27-.27-.547-.54-.822-.81-.34-.332-.678-.663-1.005-.994Z"/>
    </symbol>
    <symbol id="at-sign" viewBox="0 0 24 24">
      <path fill="currentColor" fill-rule="evenodd" d="M9.68 5.663A6.75 6.75 0 0 1 18.75 12v.75a1.5 1.5 0 0 1-3 0V9a.75.75 0 0 0-1.5 0 3.75 3.75 0 1 0 .555 5.489 3.002 3.002 0 0 0 4.566.382 3 3 0 0 0 .879-2.121V12a8.25 8.25 0 1 0-4.95 7.563.75.75 0 0 0-.6-1.374A6.75 6.75 0 1 1 9.68 5.663ZM9.75 12a2.25 2.25 0 1 1 4.5 0 2.25 2.25 0 0 1-4.5 0Z"/>
    </symbol>
    <symbol id="copyright" viewBox="0 0 24 24">
      <path fill="currentColor" d="M14.58 7.254a4.96 4.96 0 0 0-2.265-.504c-1.813.002-3.07.682-3.844 1.759C7.727 9.544 7.5 10.849 7.5 12c0 1.151.227 2.456.971 3.491.774 1.077 2.031 1.757 3.844 1.759.784.014 1.56-.16 2.265-.504a.75.75 0 1 0-.66-1.347 3.459 3.459 0 0 1-1.584.351h-.014c-1.398 0-2.175-.498-2.633-1.134C9.202 13.937 9 12.992 9 12s.202-1.937.69-2.616c.457-.636 1.234-1.134 2.632-1.134h.014a3.46 3.46 0 0 1 1.584.351.75.75 0 1 0 .66-1.347Z"/>
      <path fill="currentColor" fill-rule="evenodd" d="M12 3a9 9 0 1 0 0 18 9 9 0 0 0 0-18Zm-7.5 9a7.5 7.5 0 1 1 15 0 7.5 7.5 0 0 1-15 0Z"/>
    </symbol>
    <symbol id="exclamation-mark" viewBox="0 0 24 24">
      <path fill="currentColor" d="M12.75 5.25a.75.75 0 0 0-1.5 0v9a.75.75 0 0 0 1.5 0v-9Zm.375 13.125a1.125 1.125 0 1 1-2.25 0 1.125 1.125 0 0 1 2.25 0Z"/>
    </symbol>
    <symbol id="percent-sign" viewBox="0 0 24 24">
      <path fill="currentColor" fill-rule="evenodd" d="M4.5 7.125a3.375 3.375 0 1 1 6.75 0 3.375 3.375 0 0 1-6.75 0ZM7.875 5.25a1.875 1.875 0 1 0 0 3.75 1.875 1.875 0 0 0 0-3.75Z"/>
      <path fill="currentColor" d="M16.916 4.626a.75.75 0 0 1 .208 1.04l-9 13.5a.75.75 0 1 1-1.248-.832l9-13.5a.75.75 0 0 1 1.04-.208Z"/>
      <path fill="currentColor" fill-rule="evenodd" d="M16.125 13.5a3.375 3.375 0 1 0 0 6.75 3.375 3.375 0 0 0 0-6.75Zm-1.875 3.375a1.875 1.875 0 1 1 3.75 0 1.875 1.875 0 0 1-3.75 0Z"/>
    </symbol>
    <symbol id="question-mark" viewBox="0 0 24 24">
      <path fill="currentColor" d="M12.986 6.021c-.92-.086-1.994.093-2.933.508a.75.75 0 1 1-.606-1.373c1.157-.51 2.487-.74 3.68-.628 1.173.11 2.36.572 2.997 1.603l.002.004c1.207 1.958.262 4.096-1.456 5.552l-.002.002c-1.61 1.364-1.918 1.889-1.918 2.561a.75.75 0 0 1-1.5 0c0-1.444.884-2.38 2.45-3.707l.002-.002c1.456-1.234 1.788-2.582 1.146-3.621l-.002-.002c-.29-.467-.923-.81-1.86-.897Zm.139 12.354a1.125 1.125 0 1 1-2.25 0 1.125 1.125 0 0 1 2.25 0Z"/>
    </symbol>
  </defs>
</svg>
