<svg xmlns="http://www.w3.org/2000/svg">
  <defs>
    <symbol id="ai" viewBox="0 0 24 24">
      <path fill="currentColor" d="M9 9h6v6H9V9Z"/>
      <path fill="currentColor" d="M18.75 8.25H21v1.5h-2.25v1.5H21v1.5h-2.25v1.5H21v1.5h-2.25v1.5a1.5 1.5 0 0 1-1.5 1.5h-1.5V21h-1.5v-2.25h-1.5V21h-1.5v-2.25h-1.5V21h-1.5v-2.25h-1.5a1.5 1.5 0 0 1-1.5-1.5v-1.5H3v-1.5h2.25v-1.5H3v-1.5h2.25v-1.5H3v-1.5h2.25v-1.5a1.5 1.5 0 0 1 1.5-1.5h1.5V3h1.5v2.25h1.5V3h1.5v2.25h1.5V3h1.5v2.25h1.5a1.5 1.5 0 0 1 1.5 1.5v1.5ZM7.5 16.5h9v-9h-9v9Z"/>
    </symbol>
    <symbol id="cpu" viewBox="0 0 24 24">
      <path fill="currentColor" d="M21 9.75v-1.5h-2.25v-1.5a1.5 1.5 0 0 0-1.5-1.5h-1.5V3h-1.5v2.25h-1.5V3h-1.5v2.25h-1.5V3h-1.5v2.25h-1.5a1.5 1.5 0 0 0-1.5 1.5v1.5H3v1.5h2.25v1.5H3v1.5h2.25v1.5H3v1.5h2.25v1.5a1.5 1.5 0 0 0 1.5 1.5h1.5V21h1.5v-2.25h1.5V21h1.5v-2.25h1.5V21h1.5v-2.25h1.5a1.5 1.5 0 0 0 1.5-1.5v-1.5H21v-1.5h-2.25v-1.5H21v-1.5h-2.25v-1.5H21Zm-6.375 6a1.125 1.125 0 1 1 0-2.25 1.125 1.125 0 0 1 0 2.25Z"/>
    </symbol>
    <symbol id="device-connection" viewBox="0 0 24 24">
      <path fill="currentColor" d="M4.5 4.5h15.75a.75.75 0 0 1 .75.75V16.5a.75.75 0 0 1-.75.75h-7.635c-.716-4.255-4.407-7.5-8.865-7.5v-4.5a.75.75 0 0 1 .75-.75Z"/>
      <path fill="currentColor" d="M9.75 19.5h1.5v-.75c0-4.136-3.364-7.5-7.5-7.5H3v1.5h.75c3.308 0 6 2.692 6 6v.75Z"/>
      <path fill="currentColor" d="M6.75 19.5h1.5v-.75c0-2.482-2.018-4.5-4.5-4.5H3v1.5h.75c1.654 0 3 1.346 3 3v.75Zm-3 0a.75.75 0 1 0 0-1.5.75.75 0 0 0 0 1.5Z"/>
    </symbol>
    <symbol id="electronic-circuit" viewBox="0 0 24 24">
      <path fill="currentColor" d="M9 7.362V8.69l2.03 2.03c.14.14.22.331.22.53v9a.75.75 0 1 1-1.5 0v-8.69L7.72 9.53A.75.75 0 0 1 7.5 9V7.362a2.25 2.25 0 1 1 1.5 0Z"/>
      <path fill="currentColor" d="M6 14.112v1.328l2.03 2.03c.14.14.22.331.22.53v2.25a.75.75 0 1 1-1.5 0v-1.94l-2.03-2.03a.75.75 0 0 1-.22-.53v-1.638a2.25 2.25 0 1 1 1.5 0ZM16.5 9V7.362a2.25 2.25 0 1 0-1.5 0V8.69l-2.03 2.03a.75.75 0 0 0-.22.53v9a.75.75 0 1 0 1.5 0v-8.69l2.03-2.03A.75.75 0 0 0 16.5 9Z"/>
      <path fill="currentColor" d="M20.677 10.828a2.25 2.25 0 0 1-1.177 3.284v1.638a.75.75 0 0 1-.22.53l-2.03 2.03v1.94a.75.75 0 1 1-1.5 0V18c0-.199.08-.39.22-.53L18 15.44v-1.328a2.249 2.249 0 1 1 2.677-3.284Z"/>
    </symbol>
    <symbol id="eye-recognition" viewBox="0 0 24 24">
      <path fill="currentColor" d="M3.75 8.25V4.5a.75.75 0 0 1 .75-.75h3.75v1.5h-3v3h-1.5Zm16.5-3.75v3.75h-1.5v-3h-3v-1.5h3.75a.75.75 0 0 1 .75.75ZM4.5 20.25h3.75v-1.5h-3v-3h-1.5v3.75a.75.75 0 0 0 .75.75Zm15 0h-3.75v-1.5h3v-3h1.5v3.75a.75.75 0 0 1-.75.75ZM12 6.75c4.846 0 7.993 4.637 8.124 4.834a.75.75 0 0 1 0 .832c-.131.197-3.278 4.834-8.124 4.834s-7.993-4.637-8.124-4.834a.75.75 0 0 1 0-.832C4.007 11.387 7.154 6.75 12 6.75Zm-1.458 7.433a2.625 2.625 0 1 0 2.917-4.366 2.625 2.625 0 0 0-2.917 4.366Z"/>
    </symbol>
    <symbol id="laptop" viewBox="0 0 24 24">
      <path fill="currentColor" d="M18 6.75H6v7.5H4.5V6a.75.75 0 0 1 .75-.75h13.5a.75.75 0 0 1 .75.75v8.25H18v-7.5ZM9.75 16.5h4.5v-.75H21v1.5a.75.75 0 0 1-.75.75H3.75a.75.75 0 0 1-.75-.75v-1.5h6.75v.75Z"/>
    </symbol>
    <symbol id="license-key" viewBox="0 0 24 24">
      <path fill="currentColor" d="M18.366 12.095a.75.75 0 0 1 .305.99l-.75 1.5a.75.75 0 0 1-.671.415h-1.5l-1.125.75L13.5 15h-1.916a3 3 0 1 1 0-3H18a.75.75 0 0 1 .366.095ZM7.833 14.124a.75.75 0 1 0 .834-1.248.75.75 0 0 0-.834 1.248Z"/>
      <path fill="currentColor" d="M3.75 3.75h16.5a.75.75 0 0 1 .75.75v15a.75.75 0 0 1-.75.75H3.75A.75.75 0 0 1 3 19.5v-15a.75.75 0 0 1 .75-.75Zm4.917 1.626a.75.75 0 1 0-.834 1.248.75.75 0 0 0 .834-1.248Zm-3 0a.75.75 0 1 0-.834 1.248.75.75 0 0 0 .834-1.248ZM4.5 18.75h15V8.25h-15v10.5Z"/>
    </symbol>
    <symbol id="logic" viewBox="0 0 24 24">
      <path fill="currentColor" d="M14.25 10.5a1.5 1.5 0 1 1-3 0 1.5 1.5 0 0 1 3 0Z"/>
      <path fill="currentColor" d="M7.225 5.522a7.677 7.677 0 0 1 5.012-2.505A7.493 7.493 0 0 1 18 15.845V21H9.75v-1.5H7.5a2.25 2.25 0 0 1-2.25-2.25v-1.787l-1.085-.538a.75.75 0 0 1-.336-1.01l1.421-2.842v-.308a7.677 7.677 0 0 1 1.975-5.243Zm8.419 5.728h.856a.75.75 0 1 0 0-1.5h-.857a2.933 2.933 0 0 0-.318-.764l.607-.607a.75.75 0 1 0-1.061-1.06l-.607.606a2.936 2.936 0 0 0-.764-.319V6.75a.75.75 0 1 0-1.5 0v.856c-.268.07-.526.177-.764.32l-.607-.608a.75.75 0 0 0-1.06 1.061l.606.607a2.93 2.93 0 0 0-.319.764H9a.75.75 0 1 0 0 1.5h.856c.07.268.177.526.32.764l-.608.607a.75.75 0 0 0 1.061 1.06l.607-.606c.238.142.495.249.764.319v.856a.75.75 0 1 0 1.5 0v-.857c.268-.07.526-.177.764-.318l.607.607a.752.752 0 0 0 1.07.009.75.75 0 0 0-.01-1.07l-.606-.607a2.93 2.93 0 0 0 .319-.764Z"/>
    </symbol>
    <symbol id="mobile-chat" viewBox="0 0 24 24">
      <path fill="currentColor" d="M10.72 13.28a.75.75 0 0 0 .98.07l2.8-2.1h5a1.5 1.5 0 0 0 1.5-1.5V4.5A1.5 1.5 0 0 0 19.5 3H12a1.5 1.5 0 0 0-1.5 1.5v8.25c0 .199.079.39.22.53Z"/>
      <path fill="currentColor" d="M15 18v-5.25h1.5v6A2.25 2.25 0 0 1 14.25 21h-7.5a2.25 2.25 0 0 1-2.25-2.25v-12A2.25 2.25 0 0 1 6.75 4.5H9v2.25H6.75A.75.75 0 0 0 6 7.5V18a.75.75 0 0 0 .75.75h7.5A.75.75 0 0 0 15 18Z"/>
    </symbol>
    <symbol id="pc-monitor" viewBox="0 0 24 24">
      <path fill="currentColor" d="M20.25 3.75H3.75A.75.75 0 0 0 3 4.5v12a.75.75 0 0 0 .75.75h6.75v1.5H6.75v1.5h10.5v-1.5H13.5v-1.5h6.75a.75.75 0 0 0 .75-.75v-12a.75.75 0 0 0-.75-.75Zm-.75 12h-15V5.25h15v10.5Z"/>
    </symbol>
    <symbol id="print" viewBox="0 0 24 24">
      <path fill="currentColor" d="M16.5 4.5V6H18V3.75a.75.75 0 0 0-.75-.75H6.75a.75.75 0 0 0-.75.75V6h1.5V4.5h9Zm-11.25 3h13.5A2.25 2.25 0 0 1 21 9.75v6.75a.75.75 0 0 1-.75.75H18v3a.75.75 0 0 1-.75.75H6.75a.75.75 0 0 1-.75-.75v-3H3.75A.75.75 0 0 1 3 16.5V9.75A2.25 2.25 0 0 1 5.25 7.5Zm2.25 12h9v-6.75h-9v6.75Z"/>
    </symbol>
    <symbol id="send-to-phone" viewBox="0 0 24 24">
      <path fill="currentColor" d="M7.5 3h9a2.25 2.25 0 0 1 2.25 2.25v13.5A2.25 2.25 0 0 1 16.5 21h-9a2.25 2.25 0 0 1-2.25-2.25v-4.5h1.5V18a.75.75 0 0 0 .75.75h9a.75.75 0 0 0 .75-.75V6a.75.75 0 0 0-.75-.75h-9a.75.75 0 0 0-.75.75v3.75h-1.5v-4.5A2.25 2.25 0 0 1 7.5 3Z"/>
      <path fill="currentColor" d="m9 9 3.75 3L9 15v-2.25H3v-1.5h6V9Z"/>
    </symbol>
    <symbol id="sensor" viewBox="0 0 24 24">
      <path fill="currentColor" d="M5.636 18.364A9 9 0 0 0 12 21a9.01 9.01 0 0 0 9-9h-1.5A7.5 7.5 0 1 1 12 4.5V3a9 9 0 0 0-6.364 15.364Z"/>
      <path fill="currentColor" d="M12 15.75v1.5A5.25 5.25 0 1 0 6.75 12h1.5A3.75 3.75 0 1 1 12 15.75Z"/>
      <path fill="currentColor" d="M12 13.5a1.5 1.5 0 1 0 0-3 1.5 1.5 0 0 0 0 3Zm5.303-6.803a7.526 7.526 0 0 1 1.685 2.575l1.398-.546a9.033 9.033 0 0 0-5.111-5.112l-.546 1.397a7.527 7.527 0 0 1 2.574 1.686Z"/>
    </symbol>
    <symbol id="smartphone" viewBox="0 0 24 24">
      <path fill="currentColor" d="M16.5 3h-9C6.26 3 5.25 4.01 5.25 5.25v13.5C5.25 19.99 6.26 21 7.5 21h9c1.24 0 2.25-1.01 2.25-2.25V5.25C18.75 4.01 17.74 3 16.5 3Zm.75 15a.75.75 0 0 1-.75.75h-9a.75.75 0 0 1-.75-.75V6a.75.75 0 0 1 .75-.75h9a.75.75 0 0 1 .75.75v12Z"/>
    </symbol>
    <symbol id="sparks" viewBox="0 0 24 24">
      <path fill="currentColor" d="M17.602 8.085a.562.562 0 0 0 .96-.398 1.125 1.125 0 0 1 1.125-1.125.562.562 0 1 0 0-1.125 1.125 1.125 0 0 1-1.125-1.125.563.563 0 0 0-1.125 0 1.125 1.125 0 0 1-1.125 1.125.562.562 0 1 0 0 1.125 1.125 1.125 0 0 1 1.125 1.125c0 .15.06.293.165.398Zm-12 12a.563.563 0 0 0 .96-.398 1.125 1.125 0 0 1 1.125-1.125.563.563 0 0 0 0-1.125 1.125 1.125 0 0 1-1.125-1.125.562.562 0 1 0-1.125 0 1.125 1.125 0 0 1-1.125 1.125.563.563 0 0 0 0 1.125 1.125 1.125 0 0 1 1.125 1.125c0 .15.06.293.165.398Zm10.148.165a.75.75 0 0 1-.75-.75 3 3 0 0 0-3-3 .75.75 0 1 1 0-1.5 3 3 0 0 0 3-3 .75.75 0 1 1 1.5 0 3 3 0 0 0 3 3 .75.75 0 1 1 0 1.5 3 3 0 0 0-3 3 .75.75 0 0 1-.75.75Zm-8.03-7.72A.75.75 0 0 0 9 12a3 3 0 0 1 3-3 .75.75 0 1 0 0-1.5 3 3 0 0 1-3-3 .75.75 0 0 0-1.5 0 3 3 0 0 1-3 3 .75.75 0 0 0 0 1.5 3 3 0 0 1 3 3c0 .199.079.39.22.53Z"/>
    </symbol>
    <symbol id="system-update" viewBox="0 0 24 24">
      <path fill="currentColor" d="M15.75 4.5h3A2.25 2.25 0 0 1 21 6.75v10.5a2.25 2.25 0 0 1-2.25 2.25H5.25A2.25 2.25 0 0 1 3 17.25V6.75A2.25 2.25 0 0 1 5.25 4.5h3a.75.75 0 0 1 0 1.5h-3a.75.75 0 0 0-.75.75v10.5a.75.75 0 0 0 .75.75h13.5a.75.75 0 0 0 .75-.75V6.75a.75.75 0 0 0-.75-.75h-3a.75.75 0 1 1 0-1.5Z"/>
      <path fill="currentColor" d="M7.847 9.867a.75.75 0 0 1 .403-.117h3v-4.5a.75.75 0 1 1 1.5 0v4.5h3a.75.75 0 0 1 .577 1.23l-3.75 4.5a.75.75 0 0 1-1.154 0l-3.75-4.5a.75.75 0 0 1 .174-1.113Z"/>
    </symbol>
    <symbol id="vpn" viewBox="0 0 24 24">
      <path fill="currentColor" d="M19.5 11.25H21v-.75C21 6.364 17.636 3 13.5 3h-.75v1.5h.75c3.308 0 6 2.692 6 6v.75Z"/>
      <path fill="currentColor" d="M18 11.25h-1.5v-.75c0-1.655-1.345-3-3-3h-.75V6h.75c2.482 0 4.5 2.018 4.5 4.5v.75Zm-5.25 1.5h-1.5V10.5c0-1.655-1.345-3-3-3-1.654 0-3 1.345-3 3v2.25h-1.5a.75.75 0 0 0-.75.75v6.75c0 .415.336.75.75.75h9a.75.75 0 0 0 .75-.75V13.5a.75.75 0 0 0-.75-.75Zm-4.5 4.5a.75.75 0 1 1 0-1.5.75.75 0 0 1 0 1.5Zm1.5-4.5h-3V10.5c0-.827.673-1.5 1.5-1.5s1.5.673 1.5 1.5v2.25Z"/>
    </symbol>
  </defs>
</svg>
