<svg xmlns="http://www.w3.org/2000/svg">
  <defs>
    <symbol id="attach" viewBox="0 0 24 24">
      <path fill="currentColor" d="M16.12 5.93c-1.057-1.057-2.683-1.057-3.74 0l-5.85 5.85c-1.582 1.582-1.582 4.258 0 5.84 1.582 1.582 4.258 1.582 5.84 0l6.6-6.6a.75.75 0 1 1 1.06 1.06l-6.6 6.6c-2.168 2.168-5.792 2.168-7.96 0s-2.168-5.792 0-7.96l5.85-5.85c1.643-1.643 4.217-1.643 5.86 0 1.643 1.643 1.643 4.217 0 5.86l-.003.004-5.397 5.321-.002.002c-1.022 1.02-2.708 1.066-3.697-.016-1.008-1.022-1.05-2.699.026-3.684l4.488-4.487a.75.75 0 1 1 1.06 1.06l-4.5 4.5a.75.75 0 0 1-.028.027c-.403.363-.445 1.064.028 1.538l.027.028c.363.403 1.064.445 1.538-.028l.003-.004 5.398-5.323c1.056-1.057 1.055-2.681-.001-3.738Z"/>
    </symbol>
    <symbol id="bold" viewBox="0 0 24 24">
      <path fill="currentColor" fill-rule="evenodd" d="M7.5 3A1.5 1.5 0 0 0 6 4.5v15A1.5 1.5 0 0 0 7.5 21h6a5.25 5.25 0 0 0 2.136-10.047A4.5 4.5 0 0 0 12.75 3H7.5Zm5.25 7.5a3 3 0 0 0 0-6H7.5v6h5.25ZM7.5 12v7.5h6a3.75 3.75 0 1 0 0-7.5h-6Z"/>
    </symbol>
    <symbol id="hash-mark" viewBox="0 0 24 24">
      <path fill="currentColor" fill-rule="evenodd" d="M11.242 4.611a.75.75 0 1 0-1.484-.222L9.18 8.25H6.75a.75.75 0 0 0 0 1.5h2.204l-.675 4.5H6a.75.75 0 0 0 0 1.5h2.054l-.546 3.639a.75.75 0 1 0 1.484.222l.579-3.861h3.733l-.546 3.639a.75.75 0 0 0 1.484.222l.579-3.861h2.429a.75.75 0 0 0 0-1.5h-2.204l.675-4.5H18a.75.75 0 0 0 0-1.5h-2.054l.546-3.639a.75.75 0 1 0-1.484-.222L14.43 8.25h-3.733l.546-3.639Zm2.287 9.639.675-4.5h-3.733l-.675 4.5h3.733Z"/>
    </symbol>
    <symbol id="heading-1" viewBox="0 0 24 24">
      <path fill="currentColor" d="M6 6.75a.75.75 0 0 0-1.5 0v10.5a.75.75 0 1 0 1.5 0v-4.5h5.25v4.5a.75.75 0 0 0 1.5 0v-5.226a.653.653 0 0 0 0-.048V6.75a.75.75 0 0 0-1.5 0v4.5H6v-4.5ZM18.55 6a.75.75 0 0 0-.419.128l-3.074 2.074a.75.75 0 1 0 .84 1.243L18 8.026v9.224a.75.75 0 0 0 1.5 0V6.75a.75.75 0 0 0-.75-.75h-.2Z"/>
    </symbol>
    <symbol id="heading-2" viewBox="0 0 24 24">
      <path fill="currentColor" fill-rule="evenodd" d="M14.543 9.31a2.353 2.353 0 0 1 2.426-1.805l.428 4.802c-.19.202-.397.418-.62.65l-.287.3c-.673.705-1.632 1.723-2.796 3.007a.75.75 0 0 0-.194.504v.481c0 .415.336.75.75.75h6a.75.75 0 0 0 0-1.5h-4.74c.839-.913 1.54-1.656 2.064-2.205l-.177-1.987.177 1.987.292-.305c.733-.764 1.38-1.438 1.846-2.08.546-.752.903-1.535.9-2.483a3.312 3.312 0 0 0-.378-1.562c-.643-1.204-1.95-1.773-3.163-1.856-1.856-.125-3.554 1.13-3.987 2.956a.75.75 0 1 0 1.46.346Zm2.854 2.997-.428-4.802c.881.06 1.618.46 1.941 1.065l.001.002c.053.099.199.395.2.859.002.525-.18 1-.613 1.596-.283.39-.647.798-1.101 1.28Z"/>
      <path fill="currentColor" d="M4.5 6.75a.75.75 0 0 0-1.5 0v10.5a.75.75 0 0 0 1.5 0v-4.5h5.25v4.5a.75.75 0 0 0 1.5 0V6.75a.75.75 0 0 0-1.5 0v4.5H4.5v-4.5Z"/>
    </symbol>
    <symbol id="heading-3" viewBox="0 0 24 24">
      <path fill="currentColor" d="M5.25 6.75a.75.75 0 0 0-1.5 0v10.5a.75.75 0 0 0 1.5 0v-4.5h5.25v4.5a.75.75 0 0 0 1.5 0V6.75a.75.75 0 0 0-1.5 0v4.5H5.25v-4.5ZM17.325 6c-1.494 0-2.887.71-3.602 2.13a.75.75 0 1 0 1.34.675c.424-.845 1.251-1.305 2.262-1.305 1.355 0 2.157.92 2.175 1.652.008.367-.234.877-.85 1.333-.598.443-1.471.765-2.495.765a.75.75 0 0 0 0 1.5c1.024 0 1.9.322 2.499.765.617.457.856.966.846 1.33v.002c-.018.732-.82 1.653-2.175 1.653-1.016 0-1.844-.457-2.26-1.3a.75.75 0 0 0-1.345.664C14.43 17.302 15.836 18 17.325 18c1.974 0 3.632-1.388 3.675-3.116.027-1.024-.604-1.946-1.454-2.575a4.915 4.915 0 0 0-.475-.31c.166-.095.324-.199.472-.308.85-.63 1.479-1.551 1.457-2.572v-.002C20.958 7.389 19.3 6 17.325 6Z"/>
    </symbol>
    <symbol id="heading-4" viewBox="0 0 24 24">
      <path fill="currentColor" d="M4.5 6.75a.75.75 0 0 0-1.5 0v10.5a.75.75 0 1 0 1.5 0v-4.5h5.25v4.5a.75.75 0 1 0 1.5 0v-5.226a.656.656 0 0 0 0-.048V6.75a.75.75 0 0 0-1.5 0v4.5H4.5v-4.5Z"/>
      <path fill="currentColor" fill-rule="evenodd" d="M17.848 6a.75.75 0 0 0-.632.346l-5.098 7.981a.75.75 0 0 0-.118.404V15c0 .414.336.75.75.75h4.5v1.5a.75.75 0 0 0 1.5 0v-1.5h1.5a.75.75 0 0 0 0-1.5h-1.5v-7.5A.75.75 0 0 0 18 6h-.152Zm-.598 3.08v5.17h-3.303l3.303-5.17Z"/>
    </symbol>
    <symbol id="heading-5" viewBox="0 0 24 24">
      <path fill="currentColor" d="M4.5 6.75a.75.75 0 0 0-1.5 0v10.5a.75.75 0 0 0 1.5 0v-4.5h5.25v4.5a.75.75 0 0 0 1.5 0V6.75a.75.75 0 0 0-1.5 0v4.5H4.5v-4.5ZM14.363 6a.75.75 0 0 0-.747.68l-.488 5.25a.75.75 0 0 0 .747.82h.075a.75.75 0 0 0 .577-.271c.681-.821 1.697-1.208 2.663-1.051h.002c1.187.189 2.225 1.164 2.302 2.332v.002c.096 1.394-1.17 2.72-2.613 2.738-1.056.011-2.126-.717-2.566-1.897a.75.75 0 0 0-1.405.524c.64 1.715 2.24 2.892 3.988 2.873h.001c2.248-.027 4.25-2.031 4.092-4.34-.133-1.998-1.824-3.436-3.562-3.713a4.258 4.258 0 0 0-2.65.437l.267-2.884h4.724a.75.75 0 0 0 0-1.5h-5.407Z"/>
    </symbol>
    <symbol id="heading-6" viewBox="0 0 24 24">
      <path fill="currentColor" fill-rule="evenodd" d="M17.407 10.133c.945 0 1.83.382 2.49 1.072l.008-.008c.75.788 1.147 1.89 1.095 3.03-.113 2.273-2.093 3.765-3.907 3.765h-.068c-1.92-.044-3.285-1.26-3.9-3.382a.546.546 0 0 1-.045-.157c-.21-.795-.322-1.703-.322-2.723 0-2.693 1.62-5.648 4.245-5.73a3.94 3.94 0 0 1 3.637 2.033c.18.367.03.817-.338 1.005a.749.749 0 0 1-1.005-.33 2.459 2.459 0 0 0-2.16-1.208h-.09c-1.68.053-2.64 2.137-2.774 3.825.742-.772 1.807-1.192 3.134-1.192Zm-2.835 4.117c.353 1.17 1.058 2.22 2.476 2.25v-.008c.967.038 2.37-.802 2.445-2.34.037-.72-.218-1.432-.683-1.92a1.928 1.928 0 0 0-1.41-.607c-1.695 0-2.625.863-2.827 2.625Z"/>
      <path fill="currentColor" d="M9.75 6.75c0-.413.338-.75.75-.75s.75.337.75.75v10.5c0 .413-.338.75-.75.75a.752.752 0 0 1-.75-.75v-4.5H4.5v4.5c0 .413-.338.75-.75.75a.752.752 0 0 1-.75-.75V6.75c0-.413.337-.75.75-.75.412 0 .75.337.75.75v4.5h5.25v-4.5Z"/>
    </symbol>
    <symbol id="link" viewBox="0 0 24 24">
      <path fill="currentColor" d="M13.708 6.102 11.78 8.03a.75.75 0 1 1-1.06-1.06l1.937-1.938a4.508 4.508 0 0 1 6.298 0l.013.013a4.508 4.508 0 0 1 0 6.298l-.006.006-1.932 1.931a.75.75 0 1 1-1.06-1.06l1.928-1.928a3.008 3.008 0 0 0 .003-4.193 3.009 3.009 0 0 0-4.193.003ZM8.03 10.72a.75.75 0 0 1 0 1.06l-1.928 1.928a3.008 3.008 0 0 0-.003 4.193 3.008 3.008 0 0 0 4.193-.003l1.928-1.928a.75.75 0 1 1 1.06 1.06l-1.937 1.938a4.508 4.508 0 0 1-6.298 0l-.013-.013a4.508 4.508 0 0 1 0-6.298l.006-.006L6.97 10.72a.75.75 0 0 1 1.06 0Z"/>
      <path fill="currentColor" d="M15.53 9.53a.75.75 0 0 0-1.06-1.06l-6 6a.75.75 0 1 0 1.06 1.06l6-6Z"/>
    </symbol>
    <symbol id="ordered-list" viewBox="0 0 24 24">
      <path fill="currentColor" d="M6.75 5.25a.75.75 0 0 0-1.151-.634L3.964 5.651a.75.75 0 1 0 .802 1.268l.484-.307V10.5a.75.75 0 0 0 1.5 0V5.25Zm3.75 1.5a.75.75 0 0 1 .75-.75h9a.75.75 0 0 1 0 1.5h-9a.75.75 0 0 1-.75-.75Zm0 5.25a.75.75 0 0 1 .75-.75h9a.75.75 0 0 1 0 1.5h-9a.75.75 0 0 1-.75-.75Zm.75 4.5a.75.75 0 0 0 0 1.5h9a.75.75 0 0 0 0-1.5h-9Zm-5.233-2.252a.777.777 0 0 0-.788.597.75.75 0 1 1-1.458-.35 2.277 2.277 0 0 1 2.343-1.744l.009.001c.667.049 1.454.362 1.856 1.102.082.15.234.478.234.951 0 .571-.22 1.033-.516 1.44-.25.344-.592.7-.953 1.076l-.128.134a54.1 54.1 0 0 0-.51.538h1.552a.75.75 0 0 1 0 1.5H4.5a.75.75 0 0 1-.75-.75v-.105a.75.75 0 0 1 .192-.502 71.72 71.72 0 0 1 1.592-1.72l.113-.118c.386-.402.651-.679.835-.933.184-.254.23-.411.23-.56a.476.476 0 0 0-.05-.233l-.001-.002c-.078-.143-.294-.295-.644-.322Z"/>
    </symbol>
    <symbol id="pilcrow" viewBox="0 0 24 24">
      <path fill="currentColor" fill-rule="evenodd" d="M9 3a5.25 5.25 0 1 0 0 10.5h.75v6.75a.75.75 0 0 0 1.5 0V4.5h3v15.75a.75.75 0 0 0 1.5 0V4.5H18A.75.75 0 0 0 18 3H9Zm.75 1.5H9A3.75 3.75 0 0 0 9 12h.75V4.5Z"/>
    </symbol>
    <symbol id="text-align-center" viewBox="0 0 24 24">
      <path fill="currentColor" d="M3.75 4.5a.75.75 0 0 0 0 1.5h16.5a.75.75 0 0 0 0-1.5H3.75ZM7.5 9a.75.75 0 0 0 0 1.5h9a.75.75 0 0 0 0-1.5h-9ZM3 14.25a.75.75 0 0 1 .75-.75h16.5a.75.75 0 0 1 0 1.5H3.75a.75.75 0 0 1-.75-.75ZM7.5 18a.75.75 0 0 0 0 1.5h9a.75.75 0 0 0 0-1.5h-9Z"/>
    </symbol>
    <symbol id="text-align-justify" viewBox="0 0 24 24">
      <path fill="currentColor" d="M3.75 4.5a.75.75 0 0 0 0 1.5h16.5a.75.75 0 0 0 0-1.5H3.75Zm0 4.5a.75.75 0 0 0 0 1.5h16.5a.75.75 0 0 0 0-1.5H3.75ZM3 14.25a.75.75 0 0 1 .75-.75h16.5a.75.75 0 0 1 0 1.5H3.75a.75.75 0 0 1-.75-.75ZM3.75 18a.75.75 0 0 0 0 1.5h16.5a.75.75 0 0 0 0-1.5H3.75Z"/>
    </symbol>
    <symbol id="text-align-left" viewBox="0 0 24 24">
      <path fill="currentColor" d="M3.75 4.5a.75.75 0 0 0 0 1.5h16.5a.75.75 0 0 0 0-1.5H3.75Zm0 4.5a.75.75 0 0 0 0 1.5h9a.75.75 0 0 0 0-1.5h-9ZM3 14.25a.75.75 0 0 1 .75-.75h16.5a.75.75 0 0 1 0 1.5H3.75a.75.75 0 0 1-.75-.75ZM3.75 18a.75.75 0 0 0 0 1.5h9a.75.75 0 0 0 0-1.5h-9Z"/>
    </symbol>
    <symbol id="text-align-right" viewBox="0 0 24 24">
      <path fill="currentColor" d="M3.75 4.5a.75.75 0 0 0 0 1.5h16.5a.75.75 0 0 0 0-1.5H3.75Zm7.5 4.5a.75.75 0 0 0 0 1.5h9a.75.75 0 0 0 0-1.5h-9ZM3 14.25a.75.75 0 0 1 .75-.75h16.5a.75.75 0 0 1 0 1.5H3.75a.75.75 0 0 1-.75-.75ZM11.25 18a.75.75 0 0 0 0 1.5h9a.75.75 0 0 0 0-1.5h-9Z"/>
    </symbol>
    <symbol id="text-italic" viewBox="0 0 24 24">
      <path fill="currentColor" d="M15.75 5.25a1.5 1.5 0 1 1-3 0 1.5 1.5 0 0 1 3 0Zm-2.178 4.01a.75.75 0 0 0-1.407-.52l-3.869 10.5a.75.75 0 0 0 1.408.52l3.868-10.5Z"/>
    </symbol>
    <symbol id="underline" viewBox="0 0 24 24">
      <path fill="currentColor" d="M8.25 3.75a.75.75 0 0 0-1.5 0V12a5.25 5.25 0 1 0 10.5 0V3.75a.75.75 0 0 0-1.5 0V12a3.75 3.75 0 1 1-7.5 0V3.75Zm-4.5 15a.75.75 0 0 0 0 1.5h16.5a.75.75 0 0 0 0-1.5H3.75Z"/>
    </symbol>
    <symbol id="unlink" viewBox="0 0 24 24">
      <path fill="currentColor" d="M5.03 3.97a.75.75 0 0 0-1.06 1.06l15 15a.75.75 0 1 0 1.06-1.06l-15-15Zm8.678 2.132-1.553 1.553a.75.75 0 1 1-1.06-1.06l1.562-1.563a4.508 4.508 0 0 1 6.298 0l.013.013a4.508 4.508 0 0 1 0 6.298l-.006.006-1.557 1.556a.75.75 0 1 1-1.06-1.06l1.553-1.553a3.008 3.008 0 0 0 .003-4.193 3.008 3.008 0 0 0-4.193.003Zm-6.053 4.993a.75.75 0 0 1 0 1.06l-1.553 1.553a3.008 3.008 0 0 0-.003 4.193 3.008 3.008 0 0 0 4.193-.003l1.553-1.553a.75.75 0 1 1 1.06 1.06l-1.562 1.563a4.508 4.508 0 0 1-6.298 0l-.013-.013a4.508 4.508 0 0 1 0-6.298l.006-.006 1.557-1.556a.75.75 0 0 1 1.06 0Z"/>
      <path fill="currentColor" d="M10.28 14.78a.75.75 0 1 0-1.06-1.06l-.75.75a.75.75 0 1 0 1.06 1.06l.75-.75Zm5.25-6.31a.75.75 0 0 1 0 1.06l-.75.75a.75.75 0 1 1-1.06-1.06l.75-.75a.75.75 0 0 1 1.06 0Z"/>
    </symbol>
    <symbol id="unordered-list" viewBox="0 0 24 24">
      <path fill="currentColor" fill-rule="evenodd" d="M3 7.125a2.625 2.625 0 1 1 5.25 0 2.625 2.625 0 0 1-5.25 0ZM5.625 6a1.125 1.125 0 1 0 0 2.25 1.125 1.125 0 0 0 0-2.25ZM3 14.625a2.625 2.625 0 1 1 5.25 0 2.625 2.625 0 0 1-5.25 0ZM5.625 13.5a1.125 1.125 0 1 0 0 2.25 1.125 1.125 0 0 0 0-2.25Z"/>
      <path fill="currentColor" d="M11.25 6a.75.75 0 0 0 0 1.5h9a.75.75 0 0 0 0-1.5h-9Zm-.75 6a.75.75 0 0 1 .75-.75h9a.75.75 0 0 1 0 1.5h-9a.75.75 0 0 1-.75-.75Zm.75 4.5a.75.75 0 0 0 0 1.5h9a.75.75 0 0 0 0-1.5h-9Z"/>
    </symbol>
  </defs>
</svg>
