<svg xmlns="http://www.w3.org/2000/svg">
  <defs>
    <symbol id="boat" viewBox="0 0 24 24">
      <path fill="currentColor" fill-rule="evenodd" d="M7.5 3.75a.75.75 0 0 0-.75.75v3H6a.75.75 0 0 0-.75.75v2.25H4.5a.75.75 0 0 0-.712.987l1.5 4.5a.75.75 0 0 0 1.424-.474L5.54 12h12.746l-1.707 3.415a.75.75 0 1 0 1.342.67l2.25-4.5A.75.75 0 0 0 19.5 10.5h-2.537l-1.292-2.585A.75.75 0 0 0 15 7.5h-3.75v-3a.75.75 0 0 0-.75-.75h-3Zm7.787 6.75H6.75V9h7.787l.75 1.5Zm-5.537-3V5.25h-1.5V7.5h1.5Z"/>
      <path fill="currentColor" d="M4.5 16.5a.75.75 0 0 0-1.5 0 3.759 3.759 0 0 0 3.75 3.75c1.039 0 1.956-.449 2.625-1.112.669.663 1.586 1.112 2.625 1.112s1.956-.449 2.625-1.112c.669.663 1.586 1.112 2.625 1.112A3.759 3.759 0 0 0 21 16.5a.75.75 0 0 0-1.5 0 2.259 2.259 0 0 1-2.25 2.25c-.817 0-1.564-.495-1.977-1.203a.75.75 0 0 0-1.296 0c-.413.708-1.16 1.203-1.977 1.203-.817 0-1.564-.495-1.977-1.203a.75.75 0 0 0-1.296 0c-.413.708-1.16 1.203-1.977 1.203A2.259 2.259 0 0 1 4.5 16.5Z"/>
    </symbol>
    <symbol id="boat-front" viewBox="0 0 24 24">
      <path fill="currentColor" fill-rule="evenodd" d="M10.5 3a.75.75 0 0 0-.75.75v3h-3A.75.75 0 0 0 6 7.5v5.475l-1.114.62a.75.75 0 0 0-.307.99l1.5 3a.75.75 0 1 0 1.342-.67l-1.179-2.358.776-.431a.747.747 0 0 0 .184-.103L12 11.358l4.798 2.665a.75.75 0 0 0 .184.103l.776.43-1.179 2.359a.75.75 0 1 0 1.342.67l1.5-3a.75.75 0 0 0-.307-.99L18 12.974V7.5a.75.75 0 0 0-.75-.75h-3v-3A.75.75 0 0 0 13.5 3h-3Zm6 9.142V8.25h-9v3.892l4.136-2.298a.75.75 0 0 1 .728 0l4.136 2.298ZM12.75 6.75V4.5h-1.5v2.25h1.5Z"/>
      <path fill="currentColor" d="M3.75 16.575a.75.75 0 0 1 .75.75 2.259 2.259 0 0 0 2.25 2.25c.817 0 1.564-.495 1.977-1.203a.75.75 0 0 1 1.296 0c.413.708 1.16 1.203 1.977 1.203.817 0 1.564-.495 1.977-1.203a.75.75 0 0 1 1.296 0c.413.708 1.16 1.203 1.977 1.203a2.259 2.259 0 0 0 2.25-2.25.75.75 0 0 1 1.5 0 3.759 3.759 0 0 1-3.75 3.75c-1.039 0-1.956-.449-2.625-1.112-.669.663-1.586 1.112-2.625 1.112s-1.956-.449-2.625-1.112c-.669.663-1.586 1.112-2.625 1.112A3.759 3.759 0 0 1 3 17.325a.75.75 0 0 1 .75-.75Z"/>
    </symbol>
    <symbol id="bus" viewBox="0 0 24 24">
      <path fill="currentColor" fill-rule="evenodd" d="M18.75 5.25A2.25 2.25 0 0 1 21 7.5v8.25a.75.75 0 0 1-.75.75h-.777a2.626 2.626 0 0 1-5.196 0H9.723a2.626 2.626 0 0 1-5.196 0H3.75a.75.75 0 0 1-.75-.75V7.5a2.25 2.25 0 0 1 2.25-2.25h13.5ZM4.5 7.5a.75.75 0 0 1 .75-.75H15v3.75H4.5v-3Zm12 3V6.75h2.25a.75.75 0 0 1 .75.75v3h-3ZM4.5 12v3h.253a2.625 2.625 0 0 1 4.744 0h5.006a2.625 2.625 0 0 1 4.744 0h.253v-3h-15Zm11.268 3.925a1.125 1.125 0 1 1 2.215.4 1.125 1.125 0 0 1-2.215-.4Zm-9.768.2a1.132 1.132 0 0 1 .028-.25 1.125 1.125 0 1 1-.028.25Z"/>
    </symbol>
    <symbol id="bus-front" viewBox="0 0 24 24">
      <path fill="currentColor" d="M8.25 15.75a.75.75 0 1 0 0-1.5.75.75 0 0 0 0 1.5ZM16.5 15a.75.75 0 1 1-1.5 0 .75.75 0 0 1 1.5 0Z"/>
      <path fill="currentColor" fill-rule="evenodd" d="M4.5 5.25A2.25 2.25 0 0 1 6.75 3h10.5a2.25 2.25 0 0 1 2.25 2.25V18a.75.75 0 0 1-.75.75v1.5A.75.75 0 0 1 18 21h-3a.75.75 0 0 1-.75-.75v-1.5h-4.5v1.5A.75.75 0 0 1 9 21H6a.75.75 0 0 1-.75-.75v-1.5A.75.75 0 0 1 4.5 18V5.25Zm1.5 0a.75.75 0 0 1 .75-.75h10.5a.75.75 0 0 1 .75.75V6H6v-.75Zm0 6V7.5h12v3.75H6Zm0 1.5v4.5h12v-4.5H6Zm11.25 6.75v-.75h-1.5v.75h1.5Zm-10.5-.75v.75h1.5v-.75h-1.5Z"/>
    </symbol>
    <symbol id="car" viewBox="0 0 24 24">
      <path fill="currentColor" fill-rule="evenodd" d="M6.75 6a.75.75 0 0 0-.586.281l-2.996 3.746A.747.747 0 0 0 3 10.5V15c0 .414.336.75.75.75h.777a2.626 2.626 0 0 0 5.196 0h3.804a2.626 2.626 0 0 0 5.196 0h1.527A.75.75 0 0 0 21 15v-4.5a.75.75 0 0 0-.75-.75h-3.325l-2.032-3.386A.75.75 0 0 0 14.25 6h-7.5Zm3 1.5H7.11l-1.8 2.25h4.44V7.5Zm1.5 2.25V7.5h2.575l1.35 2.25H11.25Zm-6.75 1.5v3h.253a2.625 2.625 0 0 1 4.744 0h4.256a2.625 2.625 0 0 1 4.744 0H19.5v-3h-15Zm12.722 3.875a1.136 1.136 0 0 1 .028.25 1.125 1.125 0 1 1-.028-.25ZM6 15.375a1.132 1.132 0 0 1 .028-.25 1.125 1.125 0 1 1-.028.25Z"/>
    </symbol>
    <symbol id="car-front" viewBox="0 0 24 24">
      <path fill="currentColor" d="M6.75 14.25a.75.75 0 1 0 0-1.5.75.75 0 0 0 0 1.5ZM18 13.5a.75.75 0 1 1-1.5 0 .75.75 0 0 1 1.5 0Z"/>
      <path fill="currentColor" fill-rule="evenodd" d="M7.95 3h-.002a2.25 2.25 0 0 0-2.191 1.762l-1.192 5.362-.906.906A2.25 2.25 0 0 0 3 12.621V16.5c0 .414.336.75.75.75h16.5a.75.75 0 0 0 .75-.75v-3.88a2.25 2.25 0 0 0-.66-1.59l-.905-.906-1.192-5.362A2.25 2.25 0 0 0 16.052 3H7.95Zm9.865 6.75-1.036-4.663a.75.75 0 0 0-.73-.587H7.951a.75.75 0 0 0-.73.587L6.185 9.75h11.63ZM4.72 12.09l.84-.84h12.88l.84.84c.14.142.22.332.22.531v3.129h-15v-3.129c0-.199.08-.39.22-.53Z"/>
      <path fill="currentColor" d="M5.25 18.75a.75.75 0 0 0-1.5 0v1.5c0 .414.336.75.75.75h3a.75.75 0 0 0 .75-.75v-1.5a.75.75 0 0 0-1.5 0v.75h-1.5v-.75ZM16.5 18a.75.75 0 0 1 .75.75v.75h1.5v-.75a.75.75 0 0 1 1.5 0v1.5a.75.75 0 0 1-.75.75h-3a.75.75 0 0 1-.75-.75v-1.5a.75.75 0 0 1 .75-.75Z"/>
    </symbol>
    <symbol id="cone" viewBox="0 0 24 24">
      <path fill="currentColor" fill-rule="evenodd" d="M9.785 3.523A.75.75 0 0 1 10.5 3h3a.75.75 0 0 1 .715.523l2.09 6.57c.07.11.113.237.12.374l1.067 3.357a.749.749 0 0 1 .133.417l1.673 5.259h.952a.75.75 0 0 1 0 1.5H3.75a.75.75 0 0 1 0-1.5h.952l1.673-5.26a.746.746 0 0 1 .133-.416l1.068-3.357a.746.746 0 0 1 .119-.373l2.09-6.571ZM6.275 19.5h11.45L16.291 15H7.707l-1.431 4.5Zm6.677-15 1.67 5.25H9.378l1.67-5.25h1.904Zm-4.767 9 .716-2.25h6.198l.716 2.25h-7.63Z"/>
    </symbol>
    <symbol id="control-panel" viewBox="0 0 24 24">
      <path fill="currentColor" fill-rule="evenodd" d="M7.72 9.22a.75.75 0 0 1 1.06 0l2.25 2.25a2.25 2.25 0 1 1-1.06 1.06l-2.25-2.25a.75.75 0 0 1 0-1.06Zm3.75 3.75-.01.009a.75.75 0 1 0 .018-.018l-.008.009Z"/>
      <path fill="currentColor" fill-rule="evenodd" d="M3 13.5a9 9 0 1 1 15.942 5.728.75.75 0 0 1-.578.272H5.636a.75.75 0 0 1-.578-.272A8.966 8.966 0 0 1 3 13.5Zm8.25-7.463V7.5a.75.75 0 0 0 1.5 0V6.037a7.465 7.465 0 0 1 3.997 1.656l-1.035 1.034a.75.75 0 1 0 1.061 1.06l1.034-1.034a7.466 7.466 0 0 1 1.656 3.997H18a.75.75 0 0 0 0 1.5h1.463A7.456 7.456 0 0 1 18 18H6a7.457 7.457 0 0 1-1.463-3.75H6a.75.75 0 0 0 0-1.5H4.537a7.503 7.503 0 0 1 6.713-6.713Z"/>
    </symbol>
    <symbol id="train" viewBox="0 0 24 24">
      <path fill="currentColor" fill-rule="evenodd" d="M9 6a.75.75 0 0 0-.75.75v3c0 .414.336.75.75.75h6a.75.75 0 0 0 .75-.75v-3A.75.75 0 0 0 15 6H9Zm5.25 3h-4.5V7.5h4.5V9Z"/>
      <path fill="currentColor" d="M9 13.5A.75.75 0 1 0 9 12a.75.75 0 0 0 0 1.5Zm6.75-.75a.75.75 0 1 1-1.5 0 .75.75 0 0 1 1.5 0Z"/>
      <path fill="currentColor" fill-rule="evenodd" d="M6 16.5h1.036L5.33 19.915a.75.75 0 1 0 1.342.67l.543-1.085h9.572l.543 1.085a.75.75 0 1 0 1.342-.67l-.743-1.486-.008-.016-.006-.012-.95-1.901H18a.75.75 0 0 0 .75-.75V5.25A2.25 2.25 0 0 0 16.5 3h-9a2.25 2.25 0 0 0-2.25 2.25v10.5c0 .414.336.75.75.75Zm1.5-12a.75.75 0 0 0-.75.75V15h1.485a.8.8 0 0 1 .031 0h7.468a.8.8 0 0 1 .03 0h1.486V5.25a.75.75 0 0 0-.75-.75h-9ZM7.964 18l.75-1.5h6.572l.75 1.5H7.965Z"/>
      <path fill="currentColor" d="M3.75 7.5a.75.75 0 0 1 .75.75v2.25a.75.75 0 0 1-1.5 0V8.25a.75.75 0 0 1 .75-.75ZM21 8.25a.75.75 0 0 0-1.5 0v2.25a.75.75 0 0 0 1.5 0V8.25Z"/>
    </symbol>
  </defs>
</svg>
