<svg xmlns="http://www.w3.org/2000/svg">
  <defs>
    <symbol id="boat" viewBox="0 0 24 24">
      <path fill="currentColor" d="M10.5 4.5a.75.75 0 0 0-.75-.75H7.5a.75.75 0 0 0-.75.75V6h3.75V4.5Zm9.75 11.25a.75.75 0 0 0-.75.75c0 1.24-1.01 2.25-2.25 2.25a2.245 2.245 0 0 1-1.966-1.184c-.264-.483-1.055-.483-1.318 0A2.243 2.243 0 0 1 12 18.75a2.245 2.245 0 0 1-1.966-1.184c-.264-.483-1.055-.483-1.318 0A2.243 2.243 0 0 1 6.75 18.75c-1.24 0-2.25-1.01-2.25-2.25a.75.75 0 0 0-1.5 0 3.754 3.754 0 0 0 3.75 3.75c.995 0 1.934-.4 2.625-1.088A3.722 3.722 0 0 0 12 20.25c.995 0 1.934-.4 2.625-1.088a3.722 3.722 0 0 0 2.625 1.088A3.754 3.754 0 0 0 21 16.5a.75.75 0 0 0-.75-.75Z"/>
      <path fill="currentColor" d="M6 16.5a.75.75 0 0 1-.712-.513l-1.5-4.5A.752.752 0 0 1 4.5 10.5h.75V8.25A.75.75 0 0 1 6 7.5h9a.75.75 0 0 1 .671.415l1.293 2.585H19.5a.751.751 0 0 1 .671 1.086l-2.25 4.5a.75.75 0 1 1-1.341-.671L18.287 12H5.54l1.171 3.512A.75.75 0 0 1 6 16.5Z"/>
    </symbol>
    <symbol id="boat-front" viewBox="0 0 24 24">
      <path fill="currentColor" d="M13.5 3.75a.75.75 0 0 0-.75-.75h-1.5a.75.75 0 0 0-.75.75v1.5h3v-1.5Zm6.75 12.826a.75.75 0 0 0-.75.75c0 1.24-1.01 2.25-2.25 2.25a2.246 2.246 0 0 1-1.966-1.184c-.264-.483-1.055-.483-1.318 0a2.245 2.245 0 0 1-1.967 1.184 2.245 2.245 0 0 1-1.966-1.184c-.263-.483-1.055-.483-1.318 0a2.242 2.242 0 0 1-1.965 1.184c-1.24 0-2.25-1.01-2.25-2.25a.75.75 0 0 0-1.5 0 3.754 3.754 0 0 0 3.75 3.75c.995 0 1.934-.4 2.625-1.088A3.722 3.722 0 0 0 12 21.076c.995 0 1.934-.4 2.625-1.088a3.722 3.722 0 0 0 2.625 1.088 3.754 3.754 0 0 0 3.75-3.75.75.75 0 0 0-.75-.75Z"/>
      <path fill="currentColor" d="M7.085 17.92a.75.75 0 0 1-1.006-.335l-1.5-3a.75.75 0 0 1 .307-.99L6 12.975V7.5a.75.75 0 0 1 .75-.75h10.5a.75.75 0 0 1 .75.75v5.476l1.114.618a.75.75 0 0 1 .307.991l-1.5 3a.75.75 0 0 1-1.342-.67l1.179-2.358L12 11.358l-5.758 3.198 1.178 2.358a.75.75 0 0 1-.335 1.006Z"/>
    </symbol>
    <symbol id="bus" viewBox="0 0 24 24">
      <path fill="currentColor" d="M18.75 5.25H5.25C4.01 5.25 3 6.26 3 7.5v8.25c0 .414.336.75.75.75h.788a2.62 2.62 0 0 0 2.587 2.25 2.62 2.62 0 0 0 2.587-2.25h4.575a2.62 2.62 0 0 0 2.587 2.25 2.62 2.62 0 0 0 2.587-2.25h.789a.75.75 0 0 0 .75-.75V7.5c0-1.24-1.01-2.25-2.25-2.25Zm.75 2.25v3h-3V6.75h2.25c.413 0 .75.337.75.75ZM5.25 6.75H15v3.75H4.5v-3c0-.413.337-.75.75-.75Zm1.875 10.5c-.62 0-1.125-.505-1.125-1.125S6.505 15 7.125 15s1.125.505 1.125 1.125-.505 1.125-1.125 1.125Zm9.75 0c-.62 0-1.125-.505-1.125-1.125S16.255 15 16.875 15 18 15.505 18 16.125s-.505 1.125-1.125 1.125Z"/>
    </symbol>
    <symbol id="bus-front" viewBox="0 0 24 24">
      <path fill="currentColor" d="M17.25 3H6.75C5.51 3 4.5 4.01 4.5 5.25V18c0 .414.335.75.75.75h13.5a.75.75 0 0 0 .75-.75V5.25C19.5 4.01 18.49 3 17.25 3ZM7.5 16.5a.75.75 0 1 1 0-1.5.75.75 0 0 1 0 1.5Zm9 0a.75.75 0 1 1 0-1.5.75.75 0 0 1 0 1.5Zm1.5-3.75H6V6h12v6.75ZM5.25 19.5v.75c0 .414.335.75.75.75h2.25a.75.75 0 0 0 .75-.75v-.75H5.25Zm9.75.75v-.75h3.75v.75A.75.75 0 0 1 18 21h-2.25a.75.75 0 0 1-.75-.75Z"/>
    </symbol>
    <symbol id="car" viewBox="0 0 24 24">
      <path fill="currentColor" d="M20.25 9.75h-3.326l-2.031-3.386A.748.748 0 0 0 14.25 6h-7.5a.75.75 0 0 0-.586.281l-3 3.75A.752.752 0 0 0 3 10.5V15c0 .414.335.75.75.75h.788A2.62 2.62 0 0 0 7.125 18a2.62 2.62 0 0 0 2.587-2.25h3.825A2.62 2.62 0 0 0 16.125 18a2.62 2.62 0 0 0 2.587-2.25h1.539A.75.75 0 0 0 21 15v-4.5a.75.75 0 0 0-.75-.75Zm-5.075 0H11.25V7.5h2.575l1.35 2.25ZM7.11 7.5h2.64v2.25H5.31l1.8-2.25Zm.015 9C6.505 16.5 6 15.995 6 15.375s.505-1.125 1.125-1.125 1.125.505 1.125 1.125S7.745 16.5 7.125 16.5Zm9 0c-.62 0-1.125-.505-1.125-1.125s.505-1.125 1.125-1.125 1.125.505 1.125 1.125-.505 1.125-1.125 1.125Z"/>
    </symbol>
    <symbol id="car-front" viewBox="0 0 24 24">
      <path fill="currentColor" d="m19.435 10.125.906.905A2.233 2.233 0 0 1 21 12.621V16.5a.75.75 0 0 1-.75.75H3.75A.75.75 0 0 1 3 16.5v-3.879a2.233 2.233 0 0 1 .66-1.59l.905-.906 1.192-5.362A2.237 2.237 0 0 1 7.95 3h8.1a2.237 2.237 0 0 1 2.193 1.763l1.192 5.362ZM7.482 4.665a.745.745 0 0 0-.261.422L6.185 9.75h11.63l-1.033-4.663a.745.745 0 0 0-.732-.587h-8.1a.746.746 0 0 0-.468.165ZM5.75 14.81A1.125 1.125 0 1 0 7 12.94a1.125 1.125 0 0 0-1.25 1.87Zm11.25 0a1.125 1.125 0 1 0 1.25-1.87A1.125 1.125 0 0 0 17 14.81Zm-8.75 3.94h-4.5v1.5a.75.75 0 0 0 .75.75h3a.75.75 0 0 0 .75-.75v-1.5Zm12 0h-4.5v1.5a.75.75 0 0 0 .75.75h3a.75.75 0 0 0 .75-.75v-1.5Z"/>
    </symbol>
    <symbol id="cone" viewBox="0 0 24 24">
      <path fill="currentColor" d="M13.5 3c.3 0 .6.225.75.525L15.975 9h-7.95L9.75 3.525c.15-.3.45-.525.75-.525h3Zm2.925 7.5h-8.85l-.975 3h10.8l-.975-3Zm3.825 9h-.975L17.85 15H6.15l-1.425 4.5H3.75c-.45 0-.75.3-.75.75s.3.75.75.75h16.5c.45 0 .75-.3.75-.75s-.3-.75-.75-.75Z"/>
    </symbol>
    <symbol id="control-panel" viewBox="0 0 24 24">
      <path fill="currentColor" d="M19.5 14.25a.75.75 0 1 1 0-1.5h1.462a8.956 8.956 0 0 0-2.096-5.056l-1.032 1.033a.75.75 0 1 1-1.061-1.06l1.033-1.033a8.956 8.956 0 0 0-5.056-2.096V6a.75.75 0 1 1-1.5 0V4.538a9.005 9.005 0 0 0-8.212 8.212H4.5a.75.75 0 1 1 0 1.5H3.033a9.018 9.018 0 0 0 2.025 4.978l.225.272h13.434l.225-.272a9.018 9.018 0 0 0 2.025-4.978H19.5Zm-6.44.31a1.5 1.5 0 0 1-2.12 0c-.45-.45-3.414-4.85-3.75-5.35a.375.375 0 0 1 .52-.521c.5.336 4.9 3.3 5.351 3.75a1.5 1.5 0 0 1 0 2.121Z"/>
    </symbol>
    <symbol id="train" viewBox="0 0 24 24">
      <path fill="currentColor" d="M7.5 3h9c1.24 0 2.25 1.01 2.25 2.25v10.5a.75.75 0 0 1-.75.75h-1.036l1.707 3.415a.75.75 0 0 1-1.341.67l-.543-1.085H7.213l-.543 1.085a.75.75 0 0 1-1.342-.671L7.036 16.5H6a.75.75 0 0 1-.75-.75V5.25C5.25 4.01 6.26 3 7.5 3Zm1.213 13.5-.75 1.5h8.073l-.75-1.5H8.713Zm-1.213-3a.75.75 0 1 0 1.5 0 .75.75 0 0 0-1.5 0Zm7.5 0a.75.75 0 1 0 1.5 0 .75.75 0 0 0-1.5 0Zm1.5-3a.75.75 0 0 0 .75-.75v-4.5a.75.75 0 0 0-.75-.75h-9a.75.75 0 0 0-.75.75v4.5c0 .414.336.75.75.75h9ZM3 7.5h1.5v3.75H3V7.5Zm18 0h-1.5v3.75H21V7.5Z"/>
    </symbol>
  </defs>
</svg>
