<svg xmlns="http://www.w3.org/2000/svg">
  <defs>
    <symbol id="address-book" viewBox="0 0 24 24">
      <path fill="currentColor" d="M4.5 3h12c1.24 0 2.25 1.01 2.25 2.25v13.5c0 1.24-1.01 2.25-2.25 2.25h-12a.75.75 0 0 1-.75-.75V3.75A.75.75 0 0 1 4.5 3Zm8.625 6.375a1.875 1.875 0 1 0-3.75 0 1.875 1.875 0 0 0 3.75 0Zm-5.506 6.187a.754.754 0 0 0 .73.938h5.802c.49 0 .853-.463.73-.938a3.751 3.751 0 0 0-7.263 0ZM19.875 6h.75c.207 0 .375.168.375.375v3.75a.375.375 0 0 1-.375.375h-.75a.375.375 0 0 1-.375-.375v-3.75c0-.207.168-.375.375-.375Z"/>
    </symbol>
    <symbol id="exchange" viewBox="0 0 24 24">
      <path fill="currentColor" d="M6.75 7.5a2.25 2.25 0 1 0 0-4.5 2.25 2.25 0 0 0 0 4.5ZM13.81 6h3.44c.827 0 1.5.673 1.5 1.5V9a.75.75 0 1 1-1.5 0V7.5h-3.44l.97.97a.75.75 0 1 1-1.06 1.06l-2.25-2.25a.75.75 0 0 1 0-1.06l2.25-2.25a.749.749 0 1 1 1.06 1.06l-.97.97Zm-3.62 10.5-.97-.97a.75.75 0 1 1 1.06-1.06l2.25 2.25a.75.75 0 0 1 0 1.06l-2.25 2.25a.748.748 0 0 1-1.06 0 .75.75 0 0 1 0-1.06l.97-.97H6.75c-.827 0-1.5-.673-1.5-1.5V15a.75.75 0 1 1 1.5 0v1.5h3.44ZM3 12a3.754 3.754 0 0 1 3.75-3.75A3.754 3.754 0 0 1 10.5 12a.75.75 0 0 1-.75.75h-6A.75.75 0 0 1 3 12Zm14.25 3.75a2.25 2.25 0 1 0 0-4.5 2.25 2.25 0 0 0 0 4.5Zm-3.75 4.5a3.754 3.754 0 0 1 3.75-3.75A3.754 3.754 0 0 1 21 20.25a.75.75 0 0 1-.75.75h-6a.75.75 0 0 1-.75-.75Z"/>
    </symbol>
    <symbol id="info-point" viewBox="0 0 24 24">
      <path fill="currentColor" d="M12 7.575a2.287 2.287 0 1 1 0-4.574 2.287 2.287 0 0 1 0 4.574ZM8.25 12V9.75a1.5 1.5 0 0 1 1.5-1.5h4.5a1.5 1.5 0 0 1 1.5 1.5V12h-7.5Zm-2.03 2.78a.75.75 0 0 1 .53-1.28h10.5a.75.75 0 1 1 0 1.5h-.75v5.25a.75.75 0 0 1-.75.75h-7.5a.75.75 0 0 1-.75-.75V15h-.75a.75.75 0 0 1-.53-.22Z"/>
    </symbol>
    <symbol id="man" viewBox="0 0 24 24">
      <path fill="currentColor" d="M10.125 4.875a1.875 1.875 0 1 0 3.75 0 1.875 1.875 0 0 0-3.75 0Zm5.615 4.001.75 4.5h-.002a.75.75 0 0 1-.404.795l-1.141.57-.7 5.602a.75.75 0 0 1-.745.657h-3a.75.75 0 0 1-.743-.657l-.701-5.602-1.14-.57a.75.75 0 0 1-.405-.795l.75-4.5a.75.75 0 0 1 .387-.538 7.15 7.15 0 0 1 3.353-.839c.813 0 2.054.146 3.353.839.207.11.35.309.387.538Z"/>
    </symbol>
    <symbol id="meeting" viewBox="0 0 24 24">
      <path fill="currentColor" d="M14.25 5.25a2.25 2.25 0 1 1-4.5 0 2.25 2.25 0 0 1 4.5 0ZM9 12.75a2.25 2.25 0 1 1-4.5 0 2.25 2.25 0 0 1 4.5 0Zm-2.25 3A3.754 3.754 0 0 0 3 19.5c0 .414.336.75.75.75h6a.75.75 0 0 0 .75-.75 3.754 3.754 0 0 0-3.75-3.75Zm12.75-3a2.25 2.25 0 1 1-4.5 0 2.25 2.25 0 0 1 4.5 0Zm-6 0c0-1.22.594-2.293 1.498-2.979A3.736 3.736 0 0 0 12 8.25c-1.23 0-2.314.603-2.998 1.521A3.735 3.735 0 0 1 10.5 12.75h3Zm0 6.75a3.754 3.754 0 0 1 3.75-3.75A3.754 3.754 0 0 1 21 19.5a.75.75 0 0 1-.75.75h-6a.75.75 0 0 1-.75-.75Z"/>
    </symbol>
    <symbol id="office-badge" viewBox="0 0 24 24">
      <path fill="currentColor" d="M18.75 4.5H18a.75.75 0 0 0-.75.75c0 .827-.673 1.5-1.5 1.5s-1.5-.673-1.5-1.5a.75.75 0 0 0-.75-.75h-3a.75.75 0 0 0-.75.75c0 .827-.673 1.5-1.5 1.5s-1.5-.673-1.5-1.5A.75.75 0 0 0 6 4.5h-.75C4.01 4.5 3 5.51 3 6.75v10.5c0 1.24 1.01 2.25 2.25 2.25h13.5c1.24 0 2.25-1.01 2.25-2.25V6.75c0-1.24-1.01-2.25-2.25-2.25ZM8.625 9a1.5 1.5 0 1 1 0 3 1.5 1.5 0 0 1 0-3Zm2.12 6.75h-4.24c-.501 0-.883-.489-.722-.964a3 3 0 0 1 5.684 0c.16.475-.22.964-.722.964ZM18 14.625a.375.375 0 0 1-.375.375h-4.5a.375.375 0 0 1-.375-.375v-.75c0-.207.168-.375.375-.375h4.5c.207 0 .375.168.375.375v.75Zm0-3a.375.375 0 0 1-.375.375h-4.5a.375.375 0 0 1-.375-.375v-.75c0-.207.168-.375.375-.375h4.5c.207 0 .375.168.375.375v.75Z"/>
    </symbol>
    <symbol id="user" viewBox="0 0 24 24">
      <path fill="currentColor" d="M7.875 7.125A4.13 4.13 0 0 0 12 11.25a4.13 4.13 0 0 0 4.125-4.125A4.13 4.13 0 0 0 12 3a4.13 4.13 0 0 0-4.125 4.125ZM4.5 20.25c0 .414.336.75.75.75h13.5a.75.75 0 0 0 .75-.75c0-4.136-3.364-7.5-7.5-7.5s-7.5 3.364-7.5 7.5Z"/>
    </symbol>
    <symbol id="user-c-frame" viewBox="0 0 24 24">
      <path fill="currentColor" d="M12 3a9 9 0 1 0 0 18 9 9 0 0 0 0-18Zm0 4.5a2.625 2.625 0 1 1 0 5.25 2.625 2.625 0 0 1 0-5.25Zm0 12c-1.88 0-3.595-.7-4.912-1.846A5.25 5.25 0 0 1 12 14.25a5.25 5.25 0 0 1 4.913 3.404A7.463 7.463 0 0 1 12 19.5Z"/>
    </symbol>
    <symbol id="user-check" viewBox="0 0 24 24">
      <path fill="currentColor" d="M10.5 11.25a4.125 4.125 0 1 0 0-8.25 4.125 4.125 0 0 0 0 8.25Zm0 5.25a5.96 5.96 0 0 1 1.24-3.638 7.52 7.52 0 0 0-1.24-.112c-4.136 0-7.5 3.364-7.5 7.5 0 .415.336.75.75.75h8.794a5.982 5.982 0 0 1-2.044-4.5Z"/>
      <path fill="currentColor" d="M12 16.5a4.5 4.5 0 1 1 9 0 4.5 4.5 0 0 1-9 0Zm4.28 2.03 3-3a.75.75 0 1 0-1.06-1.06l-2.47 2.47-.97-.97a.75.75 0 1 0-1.06 1.06l1.5 1.5a.748.748 0 0 0 1.06 0Z"/>
    </symbol>
    <symbol id="user-create" viewBox="0 0 24 24">
      <path fill="currentColor" d="M10.5 11.25a4.125 4.125 0 1 0 0-8.25 4.125 4.125 0 0 0 0 8.25Zm0 5.25a5.96 5.96 0 0 1 1.24-3.638 7.52 7.52 0 0 0-1.24-.112c-4.136 0-7.5 3.364-7.5 7.5 0 .415.336.75.75.75h8.794a5.982 5.982 0 0 1-2.044-4.5Z"/>
      <path fill="currentColor" d="M12 16.5a4.5 4.5 0 1 1 9 0 4.5 4.5 0 0 1-9 0Zm5.25.75h1.875a.375.375 0 0 0 .375-.375v-.75a.375.375 0 0 0-.375-.375H17.25v-1.875a.375.375 0 0 0-.375-.375h-.75a.375.375 0 0 0-.375.375v1.875h-1.875a.375.375 0 0 0-.375.375v.75c0 .207.168.375.375.375h1.875v1.875c0 .207.168.375.375.375h.75a.375.375 0 0 0 .375-.375V17.25Z"/>
    </symbol>
    <symbol id="user-delete-cross" viewBox="0 0 24 24">
      <path fill="currentColor" d="M10.5 11.25a4.125 4.125 0 1 0 0-8.25 4.125 4.125 0 0 0 0 8.25Zm1.757 9.492c-2.148-2.148-2.318-5.53-.52-7.881a7.47 7.47 0 0 0-1.237-.111c-4.136 0-7.5 3.364-7.5 7.5 0 .415.336.75.75.75h8.791a26.31 26.31 0 0 0-.057-.05l-.001-.001a4.395 4.395 0 0 1-.226-.207Z"/>
      <path fill="currentColor" d="M13.318 13.318a4.5 4.5 0 1 1 6.364 6.364 4.5 4.5 0 0 1-6.364-6.364Zm3.181 4.243 1.326 1.326a.375.375 0 0 0 .53 0l.53-.53a.375.375 0 0 0 0-.531L17.56 16.5l1.326-1.326a.375.375 0 0 0 0-.53l-.53-.53a.375.375 0 0 0-.53 0l-1.327 1.325-1.326-1.325a.375.375 0 0 0-.53 0l-.53.53a.375.375 0 0 0 0 .53l1.326 1.326-1.326 1.326a.375.375 0 0 0 0 .53l.53.53a.375.375 0 0 0 .53 0l1.326-1.325Z"/>
    </symbol>
    <symbol id="user-delete-line" viewBox="0 0 24 24">
      <path fill="currentColor" d="M10.5 11.25a4.125 4.125 0 1 0 0-8.25 4.125 4.125 0 0 0 0 8.25Zm0 5.25a5.96 5.96 0 0 1 1.24-3.638 7.52 7.52 0 0 0-1.24-.112c-4.136 0-7.5 3.364-7.5 7.5 0 .415.336.75.75.75h8.794a5.982 5.982 0 0 1-2.044-4.5Z"/>
      <path fill="currentColor" d="M12 16.5a4.5 4.5 0 1 1 9 0 4.5 4.5 0 0 1-9 0Zm1.5.375c0 .207.168.375.375.375h5.25a.375.375 0 0 0 .375-.375v-.75a.375.375 0 0 0-.375-.375h-5.25a.375.375 0 0 0-.375.375v.75Z"/>
    </symbol>
    <symbol id="user-edit" viewBox="0 0 24 24">
      <path fill="currentColor" d="M10.5 11.25a4.125 4.125 0 1 0 0-8.25 4.125 4.125 0 0 0 0 8.25Zm.098 8.781 1.124-3.374a1.89 1.89 0 0 1 .454-.733l2.127-2.127A7.444 7.444 0 0 0 10.5 12.75c-4.136 0-7.5 3.364-7.5 7.5 0 .415.336.75.75.75h6.793a1.866 1.866 0 0 1 .055-.969Zm7.047-7.455a1.97 1.97 0 0 1 2.78 0 1.97 1.97 0 0 1 0 2.78l-4.409 4.41a.363.363 0 0 1-.146.09l-3.375 1.125a.372.372 0 0 1-.384-.09.375.375 0 0 1-.09-.384l1.124-3.376a.38.38 0 0 1 .091-.146l4.41-4.409Z"/>
    </symbol>
    <symbol id="user-focus" viewBox="0 0 24 24">
      <path fill="currentColor" d="M4.5 9.75A.75.75 0 0 1 3.75 9V6c0-1.24 1.01-2.25 2.25-2.25h3a.75.75 0 0 1 0 1.5H6a.751.751 0 0 0-.75.75v3a.75.75 0 0 1-.75.75Zm4.875-1.125A2.628 2.628 0 0 0 12 11.25a2.628 2.628 0 0 0 2.625-2.625A2.628 2.628 0 0 0 12 6a2.628 2.628 0 0 0-2.625 2.625Zm-1.5 7.875c0 .414.336.75.75.75h6.75a.75.75 0 0 0 .75-.75v-.375A4.13 4.13 0 0 0 12 12a4.13 4.13 0 0 0-4.125 4.125v.375ZM18.75 9a.75.75 0 0 0 1.5 0V6c0-1.24-1.01-2.25-2.25-2.25h-3a.75.75 0 0 0 0 1.5h3c.413 0 .75.337.75.75v3ZM18 20.25h-3a.75.75 0 0 1 0-1.5h3c.413 0 .75-.337.75-.75v-3a.75.75 0 0 1 1.5 0v3c0 1.24-1.01 2.25-2.25 2.25Zm-12 0h3a.75.75 0 0 0 0-1.5H6a.751.751 0 0 1-.75-.75v-3a.75.75 0 0 0-1.5 0v3c0 1.24 1.01 2.25 2.25 2.25Z"/>
    </symbol>
    <symbol id="user-location" viewBox="0 0 24 24">
      <path fill="currentColor" d="M10.5 11.25a4.125 4.125 0 1 0 0-8.25 4.125 4.125 0 0 0 0 8.25Zm1.5 4.362c0-.972.249-1.824.665-2.541a7.482 7.482 0 0 0-2.165-.322C6.364 12.75 3 16.114 3 20.25c0 .415.336.75.75.75h11.089C13.672 19.729 12 17.568 12 15.612Z"/>
      <path fill="currentColor" d="M13.5 15.612c0-2.26 1.906-3.612 3.75-3.612 1.843 0 3.75 1.35 3.75 3.612 0 2.038-2.902 4.865-3.233 5.18a.747.747 0 0 1-1.034 0c-.332-.316-3.233-3.142-3.233-5.18Zm2.25.138a1.5 1.5 0 1 0 3 0 1.5 1.5 0 0 0-3 0Z"/>
    </symbol>
    <symbol id="user-s-frame" viewBox="0 0 24 24">
      <path fill="currentColor" d="M18 3.75H6C4.76 3.75 3.75 4.76 3.75 6v12c0 1.24 1.01 2.25 2.25 2.25h12c1.24 0 2.25-1.01 2.25-2.25V6c0-1.24-1.01-2.25-2.25-2.25Zm-6 3A2.625 2.625 0 1 1 12 12a2.625 2.625 0 0 1 0-5.25Zm4.435 12h-8.87c-.454 0-.82-.404-.746-.852a5.251 5.251 0 0 1 10.362 0c.073.448-.293.852-.746.852Z"/>
    </symbol>
    <symbol id="user-search" viewBox="0 0 24 24">
      <path fill="currentColor" d="M10.5 11.25a4.125 4.125 0 1 0 0-8.25 4.125 4.125 0 0 0 0 8.25ZM12 16.5c0-1.246.51-2.375 1.331-3.191a7.457 7.457 0 0 0-2.831-.559c-4.136 0-7.5 3.364-7.5 7.5 0 .415.336.75.75.75H16.5a4.504 4.504 0 0 1-4.5-4.5Z"/>
      <path fill="currentColor" d="m19.075 18.014 1.705 1.706a.75.75 0 1 1-1.06 1.06l-1.706-1.705a2.959 2.959 0 0 1-1.514.425c-1.655 0-3-1.346-3-3 0-1.655 1.345-3 3-3 1.654 0 3 1.345 3 3a2.97 2.97 0 0 1-.425 1.514ZM16.5 15c-.827 0-1.5.673-1.5 1.5s.673 1.5 1.5 1.5 1.5-.673 1.5-1.5-.673-1.5-1.5-1.5Z"/>
    </symbol>
    <symbol id="user-star" viewBox="0 0 24 24">
      <path fill="currentColor" d="M10.5 11.25a4.125 4.125 0 1 0 0-8.25 4.125 4.125 0 0 0 0 8.25Zm1.898 9.057.298-1.741-1.266-1.235a1.886 1.886 0 0 1-.475-1.921 1.887 1.887 0 0 1 1.513-1.278l1.75-.253.05-.103a7.442 7.442 0 0 0-3.769-1.027C6.364 12.75 3 16.114 3 20.25c0 .415.336.75.75.75h8.676a1.836 1.836 0 0 1-.028-.693Z"/>
      <path fill="currentColor" d="M20.68 15.617a.376.376 0 0 1 .207.64l-1.83 1.785.433 2.52a.374.374 0 0 1-.544.394l-2.263-1.19-2.263 1.19a.37.37 0 0 1-.394-.029.373.373 0 0 1-.15-.366l.433-2.519-1.83-1.784a.374.374 0 0 1 .207-.64l2.53-.367 1.131-2.293c.125-.255.546-.255.672 0l1.132 2.293 2.529.366Z"/>
    </symbol>
    <symbol id="users" viewBox="0 0 24 24">
      <path fill="currentColor" d="M18 6a3 3 0 1 1-6 0 3 3 0 0 1 6 0Zm-6 4.5a3 3 0 1 1-6 0 3 3 0 0 1 6 0Zm3 0c-.52 0-1.025.072-1.51.2a4.49 4.49 0 0 1-1.723 3.341 7.588 7.588 0 0 1 3.209 2.459h5.216a.752.752 0 0 0 .742-.857C20.512 12.711 17.961 10.5 15 10.5ZM3.067 20.143C3.488 17.212 6.039 15 9 15s5.512 2.211 5.933 5.143a.753.753 0 0 1-.742.857H3.809a.751.751 0 0 1-.742-.857Z"/>
    </symbol>
    <symbol id="users-meeting" viewBox="0 0 24 24">
      <path fill="currentColor" d="M20.25 3H12a.75.75 0 0 0-.75.75v6.112c0 .708.893 1.022 1.336.469L14.25 8.25h6A.75.75 0 0 0 21 7.5V3.75a.75.75 0 0 0-.75-.75ZM7.125 15.75A4.13 4.13 0 0 0 3 19.875v.375c0 .414.335.75.75.75h6.75a.75.75 0 0 0 .75-.75v-.375a4.13 4.13 0 0 0-4.125-4.125Zm2.625-3.375a2.625 2.625 0 1 1-5.25 0 2.625 2.625 0 0 1 5.25 0Zm7.125 3.375a4.13 4.13 0 0 0-4.125 4.125v.375c0 .414.335.75.75.75h6.75a.75.75 0 0 0 .75-.75v-.375a4.13 4.13 0 0 0-4.125-4.125Z"/>
      <path fill="currentColor" d="M19.5 12.375a2.625 2.625 0 1 1-5.25 0 2.625 2.625 0 0 1 5.25 0Z"/>
    </symbol>
    <symbol id="woman" viewBox="0 0 24 24">
      <path fill="currentColor" d="M14.625 5.625a2.625 2.625 0 1 1-5.25 0 2.625 2.625 0 0 1 5.25 0ZM13.17 9c.969 0 1.827.618 2.134 1.538l1.908 5.724a.752.752 0 0 1-.711.987H15v3a.75.75 0 0 1-.75.75h-4.5a.75.75 0 0 1-.75-.75v-3H7.5a.75.75 0 0 1-.712-.987l1.908-5.724A2.247 2.247 0 0 1 10.832 9h2.337Z"/>
    </symbol>
  </defs>
</svg>
