<svg xmlns="http://www.w3.org/2000/svg">
  <defs>
    <symbol id="a-chart" viewBox="0 0 24 24">
      <path fill="currentColor" fill-rule="evenodd" d="M10.5 3.75a.75.75 0 0 0-.75.75v2.292c-3.364.375-6 3.247-6 6.708 0 3.714 3.036 6.75 6.75 6.75a6.78 6.78 0 0 0 5.1-2.337l1.9 1.305a.75.75 0 0 0 1.044-.195A9.868 9.868 0 0 0 20.25 13.5c0-5.364-4.386-9.75-9.75-9.75Zm5.508 12.623a.749.749 0 0 0-.29-.199l-4.468-3.069v-7.82c4.188.381 7.5 3.932 7.5 8.215a8.39 8.39 0 0 1-1.049 4.036l-1.694-1.163ZM9.75 8.303V13.5a.75.75 0 0 0 .325.618l4.28 2.94A5.286 5.286 0 0 1 10.5 18.75c-2.886 0-5.25-2.364-5.25-5.25 0-2.631 1.966-4.829 4.5-5.196Z"/>
    </symbol>
    <symbol id="a-chat" viewBox="0 0 24 24">
      <path fill="currentColor" fill-rule="evenodd" d="M3 6a2.25 2.25 0 0 1 2.25-2.25h13.5A2.25 2.25 0 0 1 21 6v8.25a2.25 2.25 0 0 1-2.25 2.25h-5.76l-5.054 3.61a.75.75 0 0 1-1.186-.61v-3h-1.5A2.25 2.25 0 0 1 3 14.25V6Zm2.25-.75A.75.75 0 0 0 4.5 6v8.25c0 .415.335.75.75.75H7.5a.75.75 0 0 1 .75.75v2.293l4.064-2.903a.75.75 0 0 1 .436-.14h6a.75.75 0 0 0 .75-.75V6a.75.75 0 0 0-.75-.75H5.25Z"/>
    </symbol>
    <symbol id="add" viewBox="0 0 24 24">
      <path fill="currentColor" d="M12.75 4.5a.75.75 0 0 0-1.5 0v6.75H4.5a.75.75 0 0 0 0 1.5h6.75v6.75a.75.75 0 0 0 1.5 0v-6.75h6.75a.75.75 0 0 0 0-1.5h-6.75V4.5Z"/>
    </symbol>
    <symbol id="add-notification" viewBox="0 0 24 24">
      <path fill="currentColor" d="M17.25 3a.75.75 0 0 1 .75.75V6h2.25a.75.75 0 0 1 0 1.5H18v2.25a.75.75 0 0 1-1.5 0V7.5h-2.25a.75.75 0 0 1 0-1.5h2.25V3.75a.75.75 0 0 1 .75-.75ZM6 7.5a.75.75 0 0 0-.75.75V18c0 .415.335.75.75.75h9.75a.75.75 0 0 0 .75-.75v-4.5a.75.75 0 0 1 1.5 0V18a2.25 2.25 0 0 1-2.25 2.25H6A2.25 2.25 0 0 1 3.75 18V8.25A2.25 2.25 0 0 1 6 6h4.5a.75.75 0 0 1 0 1.5H6Z"/>
    </symbol>
    <symbol id="add-sm" viewBox="0 0 24 24">
      <path fill="currentColor" d="M12.75 8.25a.75.75 0 0 0-1.5 0v3h-3a.75.75 0 0 0 0 1.5h3v3a.75.75 0 0 0 1.5 0v-3h3a.75.75 0 0 0 0-1.5h-3v-3Z"/>
    </symbol>
    <symbol id="alarm" viewBox="0 0 24 24">
      <path fill="currentColor" fill-rule="evenodd" d="M12 3a6 6 0 0 0-6 6v3.745a9.626 9.626 0 0 1-1.392 4.867.75.75 0 0 0 .642 1.138h13.5a.75.75 0 0 0 .642-1.139A9.626 9.626 0 0 1 18 12.745V9a6 6 0 0 0-6-6ZM8.818 5.818A4.5 4.5 0 0 1 16.5 9v3.759a11.126 11.126 0 0 0 1.006 4.491H6.494A11.125 11.125 0 0 0 7.5 12.759V9a4.5 4.5 0 0 1 1.318-3.182Z"/>
      <path fill="currentColor" d="M10.703 20.584a2.25 2.25 0 0 1-.822-1.084h4.239a2.25 2.25 0 0 1-3.417 1.084Z"/>
    </symbol>
    <symbol id="alarm-disable" viewBox="0 0 24 24">
      <path fill="currentColor" fill-rule="evenodd" d="M14.485 3.542A6 6 0 0 0 6 9.005v3.745a9.625 9.625 0 0 1-1.34 4.779l-.69.69a.75.75 0 1 0 1.06 1.061l.698-.697a.744.744 0 0 0 .1-.1l11.34-11.341a.727.727 0 0 0 .047-.047L19.28 5.03a.75.75 0 0 0-1.06-1.06l-1.426 1.425a6 6 0 0 0-2.31-1.853Zm1.234 2.928A4.5 4.5 0 0 0 7.5 9.004v3.76a11.13 11.13 0 0 1-.24 2.165l8.46-8.46Z"/>
      <path fill="currentColor" d="M18 9.75a.75.75 0 0 0-1.5 0v3.013a11.126 11.126 0 0 0 1.006 4.49L9 17.25a.75.75 0 1 0 0 1.5l9.75.005a.75.75 0 0 0 .642-1.139A9.626 9.626 0 0 1 18 12.75v-3Zm-8.12 9.755a2.25 2.25 0 0 0 4.24 0H9.88Z"/>
    </symbol>
    <symbol id="archive-drawer" viewBox="0 0 24 24">
      <path fill="currentColor" d="M8.25 3.75A.75.75 0 0 1 9 3h6a.75.75 0 0 1 0 1.5H9a.75.75 0 0 1-.75-.75ZM6.75 6a.75.75 0 0 0 0 1.5h10.5a.75.75 0 0 0 0-1.5H6.75Zm3 7.5a.75.75 0 0 0-1.5 0V15c0 .414.336.75.75.75h6a.75.75 0 0 0 .75-.75v-1.5a.75.75 0 0 0-1.5 0v.75h-4.5v-.75Z"/>
      <path fill="currentColor" fill-rule="evenodd" d="M4.5 9a.75.75 0 0 0-.75.75v10.5c0 .414.336.75.75.75h15a.75.75 0 0 0 .75-.75V9.75A.75.75 0 0 0 19.5 9h-15Zm.75 10.5v-9h13.5v9H5.25Z"/>
    </symbol>
    <symbol id="b-comment" viewBox="0 0 24 24">
      <path fill="currentColor" fill-rule="evenodd" d="M11.25 3C6.858 3 3 5.875 3 9.75c0 1.463.572 2.795 1.5 3.876v3.624a.75.75 0 0 0 1.085.67l3.376-1.687a9.947 9.947 0 0 0 2.289.267c4.392 0 8.25-2.875 8.25-6.75S15.642 3 11.25 3ZM4.5 9.75c0-2.752 2.857-5.25 6.75-5.25S18 6.998 18 9.75 15.143 15 11.25 15a8.451 8.451 0 0 1-2.182-.287.75.75 0 0 0-.529.054L6 16.037v-2.698a.75.75 0 0 0-.203-.513C4.97 11.942 4.5 10.88 4.5 9.75Z"/>
      <path fill="currentColor" d="M20.897 12.584a.75.75 0 0 0-1.462.332c.043.19.065.384.065.584 0 .874-.434 1.716-1.236 2.399a.75.75 0 0 0-.264.571v1.817l-2.128-1.064a.75.75 0 0 0-.457-.07 7.174 7.174 0 0 1-1.165.097 6.981 6.981 0 0 1-2.031-.296.75.75 0 0 0-.438 1.435 8.615 8.615 0 0 0 3.632.281l3.002 1.5a.75.75 0 0 0 1.085-.67v-2.698c.911-.875 1.5-2.016 1.5-3.302a4.11 4.11 0 0 0-.103-.916Z"/>
    </symbol>
    <symbol id="ban" viewBox="0 0 24 24">
      <path fill="currentColor" fill-rule="evenodd" d="M5.5 18.226a.75.75 0 0 0 .274.273A9 9 0 0 0 18.5 5.774a.755.755 0 0 0-.273-.273A9 9 0 0 0 5.5 18.226ZM4.5 12a7.5 7.5 0 0 1 12.247-5.807L6.193 16.747A7.47 7.47 0 0 1 4.5 12Zm13.307-4.747A7.5 7.5 0 0 1 7.253 17.807L17.807 7.253Z"/>
    </symbol>
    <symbol id="book" viewBox="0 0 24 24">
      <path fill="currentColor" fill-rule="evenodd" d="M7.875 3.75c-1.223 0-2.381.263-3.261.736C3.76 4.946 3 5.708 3 6.75V19.5a.75.75 0 0 0 1.5 0c0-.233.178-.595.824-.942.62-.334 1.524-.558 2.551-.558 1.027 0 1.931.224 2.551.558.646.347.824.709.824.942a.75.75 0 0 0 1.5 0c0-.233.178-.595.824-.942.62-.334 1.524-.558 2.551-.558 1.027 0 1.931.224 2.551.558.646.347.824.709.824.942a.75.75 0 0 0 1.5 0V6.75c0-1.042-.76-1.805-1.614-2.264-.88-.473-2.038-.736-3.261-.736-1.223 0-2.381.263-3.261.736-.312.168-.61.375-.864.622a3.873 3.873 0 0 0-.864-.622c-.88-.473-2.038-.736-3.261-.736ZM4.614 17.236 4.5 17.3V6.75c0-.233.178-.595.824-.943.62-.333 1.524-.557 2.551-.557 1.027 0 1.931.224 2.551.557.646.348.824.71.824.943V17.3a4.24 4.24 0 0 0-.114-.064c-.88-.473-2.038-.736-3.261-.736-1.223 0-2.381.263-3.261.736Zm8.136.063a4.24 4.24 0 0 1 .114-.063c.88-.473 2.038-.736 3.261-.736 1.223 0 2.381.263 3.261.736l.114.063V6.75c0-.233-.178-.595-.824-.943-.62-.333-1.524-.557-2.551-.557-1.027 0-1.931.224-2.551.557-.646.348-.824.71-.824.943V17.3Z"/>
    </symbol>
    <symbol id="c-add" viewBox="0 0 24 24">
      <path fill="currentColor" d="M12 7.5a.75.75 0 0 1 .75.75v3h3a.75.75 0 0 1 0 1.5h-3v3a.75.75 0 0 1-1.5 0v-3h-3a.75.75 0 0 1 0-1.5h3v-3A.75.75 0 0 1 12 7.5Z"/>
      <path fill="currentColor" fill-rule="evenodd" d="M12 3a9 9 0 1 0 0 18 9 9 0 0 0 0-18Zm-7.5 9a7.5 7.5 0 1 1 15 0 7.5 7.5 0 0 1-15 0Z"/>
    </symbol>
    <symbol id="c-check" viewBox="0 0 24 24">
      <path fill="currentColor" d="M17.03 9.53a.75.75 0 0 0-1.06-1.06l-5.47 5.47-2.47-2.47a.75.75 0 0 0-1.06 1.06l3 3a.75.75 0 0 0 1.06 0l6-6Z"/>
      <path fill="currentColor" fill-rule="evenodd" d="M12 3a9 9 0 1 0 0 18 9 9 0 0 0 0-18Zm-7.5 9a7.5 7.5 0 1 1 15 0 7.5 7.5 0 0 1-15 0Z"/>
    </symbol>
    <symbol id="c-delete" viewBox="0 0 24 24">
      <path fill="currentColor" d="M8.25 11.25a.75.75 0 0 0 0 1.5h7.5a.75.75 0 0 0 0-1.5h-7.5Z"/>
      <path fill="currentColor" fill-rule="evenodd" d="M12 3a9 9 0 1 0 0 18 9 9 0 0 0 0-18Zm-7.5 9a7.5 7.5 0 1 1 15 0 7.5 7.5 0 0 1-15 0Z"/>
    </symbol>
    <symbol id="c-info" viewBox="0 0 24 24">
      <path fill="currentColor" d="M12 10.5a.75.75 0 0 1 .75.75v4.5a.75.75 0 0 1-1.5 0v-4.5a.75.75 0 0 1 .75-.75Zm.75-2.25a.75.75 0 1 1-1.5 0 .75.75 0 0 1 1.5 0Z"/>
      <path fill="currentColor" fill-rule="evenodd" d="M3 12a9 9 0 1 1 18 0 9 9 0 0 1-18 0Zm9-7.5a7.5 7.5 0 1 0 0 15 7.5 7.5 0 0 0 0-15Z"/>
    </symbol>
    <symbol id="c-question" viewBox="0 0 24 24">
      <path fill="currentColor" d="M12 17.25a.75.75 0 1 0 0-1.5.75.75 0 0 0 0 1.5Zm-1.307-8.644c.633-.28 1.357-.4 1.969-.342.63.06.999.285 1.152.534.373.602.226 1.442-.768 2.284-1.112.942-1.796 1.663-1.796 2.793a.75.75 0 0 0 1.5 0c0-.37.127-.684 1.266-1.649 1.255-1.064 2.015-2.695 1.075-4.216-.503-.814-1.423-1.158-2.289-1.24-.884-.082-1.864.088-2.715.464a.75.75 0 1 0 .606 1.372Z"/>
      <path fill="currentColor" fill-rule="evenodd" d="M3 12a9 9 0 1 1 18 0 9 9 0 0 1-18 0Zm9-7.5a7.5 7.5 0 1 0 0 15 7.5 7.5 0 0 0 0-15Z"/>
    </symbol>
    <symbol id="c-remove" viewBox="0 0 24 24">
      <path fill="currentColor" d="M15.53 8.47a.75.75 0 0 1 0 1.06L13.06 12l2.47 2.47a.75.75 0 1 1-1.06 1.06L12 13.06l-2.47 2.47a.75.75 0 0 1-1.06-1.06L10.94 12 8.47 9.53a.75.75 0 0 1 1.06-1.06L12 10.94l2.47-2.47a.75.75 0 0 1 1.06 0Z"/>
      <path fill="currentColor" fill-rule="evenodd" d="M12 3a9 9 0 1 0 0 18 9 9 0 0 0 0-18Zm-7.5 9a7.5 7.5 0 1 1 15 0 7.5 7.5 0 0 1-15 0Z"/>
    </symbol>
    <symbol id="c-warning" viewBox="0 0 24 24">
      <path fill="currentColor" d="M12 7.5a.75.75 0 0 1 .75.75v4.5a.75.75 0 0 1-1.5 0v-4.5A.75.75 0 0 1 12 7.5Zm.75 8.25a.75.75 0 1 1-1.5 0 .75.75 0 0 1 1.5 0Z"/>
      <path fill="currentColor" fill-rule="evenodd" d="M3 12a9 9 0 1 1 18 0 9 9 0 0 1-18 0Zm9-7.5a7.5 7.5 0 1 0 0 15 7.5 7.5 0 0 0 0-15Z"/>
    </symbol>
    <symbol id="calendar" viewBox="0 0 24 24">
      <path fill="currentColor" fill-rule="evenodd" d="M9 3.75a.75.75 0 0 0-1.5 0v1.5H3.75A.75.75 0 0 0 3 6v13.5c0 .414.336.75.75.75h16.5a.75.75 0 0 0 .75-.75V6a.75.75 0 0 0-.75-.75H16.5v-1.5a.75.75 0 0 0-1.5 0v1.5H9v-1.5Zm-4.5 3v1.5h15v-1.5h-15Zm15 3h-15v9h15v-9Z"/>
    </symbol>
    <symbol id="cart-add" viewBox="0 0 24 24">
      <path fill="currentColor" d="M4.28 3.22a.75.75 0 0 0-1.06 1.06l2.03 2.03v7.013l-1.42 2.842a.75.75 0 0 0 .67 1.085h15.75a.75.75 0 0 0 0-1.5H5.714l.75-1.5H17.25a.75.75 0 0 0 .75-.75v-2.25a.75.75 0 0 0-1.5 0v1.5H6.75v-6H12a.75.75 0 0 0 0-1.5H6.31L4.28 3.22ZM7.5 19.5a1.5 1.5 0 1 1-3 0 1.5 1.5 0 0 1 3 0ZM18 21a1.5 1.5 0 1 0 0-3 1.5 1.5 0 0 0 0 3Zm-.75-18a.75.75 0 0 1 .75.75v1.5h1.5a.75.75 0 0 1 0 1.5H18v1.5a.75.75 0 0 1-1.5 0v-1.5H15a.75.75 0 0 1 0-1.5h1.5v-1.5a.75.75 0 0 1 .75-.75Z"/>
    </symbol>
    <symbol id="check" viewBox="0 0 24 24">
      <path fill="currentColor" d="M20.03 6.97a.75.75 0 0 1 0 1.06l-9.75 9.75a.75.75 0 0 1-1.06 0l-5.25-5.25a.75.75 0 1 1 1.06-1.06l4.72 4.72 9.22-9.22a.75.75 0 0 1 1.06 0Z"/>
    </symbol>
    <symbol id="check-double" viewBox="0 0 24 24">
      <path fill="currentColor" d="M15.576 7.23a.75.75 0 0 0-1.152-.96L7.45 14.639l-2.42-2.42a.75.75 0 0 0-1.06 1.061l3 3a.75.75 0 0 0 1.106-.05l7.5-9Zm4.5 0a.75.75 0 0 0-1.152-.96l-6.974 8.369-.17-.17a.75.75 0 1 0-1.06 1.061l.75.75a.75.75 0 0 0 1.106-.05l7.5-9Z"/>
    </symbol>
    <symbol id="check-sm" viewBox="0 0 24 24">
      <path fill="currentColor" d="M17.03 8.47a.75.75 0 0 1 0 1.06l-6 6a.75.75 0 0 1-1.06 0l-3-3a.75.75 0 1 1 1.06-1.06l2.47 2.47 5.47-5.47a.75.75 0 0 1 1.06 0Z"/>
    </symbol>
    <symbol id="checkbox-btn" viewBox="0 0 24 24">
      <path fill="currentColor" fill-rule="evenodd" d="M4.409 4.409A2.25 2.25 0 0 1 6 3.75h12A2.25 2.25 0 0 1 20.25 6v12A2.25 2.25 0 0 1 18 20.25H6A2.25 2.25 0 0 1 3.75 18V6c0-.597.237-1.169.659-1.591ZM6 5.25a.75.75 0 0 0-.75.75v12a.75.75 0 0 0 .75.75h12a.75.75 0 0 0 .75-.75V6a.75.75 0 0 0-.75-.75H6Z"/>
    </symbol>
    <symbol id="checkbox-btn-checked" viewBox="0 0 24 24">
      <path fill="currentColor" d="M17.03 8.78a.75.75 0 0 0-1.06-1.06l-6.22 6.22-1.72-1.72a.75.75 0 0 0-1.06 1.06l2.25 2.25a.75.75 0 0 0 1.06 0l6.75-6.75Z"/>
      <path fill="currentColor" fill-rule="evenodd" d="M6 3.75A2.25 2.25 0 0 0 3.75 6v12A2.25 2.25 0 0 0 6 20.25h12A2.25 2.25 0 0 0 20.25 18V6A2.25 2.25 0 0 0 18 3.75H6Zm-.53 1.72A.75.75 0 0 1 6 5.25h12a.75.75 0 0 1 .75.75v12a.75.75 0 0 1-.75.75H6a.75.75 0 0 1-.75-.75V6a.75.75 0 0 1 .22-.53Z"/>
    </symbol>
    <symbol id="checkbox-btn-indeterminate" viewBox="0 0 24 24">
      <path fill="currentColor" d="M8.25 11.25a.75.75 0 0 0 0 1.5h7.5a.75.75 0 0 0 0-1.5h-7.5Z"/>
      <path fill="currentColor" fill-rule="evenodd" d="M6 3.75A2.25 2.25 0 0 0 3.75 6v12A2.25 2.25 0 0 0 6 20.25h12A2.25 2.25 0 0 0 20.25 18V6A2.25 2.25 0 0 0 18 3.75H6ZM5.25 6A.75.75 0 0 1 6 5.25h12a.75.75 0 0 1 .75.75v12a.75.75 0 0 1-.75.75H6a.75.75 0 0 1-.75-.75V6Z"/>
    </symbol>
    <symbol id="clock" viewBox="0 0 24 24">
      <path fill="currentColor" d="M12.75 7.5a.75.75 0 0 0-1.5 0V12c0 .414.336.75.75.75h4.5a.75.75 0 0 0 0-1.5h-3.75V7.5Z"/>
      <path fill="currentColor" fill-rule="evenodd" d="M12 3a9 9 0 1 0 0 18 9 9 0 0 0 0-18Zm-7.5 9a7.5 7.5 0 1 1 15 0 7.5 7.5 0 0 1-15 0Z"/>
    </symbol>
    <symbol id="comment" viewBox="0 0 24 24">
      <path fill="currentColor" fill-rule="evenodd" d="M3 11.25c0-4.298 4.159-7.5 9-7.5 4.84 0 9 3.202 9 7.5 0 1.764-.75 3.347-1.915 4.614l.41 3.55a.75.75 0 0 1-1.028.78l-4.187-1.703c-.753.195-1.499.259-2.28.259-4.841 0-9-3.202-9-7.5Zm9-6c-4.31 0-7.5 2.798-7.5 6s3.191 6 7.5 6c.779 0 1.451-.07 2.11-.268a.75.75 0 0 1 .498.023l3.252 1.323-.305-2.642a.75.75 0 0 1 .215-.616c1.09-1.091 1.73-2.41 1.73-3.82 0-3.202-3.19-6-7.5-6Z"/>
    </symbol>
    <symbol id="d-edit" viewBox="0 0 24 24">
      <path fill="currentColor" fill-rule="evenodd" d="M17.782 9.529 19.5 7.811a1.5 1.5 0 0 0 0-2.122L18.31 4.5a1.5 1.5 0 0 0-2.12 0l-7.72 7.72a.75.75 0 0 0-.198.35l-.75 3a.75.75 0 0 0 .91.909l3-.75a.75.75 0 0 0 .348-.198l6-6 .002-.001Zm.657-2.779L17.25 5.56l-1.19 1.19 1.19 1.19 1.19-1.19ZM16.19 9 15 7.81l-5.323 5.323-.396 1.586 1.586-.396L16.189 9Z"/>
      <path fill="currentColor" d="M3.75 8.25A2.25 2.25 0 0 1 6 6h3.75a.75.75 0 0 1 0 1.5H6a.75.75 0 0 0-.75.75V18c0 .415.335.75.75.75h9.75a.75.75 0 0 0 .75-.75v-3.75a.75.75 0 0 1 1.5 0V18a2.25 2.25 0 0 1-2.25 2.25H6A2.25 2.25 0 0 1 3.75 18V8.25Z"/>
    </symbol>
    <symbol id="dashboard" viewBox="0 0 24 24">
      <path fill="currentColor" fill-rule="evenodd" d="M3.304 14.328a.75.75 0 0 0 .07.246 9.004 9.004 0 0 0 17.252 0 .745.745 0 0 0 .07-.246 9 9 0 1 0-17.392 0ZM4.5 12a7.5 7.5 0 1 1 14.85 1.5h-6.909L8.906 7.136a.75.75 0 1 0-1.312.728l3.131 5.636H4.65A7.535 7.535 0 0 1 4.5 12Zm14.376 3a7.502 7.502 0 0 1-13.752 0h13.751Z"/>
    </symbol>
    <symbol id="database" viewBox="0 0 24 24">
      <path fill="currentColor" fill-rule="evenodd" d="M19.5 6c0-.639-.39-1.128-.816-1.465-.436-.343-1.02-.62-1.674-.838C15.693 3.26 13.922 3 12 3c-1.922 0-3.693.259-5.01.697-.655.219-1.238.495-1.674.838C4.89 4.872 4.5 5.361 4.5 6v12c0 .64.379 1.133.81 1.476.436.347 1.02.623 1.673.84C8.298 20.75 10.07 21 12 21c1.93 0 3.702-.25 5.017-.685.654-.216 1.237-.492 1.673-.839.431-.343.81-.837.81-1.476V6ZM6 6l.002.011a.222.222 0 0 0 .024.05c.032.052.097.13.219.226.247.195.652.403 1.22.592 1.126.376 2.73.621 4.535.621 1.806 0 3.41-.245 4.536-.62.567-.19.972-.398 1.22-.593a.927.927 0 0 0 .218-.226.218.218 0 0 0 .024-.05.04.04 0 0 0 .002-.01l-.002-.012a.218.218 0 0 0-.024-.05.927.927 0 0 0-.219-.226c-.247-.195-.652-.403-1.22-.592C15.41 4.745 13.806 4.5 12 4.5s-3.41.245-4.536.62c-.567.19-.972.398-1.22.593a.927.927 0 0 0-.218.226.222.222 0 0 0-.024.05L6 6Zm11.01 2.303a7.15 7.15 0 0 0 .99-.408V12c0 .005 0 .028-.03.076a.908.908 0 0 1-.215.227c-.244.194-.644.401-1.21.588-1.122.371-2.725.609-4.545.609-1.82 0-3.423-.238-4.546-.609-.565-.187-.965-.394-1.21-.588a.91.91 0 0 1-.215-.227C6 12.028 6 12.006 6 12V7.895c.3.154.635.29.99.408C8.307 8.74 10.078 9 12 9c1.922 0 3.693-.259 5.01-.697ZM6 13.913c.3.152.631.286.983.402C8.298 14.75 10.07 15 12 15c1.93 0 3.702-.25 5.017-.685a6.93 6.93 0 0 0 .983-.403V18c0 .006 0 .028-.03.076a.908.908 0 0 1-.215.227c-.244.194-.644.401-1.21.588-1.122.371-2.725.609-4.545.609-1.82 0-3.423-.238-4.546-.609-.565-.187-.965-.394-1.21-.588a.91.91 0 0 1-.215-.227C6 18.028 6 18.006 6 18v-4.088Z"/>
    </symbol>
    <symbol id="delete" viewBox="0 0 24 24">
      <path fill="currentColor" d="M3.75 12a.75.75 0 0 1 .75-.75h15a.75.75 0 0 1 0 1.5h-15a.75.75 0 0 1-.75-.75Z"/>
    </symbol>
    <symbol id="delete-sm" viewBox="0 0 24 24">
      <path fill="currentColor" d="M7.5 12a.75.75 0 0 1 .75-.75h7.5a.75.75 0 0 1 0 1.5h-7.5A.75.75 0 0 1 7.5 12Z"/>
    </symbol>
    <symbol id="drag" viewBox="0 0 24 24">
      <path fill="currentColor" d="m12 3.9 2.7 2.7H9.3L12 3.9Zm0 16.2-2.7-2.7h5.4L12 20.1Zm-9-9.9a.9.9 0 0 1 .9-.9h16.2a.9.9 0 1 1 0 1.8H3.9a.9.9 0 0 1-.9-.9Zm.9 2.7a.9.9 0 1 0 0 1.8h16.2a.9.9 0 1 0 0-1.8H3.9Z"/>
    </symbol>
    <symbol id="drag-dots" viewBox="0 0 24 24">
      <path fill="currentColor" fill-rule="evenodd" d="M9 3a2.25 2.25 0 1 1 0 4.5A2.25 2.25 0 0 1 9 3Zm.75 2.25a.75.75 0 1 0-1.5 0 .75.75 0 0 0 1.5 0ZM9 9.75a2.25 2.25 0 1 1 0 4.5 2.25 2.25 0 0 1 0-4.5ZM9.75 12a.75.75 0 1 0-1.5 0 .75.75 0 0 0 1.5 0ZM9 16.5A2.25 2.25 0 1 1 9 21a2.25 2.25 0 0 1 0-4.5Zm.75 2.25a.75.75 0 1 0-1.5 0 .75.75 0 0 0 1.5 0ZM15 3a2.25 2.25 0 1 1 0 4.5A2.25 2.25 0 0 1 15 3Zm.75 2.25a.75.75 0 1 0-1.5 0 .75.75 0 0 0 1.5 0ZM15 9.75a2.25 2.25 0 1 1 0 4.5 2.25 2.25 0 0 1 0-4.5Zm.75 2.25a.75.75 0 1 0-1.5 0 .75.75 0 0 0 1.5 0ZM15 16.5a2.25 2.25 0 1 1 0 4.5 2.25 2.25 0 0 1 0-4.5Zm.75 2.25a.75.75 0 1 0-1.5 0 .75.75 0 0 0 1.5 0Z"/>
    </symbol>
    <symbol id="email-open" viewBox="0 0 24 24">
      <path fill="currentColor" fill-rule="evenodd" d="M12.44 3.143a.75.75 0 0 0-.882 0l-8.235 5.99A.747.747 0 0 0 3 9.758v8.992A2.25 2.25 0 0 0 5.25 21h13.5A2.25 2.25 0 0 0 21 18.75V9.759a.746.746 0 0 0-.323-.626l-8.237-5.99Zm6.535 6.607-6.976-5.073L5.025 9.75l6.976 5.073 6.974-5.073ZM4.5 11.223v7.527c0 .415.336.75.75.75h13.5a.75.75 0 0 0 .75-.75v-7.527l-7.058 5.133a.75.75 0 0 1-.882 0L4.5 11.224Z"/>
    </symbol>
    <symbol id="event-confirm" viewBox="0 0 24 24">
      <path fill="currentColor" fill-rule="evenodd" d="M9 3.75a.75.75 0 0 0-1.5 0v1.5H3.75A.75.75 0 0 0 3 6v13.5c0 .414.336.75.75.75h6.75a.75.75 0 0 0 0-1.5h-6v-9h15V12a.75.75 0 0 0 1.5 0V6a.75.75 0 0 0-.75-.75H16.5v-1.5a.75.75 0 0 0-1.5 0v1.5H9v-1.5Zm10.5 4.5v-1.5h-15v1.5h15Z"/>
      <path fill="currentColor" d="M20.03 15.22a.75.75 0 0 1 0 1.06l-3.75 3.75a.75.75 0 0 1-1.06 0l-1.5-1.5a.75.75 0 1 1 1.06-1.06l.97.97 3.22-3.22a.75.75 0 0 1 1.06 0Z"/>
    </symbol>
    <symbol id="event-create" viewBox="0 0 24 24">
      <path fill="currentColor" fill-rule="evenodd" d="M9 3.75a.75.75 0 0 0-1.5 0v1.5H3.75A.75.75 0 0 0 3 6v13.5c0 .414.336.75.75.75H12a.75.75 0 0 0 0-1.5H4.5v-9h15V12a.75.75 0 0 0 1.5 0V6a.75.75 0 0 0-.75-.75H16.5v-1.5a.75.75 0 0 0-1.5 0v1.5H9v-1.5Zm10.5 4.5v-1.5h-15v1.5h15Z"/>
      <path fill="currentColor" d="M18.75 15.75a.75.75 0 0 0-1.5 0v1.5h-1.5a.75.75 0 0 0 0 1.5h1.5v1.5a.75.75 0 0 0 1.5 0v-1.5h1.5a.75.75 0 0 0 0-1.5h-1.5v-1.5Z"/>
    </symbol>
    <symbol id="eye" viewBox="0 0 24 24">
      <path fill="currentColor" fill-rule="evenodd" d="M12 5.992C7.88 5.992 4.835 9 3.53 10.54l-.002.003a2.258 2.258 0 0 0 0 2.907C4.836 15.003 7.88 18 12 18c4.12 0 7.165-3.007 8.47-4.548l.002-.002a2.258 2.258 0 0 0 0-2.907v-.001C19.163 8.99 16.12 5.992 12 5.992Zm-7.323 6.493a.758.758 0 0 1-.001-.977c.684-.808 1.78-1.922 3.183-2.772A4.501 4.501 0 0 0 12 15a4.501 4.501 0 0 0 4.14-6.267c1.405.849 2.501 1.963 3.185 2.775a.758.758 0 0 1 0 .976C18.064 13.974 15.408 16.5 12 16.5c-3.41 0-6.065-2.521-7.323-4.015ZM9 10.5a3.001 3.001 0 0 1 6 0 3.001 3.001 0 0 1-6 0Z"/>
    </symbol>
    <symbol id="eye-hide" viewBox="0 0 24 24">
      <path fill="currentColor" fill-rule="evenodd" d="M18.53 5.03a.75.75 0 0 0-1.06-1.06l-2.535 2.535A8.805 8.805 0 0 0 12 5.992C7.88 5.992 4.835 9 3.53 10.54l-.002.003a2.258 2.258 0 0 0 0 2.907c.507.602 1.274 1.42 2.264 2.197L3.97 17.47a.75.75 0 1 0 1.06 1.06l2.013-2.012C8.422 17.36 10.096 18 12 18c4.12 0 7.165-3.007 8.47-4.548l.002-.002a2.258 2.258 0 0 0 0-2.907v-.001c-.782-.928-2.185-2.373-4.068-3.385L18.53 5.03Zm-5.006 2.886a3.001 3.001 0 0 0-4.108 4.108l4.108-4.108Zm-3.048 5.168 4.108-4.108a3.001 3.001 0 0 1-4.108 4.108Zm-2.144.023A4.478 4.478 0 0 1 7.5 10.5c0-.626.128-1.222.36-1.764-1.404.85-2.5 1.964-3.184 2.772a.758.758 0 0 0 0 .977 14.007 14.007 0 0 0 2.185 2.093l1.471-1.471Zm-.193 2.315 1.254-1.254a4.501 4.501 0 0 0 6.746-5.435c1.405.849 2.501 1.963 3.185 2.775a.758.758 0 0 1 0 .976C18.064 13.974 15.408 16.5 12 16.5c-1.437 0-2.74-.448-3.861-1.078Z"/>
    </symbol>
    <symbol id="favorite" viewBox="0 0 24 24">
      <path fill="currentColor" fill-rule="evenodd" d="M4.539 5.287A5.25 5.25 0 0 1 12 5.325l.037-.038a5.25 5.25 0 0 1 7.425 7.425l-6.933 6.932a.75.75 0 0 1-1.06 0l-6.931-6.932a5.25 5.25 0 0 1 0-7.425Zm6.364 1.061A3.75 3.75 0 0 0 5.6 11.651l6.4 6.402 6.402-6.402a3.75 3.75 0 1 0-5.776-4.723.75.75 0 0 1-1.25 0 3.76 3.76 0 0 0-.473-.58Z"/>
    </symbol>
    <symbol id="favorite-add" viewBox="0 0 24 24">
      <path fill="currentColor" d="M4.539 5.287A5.25 5.25 0 0 1 12 5.325l.037-.038a5.25 5.25 0 0 1 7.425 7.425l-.183.182a.75.75 0 1 1-1.06-1.06l.182-.183a3.75 3.75 0 1 0-5.776-4.723.75.75 0 0 1-1.25 0A3.75 3.75 0 1 0 5.6 11.65l6.93 6.933a.75.75 0 1 1-1.06 1.06l-6.931-6.932a5.25 5.25 0 0 1 0-7.425Z"/>
      <path fill="currentColor" d="M15.75 12.75a.75.75 0 0 1 .75.75V15H18a.75.75 0 0 1 0 1.5h-1.5V18a.75.75 0 0 1-1.5 0v-1.5h-1.5a.75.75 0 0 1 0-1.5H15v-1.5a.75.75 0 0 1 .75-.75Z"/>
    </symbol>
    <symbol id="favorite-remove" viewBox="0 0 24 24">
      <path fill="currentColor" d="M11.963 5.287a5.25 5.25 0 0 0-7.424 7.425l6.93 6.932a.75.75 0 0 0 1.061-1.06L5.6 11.65a3.75 3.75 0 1 1 5.776-4.723.75.75 0 0 0 1.25 0 3.748 3.748 0 0 1 5.776-.58 3.75 3.75 0 0 1 0 5.303l-.182.182a.75.75 0 0 0 1.06 1.061l.183-.182A5.25 5.25 0 1 0 12 5.325a3.324 3.324 0 0 0-.038-.038Z"/>
      <path fill="currentColor" d="M13.5 15a.75.75 0 0 0 0 1.5H18a.75.75 0 0 0 0-1.5h-4.5Z"/>
    </symbol>
    <symbol id="favorite-undo" viewBox="0 0 24 24">
      <path fill="currentColor" d="M7.492 4.478a.75.75 0 0 1 .75-.75c.864 0 1.72.209 2.491.62.476.255.905.578 1.276.959a5.15 5.15 0 0 1 .925-.75 5.323 5.323 0 0 1 2.032-.76l.01-.002a5.33 5.33 0 0 1 2.163.131A5.247 5.247 0 0 1 21 8.727c.043.74-.08 1.475-.34 2.153a5.214 5.214 0 0 1-1.191 1.83l-1.32 1.32a.75.75 0 1 1-1.06-1.06l1.32-1.32c.37-.371.663-.815.848-1.304l.002-.003c.188-.49.274-1.013.243-1.53v-.01a3.747 3.747 0 0 0-2.755-3.43 3.829 3.829 0 0 0-1.552-.094 3.823 3.823 0 0 0-1.458.544c-.439.28-.815.653-1.104 1.088a.75.75 0 0 1-1.25-.002 3.736 3.736 0 0 0-3.14-1.681.75.75 0 0 1-.75-.75Z"/>
      <path fill="currentColor" fill-rule="evenodd" d="M4.388 5.448a5.238 5.238 0 0 0 .153 7.263l.001.002 6.928 6.927a.75.75 0 0 0 1.06 0l3.025-3.024 3.415 3.414a.75.75 0 1 0 1.06-1.06L6.003 4.942a.733.733 0 0 0-.012-.011l-.96-.961A.75.75 0 1 0 3.97 5.03l.418.418Zm10.106 10.107L5.45 6.51a3.737 3.737 0 0 0 .149 5.137l.002.003 6.4 6.4 2.494-2.495Z"/>
    </symbol>
    <symbol id="feedback" viewBox="0 0 24 24">
      <path fill="currentColor" d="M12 6.75a.75.75 0 0 1 .75.75V12a.75.75 0 0 1-1.5 0V7.5a.75.75 0 0 1 .75-.75Zm.75 8.25a.75.75 0 1 1-1.5 0 .75.75 0 0 1 1.5 0Z"/>
      <path fill="currentColor" fill-rule="evenodd" d="M3 11.25c0-4.298 4.159-7.5 9-7.5 4.84 0 9 3.202 9 7.5v.018a6.91 6.91 0 0 1-1.913 4.608l.408 3.538a.75.75 0 0 1-1.028.78l-4.191-1.704a8.662 8.662 0 0 1-2.284.26C7.155 18.747 3 15.546 3 11.25Zm9-6c-4.31 0-7.5 2.798-7.5 6s3.191 6 7.5 6h.015a7.166 7.166 0 0 0 2.105-.271.75.75 0 0 1 .488.026l3.252 1.323-.305-2.642a.75.75 0 0 1 .233-.634 5.412 5.412 0 0 0 1.712-3.811C19.494 8.043 16.305 5.25 12 5.25Z"/>
    </symbol>
    <symbol id="filter-check" viewBox="0 0 24 24">
      <path fill="currentColor" d="M3 5.25a.75.75 0 0 1 .75-.75h16.5a.75.75 0 0 1 0 1.5H3.75A.75.75 0 0 1 3 5.25Zm0 4.5A.75.75 0 0 1 3.75 9h16.5a.75.75 0 0 1 0 1.5H3.75A.75.75 0 0 1 3 9.75Zm.75 3.75a.75.75 0 0 0 0 1.5h6a.75.75 0 0 0 0-1.5h-6ZM3 18.75a.75.75 0 0 1 .75-.75h6a.75.75 0 0 1 0 1.5h-6a.75.75 0 0 1-.75-.75Zm9.22-1.72 2.25 2.25a.75.75 0 0 0 1.06 0l4.5-4.5a.75.75 0 1 0-1.06-1.06L15 17.69l-1.72-1.72a.75.75 0 1 0-1.06 1.06Z"/>
    </symbol>
    <symbol id="filter-remove" viewBox="0 0 24 24">
      <path fill="currentColor" d="M3.75 4.5a.75.75 0 0 0 0 1.5h16.5a.75.75 0 0 0 0-1.5H3.75Zm0 4.5a.75.75 0 0 0 0 1.5h16.5a.75.75 0 0 0 0-1.5H3.75ZM3 14.25a.75.75 0 0 1 .75-.75h7.5a.75.75 0 0 1 0 1.5h-7.5a.75.75 0 0 1-.75-.75ZM3.75 18a.75.75 0 0 0 0 1.5h7.5a.75.75 0 0 0 0-1.5h-7.5Zm10.72-4.28a.75.75 0 0 1 1.06 0l1.72 1.72 1.72-1.72a.75.75 0 1 1 1.06 1.06l-1.72 1.72 1.72 1.72a.75.75 0 1 1-1.06 1.06l-1.72-1.72-1.72 1.72a.75.75 0 1 1-1.06-1.06l1.72-1.72-1.72-1.72a.75.75 0 0 1 0-1.06Z"/>
    </symbol>
    <symbol id="filter-tool" viewBox="0 0 24 24">
      <path fill="currentColor" fill-rule="evenodd" d="M3.839 4.146A.75.75 0 0 1 4.5 3.75h15a.75.75 0 0 1 .624 1.166l-5.874 8.811V19.5a.75.75 0 0 1-.75.75h-3a.75.75 0 0 1-.75-.75v-5.773L3.876 4.916a.75.75 0 0 1-.037-.77ZM5.9 5.25l5.223 7.834a.75.75 0 0 1 .126.416v5.25h1.5V13.5a.75.75 0 0 1 .126-.416l5.223-7.834H5.9Z"/>
    </symbol>
    <symbol id="g-chart" viewBox="0 0 24 24">
      <path fill="currentColor" fill-rule="evenodd" d="M16.5 5.25a.75.75 0 0 0-.75.75v12c0 .414.336.75.75.75h3a.75.75 0 0 0 .75-.75V6a.75.75 0 0 0-.75-.75h-3Zm.75 12V6.75h1.5v10.5h-1.5Zm-7.5-7.5A.75.75 0 0 1 10.5 9h3a.75.75 0 0 1 .75.75V18a.75.75 0 0 1-.75.75h-3a.75.75 0 0 1-.75-.75V9.75Zm1.5.75v6.75h1.5V10.5h-1.5Zm-7.5 3a.75.75 0 0 1 .75-.75h3a.75.75 0 0 1 .75.75V18a.75.75 0 0 1-.75.75h-3a.75.75 0 0 1-.75-.75v-4.5Zm1.5.75v3h1.5v-3h-1.5Z"/>
    </symbol>
    <symbol id="grid-view" viewBox="0 0 24 24">
      <path fill="currentColor" fill-rule="evenodd" d="M3.75 4.5a.75.75 0 0 1 .75-.75h3a.75.75 0 0 1 .75.75v3a.75.75 0 0 1-.75.75h-3a.75.75 0 0 1-.75-.75v-3Zm1.5.75v1.5h1.5v-1.5h-1.5Zm-1.5 5.25a.75.75 0 0 1 .75-.75h3a.75.75 0 0 1 .75.75v3a.75.75 0 0 1-.75.75h-3a.75.75 0 0 1-.75-.75v-3Zm1.5.75v1.5h1.5v-1.5h-1.5Zm-.75 4.5a.75.75 0 0 0-.75.75v3c0 .414.336.75.75.75h3a.75.75 0 0 0 .75-.75v-3a.75.75 0 0 0-.75-.75h-3Zm.75 3v-1.5h1.5v1.5h-1.5ZM9.75 4.5a.75.75 0 0 1 .75-.75h3a.75.75 0 0 1 .75.75v3a.75.75 0 0 1-.75.75h-3a.75.75 0 0 1-.75-.75v-3Zm1.5.75v1.5h1.5v-1.5h-1.5Zm-.75 4.5a.75.75 0 0 0-.75.75v3c0 .414.336.75.75.75h3a.75.75 0 0 0 .75-.75v-3a.75.75 0 0 0-.75-.75h-3Zm.75 3v-1.5h1.5v1.5h-1.5Zm-1.5 3.75a.75.75 0 0 1 .75-.75h3a.75.75 0 0 1 .75.75v3a.75.75 0 0 1-.75.75h-3a.75.75 0 0 1-.75-.75v-3Zm1.5.75v1.5h1.5v-1.5h-1.5Zm5.25-13.5a.75.75 0 0 0-.75.75v3c0 .414.336.75.75.75h3a.75.75 0 0 0 .75-.75v-3a.75.75 0 0 0-.75-.75h-3Zm.75 3v-1.5h1.5v1.5h-1.5Zm-1.5 3.75a.75.75 0 0 1 .75-.75h3a.75.75 0 0 1 .75.75v3a.75.75 0 0 1-.75.75h-3a.75.75 0 0 1-.75-.75v-3Zm1.5.75v1.5h1.5v-1.5h-1.5Zm-.75 4.5a.75.75 0 0 0-.75.75v3c0 .414.336.75.75.75h3a.75.75 0 0 0 .75-.75v-3a.75.75 0 0 0-.75-.75h-3Zm.75 3v-1.5h1.5v1.5h-1.5Z"/>
    </symbol>
    <symbol id="hotspot" viewBox="0 0 24 24">
      <path fill="currentColor" d="M3 12a9 9 0 0 1 18 0c0 3.243-1.72 6.075-4.287 7.658a.75.75 0 1 1-.787-1.277A7.486 7.486 0 0 0 19.5 12a7.5 7.5 0 0 0-15 0 7.486 7.486 0 0 0 3.574 6.38.75.75 0 1 1-.787 1.278C4.721 18.075 3 15.243 3 12Z"/>
      <path fill="currentColor" d="M10.5 12a1.5 1.5 0 1 1 3 0 1.5 1.5 0 0 1-3 0Z"/>
      <path fill="currentColor" d="M12 6.75A5.25 5.25 0 0 0 6.75 12a5.244 5.244 0 0 0 2.5 4.467.75.75 0 1 0 .788-1.276A3.744 3.744 0 0 1 8.25 12a3.75 3.75 0 1 1 7.5 0 3.744 3.744 0 0 1-1.788 3.19.75.75 0 0 0 .788 1.277A5.244 5.244 0 0 0 17.25 12c0-2.9-2.35-5.25-5.25-5.25Z"/>
    </symbol>
    <symbol id="hourglass" viewBox="0 0 24 24">
      <path fill="currentColor" fill-rule="evenodd" d="M4.5 3.75A.75.75 0 0 1 5.25 3h13.5a.75.75 0 0 1 0 1.5H18v3c0 1.421-.922 2.729-1.69 3.592-.317.357-.633.666-.898.908.265.242.581.55.899.908.767.863 1.689 2.17 1.689 3.592v3h.75a.75.75 0 0 1 0 1.5H5.25a.75.75 0 0 1 0-1.5H6v-3c0-1.421.922-2.729 1.69-3.592.317-.357.633-.666.898-.908a12.32 12.32 0 0 1-.899-.908C6.922 10.229 6 8.922 6 7.5v-3h-.75a.75.75 0 0 1-.75-.75Zm12 14.834V16.5c0-.829-.578-1.771-1.31-2.595a11.006 11.006 0 0 0-1.366-1.286l-.02-.016-.004-.003a.75.75 0 0 1 0-1.2l.004-.003.02-.016.085-.067a11.006 11.006 0 0 0 1.28-1.219C15.922 9.271 16.5 8.33 16.5 7.5v-3h-9v3c0 .829.578 1.771 1.31 2.595a11.01 11.01 0 0 0 1.366 1.286l.02.016.004.003a.75.75 0 0 1 0 1.2l-.004.003-.02.016a9.9 9.9 0 0 0-.4.333 11.01 11.01 0 0 0-.965.953C8.078 14.729 7.5 15.67 7.5 16.5v2.084c.902-1.775 2.54-4.334 4.5-4.334s3.598 2.559 4.5 4.334Z"/>
    </symbol>
    <symbol id="house" viewBox="0 0 24 24">
      <path fill="currentColor" fill-rule="evenodd" d="M11.531 3.914a.75.75 0 0 1 .938 0l7.5 6a.75.75 0 0 1 .281.586v9.75a.75.75 0 0 1-.75.75h-5.25a.75.75 0 0 1-.75-.75v-4.5h-3v4.5a.75.75 0 0 1-.75.75H4.5a.75.75 0 0 1-.75-.75V10.5a.75.75 0 0 1 .281-.586l7.5-6ZM5.25 10.86v8.64H9V15a.75.75 0 0 1 .75-.75h4.5A.75.75 0 0 1 15 15v4.5h3.75v-8.64L12 5.46l-6.75 5.4Z"/>
    </symbol>
    <symbol id="hyperlink" viewBox="0 0 24 24">
      <path fill="currentColor" d="M7.5 9c-1.686 0-3 1.314-3 3s1.314 3 3 3h2.25a.75.75 0 0 1 0 1.5H7.5A4.463 4.463 0 0 1 3 12c0-2.514 1.986-4.5 4.5-4.5h2.25a.75.75 0 0 1 0 1.5H7.5Zm6-.75a.75.75 0 0 1 .75-.75h2.25c2.514 0 4.5 1.986 4.5 4.5 0 2.514-1.986 4.5-4.5 4.5h-2.25a.75.75 0 0 1 0-1.5h2.25c1.686 0 3-1.314 3-3s-1.314-3-3-3h-2.25a.75.75 0 0 1-.75-.75Z"/>
      <path fill="currentColor" d="M9 11.25a.75.75 0 0 0 0 1.5h6a.75.75 0 0 0 0-1.5H9Z"/>
    </symbol>
    <symbol id="info" viewBox="0 0 24 24">
      <path fill="currentColor" d="M13.125 5.625a1.125 1.125 0 1 1-2.25 0 1.125 1.125 0 0 1 2.25 0ZM12.75 9.75a.75.75 0 0 0-1.5 0v9a.75.75 0 0 0 1.5 0v-9Z"/>
    </symbol>
    <symbol id="lock" viewBox="0 0 24 24">
      <path fill="currentColor" d="M12.083 3h-.08A4.463 4.463 0 0 0 7.5 7.417v.833a.75.75 0 0 0 1.5 0v-.82a2.963 2.963 0 0 1 2.992-2.93h.079A2.963 2.963 0 0 1 15 7.493v.757a.75.75 0 0 0 1.5 0v-.746A4.463 4.463 0 0 0 12.083 3Z"/>
      <path fill="currentColor" fill-rule="evenodd" d="M9.75 15.75a2.25 2.25 0 1 1 4.5 0 2.25 2.25 0 0 1-4.5 0ZM12 15a.75.75 0 1 0 0 1.5.75.75 0 0 0 0-1.5Z"/>
      <path fill="currentColor" fill-rule="evenodd" d="M4.5 12.75a2.25 2.25 0 0 1 2.25-2.25h10.5a2.25 2.25 0 0 1 2.25 2.25v6A2.25 2.25 0 0 1 17.25 21H6.75a2.25 2.25 0 0 1-2.25-2.25v-6ZM6.75 12a.75.75 0 0 0-.75.75v6c0 .414.336.75.75.75h10.5a.75.75 0 0 0 .75-.75v-6a.75.75 0 0 0-.75-.75H6.75Z"/>
    </symbol>
    <symbol id="mail" viewBox="0 0 24 24">
      <path fill="currentColor" fill-rule="evenodd" d="M5.25 4.5A2.25 2.25 0 0 0 3 6.75V9c0 .274.15.527.39.658l8.25 4.5a.75.75 0 0 0 .72 0l8.25-4.5A.75.75 0 0 0 21 9V6.75a2.25 2.25 0 0 0-2.25-2.25H5.25Zm-.53 1.72A.75.75 0 0 1 5.25 6h13.5a.75.75 0 0 1 .75.75v1.805l-7.5 4.09-7.5-4.09V6.75a.75.75 0 0 1 .22-.53Z"/>
      <path fill="currentColor" d="M4.5 12.75a.75.75 0 0 0-1.5 0v4.5a2.25 2.25 0 0 0 2.25 2.25h13.5A2.25 2.25 0 0 0 21 17.25v-4.5a.75.75 0 0 0-1.5 0v4.5a.75.75 0 0 1-.75.75H5.25a.75.75 0 0 1-.75-.75v-4.5Z"/>
    </symbol>
    <symbol id="menu" viewBox="0 0 24 24">
      <path fill="currentColor" d="M3 6.75A.75.75 0 0 1 3.75 6h16.5a.75.75 0 0 1 0 1.5H3.75A.75.75 0 0 1 3 6.75ZM3 12a.75.75 0 0 1 .75-.75h16.5a.75.75 0 0 1 0 1.5H3.75A.75.75 0 0 1 3 12Zm.75 4.5a.75.75 0 0 0 0 1.5h16.5a.75.75 0 0 0 0-1.5H3.75Z"/>
    </symbol>
    <symbol id="menu-dots-h" viewBox="0 0 24 24">
      <path fill="currentColor" fill-rule="evenodd" d="M3 12a2.25 2.25 0 1 1 4.5 0A2.25 2.25 0 0 1 3 12Zm2.25-.75a.75.75 0 1 0 0 1.5.75.75 0 0 0 0-1.5Zm4.5.75a2.25 2.25 0 1 1 4.5 0 2.25 2.25 0 0 1-4.5 0Zm2.25-.75a.75.75 0 1 0 0 1.5.75.75 0 0 0 0-1.5Zm6.75-1.5a2.25 2.25 0 1 0 0 4.5 2.25 2.25 0 0 0 0-4.5ZM18 12a.75.75 0 1 1 1.5 0 .75.75 0 0 1-1.5 0Z"/>
    </symbol>
    <symbol id="menu-dots-v" viewBox="0 0 24 24">
      <path fill="currentColor" fill-rule="evenodd" d="M12 3a2.25 2.25 0 1 1 0 4.5A2.25 2.25 0 0 1 12 3Zm.75 2.25a.75.75 0 1 0-1.5 0 .75.75 0 0 0 1.5 0ZM12 9.75a2.25 2.25 0 1 1 0 4.5 2.25 2.25 0 0 1 0-4.5Zm.75 2.25a.75.75 0 1 0-1.5 0 .75.75 0 0 0 1.5 0Zm1.5 6.75a2.25 2.25 0 1 0-4.5 0 2.25 2.25 0 0 0 4.5 0ZM12 18a.75.75 0 1 1 0 1.5.75.75 0 0 1 0-1.5Z"/>
    </symbol>
    <symbol id="metrics" viewBox="0 0 24 24">
      <path fill="currentColor" d="M4.5 4.5a.75.75 0 0 1 .75-.75c8.284 0 15 6.716 15 15a.75.75 0 0 1-1.5 0c0-7.456-6.044-13.5-13.5-13.5a.75.75 0 0 1-.75-.75Z"/>
      <path fill="currentColor" fill-rule="evenodd" d="M10.28 14.78a.75.75 0 1 0-1.06-1.06l-3 3a2.25 2.25 0 1 0 1.06 1.06l3-3Zm-4.509 3.43.01.01.009.009a.75.75 0 1 1-.019-.018Z"/>
      <path fill="currentColor" d="M6 7.5a.75.75 0 0 0-1.5 0V9A.75.75 0 0 0 6 9V7.5Zm7.736 2.764a.75.75 0 0 1 0 1.061l-1.062 1.061a.75.75 0 1 1-1.06-1.06l1.06-1.062a.75.75 0 0 1 1.062 0ZM15 18a.75.75 0 0 0 0 1.5h1.5a.75.75 0 0 0 0-1.5H15Z"/>
    </symbol>
    <symbol id="network-communication" viewBox="0 0 24 24">
      <path fill="currentColor" fill-rule="evenodd" d="M14.25 6a3 3 0 1 1 .856 2.098l-5.463 3.104a3.003 3.003 0 0 1 0 1.596l5.463 3.104a3 3 0 1 1-.748 1.3l-5.464-3.104a3 3 0 1 1 0-4.196l5.463-3.104A3.005 3.005 0 0 1 14.25 6Zm3-1.5a1.5 1.5 0 1 0 0 3 1.5 1.5 0 0 0 0-3Zm-12 7.5a1.5 1.5 0 1 1 3 0 1.5 1.5 0 0 1-3 0Zm10.5 6a1.5 1.5 0 1 1 3 0 1.5 1.5 0 0 1-3 0Z"/>
    </symbol>
    <symbol id="news" viewBox="0 0 24 24">
      <path fill="currentColor" d="M6.75 3a.75.75 0 0 0-.75.75v14.999a.754.754 0 0 1-.75.751.755.755 0 0 1-.75-.751V13.5a.75.75 0 0 0 0-1.5h-.75a.75.75 0 0 0-.75.75v6.002A2.255 2.255 0 0 0 5.248 21h.003"/>
      <path fill="currentColor" fill-rule="evenodd" d="M9.75 6.75A.75.75 0 0 0 9 7.5v3c0 .414.336.75.75.75h7.5a.75.75 0 0 0 .75-.75v-3a.75.75 0 0 0-.75-.75h-7.5Zm.75 3v-1.5h6v1.5h-6Z"/>
      <path fill="currentColor" d="M9 13.5a.75.75 0 0 1 .75-.75h7.5a.75.75 0 0 1 0 1.5h-7.5A.75.75 0 0 1 9 13.5Zm0 3a.75.75 0 0 1 .75-.75h7.5a.75.75 0 0 1 0 1.5h-7.5A.75.75 0 0 1 9 16.5Z"/>
      <path fill="currentColor" fill-rule="evenodd" d="M5.251 21h13.501A2.255 2.255 0 0 0 21 18.752V3.75a.75.75 0 0 0-.75-.75H6.75m.75 15.75V4.5h12v14.249a.754.754 0 0 1-.751.751H7.37c.085-.238.13-.49.13-.748v-.002Z"/>
    </symbol>
    <symbol id="no-results" viewBox="0 0 24 24">
      <path fill="currentColor" fill-rule="evenodd" d="M17.03 5.03a.75.75 0 0 0-1.06-1.06l-1.79 1.79a6 6 0 0 0-8.42 8.42l-1.79 1.79a.75.75 0 1 0 1.06 1.06l12-12Zm-3.923 1.802a4.5 4.5 0 0 0-6.275 6.275l6.275-6.275Z"/>
      <path fill="currentColor" d="M16.251 8.786a.75.75 0 1 0-1.437.428 4.505 4.505 0 0 1-5.6 5.6.75.75 0 1 0-.428 1.437 6.004 6.004 0 0 0 5.392-1.012l4.042 4.041a.75.75 0 1 0 1.06-1.06l-4.041-4.042a6.005 6.005 0 0 0 1.012-5.392Z"/>
    </symbol>
    <symbol id="o-warning" viewBox="0 0 24 24">
      <path fill="currentColor" d="M12 7.5a.75.75 0 0 1 .75.75v4.5a.75.75 0 0 1-1.5 0v-4.5A.75.75 0 0 1 12 7.5Zm.75 8.25a.75.75 0 1 1-1.5 0 .75.75 0 0 1 1.5 0Z"/>
      <path fill="currentColor" fill-rule="evenodd" d="M8.053 3.22a.75.75 0 0 1 .53-.22h6.834a.75.75 0 0 1 .53.22l4.833 4.833c.141.14.22.331.22.53v6.834a.75.75 0 0 1-.22.53l-4.833 4.833a.75.75 0 0 1-.53.22H8.583a.75.75 0 0 1-.53-.22L3.22 15.947a.75.75 0 0 1-.22-.53V8.583a.75.75 0 0 1 .22-.53L8.053 3.22Zm.84 1.28L4.5 8.894v6.212L8.894 19.5h6.212l4.394-4.394V8.894L15.106 4.5H8.894Z"/>
    </symbol>
    <symbol id="opening-times" viewBox="0 0 24 24">
      <path fill="currentColor" fill-rule="evenodd" d="M9 3.75a.75.75 0 0 0-1.5 0v1.5H3.75A.75.75 0 0 0 3 6v13.5c0 .414.336.75.75.75h6a.75.75 0 0 0 0-1.5H4.5v-9h15v1.5a.75.75 0 0 0 1.5 0V6a.75.75 0 0 0-.75-.75H16.5v-1.5a.75.75 0 0 0-1.5 0v1.5H9v-1.5Zm10.5 4.5v-1.5h-15v1.5h15Z"/>
      <path fill="currentColor" d="M16.5 15a.75.75 0 0 0-1.5 0v1.5c0 .414.336.75.75.75h1.5a.75.75 0 0 0 0-1.5h-.75V15Z"/>
      <path fill="currentColor" fill-rule="evenodd" d="M15.75 12a4.5 4.5 0 1 0 0 9 4.5 4.5 0 0 0 0-9Zm-3 4.5a3 3 0 1 1 6 0 3 3 0 0 1-6 0Z"/>
    </symbol>
    <symbol id="paragraph" viewBox="0 0 24 24">
      <path fill="currentColor" fill-rule="evenodd" d="M4.5 3.75a.75.75 0 0 0-.75.75v5.25c0 .414.336.75.75.75h5.25a.75.75 0 0 0 .75-.75V4.5a.75.75 0 0 0-.75-.75H4.5ZM5.25 9V5.25H9V9H5.25Zm-.75 4.5a.75.75 0 0 0-.75.75v5.25c0 .414.336.75.75.75h5.25a.75.75 0 0 0 .75-.75v-5.25a.75.75 0 0 0-.75-.75H4.5Zm.75 5.25V15H9v3.75H5.25Z"/>
      <path fill="currentColor" d="M12.75 5.25a.75.75 0 0 1 .75-.75h6a.75.75 0 0 1 0 1.5h-6a.75.75 0 0 1-.75-.75Zm.75 3a.75.75 0 0 0 0 1.5h6a.75.75 0 0 0 0-1.5h-6ZM12.75 15a.75.75 0 0 1 .75-.75h6a.75.75 0 0 1 0 1.5h-6a.75.75 0 0 1-.75-.75Zm.75 3a.75.75 0 0 0 0 1.5h6a.75.75 0 0 0 0-1.5h-6Z"/>
    </symbol>
    <symbol id="pencil" viewBox="0 0 24 24">
      <path fill="currentColor" fill-rule="evenodd" d="M14.78 4.41a2.25 2.25 0 0 1 3.182 0l1.629 1.628a2.25 2.25 0 0 1 0 3.182l-1.81 1.809v.001l-.002.002-7.499 7.498a.749.749 0 0 1-.324.191l-5.25 1.5a.75.75 0 0 1-.927-.927l1.5-5.25a.75.75 0 0 1 .19-.324l9.311-9.31Zm1.06 1.06a.75.75 0 0 1 1.061 0l1.63 1.629a.75.75 0 0 1 0 1.06L17.25 9.44l-2.69-2.69 1.28-1.28Zm.35 5.03-6.833 6.832-3.765 1.076 1.076-3.765L13.5 7.81l2.69 2.689Z"/>
    </symbol>
    <symbol id="phone" viewBox="0 0 24 24">
      <path fill="currentColor" fill-rule="evenodd" d="M8.85 3.905c.34.158.565.435.691.715l.006.012 1.65 3.847.004.01a1.471 1.471 0 0 1 .084.846 1.452 1.452 0 0 1-.387.718l-1.162 1.178c.4.598.855 1.164 1.354 1.686.525.5 1.086.956 1.685 1.356l1.18-1.165a.75.75 0 0 1 .229-.154c.165-.111.355-.19.558-.224.272-.045.549-.014.806.091l.01.005 3.848 1.65.012.005a1.452 1.452 0 0 1 .72.706c.126.278.184.63.085.986l-.8 3.02a1.4 1.4 0 0 1-.548.8 1.497 1.497 0 0 1-.909.27 15.319 15.319 0 0 1-9.857-4.329l-.013-.013a15.316 15.316 0 0 1-4.33-9.85v-.005a1.446 1.446 0 0 1 .271-.904c.196-.277.484-.468.8-.548l3.016-.8c.331-.09.68-.063.996.091Zm-.66 1.37L9.8 9.03l-1.552 1.574a.75.75 0 0 0-.108.915 14.05 14.05 0 0 0 1.901 2.471 13.84 13.84 0 0 0 2.451 1.88.75.75 0 0 0 .912-.11l1.468-1.447a.75.75 0 0 0 .13-.093l3.76 1.613-.776 2.93a13.818 13.818 0 0 1-8.823-3.895 13.816 13.816 0 0 1-3.896-8.815l2.924-.777Z"/>
    </symbol>
    <symbol id="preferences" viewBox="0 0 24 24">
      <path fill="currentColor" fill-rule="evenodd" d="M6 3a.75.75 0 0 0-.75.75v1.5h-1.5a.75.75 0 0 0 0 1.5h1.5v1.5c0 .414.336.75.75.75h3a.75.75 0 0 0 .75-.75v-4.5A.75.75 0 0 0 9 3H6Zm.75 4.5h1.5v-3h-1.5v3Z"/>
      <path fill="currentColor" d="M11.25 6a.75.75 0 0 1 .75-.75h8.25a.75.75 0 0 1 0 1.5H12a.75.75 0 0 1-.75-.75Zm7.5 6a.75.75 0 0 1 .75-.75h.75a.75.75 0 0 1 0 1.5h-.75a.75.75 0 0 1-.75-.75Z"/>
      <path fill="currentColor" fill-rule="evenodd" d="M3.75 11.25a.75.75 0 0 0 0 1.5h9v1.5c0 .414.336.75.75.75h3a.75.75 0 0 0 .75-.75v-4.5A.75.75 0 0 0 16.5 9h-3a.75.75 0 0 0-.75.75v1.5h-9Zm12 2.25h-1.5v-3h1.5v3Z"/>
      <path fill="currentColor" d="M12 17.25a.75.75 0 0 0 0 1.5h8.25a.75.75 0 0 0 0-1.5H12Z"/>
      <path fill="currentColor" fill-rule="evenodd" d="M3 18a.75.75 0 0 1 .75-.75h1.5v-1.5A.75.75 0 0 1 6 15h3a.75.75 0 0 1 .75.75v4.5A.75.75 0 0 1 9 21H6a.75.75 0 0 1-.75-.75v-1.5h-1.5A.75.75 0 0 1 3 18Zm3.75-1.5h1.5v3h-1.5v-3Z"/>
    </symbol>
    <symbol id="privacy" viewBox="0 0 24 24">
      <path fill="currentColor" fill-rule="evenodd" d="M10.41 8.16a2.255 2.255 0 0 1 1.588-.66h.004a2.255 2.255 0 0 1 2.248 2.248v1.502H15a.75.75 0 0 1 .75.75v3.75a.75.75 0 0 1-.75.75H9a.75.75 0 0 1-.75-.75V12a.75.75 0 0 1 .75-.75h.75V9.748a2.26 2.26 0 0 1 .66-1.588Zm2.34 1.591v1.499h-1.5V9.751A.754.754 0 0 1 12 9a.754.754 0 0 1 .75.751Zm-3 2.999h4.5V15h-4.5v-2.25Z"/>
      <path fill="currentColor" fill-rule="evenodd" d="M12.163 3.768a.75.75 0 0 0-.326 0l-6.75 1.5A.75.75 0 0 0 4.5 6v7.5a7.5 7.5 0 0 0 15 0V6a.75.75 0 0 0-.587-.732l-6.75-1.5ZM6 13.5V6.602l6-1.334 6 1.334V13.5a6 6 0 1 1-12 0Z"/>
    </symbol>
    <symbol id="progress" viewBox="0 0 24 24">
      <path fill="currentColor" d="M11.25 3.75A.75.75 0 0 1 12 3a9 9 0 0 1 0 18 .75.75 0 0 1 0-1.5 7.5 7.5 0 0 0 0-15 .75.75 0 0 1-.75-.75Z"/>
      <path fill="currentColor" d="M17.03 8.47a.75.75 0 0 1 0 1.06l-6 6a.75.75 0 0 1-1.06 0l-3-3a.75.75 0 1 1 1.06-1.06l2.47 2.47 5.47-5.47a.75.75 0 0 1 1.06 0ZM4.532 11.377a.75.75 0 1 0-1.495-.124c-.02.232-.037.484-.037.747s.018.515.037.747a.75.75 0 1 0 1.495-.124A7.55 7.55 0 0 1 4.5 12c0-.199.014-.401.032-.623Zm5.063-7.304a.75.75 0 0 1-.41.979 7.468 7.468 0 0 0-1.108.565.75.75 0 1 1-.79-1.274c.423-.263.868-.49 1.33-.68a.75.75 0 0 1 .978.41ZM5.964 7.562a.75.75 0 1 0-1.208-.89 9.092 9.092 0 0 0-.783 1.271.75.75 0 1 0 1.337.68c.189-.371.408-.726.654-1.06Zm-1.671 7.459a.75.75 0 0 1 1.007.334c.187.372.405.728.65 1.064a.75.75 0 1 1-1.21.886 9.013 9.013 0 0 1-.78-1.277.75.75 0 0 1 .333-1.007Zm3.771 3.354a.75.75 0 0 0-.794 1.272c.425.265.871.494 1.334.685a.75.75 0 0 0 .572-1.387 7.488 7.488 0 0 1-1.112-.57Z"/>
    </symbol>
    <symbol id="questionnaire" viewBox="0 0 24 24">
      <path fill="currentColor" fill-rule="evenodd" d="M4.5 3.75a.75.75 0 0 0-.75.75v5.25c0 .414.336.75.75.75h5.25a.75.75 0 0 0 .75-.75V4.5a.75.75 0 0 0-.75-.75H4.5ZM5.25 9V5.25H9V9H5.25Zm14.25 4.5h-5.25a.75.75 0 0 0-.75.75v5.25c0 .414.336.75.75.75h5.25a.75.75 0 0 0 .75-.75v-5.25a.75.75 0 0 0-.75-.75ZM15 18.75V15h3.75v3.75H15Zm-11.25-4.5a.75.75 0 0 1 .75-.75h5.25a.75.75 0 0 1 .75.75v5.25a.75.75 0 0 1-.75.75H4.5a.75.75 0 0 1-.75-.75v-5.25Zm1.5.75v3.75H9V15H5.25Z"/>
      <path fill="currentColor" d="M20.03 5.78a.75.75 0 0 0-1.06-1.06l-3.22 3.22-.97-.97a.75.75 0 1 0-1.06 1.06l1.5 1.5a.75.75 0 0 0 1.06 0l3.75-3.75Z"/>
    </symbol>
    <symbol id="radio-btn" viewBox="0 0 24 24">
      <path fill="currentColor" fill-rule="evenodd" d="M3 12a9 9 0 1 1 18 0 9 9 0 0 1-18 0Zm9-7.5a7.5 7.5 0 1 0 0 15 7.5 7.5 0 0 0 0-15Z"/>
    </symbol>
    <symbol id="radio-btn-checked" viewBox="0 0 24 24">
      <path fill="currentColor" d="M12 8.25a3.75 3.75 0 1 0 0 7.5 3.75 3.75 0 0 0 0-7.5Z"/>
      <path fill="currentColor" fill-rule="evenodd" d="M3 12a9 9 0 1 1 18 0 9 9 0 0 1-18 0Zm9-7.5a7.5 7.5 0 1 0 0 15 7.5 7.5 0 0 0 0-15Z"/>
    </symbol>
    <symbol id="remove" viewBox="0 0 24 24">
      <path fill="currentColor" d="M17.78 7.28a.75.75 0 0 0-1.06-1.06L12 10.94 7.28 6.22a.75.75 0 0 0-1.06 1.06L10.94 12l-4.72 4.72a.75.75 0 1 0 1.06 1.06L12 13.06l4.72 4.72a.75.75 0 1 0 1.06-1.06L13.06 12l4.72-4.72Z"/>
    </symbol>
    <symbol id="remove-sm" viewBox="0 0 24 24">
      <path fill="currentColor" d="M15.53 9.53a.75.75 0 0 0-1.06-1.06L12 10.94 9.53 8.47a.75.75 0 0 0-1.06 1.06L10.94 12l-2.47 2.47a.75.75 0 1 0 1.06 1.06L12 13.06l2.47 2.47a.75.75 0 1 0 1.06-1.06L13.06 12l2.47-2.47Z"/>
    </symbol>
    <symbol id="s-edit" viewBox="0 0 24 24">
      <path fill="currentColor" d="m11.78 13.28 8.25-8.25a.75.75 0 0 0-1.06-1.06l-8.25 8.25a.75.75 0 1 0 1.06 1.06Z"/>
      <path fill="currentColor" d="M5.25 6.75A.75.75 0 0 1 6 6h6.75a.75.75 0 0 0 0-1.5H6a2.25 2.25 0 0 0-2.25 2.25V18A2.25 2.25 0 0 0 6 20.25h11.25A2.25 2.25 0 0 0 19.5 18v-6.75a.75.75 0 0 0-1.5 0V18a.75.75 0 0 1-.75.75H6a.75.75 0 0 1-.75-.75V6.75Z"/>
    </symbol>
    <symbol id="s-pulse" viewBox="0 0 24 24">
      <path fill="currentColor" fill-rule="evenodd" d="M20.25 6A2.25 2.25 0 0 0 18 3.75H6A2.25 2.25 0 0 0 3.75 6v12A2.25 2.25 0 0 0 6 20.25h12A2.25 2.25 0 0 0 20.25 18V6Zm-15 0A.75.75 0 0 1 6 5.25h12a.75.75 0 0 1 .75.75v5.25h-3a.75.75 0 0 0-.643.364l-1.472 2.454-2.439-6.097a.75.75 0 0 0-1.34-.107l-2.03 3.386H5.25V6Zm0 6.75h3a.75.75 0 0 0 .643-.364l1.472-2.454 2.439 6.097a.75.75 0 0 0 1.34.107l2.03-3.386h2.576V18a.75.75 0 0 1-.75.75H6a.75.75 0 0 1-.75-.75v-5.25Z"/>
    </symbol>
    <symbol id="save-for-later" viewBox="0 0 24 24">
      <path fill="currentColor" d="M18.75 3.75a.75.75 0 0 0-1.5 0v1.5h-1.5a.75.75 0 0 0 0 1.5h1.5v1.5a.75.75 0 0 0 1.5 0v-1.5h1.5a.75.75 0 0 0 0-1.5h-1.5v-1.5Z"/>
      <path fill="currentColor" fill-rule="evenodd" d="M3 7.5a2.25 2.25 0 0 1 2.25-2.25H12a.75.75 0 0 1 0 1.5H5.25a.75.75 0 0 0-.75.75v8.25h12.75V12a.75.75 0 0 1 1.5 0v6.75A2.25 2.25 0 0 1 16.5 21H5.25A2.25 2.25 0 0 1 3 18.75V7.5Zm1.5 9.75v1.5c0 .415.335.75.75.75H16.5a.75.75 0 0 0 .75-.75v-1.5H4.5Z"/>
    </symbol>
    <symbol id="saved-items" viewBox="0 0 24 24">
      <path fill="currentColor" d="M5.47 5.47A.75.75 0 0 1 6 5.25a.75.75 0 0 0 0-1.5A2.25 2.25 0 0 0 3.75 6v12A2.25 2.25 0 0 0 6 20.25h12A2.25 2.25 0 0 0 20.25 18V6A2.25 2.25 0 0 0 18 3.75a.75.75 0 0 0 0 1.5.75.75 0 0 1 .75.75v12a.75.75 0 0 1-.75.75H6a.75.75 0 0 1-.75-.75V6a.75.75 0 0 1 .22-.53Z"/>
      <path fill="currentColor" fill-rule="evenodd" d="M9 3.75a.75.75 0 0 0-.75.75V12a.75.75 0 0 0 1.2.6L12 10.688l2.55 1.912a.75.75 0 0 0 1.2-.6V4.5a.75.75 0 0 0-.75-.75H9Zm.75 6.75V5.25h4.5v5.25l-1.8-1.35a.75.75 0 0 0-.9 0l-1.8 1.35Z"/>
    </symbol>
    <symbol id="search" viewBox="0 0 24 24">
      <path fill="currentColor" fill-rule="evenodd" d="M14.713 15.774a6.75 6.75 0 1 1 1.06-1.06l4.257 4.256a.75.75 0 1 1-1.06 1.06l-4.257-4.256ZM5.25 10.5a5.25 5.25 0 1 1 10.5 0 5.25 5.25 0 0 1-10.5 0Z"/>
    </symbol>
    <symbol id="search-content" viewBox="0 0 24 24">
      <path fill="currentColor" d="M3 5.25a.75.75 0 0 1 .75-.75H15A.75.75 0 0 1 15 6H3.75A.75.75 0 0 1 3 5.25ZM3.75 9a.75.75 0 0 0 0 1.5H9A.75.75 0 0 0 9 9H3.75Z"/>
      <path fill="currentColor" fill-rule="evenodd" d="M18.129 14.068a3.75 3.75 0 1 0-1.06 1.06l2.65 2.652a.75.75 0 1 0 1.061-1.06l-2.651-2.652Zm-1.522-.493a.484.484 0 0 0-.032.032 2.25 2.25 0 1 1 .032-.032Z"/>
      <path fill="currentColor" d="M3 14.25a.75.75 0 0 1 .75-.75H9A.75.75 0 0 1 9 15H3.75a.75.75 0 0 1-.75-.75ZM3.75 18a.75.75 0 0 0 0 1.5H15a.75.75 0 0 0 0-1.5H3.75Z"/>
    </symbol>
    <symbol id="security" viewBox="0 0 24 24">
      <path fill="currentColor" fill-rule="evenodd" d="M11.576 3.881a.747.747 0 0 1 .848 0C14.537 5.287 17.384 6 19.5 6a.75.75 0 0 1 .75.75c0 5.435-2.335 11.023-7.939 13.433a.745.745 0 0 1-.622 0C6.086 17.773 3.75 12.185 3.75 6.75A.75.75 0 0 1 4.5 6c2.116 0 4.963-.713 7.076-2.119ZM11.25 5.81a15.696 15.696 0 0 1-5.985 1.665 15.97 15.97 0 0 0 .6 3.775h5.385V5.81Zm-4.856 6.94c.963 2.298 2.557 4.267 4.856 5.548V12.75H6.394Zm6.356 5.548c2.3-1.281 3.893-3.25 4.856-5.548H12.75v5.548Zm5.385-7.048c.35-1.21.547-2.484.6-3.775A15.696 15.696 0 0 1 12.75 5.81v5.44h5.385Z"/>
    </symbol>
    <symbol id="send-message" viewBox="0 0 24 24">
      <path fill="currentColor" fill-rule="evenodd" d="M20.055 3.996a.733.733 0 0 0-.05-.051.747.747 0 0 0-.768-.147L4.252 9.042a.75.75 0 0 0-.15 1.344l5.854 3.658 3.658 5.854a.75.75 0 0 0 1.344-.15l5.245-14.985a.749.749 0 0 0-.148-.767Zm-3.41 2.298L6.223 9.942l4.17 2.606 6.254-6.254Zm-5.193 7.314 6.254-6.254-3.648 10.424-2.606-4.17Z"/>
    </symbol>
    <symbol id="settings" viewBox="0 0 24 24">
      <path fill="currentColor" fill-rule="evenodd" d="M12 9a3 3 0 1 0 0 6 3 3 0 0 0 0-6Zm-1.5 3a1.5 1.5 0 1 1 3 0 1.5 1.5 0 0 1-3 0Z"/>
      <path fill="currentColor" fill-rule="evenodd" d="M10.875 3a.75.75 0 0 0-.743.649l-.267 1.954c-.301.1-.595.223-.88.366l-1.57-1.195a.75.75 0 0 0-.984.066l-1.59 1.591a.75.75 0 0 0-.067.984l1.193 1.57a6.696 6.696 0 0 0-.366.88l-1.952.267a.75.75 0 0 0-.649.743v2.25a.75.75 0 0 0 .649.743l1.954.267c.1.302.223.596.366.88l-1.193 1.57a.75.75 0 0 0 .067.984l1.59 1.59a.75.75 0 0 0 .985.067l1.57-1.193c.283.143.577.265.88.366l.264 1.952a.75.75 0 0 0 .743.649h2.25a.75.75 0 0 0 .743-.649l.267-1.954c.302-.1.596-.223.88-.366l1.57 1.193a.75.75 0 0 0 .984-.067l1.59-1.59a.75.75 0 0 0 .067-.985l-1.193-1.57a6.58 6.58 0 0 0 .366-.88l1.952-.264a.75.75 0 0 0 .649-.743v-2.25a.75.75 0 0 0-.649-.743l-1.954-.267a6.675 6.675 0 0 0-.366-.88l1.193-1.57a.75.75 0 0 0-.066-.983L17.569 4.84a.75.75 0 0 0-.984-.067l-1.57 1.193a6.696 6.696 0 0 0-.88-.366l-.267-1.952A.75.75 0 0 0 13.125 3h-2.25Zm.41 3.287L11.53 4.5h.94l.244 1.785a.75.75 0 0 0 .56.626c.5.125.979.324 1.42.59a.75.75 0 0 0 .84-.045l1.437-1.092.663.664-1.092 1.437a.75.75 0 0 0-.045.841c.265.441.464.92.59 1.42a.75.75 0 0 0 .626.56l1.787.244v.94l-1.785.242a.75.75 0 0 0-.626.56c-.125.5-.324.979-.59 1.42a.75.75 0 0 0 .045.84l1.092 1.437-.665.665-1.436-1.092a.75.75 0 0 0-.841-.045c-.441.265-.92.464-1.42.59a.75.75 0 0 0-.56.626L12.47 19.5h-.94l-.242-1.785a.75.75 0 0 0-.56-.626 5.194 5.194 0 0 1-1.42-.59.75.75 0 0 0-.84.045L7.03 17.636l-.665-.665 1.092-1.436a.75.75 0 0 0 .045-.841 5.197 5.197 0 0 1-.59-1.42.75.75 0 0 0-.626-.56L4.5 12.47v-.94l1.785-.244a.75.75 0 0 0 .626-.56c.125-.5.324-.979.59-1.42a.75.75 0 0 0-.045-.84L6.364 7.028l.665-.665 1.436 1.094a.75.75 0 0 0 .841.045c.441-.266.92-.464 1.42-.59a.75.75 0 0 0 .56-.626Z"/>
    </symbol>
    <symbol id="settings-tools" viewBox="0 0 24 24">
      <path fill="currentColor" fill-rule="evenodd" d="M17.608 3.32a3.91 3.91 0 0 0-2.076-.287 4.961 4.961 0 0 0-4.517 4.952L6.683 3.653a.75.75 0 0 0-1.061 0L3.715 5.56a.75.75 0 0 0 0 1.06l4.774 4.774-4.376 3.855-.003.004a3.314 3.314 0 0 0-.21 4.743l.004.004.01.01a3.213 3.213 0 0 0 4.543.1 3.17 3.17 0 0 0 .263-.28l6.235-7.01a5.786 5.786 0 0 0 2.049.048 5.015 5.015 0 0 0 3.8-3.51c.292-.96.259-1.99-.093-2.93a.75.75 0 0 0-1.232-.268L17.7 7.932l-1.635-1.624L17.84 4.54a.75.75 0 0 0-.23-1.22Zm-7.536 8.678a.646.646 0 0 0 .015-.013l1.929-1.7a.753.753 0 0 0 .183-.16l.297-.262a.75.75 0 0 0 .198-.846 2.417 2.417 0 0 1-.178-.938v-.025A3.46 3.46 0 0 1 15.72 4.52l.014-.002-1.263 1.258a.75.75 0 0 0 0 1.063l2.7 2.682a.75.75 0 0 0 1.058 0l1.263-1.258a3.071 3.071 0 0 1-.124.661l-.003.01a3.515 3.515 0 0 1-2.644 2.46 4.288 4.288 0 0 1-1.814-.131.75.75 0 0 0-.772.221l-6.544 7.358a1.67 1.67 0 0 1-.164.177l-.006.005a1.715 1.715 0 0 1-2.42-.05l-.022-.021-.006-.007-.011-.014a1.814 1.814 0 0 1 .144-2.56l.002-.001 4.964-4.374Zm.444-2.39-.9.792-4.31-4.31.846-.846 4.364 4.364Z"/>
      <path fill="currentColor" d="M17.47 13.72a.75.75 0 0 1 1.06 0l1.506 1.505a3.375 3.375 0 0 1-.045 4.77l-.041.04a3.374 3.374 0 0 1-4.77-.045l-2.21-2.21a.75.75 0 1 1 1.06-1.06l2.218 2.218a1.877 1.877 0 0 0 2.65.029l.04-.04a1.875 1.875 0 0 0 .029-2.65L17.47 14.78a.75.75 0 0 1 0-1.06Z"/>
    </symbol>
    <symbol id="setup-preferences" viewBox="0 0 24 24">
      <path fill="currentColor" fill-rule="evenodd" d="M5.345 6.75A3.001 3.001 0 0 0 11.25 6a3 3 0 0 0-5.905-.75H3.75a.75.75 0 0 0 0 1.5h1.595ZM6.75 6a1.5 1.5 0 1 1 3 0 1.5 1.5 0 0 1-3 0Z"/>
      <path fill="currentColor" d="M12.75 6a.75.75 0 0 1 .75-.75h6.75a.75.75 0 0 1 0 1.5H13.5a.75.75 0 0 1-.75-.75Zm6.75 5.25a.75.75 0 0 0 0 1.5h.75a.75.75 0 0 0 0-1.5h-.75Z"/>
      <path fill="currentColor" fill-rule="evenodd" d="M3 12a.75.75 0 0 1 .75-.75h7.595a3.001 3.001 0 1 1 0 1.5H3.75A.75.75 0 0 1 3 12Zm11.25 1.5a1.5 1.5 0 1 1 0-3 1.5 1.5 0 0 1 0 3Z"/>
      <path fill="currentColor" d="M13.5 17.25a.75.75 0 0 0 0 1.5h6.75a.75.75 0 0 0 0-1.5H13.5Z"/>
      <path fill="currentColor" fill-rule="evenodd" d="M3 18a.75.75 0 0 1 .75-.75h1.595a3.001 3.001 0 0 1 5.905.75 3 3 0 0 1-5.905.75H3.75A.75.75 0 0 1 3 18Zm3.75 0a1.5 1.5 0 1 1 3 0 1.5 1.5 0 0 1-3 0Z"/>
    </symbol>
    <symbol id="sort-tool" viewBox="0 0 24 24">
      <path fill="currentColor" d="M3.75 4.5a.75.75 0 0 0 0 1.5h16.5a.75.75 0 0 0 0-1.5H3.75ZM6 9a.75.75 0 0 0 0 1.5h12A.75.75 0 0 0 18 9H6Zm1.5 5.25a.75.75 0 0 1 .75-.75h7.5a.75.75 0 0 1 0 1.5h-7.5a.75.75 0 0 1-.75-.75Zm3 3.75a.75.75 0 0 0 0 1.5h3a.75.75 0 0 0 0-1.5h-3Z"/>
    </symbol>
    <symbol id="stack" viewBox="0 0 24 24">
      <path fill="currentColor" fill-rule="evenodd" d="M11.614 3.107a.75.75 0 0 1 .772 0l7.5 4.5a.75.75 0 0 1 0 1.286l-7.5 4.5a.75.75 0 0 1-.772 0l-7.5-4.5a.75.75 0 0 1 0-1.286l7.5-4.5ZM5.958 8.25 12 11.875l6.042-3.625L12 4.625 5.958 8.25Z"/>
      <path fill="currentColor" d="M3.857 11.614a.75.75 0 0 1 1.029-.257L12 15.625l7.114-4.268a.75.75 0 1 1 .772 1.286l-7.5 4.5a.75.75 0 0 1-.772 0l-7.5-4.5a.75.75 0 0 1-.257-1.029Z"/>
      <path fill="currentColor" d="M4.886 15.107a.75.75 0 1 0-.772 1.286l7.5 4.5a.75.75 0 0 0 .772 0l7.5-4.5a.75.75 0 0 0-.772-1.286L12 19.375l-7.114-4.268Z"/>
    </symbol>
    <symbol id="star" viewBox="0 0 24 24">
      <path fill="currentColor" fill-rule="evenodd" d="M12 4.118a.75.75 0 0 1 .672.418l2.143 4.341 4.793.696a.75.75 0 0 1 .415 1.28l-3.467 3.38.818 4.773a.75.75 0 0 1-1.088.79L12 17.544l-4.286 2.252a.75.75 0 0 1-1.088-.79l.818-4.773-3.468-3.38a.75.75 0 0 1 .416-1.28l4.792-.696 2.144-4.341A.75.75 0 0 1 12 4.118Zm0 2.444-1.645 3.332a.75.75 0 0 1-.565.41l-3.678.535 2.662 2.595a.75.75 0 0 1 .215.664l-.628 3.664 3.29-1.73a.75.75 0 0 1 .698 0l3.29 1.73-.628-3.664a.75.75 0 0 1 .216-.664l2.661-2.595-3.678-.534a.75.75 0 0 1-.565-.41L12 6.561Z"/>
    </symbol>
    <symbol id="star-add" viewBox="0 0 24 24">
      <path fill="currentColor" d="M12 3.735a.75.75 0 0 1 .673.418l2.143 4.342 4.792.696a.75.75 0 0 1 .416 1.279l-2.12 2.067a.75.75 0 1 1-1.048-1.074l1.032-1.006-3.678-.535a.75.75 0 0 1-.565-.41L12 6.179l-1.645 3.333a.75.75 0 0 1-.565.41l-3.678.535 2.662 2.595a.75.75 0 0 1 .215.663l-.628 3.664 2.54-1.334a.75.75 0 0 1 .697 1.327l-3.884 2.042a.75.75 0 0 1-1.088-.79l.818-4.774-3.467-3.38a.75.75 0 0 1 .415-1.28l4.792-.695 2.144-4.342A.75.75 0 0 1 12 3.735Zm4.5 10.515a.75.75 0 0 1 .75.75v1.5h1.5a.75.75 0 0 1 0 1.5h-1.5v1.5a.75.75 0 0 1-1.5 0V18h-1.5a.75.75 0 0 1 0-1.5h1.5V15a.75.75 0 0 1 .75-.75Z"/>
    </symbol>
    <symbol id="star-rate" viewBox="0 0 24 24">
      <path fill="currentColor" fill-rule="evenodd" d="M12 4.5a.75.75 0 0 1 .714.522l1.51 4.728h4.526a.75.75 0 0 1 .456 1.345l-3.617 2.771 1.511 4.652a.75.75 0 0 1-1.154.839L12 16.49l-3.946 2.867a.75.75 0 0 1-1.154-.839l1.511-4.652-3.617-2.77A.75.75 0 0 1 5.25 9.75h4.527l1.509-4.728A.75.75 0 0 1 12 4.5Zm0 3.217-.961 3.011a.75.75 0 0 1-.714.522H7.462l2.283 1.748a.75.75 0 0 1 .257.828l-.962 2.96 2.52-1.83a.75.75 0 0 1 .88 0l2.52 1.83-.962-2.96a.75.75 0 0 1 .257-.828l2.283-1.748h-2.863a.75.75 0 0 1-.714-.522L12 7.717Z"/>
    </symbol>
    <symbol id="star-remove" viewBox="0 0 24 24">
      <path fill="currentColor" d="M12.673 4.153a.75.75 0 0 0-1.345 0L9.184 8.494l-4.793.697a.75.75 0 0 0-.416 1.28l3.468 3.38-.818 4.772a.75.75 0 0 0 1.088.79l3.884-2.04a.75.75 0 1 0-.698-1.328L8.36 17.379l.628-3.664a.75.75 0 0 0-.215-.664l-2.662-2.594 3.678-.535a.75.75 0 0 0 .565-.41L12 6.179l1.645 3.333a.75.75 0 0 0 .565.41l3.678.535-1.032 1.006a.75.75 0 1 0 1.047 1.074l2.12-2.067a.75.75 0 0 0-.415-1.28l-4.793-.696-2.142-4.341ZM14.25 16.5a.75.75 0 0 0 0 1.5h4.5a.75.75 0 0 0 0-1.5h-4.5Z"/>
    </symbol>
    <symbol id="stopwatch" viewBox="0 0 24 24">
      <path fill="currentColor" d="M9 3.75A.75.75 0 0 1 9.75 3h4.5a.75.75 0 0 1 0 1.5h-1.5a.75.75 0 0 1-1.5 0h-1.5A.75.75 0 0 1 9 3.75Zm3.75 6.75a.75.75 0 0 0-1.5 0v3c0 .414.336.75.75.75h3a.75.75 0 0 0 0-1.5h-2.25V10.5Z"/>
      <path fill="currentColor" fill-rule="evenodd" d="M12 6a7.5 7.5 0 1 0 0 15 7.5 7.5 0 0 0 0-15Zm-6 7.5a6 6 0 1 1 12 0 6 6 0 0 1-12 0Z"/>
    </symbol>
    <symbol id="support" viewBox="0 0 24 24">
      <path fill="currentColor" fill-rule="evenodd" d="M5.635 5.634a9.011 9.011 0 0 1 12.723-.006l.007.007.007.006a8.998 8.998 0 0 1 0 12.718l-.007.006-.006.007a8.998 8.998 0 0 1-12.724-.007h-.001a9.011 9.011 0 0 1 0-12.73h.001Zm1.617.558a7.513 7.513 0 0 1 9.495 0l-2.14 2.14a4.508 4.508 0 0 0-5.21.004L7.252 6.192Zm1.084 3.205L6.192 7.252a7.513 7.513 0 0 0 0 9.495l2.14-2.14a4.508 4.508 0 0 1 .004-5.21Zm1.056 6.271-2.14 2.14a7.499 7.499 0 0 0 9.496 0l-2.137-2.136a4.508 4.508 0 0 1-5.219-.004Zm6.28-1.057 2.137 2.137a7.499 7.499 0 0 0 0-9.496l-2.14 2.14a4.508 4.508 0 0 1 .002 5.219Zm-5.79-4.728a3.003 3.003 0 0 1 4.243 0 3.003 3.003 0 0 1 0 4.242 3.003 3.003 0 0 1-4.242 0 3.003 3.003 0 0 1 0-4.242Z"/>
    </symbol>
    <symbol id="switches" viewBox="0 0 24 24">
      <path fill="currentColor" fill-rule="evenodd" d="M7.875 11.25a4.125 4.125 0 0 1 0-8.25h8.25a4.111 4.111 0 0 1 4.125 4.125 4.111 4.111 0 0 1-4.125 4.125h-8.25ZM5.25 7.125a2.625 2.625 0 1 1 5.25 0 2.625 2.625 0 0 1-5.25 0ZM11.057 4.5h5.068a2.611 2.611 0 0 1 2.625 2.625 2.611 2.611 0 0 1-2.625 2.625h-5.068A4.108 4.108 0 0 0 12 7.125c0-.997-.354-1.912-.943-2.625ZM16.125 21a4.125 4.125 0 1 0 0-8.25h-8.25a4.111 4.111 0 0 0-4.125 4.125A4.111 4.111 0 0 0 7.875 21h8.25Zm-8.25-6.75a2.611 2.611 0 0 0-2.625 2.625A2.611 2.611 0 0 0 7.875 19.5h5.068A4.108 4.108 0 0 1 12 16.875c0-.997.354-1.912.943-2.625H7.875Zm8.25 0a2.625 2.625 0 1 0 0 5.25 2.625 2.625 0 0 0 0-5.25Z"/>
    </symbol>
    <symbol id="tag" viewBox="0 0 24 24">
      <path fill="currentColor" fill-rule="evenodd" d="M4.5 3.75a.75.75 0 0 0-.75.75V12c0 .199.079.39.22.53l7.06 7.062a2.252 2.252 0 0 0 3.182-.001l5.379-5.38a2.25 2.25 0 0 0 0-3.182l-7.06-7.06A.75.75 0 0 0 12 3.75H4.5Zm6.748 5.347 7.028 4.309.254-.255a.752.752 0 0 0 0-1.06L11.69 5.25H5.25v6.44l6.84 6.84a.75.75 0 0 0 1.06 0l5.126-5.124-7.028-4.31a2.25 2.25 0 1 1-4.496-.193 2.25 2.25 0 0 1 4.496.194ZM8.25 9a.75.75 0 1 1 1.5 0 .75.75 0 0 1-1.5 0Z"/>
    </symbol>
    <symbol id="tags-stack" viewBox="0 0 24 24">
      <path fill="currentColor" d="M4.5 3.75A.75.75 0 0 1 5.25 3h6a.75.75 0 0 1 .53.22l7.5 7.5a.75.75 0 1 1-1.06 1.06L10.94 4.5H5.25a.75.75 0 0 1-.75-.75Z"/>
      <path fill="currentColor" d="M3 6.75A.75.75 0 0 1 3.75 6h6a.75.75 0 0 1 .53.22l7.06 7.06a2.25 2.25 0 0 1 0 3.183l-1.264-.857.204-.204a.751.751 0 0 0 0-1.061L9.44 7.5H4.5v.266L3 6.75Z"/>
      <path fill="currentColor" fill-rule="evenodd" d="M4.5 7.766 3 6.75v6c0 .199.079.39.22.53l7.06 7.06a2.25 2.25 0 0 0 3.183 0l3.878-3.877-1.265-.857-7.105-4.812a1.5 1.5 0 0 0-2.29-1.551L4.5 7.766Zm2.181 1.477L4.5 7.766v4.673l6.84 6.841a.752.752 0 0 0 1.062 0l3.674-3.674-7.105-4.812a1.5 1.5 0 1 1-2.29-1.55Z"/>
    </symbol>
    <symbol id="time-alarm" viewBox="0 0 24 24">
      <path fill="currentColor" d="M8.03 4.28a.75.75 0 0 0-1.06-1.06L3.22 6.97a.75.75 0 0 0 1.06 1.06l3.75-3.75Zm4.72 3.97a.75.75 0 0 0-1.5 0V12c0 .414.336.75.75.75h3.75a.75.75 0 0 0 0-1.5h-3v-3Z"/>
      <path fill="currentColor" fill-rule="evenodd" d="M12 19.5c1.58 0 3.047-.49 4.257-1.324L18.15 20.7a.75.75 0 1 0 1.2-.9l-1.948-2.597a7.5 7.5 0 1 0-10.804 0L4.65 19.8a.75.75 0 1 0 1.2.9l1.893-2.524A7.465 7.465 0 0 0 12 19.5ZM12 6a6 6 0 1 0 3.902 10.558l.011-.01.008-.006A6 6 0 0 0 12 6Z"/>
      <path fill="currentColor" d="M17.03 3.22a.75.75 0 1 0-1.06 1.06l3.75 3.75a.75.75 0 1 0 1.06-1.06l-3.75-3.75Z"/>
    </symbol>
    <symbol id="timeline" viewBox="0 0 24 24">
      <path fill="currentColor" d="M12 3a.75.75 0 0 1 .75.75V6h.75a.75.75 0 0 1 0 1.5h-.75v9h.75a.75.75 0 0 1 0 1.5h-.75v2.25a.75.75 0 0 1-1.5 0v-7.5h-.75a.75.75 0 0 1 0-1.5h.75v-7.5A.75.75 0 0 1 12 3Z"/>
      <path fill="currentColor" fill-rule="evenodd" d="M15 4.5a.75.75 0 0 1 .75-.75h4.5a.75.75 0 0 1 .75.75V9a.75.75 0 0 1-.75.75h-4.5A.75.75 0 0 1 15 9V4.5Zm4.5.75h-3v3h3v-3ZM15 15a.75.75 0 0 1 .75-.75h4.5A.75.75 0 0 1 21 15v4.5a.75.75 0 0 1-.75.75h-4.5a.75.75 0 0 1-.75-.75V15Zm4.5.75h-3v3h3v-3ZM9 14.25a.75.75 0 0 1-.75.75h-4.5a.75.75 0 0 1-.75-.75v-4.5A.75.75 0 0 1 3.75 9h4.5a.75.75 0 0 1 .75.75v4.5Zm-1.5-.75v-3h-3v3h3Z"/>
    </symbol>
    <symbol id="trash-can" viewBox="0 0 24 24">
      <path fill="currentColor" fill-rule="evenodd" d="M9 3a.75.75 0 0 0-.75.75V6h-4.5a.75.75 0 0 0 0 1.5h16.5a.75.75 0 0 0 0-1.5h-4.5V3.75A.75.75 0 0 0 15 3H9Zm5.25 3V4.5h-4.5V6h4.5Z"/>
      <path fill="currentColor" d="M5.946 9.002a.75.75 0 0 1 .802.694l.653 9.114a.729.729 0 0 0 .232.483l.007.007c.138.13.313.2.505.2h7.71a.772.772 0 0 0 .513-.207.76.76 0 0 0 .232-.495l.652-9.102a.75.75 0 1 1 1.496.108l-.653 9.11a2.26 2.26 0 0 1-.712 1.483 2.271 2.271 0 0 1-1.528.603h-7.71a2.223 2.223 0 0 1-1.531-.607 2.226 2.226 0 0 1-.71-1.488l-.652-9.101a.75.75 0 0 1 .694-.802Z"/>
    </symbol>
    <symbol id="unlocked" viewBox="0 0 24 24">
      <path fill="currentColor" d="M12.083 3h-.08A4.463 4.463 0 0 0 7.5 7.417v.833a.75.75 0 1 0 1.5 0v-.82a2.963 2.963 0 0 1 2.993-2.93h.078c.953.011 1.796.47 2.33 1.178a.75.75 0 1 0 1.197-.905A4.458 4.458 0 0 0 12.083 3Z"/>
      <path fill="currentColor" fill-rule="evenodd" d="M9.75 15.75a2.25 2.25 0 1 1 4.5 0 2.25 2.25 0 0 1-4.5 0ZM12 15a.75.75 0 1 0 0 1.5.75.75 0 0 0 0-1.5Z"/>
      <path fill="currentColor" fill-rule="evenodd" d="M4.5 12.75a2.25 2.25 0 0 1 2.25-2.25h10.5a2.25 2.25 0 0 1 2.25 2.25v6A2.25 2.25 0 0 1 17.25 21H6.75a2.25 2.25 0 0 1-2.25-2.25v-6ZM6.75 12a.75.75 0 0 0-.75.75v6c0 .414.336.75.75.75h10.5a.75.75 0 0 0 .75-.75v-6a.75.75 0 0 0-.75-.75H6.75Z"/>
    </symbol>
    <symbol id="verified" viewBox="0 0 24 24">
      <path fill="currentColor" d="M16.32 8.738a.75.75 0 1 0-1.14-.976l-3.972 4.635L9.53 10.72a.75.75 0 0 0-1.06 1.06l2.25 2.25a.75.75 0 0 0 1.1-.042l4.5-5.25Z"/>
      <path fill="currentColor" fill-rule="evenodd" d="M12.163 3.018a.75.75 0 0 0-.326 0l-6.75 1.5a.75.75 0 0 0-.587.732V12c0 2.98 1.92 5.051 3.686 6.327a14.966 14.966 0 0 0 3.55 1.875l.018.006.006.002.002.001a.753.753 0 0 0 .476 0h.002l.006-.002.018-.007a7.12 7.12 0 0 0 .298-.11 14.964 14.964 0 0 0 3.252-1.765C17.58 17.05 19.5 14.98 19.5 12V5.25a.75.75 0 0 0-.587-.732l-6.75-1.5ZM12 19.5c-.237.712-.238.711-.238.711L12 19.5Zm.238.711L12 19.5l.238.711Zm-.22-1.517-.018.007-.018-.007a13.461 13.461 0 0 1-2.918-1.583C7.455 15.949 6 14.27 6 12V5.852l6-1.334 6 1.334V12c0 2.27-1.455 3.949-3.064 5.11a13.463 13.463 0 0 1-2.918 1.584Z"/>
    </symbol>
    <symbol id="warning-sign" viewBox="0 0 24 24">
      <path fill="currentColor" d="M12 8.25a.75.75 0 0 1 .75.75v4.5a.75.75 0 0 1-1.5 0V9a.75.75 0 0 1 .75-.75Zm1.125 7.875c0 .622-.502 1.125-1.125 1.125a1.123 1.123 0 0 1-1.125-1.125c0-.623.502-1.125 1.125-1.125s1.125.502 1.125 1.125Z"/>
      <path fill="currentColor" fill-rule="evenodd" d="M3.219 16.973a.755.755 0 0 1 .048-.111L9.95 4.232c.194-.368.483-.684.858-.903A2.313 2.313 0 0 1 12 3c.419 0 .831.11 1.199.334.365.221.651.53.847.89l.004.008 6.682 12.629c.19.357.279.748.268 1.145a2.29 2.29 0 0 1-.336 1.136 2.363 2.363 0 0 1-.833.812l-.015.009a2.296 2.296 0 0 1-1.143.287H5.317a2.307 2.307 0 0 1-1.98-1.123 2.296 2.296 0 0 1-.12-2.153ZM12 4.5a.803.803 0 0 0-.42.116l-.015.009a.753.753 0 0 0-.289.308l-6.634 12.54a.757.757 0 0 1-.041.091.792.792 0 0 0 .022.787l.009.015a.809.809 0 0 0 .686.384h13.386a.785.785 0 0 0 .383-.098.864.864 0 0 0 .3-.294.79.79 0 0 0 .114-.394.792.792 0 0 0-.092-.4h-.001l-6.68-12.626a.853.853 0 0 0-.306-.322A.803.803 0 0 0 12 4.5Z"/>
    </symbol>
    <symbol id="webpage" viewBox="0 0 24 24">
      <path fill="currentColor" d="M6 7.5A.75.75 0 1 0 6 6a.75.75 0 0 0 0 1.5Zm3-.75a.75.75 0 1 1-1.5 0 .75.75 0 0 1 1.5 0Z"/>
      <path fill="currentColor" fill-rule="evenodd" d="M3 6a2.25 2.25 0 0 1 2.25-2.25h13.5A2.25 2.25 0 0 1 21 6v12a2.25 2.25 0 0 1-2.25 2.25H5.25A2.25 2.25 0 0 1 3 18V6Zm1.5 0a.75.75 0 0 1 .75-.75h13.5a.75.75 0 0 1 .75.75v2.25h-15V6Zm3 12.75H5.25A.75.75 0 0 1 4.5 18V9.75h3v9Zm1.5 0h9.75a.75.75 0 0 0 .75-.75V9.75H9v9Z"/>
    </symbol>
    <symbol id="wrench" viewBox="0 0 24 24">
      <path fill="currentColor" fill-rule="evenodd" d="M15.632 3a6.777 6.777 0 0 1 1.906.259.75.75 0 0 1 .324 1.253l-1.78 1.771 1.637 1.63 1.785-1.777a.75.75 0 0 1 1.243.3 5.175 5.175 0 0 1 .084 2.894 5.025 5.025 0 0 1-3.85 3.527 5.814 5.814 0 0 1-2.01-.056l-6.242 7.02a3.22 3.22 0 0 1-4.815.186l-.003-.002a3.32 3.32 0 0 1 .2-4.761l.003-.003 7.035-6.2a3.911 3.911 0 0 1-.117-.987A4.968 4.968 0 0 1 15.632 3Zm.04 1.5a3.468 3.468 0 0 0-3.14 3.559c-.004.321.056.64.177.938a.75.75 0 0 1-.2.844l-7.4 6.522-.001.001a1.82 1.82 0 0 0-.11 2.607 1.719 1.719 0 0 0 2.6-.134l6.554-7.37a.75.75 0 0 1 .77-.222 4.31 4.31 0 0 0 1.818.13 3.526 3.526 0 0 0 2.647-2.452c.054-.216.088-.436.103-.656l-1.241 1.235a.75.75 0 0 1-1.059 0l-2.7-2.687a.75.75 0 0 1 0-1.063L15.747 4.5h-.074Z"/>
    </symbol>
    <symbol id="zoom-in" viewBox="0 0 24 24">
      <path fill="currentColor" d="M11.25 8.25a.75.75 0 0 0-1.5 0v1.5h-1.5a.75.75 0 0 0 0 1.5h1.5v1.5a.75.75 0 0 0 1.5 0v-1.5h1.5a.75.75 0 0 0 0-1.5h-1.5v-1.5Z"/>
      <path fill="currentColor" fill-rule="evenodd" d="M14.713 15.774a6.75 6.75 0 1 1 1.06-1.06l4.257 4.256a.75.75 0 1 1-1.06 1.06l-4.257-4.256ZM5.25 10.5a5.25 5.25 0 1 1 10.5 0 5.25 5.25 0 0 1-10.5 0Z"/>
    </symbol>
    <symbol id="zoom-out" viewBox="0 0 24 24">
      <path fill="currentColor" d="M7.5 10.5a.75.75 0 0 1 .75-.75h4.5a.75.75 0 0 1 0 1.5h-4.5a.75.75 0 0 1-.75-.75Z"/>
      <path fill="currentColor" fill-rule="evenodd" d="M14.713 15.774a6.75 6.75 0 1 1 1.06-1.06l4.257 4.256a.75.75 0 1 1-1.06 1.06l-4.257-4.256ZM5.25 10.5a5.25 5.25 0 1 1 10.5 0 5.25 5.25 0 0 1-10.5 0Z"/>
    </symbol>
  </defs>
</svg>
